<?xml version="1.0" encoding="utf-8"?>
<!-- Generator: Adobe Illustrator 26.3.1, SVG Export Plug-In . SVG Version: 6.00 Build 0)  -->
<svg version="1.1" id="Слой_1" xmlns="http://www.w3.org/2000/svg" xmlns:xlink="http://www.w3.org/1999/xlink" x="0px" y="0px"
	 viewBox="0 0 70 197" style="enable-background:new 0 0 70 197;" xml:space="preserve">
<style type="text/css">
	.st0{fill:#888586;}
	.st1{fill:#DAB1D2;}
	.st2{fill:#2D1E3D;}
	.st3{fill:#322442;}
	.st4{fill:#362945;}
	.st5{fill:#72B9BD;}
	.st6{fill:#3D2F4A;}
	.st7{fill:#332543;}
	.st8{fill:#563A70;}
	.st9{fill:#2E2240;}
	.st10{fill:#302346;}
	.st11{fill:#68B4C3;}
	.st12{fill:#415761;}
	.st13{fill:#684D69;}
	.st14{fill:#5699A1;}
	.st15{fill:#422A4C;}
	.st16{fill:#4A888D;}
	.st17{fill:#443952;}
	.st18{fill:#482F5D;}
	.st19{fill:#2B2237;}
	.st20{fill:#563773;}
	.st21{fill:#453257;}
	.st22{fill:#407B81;}
	.st23{fill:#372846;}
	.st24{fill:#402E53;}
	.st25{fill:#9B70AA;}
	.st26{fill:#604374;}
	.st27{fill:#4A4667;}
	.st28{fill:#56415C;}
	.st29{fill:#2D2E4C;}
	.st30{fill:#3A2C5A;}
	.st31{fill:#47325E;}
	.st32{fill:#543A6A;}
	.st33{fill:#4F5C6C;}
	.st34{fill:#422F55;}
	.st35{fill:#3E435D;}
	.st36{fill:#5E9B9E;}
	.st37{fill:#3C305A;}
	.st38{fill:#5E466A;}
	.st39{fill:#AC94B0;}
	.st40{fill:#9B7B9B;}
	.st41{fill:#453954;}
	.st42{fill:#614B6F;}
	.st43{fill:#52386C;}
	.st44{fill:#3F7588;}
	.st45{fill:#4D616C;}
	.st46{fill:#466374;}
	.st47{fill:#4E3963;}
	.st48{fill:#47366E;}
	.st49{fill:#66AEB1;}
	.st50{fill:#6E576D;}
	.st51{fill:#502E72;}
	.st52{fill:#312347;}
	.st53{fill:#4B7E85;}
	.st54{fill:#4D4761;}
	.st55{fill:#5B8193;}
	.st56{fill:#2B1F3B;}
	.st57{fill:#4A4255;}
	.st58{fill:#51366F;}
	.st59{fill:#645C71;}
	.st60{fill:#54455B;}
	.st61{fill:#5D5067;}
	.st62{fill:#36263F;}
	.st63{fill:#96849C;}
	.st64{fill:#301F43;}
	.st65{fill:#D6ACCF;}
	.st66{fill:#4D4458;}
	.st67{fill:#79657B;}
	.st68{fill:#060607;}
	.st69{fill:#543387;}
	.st70{fill:#B88EBF;}
	.st71{fill:#7A4989;}
	.st72{fill:#593168;}
	.st73{fill:#56358B;}
	.st74{fill:#58338A;}
	.st75{fill:#512D83;}
	.st76{fill:#372153;}
	.st77{fill:#301E4F;}
	.st78{fill:#332254;}
	.st79{fill:#32204E;}
	.st80{fill:#6FC6DC;}
	.st81{fill:#9FD6E2;}
	.st82{fill:#306B76;}
	.st83{fill:#5E368C;}
	.st84{fill:#7A509C;}
	.st85{fill:#562F88;}
	.st86{fill:#36204F;}
	.st87{fill:#5A4091;}
	.st88{fill:#5D378D;}
	.st89{fill:#60C3E3;}
	.st90{fill:#9CD5E9;}
	.st91{fill:#4185A1;}
	.st92{fill:#5F408A;}
	.st93{fill:#7070B2;}
	.st94{fill:#3B4B67;}
	.st95{fill:#572F87;}
	.st96{fill:#562C7E;}
	.st97{fill:#3C92A5;}
	.st98{fill:#60378C;}
	.st99{fill:#DAB2D4;}
	.st100{fill:#552F87;}
	.st101{fill:#704694;}
	.st102{fill:#5F3B8F;}
	.st103{fill:#774E9A;}
	.st104{fill:#6A4494;}
	.st105{fill:#5E61A9;}
	.st106{fill:#9E72AC;}
	.st107{fill:#B98DBF;}
	.st108{fill:#5464AC;}
	.st109{fill:#5F398C;}
	.st110{fill:#5BA3CB;}
	.st111{fill:#613E91;}
	.st112{fill:#584A99;}
	.st113{fill:#508FC7;}
	.st114{fill:#9166A9;}
	.st115{fill:#724579;}
	.st116{fill:#A67CB4;}
	.st117{fill:#583165;}
	.st118{fill:#8B60A4;}
	.st119{fill:#724A98;}
	.st120{fill:#694293;}
	.st121{fill:#55C1E2;}
	.st122{fill:#4A99D4;}
	.st123{fill:#976FAE;}
	.st124{fill:#9A73B1;}
	.st125{fill:#966EAE;}
	.st126{fill:#6D4695;}
	.st127{fill:#734C99;}
	.st128{fill:#70C8DE;}
	.st129{fill:#6F88C4;}
	.st130{fill:#7176B4;}
	.st131{fill:#45598C;}
	.st132{fill:#365C85;}
	.st133{fill:#32567C;}
	.st134{fill:#252D48;}
	.st135{fill:#334A77;}
	.st136{fill:#334A78;}
	.st137{fill:#B5A4D0;}
	.st138{fill:#6D4495;}
	.st139{fill:#3F285F;}
	.st140{fill:#4C2B69;}
	.st141{fill:#2F1D49;}
	.st142{fill:#562E69;}
	.st143{fill:#2E1B45;}
	.st144{fill:#5C3270;}
	.st145{fill:#684092;}
	.st146{fill:#453671;}
	.st147{fill:#45285F;}
	.st148{fill:#865B9E;}
	.st149{fill:#7C559F;}
	.st150{fill:#714F9B;}
	.st151{fill:#936DAD;}
	.st152{fill:#79509B;}
	.st153{fill:#684293;}
	.st154{fill:#6F4796;}
	.st155{fill:#745CA3;}
	.st156{fill:#9B71AE;}
	.st157{fill:#746DAF;}
	.st158{fill:#5E3D72;}
	.st159{fill:#422655;}
	.st160{fill:#754B99;}
	.st161{fill:#795989;}
	.st162{fill:#717EBB;}
	.st163{fill:#3A2659;}
	.st164{fill:#7760A7;}
</style>
<path class="st0" d="M25.6,159.7L25.6,159.7C25.6,159.6,25.6,159.6,25.6,159.7C25.7,159.7,25.7,159.6,25.6,159.7L25.6,159.7z"/>
<path class="st1" d="M21.6,169.5c0,0.1-0.1,0.2-0.2,0.3c-0.1,0.1-0.2,0.2-0.4,0.2c-0.1-0.1-0.2-0.1-0.3-0.1c-0.1,0-0.2,0-0.3,0.1
	c-0.4,0.4-0.9,0.7-1,1.3c-0.4,0.4-0.7,0.9-1,1.4c-0.1,0.2-0.3,0.3-0.6,0.4c-0.2,0.1-0.5,0.1-0.7,0c-1-0.7-0.7-1.7-0.6-2.7
	c0.4-1,0-2.1,0.4-3.2c0.1-0.2,0.3-0.5,0.4-0.4c1.2,1.1,2.8,0.7,4.2,1C22.2,168.4,21.5,169,21.6,169.5z"/>
<path class="st2" d="M28.4,137.1c0.1,0.4,0,0.8-0.1,1.1c-0.1,0.2-0.2,0.5-0.2,0.8c0,0.1,0,0.1-0.1,0.2c-0.3,0.1-0.5-0.1-0.6-0.4
	c-0.1-0.4-0.1-0.8,0-1.2c0.4-1.8-0.1-3.7,0.5-5.5c0.1-0.4-0.2-0.7-0.6-0.7c-0.4-0.1-1.1,0-1.6-0.1c-0.7-0.2-1.6-0.1-2.2-0.8
	c0.2-0.9,1-0.6,1.5-0.7c1.3-0.1,2.7,0.3,3.9-0.3c0.1-0.1,0.2-0.2,0.3-0.2c0.1,0,0.2,0,0.4,0l0.2,0.3c0.1,0.1,0.1,0.3,0.1,0.4
	c0,0.2,0,0.3-0.1,0.4c-0.6,1.1-1,2.4-1.2,3.6C28.3,135.1,28.8,136.1,28.4,137.1z"/>
<path class="st3" d="M29.7,129.2l-0.3,0.3c-1.2-0.1-2.1-1-3.2-1.3c-1-0.3-2-0.5-3-0.5c-0.1,0-0.2-0.1-0.3-0.2
	c-0.1-0.1-0.1-0.2-0.1-0.3c0.2-1,0.1-2.1,1-2.9c0.6,0.3,0.3,0.8,0.2,1.2c-0.1,0.7,0,1.2,0.9,1.4c1.2,0.2,2.4,0.6,3.5,1.1
	C28.8,128.3,29.5,128.5,29.7,129.2z"/>
<path class="st4" d="M14.8,126c1.2-1,2.6-0.6,3.9-0.5c1.1,0.1,1.1,0.2,1.2-0.9l0.2-1.7c0,0,0.1,0,0.1,0c0,0,0.1,0,0.1,0
	c0,0,0.1,0,0.1,0.1c0,0,0.1,0.1,0.1,0.1c0.1,0.2,0.2,0.5,0.2,0.7c0.1,0.8,0,1.6-0.1,2.4c-0.1,0.1-0.1,0.2-0.2,0.3
	c-0.1,0.1-0.2,0.1-0.4,0.2c-1.5,0-2.9,0-4.4-0.1c-0.2,0-0.3-0.1-0.5-0.1c-0.1,0-0.2-0.1-0.2-0.1C14.9,126.1,14.8,126,14.8,126z"/>
<path class="st5" d="M7.1,195.8c-0.6-1-0.8-2.1-0.8-3.2c-0.3-1.6-0.3-3.3,0.1-4.8c0.1,0.1,0.2,0.1,0.3,0.2c0.1,0.1,0.1,0.2,0.1,0.3
	c0.1,0.5,0.2,1,0.3,1.5c0.2,1.4,0,2.8,0.2,4.3c0.1,0.4,0.2,0.8,0.2,1.2c0,0.1-0.1,0.2-0.2,0.3C7.3,195.8,7.2,195.8,7.1,195.8z"/>
<path class="st6" d="M22.6,166.3l-0.1,0.9c0,0-0.1,0-0.1,0c0,0-0.1,0-0.1,0c0,0-0.1,0-0.1-0.1c0,0-0.1-0.1-0.1-0.1
	c-0.2-0.5-0.3-1.1-0.3-1.6c0.4-1.9-0.1-3.9,1.1-5.7c0.8,0.3,0.4,0.9,0.4,1.4c-0.1,1.4-0.2,2.8-0.4,4.1
	C22.7,165.6,22.8,166,22.6,166.3z"/>
<path class="st7" d="M23.9,125.6c0-0.4,0-0.8-0.3-1.1c-0.5-0.4-0.3-0.9-0.2-1.3c0.3-1.4,0.4-2.8-0.8-3.9c0.8-0.4,1.6-0.5,2.2,0.4
	l-0.3,2.3c-0.2,0.4,0,0.9-0.2,1.4C24.3,124,24.2,124.8,23.9,125.6z"/>
<path class="st8" d="M7.5,171.7c-0.1-2.1,0-4.3,0.2-6.4c0.2,0.1,0.3,0.2,0.3,0.4c0.3,1.1,0,2.3,0.3,3.4c0.1,0.8,0.2,1.7,0.1,2.6
	c0,0.2-0.1,0.3-0.1,0.5c0,0.1-0.1,0.1-0.2,0.2c-0.1,0.1-0.1,0.1-0.2,0.1C7.6,172.4,7.7,171.9,7.5,171.7z"/>
<path class="st9" d="M24.8,119.6c-0.7-0.3-1.5-0.4-2.3-0.3c0,0-0.1,0-0.1,0c0,0-0.1,0-0.1,0c0,0-0.1,0-0.1-0.1c0,0,0-0.1,0-0.1
	c0-0.1,0.1-0.2,0.2-0.3c0.1-0.1,0.2-0.1,0.3-0.2c1.5-0.3,1.5-0.3,0.5-1.9l0.7-0.4C25.5,117.5,25.6,117.8,24.8,119.6z"/>
<path class="st10" d="M22.7,118.9l-0.4,0.4c-0.3,0.1-0.6,0.2-0.9,0.1c-0.3-0.1-0.6-0.2-0.8-0.4c-0.1-0.1-0.1-0.2-0.1-0.4
	c0-0.1,0-0.3,0.1-0.4c-0.1-1.4,0.8-1.7,1.9-2c0,0.1,0,0.3,0.1,0.4C21.8,117.5,22.1,118.2,22.7,118.9z"/>
<path class="st11" d="M23.9,152.7c0.3,1.1,0.4,2.2,0.3,3.3c-0.2,0.3-0.1,0.7-0.4,0.9l-0.2,0.1c-0.1,0.1-0.3,0.1-0.4,0
	c-0.1-0.1-0.2-0.1-0.2-0.2c-0.1-0.1-0.1-0.2-0.1-0.3c0-0.1,0-0.3,0.1-0.4c0.6-0.9,0.1-2,0.4-3c0-0.1,0.1-0.3,0.2-0.4
	c0.1,0,0.1-0.1,0.2,0C23.8,152.6,23.8,152.6,23.9,152.7z"/>
<path class="st12" d="M6.5,188.5l-0.1-0.6c0.2-2.2,0-4.4,0.4-6.5c0.6,0.4,0.5,1,0.5,1.6v3.4c0.1,0.7,0,1.4-0.3,2
	c-0.1,0.1-0.1,0.1-0.2,0.1C6.7,188.5,6.6,188.5,6.5,188.5z"/>
<path class="st13" d="M8.9,157.9l0.3-3.2c0.1-0.2,0.2-0.4,0.5-0.4c0.1,0.1,0.2,0.2,0.3,0.3c0.1,0.7-0.3,1.4,0.3,2
	c0.1,0.1,0.2,0.2,0.2,0.3c0,0.1,0,0.1,0,0.2c0,0.1,0,0.1-0.1,0.2c-0.1,0.1-0.3,0.3-0.4,0.4c-0.2,0.2-0.4,0.4-0.6,0.5
	c-0.1,0-0.1,0-0.2,0c-0.1,0-0.1,0-0.2,0C9,158.1,8.9,158,8.9,157.9z"/>
<path class="st14" d="M23.9,152.7h-0.3c-0.5-0.8-0.7-1.7-0.6-2.6c0.1-0.4,0.2-0.8,0.2-1.2c0.1-0.4-0.1-1,0.6-1.2L23.9,152.7z"/>
<path class="st15" d="M13.9,128.6c0.2-0.9,0.1-1.9,0.9-2.6l0.1,0.1l0.1,0.1c0,0.1,0,0.1,0,0.2c0,0.2,0.1,0.4,0.2,0.5
	c0.1,0.1,0.1,0.2,0.1,0.4c0,0.1,0,0.3,0,0.4c-0.1,0.4-0.4,0.8-0.7,1.1c-0.2,0.2-0.4,0.3-0.6,0.3C13.9,129,13.7,128.8,13.9,128.6z"/>
<path class="st16" d="M11.9,186.2l-1.3,3.5c-0.3,0-0.4-0.2-0.5-0.4c0-1.3,0.4-2.5,1.3-3.5C11.7,185.7,11.8,185.9,11.9,186.2z"/>
<path class="st17" d="M8.7,158.7l0.1-0.5c0,0,0,0,0.1,0c0,0,0,0,0.1,0c0,0,0.1,0,0.1,0c0,0,0,0,0.1,0h0.1c0.2,0.3,0.3,0.5,0.3,0.8
	c0,0.3,0,0.6-0.1,0.9c-0.2,0.6-0.2,1.3-0.4,1.9c-0.1,0.1-0.2,0.3-0.3,0.3c-0.3,0-0.4-0.2-0.5-0.4c0-0.8,0.1-1.5,0.3-2.3
	C8.6,159.3,8.7,159,8.7,158.7z"/>
<path class="st18" d="M13.9,128.6l0.3,0.4c0.4,0.9-0.3,1.7-0.3,2.6c-0.2,0.4-0.2,1-1,1c-0.1-0.1-0.1-0.2-0.1-0.4
	c0-0.1,0-0.2,0.1-0.4C13,130.7,13.4,129.6,13.9,128.6z"/>
<path class="st19" d="M9.5,152.4c-0.2-1.7-0.2-3.4,0-5.1c0,0,0.1,0,0.1,0s0.1,0,0.1,0c0,0,0.1,0,0.1,0.1c0,0,0.1,0.1,0.1,0.1
	c0.3,1.5,0.4,3,0.1,4.5C10,152.2,9.8,152.4,9.5,152.4z"/>
<path class="st20" d="M11.1,138.9c0.2-1.1,0.4-2.2,0.9-3.3c0.1,0,0.2,0.1,0.3,0.2c0.1,0.1,0.2,0.2,0.2,0.3c0.1,1-0.3,2.1-0.9,2.9
	c-0.1,0-0.2,0-0.2,0C11.2,139,11.2,139,11.1,138.9z"/>
<path class="st21" d="M23.3,161.2c-0.1-0.4,0.1-1-0.3-1.4c-0.2-0.1-0.3-0.3-0.3-0.5c-0.1-0.2-0.1-0.4,0-0.6c0.1-0.2,0.1-0.5,0.2-0.7
	c0-0.1,0.1-0.2,0.2-0.3c0.1-0.1,0.2-0.2,0.3-0.2c0.1,0,0.2,0,0.2,0.1c0.1,0,0.1,0.1,0.1,0.2c0,0.3,0,0.7-0.1,1
	C23.7,159.5,23.5,160.4,23.3,161.2z"/>
<path class="st22" d="M9.8,191.7l-1.1,2.8c0,0-0.1,0-0.1,0.1c0,0-0.1,0-0.1,0c0,0-0.1,0-0.1,0s-0.1-0.1-0.1-0.1
	c-0.1-0.6-0.1-1.2,0.1-1.7c0.2-0.6,0.5-1.1,1-1.4C9.7,191.3,9.9,191.3,9.8,191.7z"/>
<path class="st23" d="M7.9,165.7c-0.1-0.1-0.1-0.2-0.1-0.3c-0.1-1,0-2,0.3-3c0.1,0.1,0.3,0.2,0.4,0.3c0.1,0.1,0.2,0.3,0.2,0.4
	c0.2,0.8,0,1.7-0.4,2.4c0,0.1-0.1,0.1-0.2,0.2C8.1,165.7,8,165.7,7.9,165.7z"/>
<path class="st24" d="M27,140.5l-1.9,1.9c0,0-0.1,0-0.1,0c0,0-0.1,0-0.1,0c0,0-0.1,0-0.1,0c0,0-0.1,0-0.1-0.1
	c-0.1-0.2-0.1-0.4,0-0.6c0-0.2,0.1-0.4,0.3-0.5c0.5-0.5,0.9-1.1,1.6-1.2c0.1,0,0.1,0,0.2,0c0.1,0,0.1,0.1,0.1,0.1s0.1,0.1,0.1,0.1
	C27,140.4,27,140.5,27,140.5z"/>
<path class="st25" d="M10.1,143.8c-0.1-0.2-0.1-0.5,0-0.7c0-0.2,0.1-0.4,0.3-0.6c0.1,0,0.1,0,0.1,0c0,0,0.1,0.1,0.1,0.1
	c0,0.3,0.2,0.1,0.3,0.1c0.1,0,0.2,0.1,0.3,0.2c0.1,0.2,0.2,0.5,0.3,0.7c0,0.3,0,0.5-0.1,0.8c-0.2,0.1-0.3,0.2-0.5,0.1
	c-0.2,0-0.4-0.1-0.5-0.3C10.3,144.1,10.2,143.9,10.1,143.8z"/>
<path class="st26" d="M10.5,142.8c0-0.1-0.1-0.2-0.1-0.4c0-1,0.3-2,0.7-2.9c0.2,0.2,0.3,0.4,0.4,0.6c0.1,0.3,0.1,0.7,0,1
	c-0.1,0.6-0.3,1.1-0.7,1.6l-0.1,0.1L10.5,142.8z"/>
<path class="st27" d="M24.8,142.5h0.3l-0.9,2.6c-0.1,0-0.1,0.1-0.2,0c-0.1,0-0.1-0.1-0.2-0.1c-0.1-0.2-0.2-0.4-0.2-0.6
	c0-0.2,0-0.4,0.1-0.6C23.9,143.3,24,142.6,24.8,142.5z"/>
<path class="st28" d="M9.5,152.4l0.3-0.4c0.1,0,0.1,0,0.2,0c0.1,0,0.1,0.1,0.2,0.1c0.1,0.1,0.1,0.3,0.2,0.4c0.1,0.5,0,1.1-0.3,1.5
	l-0.2,0.2l-0.2,0.1H9.4c0,0,0,0-0.1,0c0,0,0,0,0-0.1c0,0,0,0,0-0.1c0,0,0-0.1,0-0.1L9.5,152.4z"/>
<path class="st29" d="M6.9,182.9c0-0.5-0.1-1-0.1-1.6l0.1-1.9c0,0,0.1,0,0.1-0.1c0,0,0.1,0,0.1,0c0,0,0.1,0,0.1,0.1
	c0,0,0.1,0.1,0.1,0.1c0.2,0.3,0.3,0.6,0.3,1c0.1,0.8,0,1.6-0.3,2.3C7.2,183,7.1,183,6.9,182.9z"/>
<path class="st30" d="M7.5,171.7c0.2,0.2,0.3,0.4,0.3,0.7c0.4,0.6,0.5,1.4,0.3,2.1c0,0.2,0,0.3-0.1,0.5c-0.1,0.2-0.2,0.3-0.3,0.4
	c-0.3,0-0.4-0.2-0.3-0.5C7.4,173.8,7.4,172.7,7.5,171.7z"/>
<path class="st31" d="M16.8,175.3c-0.3,0.7-0.7,1.4-1.2,2c-0.1-0.1-0.2-0.2-0.3-0.3c-0.1-0.2-0.1-0.5,0-0.7c0.2-0.5,0.4-1.1,1-1.4
	C16.6,174.8,16.7,175.1,16.8,175.3z"/>
<path class="st32" d="M12.9,131.8v0.8c0.5,0.7,0.2,1.3-0.2,1.8c-0.1,0-0.2,0.1-0.2,0.1c-0.1,0-0.2,0-0.2-0.1
	C12.3,133.5,12.5,132.6,12.9,131.8z"/>
<path class="st33" d="M23.9,145h0.3l-0.3,2.3c-0.4,0-0.5-0.3-0.6-0.7c-0.1-0.4,0-0.8,0.1-1.2c0-0.1,0.1-0.2,0.2-0.3
	C23.7,145,23.8,145,23.9,145z"/>
<path class="st34" d="M15.5,176.8l0.1,0.5c-0.1,0.7-0.3,1.3-0.7,1.9c-0.3,0.1-0.4-0.1-0.5-0.3c0-0.7,0.3-1.3,0.7-1.9
	C15.2,176.8,15.3,176.8,15.5,176.8z"/>
<path class="st35" d="M13.9,181.3l-1,2.2c-0.3,0.1-0.4-0.1-0.5-0.3c-0.1-0.2-0.1-0.4,0-0.7c0.2-0.4,0.4-0.8,0.6-1.2
	c0.1-0.1,0.2-0.2,0.4-0.2c0.1,0,0.2,0,0.3,0C13.8,181.2,13.8,181.3,13.9,181.3z"/>
<path class="st36" d="M9.8,191.7l-0.3-0.4c-0.1-0.4-0.1-0.8,0-1.2c0.2-0.4,0.5-0.7,0.8-0.8l0.3,0.3C10.4,190.4,10.2,191.1,9.8,191.7
	z"/>
<path class="st37" d="M7.1,178.1l0.1-1.9c0.1,0,0.2,0,0.3,0c0.1,0,0.2,0.1,0.2,0.2c0.2,1,0.7,2-0.5,2.8C7.1,179,7,178.8,7,178.6
	C7,178.4,7,178.3,7.1,178.1z"/>
<path class="st38" d="M17.5,173.1l0.6-0.2c0.1,0.1,0.1,0.1,0.1,0.2c0,0.1-0.1,0.1-0.1,0.1l-1.2,1.7c-0.1-0.1-0.2-0.2-0.3-0.3
	c0-0.2,0-0.4,0-0.5c0-0.2,0.1-0.3,0.2-0.5C17,173.5,17.2,173.3,17.5,173.1z"/>
<path class="st39" d="M18.4,172.6c0-0.3,0.1-0.5,0.3-0.7c0.2-0.2,0.4-0.4,0.6-0.5c0.1-0.2,0.2-0.1,0.4,0c-0.3,0.6-0.8,1.1-1.2,1.6
	c0,0-0.1-0.1-0.1-0.1c0,0,0-0.1,0-0.1C18.4,172.7,18.4,172.6,18.4,172.6z"/>
<path class="st40" d="M19.7,171.4h-0.4c0.1-0.3,0.3-0.7,0.5-0.9c0.2-0.3,0.5-0.5,0.9-0.6c0.1,0.1,0.1,0.1,0.1,0.2s0,0.2-0.1,0.2
	L19.7,171.4z"/>
<path class="st41" d="M20.6,118.3v0.6c0.2,0.2,0.3,0.5,0.4,0.9c0,0.3,0,0.6-0.1,0.9c0,0.1-0.1,0.2-0.2,0.2s-0.1,0.1-0.2,0.1
	l-0.2-0.1C20.2,120,20.3,119.1,20.6,118.3z"/>
<path class="st42" d="M9.5,146.3c0-0.6,0.2-1.2,0.5-1.7c0.1,0.1,0.2,0.2,0.3,0.3c0.1,0.1,0.1,0.2,0.1,0.4c0.1,0.3,0.1,0.6,0,0.9
	c-0.1,0.3-0.2,0.6-0.4,0.8C9.4,147.1,9.7,146.6,9.5,146.3z"/>
<path class="st43" d="M12.3,134.4h0.3c0.5,0.7,0.3,1.2-0.4,1.6l-0.3-0.4C11.9,135.2,12,134.8,12.3,134.4z"/>
<path class="st44" d="M23.5,146.6c0,0.3,0.1,0.5,0.3,0.7c0,0.1,0,0.2,0,0.4c-0.4,0.3-0.2,0.8-0.3,1.2c0,0-0.1,0.1-0.1,0.1
	c0,0-0.1,0-0.1,0c0,0-0.1,0-0.1,0c0,0-0.1-0.1-0.1-0.1c-0.2-0.3-0.2-0.7-0.2-1c0-0.3,0.1-0.7,0.2-1c0-0.1,0.1-0.1,0.2-0.2
	C23.4,146.6,23.4,146.6,23.5,146.6z"/>
<path class="st45" d="M7.1,195.8l0.4-0.3h0.1l0.1,0.1l0-0.1c0.1,0,0.2,0,0.3,0c0.1,0,0.1,0.1,0.1,0.2c0,0.1,0,0.2,0,0.2
	c-0.1,0.3-0.2,0.7-0.6,0.6C7.3,196.5,7.2,196.2,7.1,195.8z"/>
<path class="st46" d="M12.6,183.2l0.3,0.3l-0.6,1.6c-0.3,0-0.4-0.1-0.5-0.3c-0.1-0.2-0.1-0.5,0-0.7C12,183.8,12,183.2,12.6,183.2z"
	/>
<path class="st47" d="M14.5,178.8l0.3,0.3c-0.1,0.5-0.3,0.9-0.6,1.3c-0.1,0-0.2-0.1-0.3-0.2c-0.1-0.1-0.1-0.2-0.2-0.3
	C13.9,179.5,13.8,178.8,14.5,178.8z"/>
<path class="st48" d="M7.5,176.2c-0.1,0-0.2,0-0.3,0c-0.1-0.5,0-0.9,0.2-1.3l0.3,0.4C8.1,175.7,8.2,176,7.5,176.2z"/>
<path class="st49" d="M8.2,195.9l-0.3-0.3c-0.3-0.4-0.1-0.8,0.2-1.1c0.1-0.1,0.1-0.1,0.2-0.1c0.1,0,0.2,0,0.2,0.1h0.2
	C8.7,195,8.6,195.5,8.2,195.9z"/>
<path class="st50" d="M21.6,169.5c-0.6-0.4,0.2-0.9,0-1.4c0.1-0.1,0.2-0.2,0.3-0.2c0.1,0,0.1,0,0.2,0.1c0.1,0,0.1,0.1,0.1,0.1
	c0.1,0.4-0.3,0.6-0.4,1C21.8,169.3,21.8,169.3,21.6,169.5L21.6,169.5z"/>
<path class="st41" d="M20.3,122.9h-0.3c-0.1-0.7,0-1.4,0.2-2l0.1,0.1c0.2,0.3,0.3,0.6,0.3,1C20.7,122.3,20.6,122.6,20.3,122.9z"/>
<path class="st51" d="M10.1,145.4c0-0.2-0.1-0.5-0.1-0.8c0-0.3,0.1-0.6,0.1-0.9l0.3,0.3c0.1,0.2,0.2,0.4,0.3,0.7
	C10.6,145.1,10.5,145.4,10.1,145.4z"/>
<path class="st52" d="M14,180.1c0.1,0.1,0.2,0.2,0.3,0.3c-0.1,0.3-0.2,0.7-0.4,0.9h-0.1h-0.1c-0.1-0.1-0.1-0.2-0.1-0.4s0-0.3,0-0.4
	c0-0.1,0.1-0.2,0.2-0.3C13.8,180.2,13.9,180.1,14,180.1z"/>
<path class="st53" d="M12,184.8l0.3,0.4l-0.4,1l-0.3-0.4C11.4,185.3,11.3,185,12,184.8z"/>
<path class="st54" d="M23.6,158.7l-0.1-1.2c-0.1-0.1-0.1-0.2-0.1-0.3s0-0.2,0.1-0.3l0-0.1c0.3,0,0.5,0.1,0.4,0.4
	C24,157.8,23.9,158.3,23.6,158.7z"/>
<path class="st55" d="M23.9,157.3l-0.4-0.4c0.2-0.3,0.2-0.7,0.6-0.9C24.2,156.4,24.4,156.9,23.9,157.3z"/>
<path class="st56" d="M8.4,163c-0.2-0.2-0.3-0.4-0.3-0.7l0.1-0.6l0.3,0.3c0.1,0.1,0.1,0.1,0.1,0.2c0,0.1,0,0.2,0,0.3
	c0,0.1,0,0.2-0.1,0.2C8.5,162.9,8.5,163,8.4,163z"/>
<path class="st57" d="M24.2,123.2c0-0.5-0.2-1,0.2-1.4C24.5,122.3,24.5,122.8,24.2,123.2z"/>
<path class="st58" d="M11,140.2v-0.8l0.1-0.6h0.3c0.1,0.1,0.2,0.3,0.2,0.4c0,0.2,0,0.3,0,0.5C11.5,140.1,11.3,140.3,11,140.2z"/>
<path class="st59" d="M7.1,178.1l0.1,1.1l0.1,0.1l-0.1,0.1H6.9C6.8,178.9,6.9,178.5,7.1,178.1z"/>
<path class="st60" d="M22.6,166.3c-0.1-0.2-0.1-0.4,0-0.5c0-0.2,0.1-0.3,0.3-0.5c0,0.2,0,0.4,0,0.5C22.8,166,22.7,166.2,22.6,166.3z
	"/>
<path class="st60" d="M22.2,167.2h0.3c0,0.1,0,0.3,0,0.4c0,0.1-0.1,0.2-0.2,0.3c-0.1,0-0.2-0.1-0.3-0.1c-0.1-0.1-0.1-0.1-0.2-0.2
	c0-0.1,0-0.2,0-0.4c0.1,0,0.1-0.1,0.2-0.1C22.1,167.1,22.2,167.1,22.2,167.2z"/>
<path class="st61" d="M9.5,146.3l0.3,0.7l0.1,0.1l-0.1,0.1l-0.3,0.1C9.4,147,9.4,146.6,9.5,146.3z"/>
<path class="st62" d="M22,167.5l0.3,0.3c0,0,0,0.1,0,0.1s0,0.1,0,0.1h-0.4c-0.1-0.1-0.1-0.2-0.1-0.3C21.9,167.7,21.9,167.6,22,167.5
	z"/>
<path class="st63" d="M18.4,172.6v0.4c0,0.1-0.1,0.2-0.1,0.2c-0.1,0.1-0.1,0.1-0.2,0.1V173c0-0.1,0.1-0.2,0.1-0.2
	C18.3,172.7,18.3,172.6,18.4,172.6z"/>
<path class="st64" d="M16.8,174.4c0,0.2,0.1,0.4,0.1,0.6c0,0,0,0.1,0,0.1c0,0-0.1,0.1-0.1,0.1l-0.3-0.3
	C16.4,174.6,16.6,174.5,16.8,174.4z"/>
<path class="st65" d="M9.3,154.1c0,0.1,0.1,0.2,0.1,0.2l-0.3,0.3c0,0,0-0.1,0-0.1c0-0.1,0-0.1,0-0.2c0-0.1,0-0.1,0.1-0.1
	C9.2,154.2,9.3,154.1,9.3,154.1z"/>
<path class="st66" d="M8.7,158.7c0,0.1,0,0.3,0,0.4c0,0.1-0.1,0.3-0.2,0.4c0-0.1,0-0.3,0-0.4C8.6,158.9,8.6,158.8,8.7,158.7z"/>
<path class="st66" d="M9.1,158.2H8.8l0.1-0.3L9.1,158.2z"/>
<path class="st1" d="M21.7,169.4c0,0,0-0.1,0-0.1c0,0,0-0.1,0-0.1c0,0,0,0,0.1-0.1c0,0,0.1,0,0.1,0c0,0.1,0,0.1-0.1,0.2
	C21.8,169.4,21.8,169.4,21.7,169.4z"/>
<path class="st67" d="M20.7,170.3v-0.4c0.2,0,0.3,0.1,0.4,0.3L20.7,170.3z"/>
<path class="st68" d="M67.3,20.5c-0.7-1.6-1.8-3-3.2-3.9c-1.4-1-3-1.6-4.6-2c-1.7-0.3-3.4-0.3-5,0.1c-2,0.4-4,0.4-6-0.2
	c-1-0.2-1.9-0.7-2.6-1.4c-0.7-0.7-1.2-1.6-1.4-2.6c-0.4-1.2-0.7-2.4-1-3.6c-0.3-1.2-0.9-2.2-1.8-3C37.2,0.1,31-0.2,26.8,4.1
	C22.9,8,19.9,12.8,18.1,18c-1.9,5.2-4.1,10.3-6.6,15.3c-0.9,1.9-2.2,3.6-3.7,5c-1.9,1.6-3.4,3.6-4.4,5.9c-0.6,1.4-1.2,2.7-1.8,4.1
	c-0.8,2-1.3,4.1-1.4,6.2c-0.3,5.3-0.1,10.7,0.5,16c1.2,7.1,3.5,13.9,6.9,20.2c3.5,6.6,7.7,12.8,11.3,19.4c1.2,2.1,2.8,4,3.6,6.2
	c0,0.1,0,0.1,0,0.2c0,0.1,0,0.1,0,0.2c0.1,0.1,0.2,0.1,0.3,0.2c0.1,0,0.2,0,0.3,0c0.2,0,0.3-0.1,0.4-0.2c0.1-0.1,0.2-0.2,0.3-0.4
	c1.2-2,2.5-3.9,4-5.6c2-2.1,4.2-3.9,6.6-5.3c3.2-2.1,6.2-4.4,9-7c0.9-0.8,1.6-1.8,2-3c0.5-1.7,0.9-3.5,0.9-5.4
	c0.2-4.3,0-8.6,0.6-12.8c0.2-2.5,0.9-5,1.8-7.3c2.2-4.6,4.6-9,7.3-13.3c1.6-2.7,3.3-5.4,5.3-7.8c3-3.3,5.1-7.3,6.3-11.6
	C69.5,31.6,69.7,26,67.3,20.5z M67.1,36.4c-1.2,4.6-3.5,8.8-6.6,12.3c-2.2,2.7-4.2,5.7-5.9,8.8c-2.4,3.8-4.5,7.8-6.4,11.8
	c-1.1,2.7-1.9,5.5-2.1,8.4c-0.5,4-0.3,8-0.6,12c-0.1,1.5-0.3,3.1-0.7,4.6c-0.3,1.3-1,2.5-2,3.4c-2.7,2.4-5.6,4.7-8.6,6.7
	c-3.6,2.4-7.2,5-9.4,9c-0.4,0.6-0.8,1.2-1.3,1.8c-0.1,0.1-0.2,0.2-0.3,0.2c-1.5-2.7-3-5.2-4.5-7.8c-1.8-3.3-3.9-6.5-5.8-9.8
	C8.7,90.5,4.5,83.2,2.6,75c-1.1-5.5-1.7-11.1-1.7-16.7c0-5.6,1.5-11.1,4.4-15.8c0.9-1.4,2-2.6,3.3-3.7c1.5-1.4,2.8-3.1,3.7-5
	c2.6-5,4.8-10.1,6.8-15.4c1.8-4.9,4.6-9.3,8.2-13.1c3.9-4.2,9.2-4,13.5-0.5c0.9,0.7,1.5,1.7,1.8,2.8c0.3,1.1,0.6,2.3,1,3.4
	c0.3,1.1,0.9,2.1,1.7,2.9c0.8,0.8,1.8,1.4,3,1.7c2.2,0.6,4.5,0.7,6.7,0.2c1.5-0.3,3-0.4,4.5-0.1s2.9,0.9,4.2,1.8
	c1.3,0.9,2.3,2.1,2.9,3.6C68.6,26,68.5,31.1,67.1,36.4z"/>
<path class="st69" d="M22.7,118.9c-0.4-0.4-1.4-0.3-1.3-1.2c0-0.9,0.8-0.7,1.3-1.1l0.6,0.1c0.3,0.2,0.6,0.4,0.9,0.6
	c0.3,0.2,0.6,0.5,0.5,0.9c-0.1,0.4-0.6,0.6-1,0.6C23.2,118.9,23,118.9,22.7,118.9z"/>
<path class="st70" d="M22,167.5c-0.1,0.2-0.1,0.4-0.2,0.6h-0.1h-0.1c-0.6,0-1.2,0-1.8,0c-1,0-2,0.1-2.5-1.1l-0.3,0.1
	c-0.9-0.1-0.6-1-0.9-1.5c-0.2-0.6-0.5-1.1-0.8-1.7c-0.2-0.6-0.8-1.2-0.4-2c0.1,0,0.1-0.1,0.2-0.1c0.1,0,0.2,0,0.2,0
	c1,1.3,1.9,2.8,2.6,4.4c0.4,0.9,1,1.4,2,0.8c0.3-0.2,0.6-0.3,1-0.3c0.3,0,0.7,0.1,0.9,0.3L22,167.5z"/>
<path class="st71" d="M16.5,165.6c0.5,0.4,0.1,1.2,0.6,1.6c0.1,1.1,0,2.2-0.2,3.2c-0.2-0.1-0.3-0.2-0.4-0.3
	c-0.1-0.1-0.2-0.3-0.2-0.5c-0.2-1.2-0.2-2.4-0.2-3.6c0-0.1,0.1-0.2,0.2-0.3C16.3,165.7,16.4,165.6,16.5,165.6z"/>
<path class="st72" d="M16.5,169.8c0.3,0.2,0.3,0.4,0.4,0.7c0,0.9-0.4,2,0.6,2.7c0,0.1,0,0.2-0.1,0.3c-0.1,0.1-0.2,0.2-0.3,0.2
	c-0.2-0.1-0.4-0.2-0.6-0.4c-0.2-0.2-0.3-0.4-0.3-0.6C16.1,171.7,15.8,170.7,16.5,169.8z"/>
<path class="st73" d="M15.2,127.7c0-0.1,0-0.2,0-0.4c0-0.1-0.1-0.2-0.2-0.3c-0.3-0.2-0.3-0.4-0.1-0.6c0.1-0.1,0.2-0.2,0.3-0.3
	c1.6-0.2,3.2-0.1,4.8,0.3c0.4,0.5,0.9,0.8,1.5,1c0.6,0.2,1.2,0.3,1.8,0.3c0.4-0.1,0.8-0.4,1.2-0.3c1.7,0.6,3.5,0.8,4.9,2.2
	c-0.1,0.7-0.6,0.7-1.1,0.7c-1,0-2-0.1-3-0.1c-2.8-0.1-5.5-0.5-8.1-1.3C16.5,128.5,15.5,128.7,15.2,127.7z"/>
<path class="st74" d="M27.7,138.9l-1,1.2l-1.6,1.4c-0.5-0.9,0.2-1.6,0.4-2.2c0.4-0.7,0.6-1.5,0.6-2.4s-0.2-1.6-0.6-2.4
	c-0.7-1.3-0.8-2.8-2-3.8l0.1-0.2l2.2,0.4c1.3,0.1,1.8,0.8,1.9,2.1c0.2,1.6,0.2,3.2,0,4.7L27.7,138.9z"/>
<path class="st75" d="M27.8,137.7c-0.1-0.8-0.1-1.6,0-2.4c0.2-1.2-0.6-2.1-0.6-3.3c0-0.6-0.9-0.8-1.3-1.2l2.7,0.1
	c0.4,0.5-0.1,0.9-0.2,1.3c-0.2,1.2-0.3,2.4-0.3,3.6C28.1,136.6,28,137.2,27.8,137.7z"/>
<path class="st76" d="M17.1,128.5c0.1-0.1,0.2-0.1,0.4-0.1c0.1,0,0.3,0,0.4,0.1c2.3,0.8,4.6,1.3,7,1.5c0.2,0,0.3,0.1,0.4,0.2
	c-0.5,0.2-1.2-0.2-1.7,0.3v0.1c-0.9,0.4-1.7-0.2-2.5-0.3c-0.4-0.1-0.7-0.2-1.1-0.3l-0.6-0.2c-0.2-0.1-0.4-0.1-0.6-0.2l-0.4-0.1
	C17.9,129.4,17.2,129.2,17.1,128.5z"/>
<path class="st73" d="M20.7,120.9c0-0.7,0-1.3,0-2l1.6,0.4c0,0,0.1,0,0.1,0c0,0,0.1,0,0.1,0c0,0,0.1,0.1,0.1,0.1
	c1.7,0.4,1.7,0.4,1.4,2.1c-0.2,1-0.3,2-0.4,2.9c-0.1,1-0.3,2-0.7,2.9c-1.6,0.5-2.2,0.2-2.5-1.3v-2.5
	C20.8,122.7,20.3,121.7,20.7,120.9z"/>
<path class="st77" d="M20.4,126c0.4,1.3,1.4,1.4,2.5,1.3c0.1,0.1,0.2,0.2,0.4,0.3c-1.7,0.6-2.7,0.2-3.2-1.3L20.4,126z"/>
<path class="st78" d="M20.7,120.9c0.1,0.9,0,1.8-0.3,2.7c0-0.2,0-0.5,0-0.7l0.1-1.9C20.5,120.9,20.6,120.9,20.7,120.9z"/>
<path class="st79" d="M15.2,126.1l-0.3,0.3c0-0.1,0-0.2,0-0.3C15,126.1,15.1,126,15.2,126.1z"/>
<path class="st80" d="M12,184.8c-0.1,0.1-0.2,0.3-0.3,0.4c-0.1,0.2-0.1,0.3-0.1,0.5c-0.6,1.1-1,2.3-1.3,3.6c-0.3,0.7-0.6,1.3-0.9,2
	c-0.4,1-1.1,2-1,3.2H8.1c-0.3-0.3-0.7-0.7-1,0c-0.4-0.4-0.3-0.9-0.3-1.3c0-1.2,0-2.4-0.1-3.6c-0.2-0.4-0.2-0.8,0-1.2l0.1-1.8
	c0,0,0.1,0,0.1,0c0,0,0.1,0,0.1,0c0,0,0.1,0,0.1,0.1s0.1,0.1,0.1,0.1c0.6,1.7,0,3.6,0.4,5.3c0.2-2-0.8-4.3,0.8-6.1
	c0.2-0.3,0.5-0.6,0.8-0.8c0.4-0.3,0.7-0.7,1.2-1c0.1-0.1,0.3-0.1,0.4-0.2c0.4,0,0.9-0.5,1,0.3L12,184.8z"/>
<path class="st81" d="M7.2,194.5c0-0.1,0-0.2,0-0.3c0.1-0.3-0.2-0.7,0.3-0.7c0.2,0,0.3,0.1,0.4,0.2c0.1,0.1,0.2,0.3,0.2,0.4
	c0,0.1,0,0.3,0,0.5c-0.1,0.3-0.2,0.7-0.3,1c-0.1,0-0.3,0-0.4,0C7.3,195.2,7.2,194.9,7.2,194.5z"/>
<path class="st82" d="M6.8,188.4c0,0.4,0,0.8,0,1.2c-0.5-0.3-0.3-0.8-0.3-1.2C6.6,188.4,6.7,188.4,6.8,188.4z"/>
<path class="st83" d="M23.3,157.6l-0.2,0.7c-0.1,0.1-0.1,0.2-0.2,0.3c0,0.4,0,0.8,0,1.2c-0.2,1.9-0.5,3.9-0.7,5.8
	c-0.6,0.8-1.1,0.4-1.7,0c-0.2-0.4-0.4-0.9-0.5-1.4c0-0.7,0.1-1.5,0.3-2.2c0.2-1.6,0.4-3.2,1.9-4.2c0.2-0.2,0.4-0.3,0.6-0.4
	c0.1,0,0.2,0,0.2,0C23.2,157.5,23.3,157.5,23.3,157.6z"/>
<path class="st84" d="M20.7,165.6c0.5,0,1,0.5,1.5,0c0,0.5,0,1,0,1.5H22c-0.7-0.1-1.4,0-2,0.3c-0.2,0.1-0.4,0.2-0.6,0.2
	c-0.2,0-0.4,0-0.6-0.1c-0.2-0.1-0.4-0.2-0.5-0.3c-0.1-0.2-0.2-0.3-0.3-0.5c-0.5-0.9-0.8-1.8-0.8-2.9c0.2-0.4,0.5-0.3,0.8-0.1
	c0.6,0.6,0.4,1.9,1.6,2.2C20,165.9,20.2,165.4,20.7,165.6z"/>
<path class="st85" d="M8.4,163l0.1-0.9l0.2-0.1c0.1,0,0.2,0,0.4,0c0.1,0,0.2,0.1,0.3,0.1c0.1,0.1,0.2,0.2,0.2,0.3
	c0.1,0.1,0.1,0.2,0.1,0.3c0.5,4.2,1,8.4-1.1,12.4c-0.1,0.1-0.3,0.2-0.4,0.2c-0.1,0-0.1-0.1-0.2-0.2C8,175.1,8,175,8,175
	c0-0.3,0-0.6,0-0.9c0-0.3,0.2-0.4,0-0.6c0.1-0.3,0.1-0.6,0.2-1c0.1-0.3,0.1-0.4-0.1-0.5l0-3c-0.2-1.2-0.2-2.4,0-3.5
	C8.3,164.7,8.4,163.9,8.4,163z"/>
<path class="st86" d="M8.1,165.6c0,1.2,0,2.3-0.1,3.5c-0.3-1.1-0.3-2.3-0.2-3.4C8,165.6,8,165.6,8.1,165.6z"/>
<path class="st87" d="M8.5,172.4c0,0.4-0.1,0.9-0.3,1.3c0,0,0.1,0.1,0.1,0.1c0,0,0,0.1,0,0.1c0,0.1-0.1,0.1-0.1,0.1v1
	c-0.1,0.1-0.2,0.1-0.3,0c0-0.8,0-1.7,0-2.5h0.2c0,0,0-0.1,0.1-0.1c0,0,0.1,0,0.1,0C8.3,172.3,8.3,172.3,8.5,172.4
	C8.4,172.3,8.4,172.3,8.5,172.4z"/>
<path class="st88" d="M8.5,172.4H8.1c0-0.1,0-0.2,0-0.3L8.5,172.4z"/>
<path class="st89" d="M23.3,146.7c-0.1,0.7-0.1,1.5,0,2.2c0.1,0.2,0.1,0.3,0.1,0.5c0,0.2,0,0.3-0.1,0.5c0.1,1,0.2,1.9,0.3,2.9
	l-0.1,0.4c-0.3,0.7,0.2,1.9-1.1,2c-0.2,0-0.3,0-0.5,0c-0.8-0.4-1-1.2-1.5-1.9c-0.3-0.4-0.5-0.9-0.8-1.3c-0.4-0.8-1.2-1.4-2-1.7
	c-0.4-0.1-0.7-0.2-1-0.4c-0.3-0.2-0.6-0.5-0.8-0.8c-0.1-0.3-0.2-0.6-0.3-0.9c0-0.2,0-0.3,0-0.5c0-0.2,0.1-0.3,0.2-0.4
	c0.8-0.4,1.6-0.5,2.5-0.5c0.9,0,1.7,0.2,2.5,0.5c0.4,0.9-0.4,0.9-0.8,1.1c-0.5,0.2-1,0-1.7,0.4c0.9,0.3,1.7,0.7,2.5,1.2
	c0.5,0.5,0.8,0.1,0.8-0.4c0.1-0.8,0.1-1.6,0-2.4c0-0.2,0-0.3,0-0.5c0.1-0.2,0.3-0.3,0.4-0.4c0.2-0.1,0.4-0.1,0.6-0.1
	c0.2,0,0.3,0.1,0.5,0.2C23.2,146.4,23.3,146.5,23.3,146.7z"/>
<path class="st90" d="M22.2,155.1c0.9-0.3,1-1.2,1.3-2c0,0.7,0,1.4,0.1,2c0.1,0.6,0,1.1-0.7,1.1C22.3,156.1,22,155.8,22.2,155.1z"/>
<path class="st91" d="M22.2,155.1c0.2,0.4,0.4,0.8,0.7,1.2v0.4l-0.2,0.1c-0.1,0-0.3-0.1-0.4-0.1c-0.2-0.1-0.4-0.3-0.5-0.5
	s-0.2-0.4-0.3-0.7c0-0.1,0.1-0.2,0.1-0.3c0.1-0.1,0.2-0.1,0.3-0.1L22.2,155.1z"/>
<path class="st92" d="M23.3,157.6H23l-0.1-0.1c0-0.1,0-0.3,0.1-0.4c0.1-0.1,0.2-0.2,0.3-0.2h0.3v0.6
	C23.5,157.5,23.4,157.6,23.3,157.6z"/>
<path class="st93" d="M23.2,156.9l-0.3,0.4c0,0-0.1-0.1-0.1-0.1c0,0,0-0.1,0-0.1c0,0,0-0.1,0-0.1c0,0,0-0.1,0.1-0.1v-0.1L23.2,156.9
	z"/>
<path class="st94" d="M7.1,186.5c-0.1,0-0.2,0.1-0.2,0.1c-0.1-1.2-0.1-2.5,0-3.7c0.1,0,0.1,0.1,0.2,0.1c0.5,0.4,0.5,1,0.5,1.5
	c0,0.6,0,1.3-0.3,1.9L7.1,186.5z"/>
<path class="st95" d="M9.1,160.1c0-0.7,0.1-1.3,0.1-2l0.6-0.6c0.2-0.2,0.5-0.1,0.7-0.3c0.8-1.3,2-2.3,2.6-3.7
	c0.3-0.5,0.6-0.9,0.9-1.3c0.5-0.5,1-1.6,1.6-1.3c0.9,0.4,0.1,1.4,0.1,2.1c0,0.2-0.1,0.3-0.1,0.5c-0.1,0.7-0.3,1.4-0.4,2.1
	c0,0.2-0.1,0.5-0.2,0.7c-0.1,0.3-0.2,0.6-0.4,0.8c-0.1,0.5-0.4,0.9-0.8,1.1c-0.4,0.3-0.9,0.4-1.3,0.4c-0.5,0.1-1,0.3-1.4,0.6
	C10.2,159.3,9.9,160.2,9.1,160.1z"/>
<path class="st65" d="M10.3,156.9c-0.4,0.1-0.8,0.2-0.9-0.5c0-0.7,0.1-1.3,0.3-2h0.1c0.3-0.4,0.7-0.4,1.1-0.5c0.1,0,0.3,0,0.4,0
	c0.4,0.1,0.8,0.3,0.9,0.8c-0.3,0.7-0.7,1.4-1.3,1.9c-0.1,0.1-0.2,0.2-0.4,0.2L10.3,156.9z"/>
<path class="st96" d="M10.7,156.6c0.4-0.7,1.1-1.1,1.3-1.9c0.2-0.5,0.3-1,0.9-1.2c0.1,0,0.1,0,0.2,0c0.1,0,0.1,0.1,0.2,0.1
	c-0.6,1.4-1.6,2.6-2.9,3.5l-0.1-0.4l0.1,0.1C10.5,156.8,10.6,156.7,10.7,156.6z"/>
<path class="st96" d="M10.4,157.2c-0.1,0.1-0.1,0.2-0.3,0.3c-0.1,0.1-0.3,0.1-0.4,0c0.1-0.1,0.2-0.2,0.3-0.3
	C10.1,157.2,10.2,157.2,10.4,157.2z"/>
<path class="st97" d="M23.3,149.8v-1c0.1,0,0.2,0,0.2,0C23.6,149.2,23.6,149.5,23.3,149.8z"/>
<path class="st98" d="M11,140.2l0.3-0.4c0.3-0.6,0.7-1.2,1.2-1.7c0.6-0.5,1-1.1,1.2-1.9c0.2-0.7,0.1-1.5-0.2-2.2
	c-0.3-0.9-0.3-1.8,0-2.6c0-0.9,0.2-1.7,0.6-2.5c0.1-0.1,0.2-0.2,0.4-0.3c0.3,0.4,0.5,0.8,0.6,1.2c0.1,0.4,0.1,0.9,0,1.3
	c-0.4,1.7,0.4,3.5,0.2,5.2c0,0.3,0,0.6-0.1,0.9c-0.4,0.6-0.9,1.2-1.4,1.7c-0.1,0.1-0.2,0.2-0.4,0.2c-0.9,0.4-1.2,1.6-2.3,1.8
	L11,140.2z"/>
<path class="st99" d="M14.9,131.2c0-0.8-0.5-1.6-0.3-2.5c0.3-0.3,0.1-0.9,0.7-1l1.9,0.9c0.5,0.4,1,0.7,1.6,0.8
	c-1.1,0.7-2.1,1.5-3,2.5c-0.5,0.2-0.7-0.1-0.8-0.5L14.9,131.2z"/>
<path class="st79" d="M14.9,126.4L15,127C14.6,126.8,14.5,126.6,14.9,126.4z"/>
<path class="st88" d="M9.1,160.1c0.4-0.6,1-1,1.6-1.3c0.6,0.7,0.1,1.5,0.1,2.3c-0.1,1.2,0,2.4,0.2,3.6c0.9,2.4,0.2,4.8-0.5,7.1
	c-0.3,0.9-0.6,1.8-0.7,2.7c-0.1,0.3-0.2,0.7-0.4,0.9c-0.1,0.2-0.3,0.4-0.5,0.6c-0.2,0.2-0.5,0.6-0.8,0.2c-0.1-0.2-0.2-0.4-0.2-0.6
	c0-0.2,0.1-0.4,0.2-0.6c0.8-1.4,1.3-2.9,1.5-4.5c0.2-2.1,0.2-4.3-0.1-6.4c-0.1-0.4-0.1-0.8-0.1-1.3c0.1-0.7-0.4-0.8-0.7-1.1
	C8.8,161.4,8.7,160.7,9.1,160.1z"/>
<path class="st100" d="M13.6,131.5c-0.4,1.4,0.6,2.6,0.6,4c0,0.5,0,0.9-0.2,1.4c-0.2,0.4-0.4,0.8-0.7,1.2c-0.6,0.7-1.3,1.3-2,1.9
	c0-0.3,0-0.6,0-1c0.6-0.9,0.5-2,0.9-2.9c0.1-0.5,0.4-1,0.3-1.6c0.2-0.6,0.4-1.2,0.4-1.9C13.2,132.2,13.4,131.8,13.6,131.5z"/>
<path class="st101" d="M9.7,147.2c0-0.1,0.1-0.2,0.1-0.2c0.4-0.5,0.3-1.1,0.3-1.6c0.2-0.2,0.3-0.4,0.3-0.7c0.7-0.4,1.1,0,1.3,0.6
	c0.1,0.3,0.1,0.7,0,1c-0.7,1.9-1.3,3.9-1.7,5.9l-0.2-0.1C9.8,150.4,9.8,148.8,9.7,147.2z"/>
<path class="st92" d="M23,158.6l0.2-0.3L23,158.6z"/>
<path class="st102" d="M21,130l2.6,0.7c0.4,0.1,0.7,0.3,1,0.7c0.3,0.3,0.4,0.7,0.5,1.1c0.2,1,0.6,1.9,1.1,2.8
	c0.2,0.4,0.4,0.9,0.4,1.4s-0.1,1-0.2,1.5c-0.4,1.2-0.8,2.3-1.2,3.5l-0.4,1l-0.9,1.3c-0.4,0.1-0.8,0.5-1.4,0.3
	c-0.1-0.1-0.2-0.2-0.2-0.4c0-0.1,0-0.3,0-0.4c0-0.1,0.1-0.3,0.1-0.4c0.3-0.9,0.7-1.8,1.3-2.5c0.9-0.8,1.5-2,1.6-3.2
	c-0.1-1.2-0.4-2.3-0.9-3.3c-0.2-0.3-0.4-0.5-0.6-0.8c-0.2-0.1-0.3-0.2-0.5-0.3l-0.4-0.2C21.9,132,21.6,130.9,21,130z"/>
<path class="st103" d="M10,152.2c0-0.6,0.1-1.3,0-1.9c-0.1-0.5-0.1-1,0.1-1.4c0.1-0.5,0.4-0.9,0.7-1.2c0.7-0.7,0.5-1.6,0.4-2.4
	c0-0.5-0.5-0.4-0.9-0.5v-0.6c0.3,0.2,0.6,0.3,1,0.3c1.2,0.1,1,1.1,1.1,1.8c0,1.3,0,2.6,0.1,3.8c0.3-1.8,1-3.4,0.9-5.3
	c-0.1-0.9,0-1.7,0.5-2.5c0.1-0.1,0.3-0.2,0.4-0.3l0.2,0.1l0.1,0.2c0.1,1.8-0.2,3.7-0.1,5.5c0,0.7,0.1,1.5,0.6,2.1
	c0.2,0.8-0.2,1.2-0.7,1.6c-1.5-0.2-2.2,1.1-3.2,1.8c-0.1,0.1-0.3,0.1-0.4,0.2c-0.9,0-0.4-0.8-0.8-1.1C10,152.4,10,152.3,10,152.2z"
	/>
<path class="st104" d="M12,146.3c-0.1-0.7,0.2-1.5-0.6-1.9c-0.4-0.5-0.1-1.2-0.7-1.6c0-0.6,0.1-1.1,0.4-1.6c0.6-0.9,1.3-1.6,2.2-2.2
	c1.6,0.7,1.1,1.9,0.8,3.1c-0.7,0.8-0.6,1.9-0.8,2.8C13.1,145.5,13.3,146.6,12,146.3z"/>
<path class="st104" d="M10.5,142.8h0.2C10.6,142.9,10.6,143,10.5,142.8z"/>
<path class="st105" d="M22.6,144.1c0.5-0.1,0.8-0.8,1.3-0.3c0,0.4,0,0.8-0.1,1.2l-0.3,0.4c-0.2,0.5-0.4,0.8-0.9,0.9l-1,0.3
	c-0.1,0.1-0.2,0.2-0.3,0.3s-0.3,0.1-0.4,0.1c-0.4,0-0.7-0.1-1-0.3c-0.1-0.1-0.2-0.2-0.3-0.3c0-0.1,0-0.1,0-0.2c0-0.1,0-0.1,0.1-0.2
	c0-0.1,0.1-0.1,0.2-0.2C21.4,146.3,21.5,144.4,22.6,144.1z"/>
<path class="st106" d="M10.1,152.4c0.4,0.2,0.2,1,1,1c0,0,0.1,0.1,0.1,0.1c0,0.1,0,0.1,0,0.2c0,0.1,0,0.1,0,0.2
	c0,0.1-0.1,0.1-0.1,0.1c-0.2,0.1-0.4,0.2-0.6,0.2s-0.4-0.1-0.6-0.2L10.1,152.4z"/>
<path class="st107" d="M9.9,154h1.2c-0.3,0.5-0.8,0.3-1.2,0.4L9.9,154z"/>
<path class="st87" d="M8.1,175.2c0,0.2,0,0.3,0,0.5c0,0.2-0.1,0.5,0.1,0.5s0.3-0.2,0.5-0.3c0.8,1.3,0.4,2.8,0.3,4.1
	c-0.1,0.3-0.3,0.5-0.5,0.7c-0.2,0.2-0.5,0.3-0.8,0.4c-0.5,0-0.3-0.5-0.5-0.7c-0.1-0.3-0.1-0.7-0.1-1c0-0.1,0-0.2,0-0.2
	c0.5-0.9,0.2-2,0.4-2.9c0.3-0.3,0.3-0.6,0.2-1h0.1c0,0,0,0,0.1-0.1c0,0,0.1,0,0.1,0C8,175.2,8,175.2,8.1,175.2
	C8.1,175.2,8.1,175.2,8.1,175.2L8.1,175.2z"/>
<path class="st108" d="M7.3,180.4c0.1,0.1,0.1,0.2,0.2,0.3c0,0.1,0.1,0.2,0.1,0.3c0.4,1.8,1.7,2.6,3.2,3.2c-0.3,0.4-0.6,0.7-1,0.9
	c-0.3,0.3-0.8,0.1-1.2,0.3c-1,0.5-1.3-0.1-1.4-0.9c0-0.5-0.1-1.1-0.1-1.6C7.2,182.1,7.2,181.3,7.3,180.4z"/>
<path class="st88" d="M8.1,175.2H7.8v-0.3h0.3V175.2z"/>
<path class="st109" d="M16.5,173c0.1,0.1,0.3,0.2,0.4,0.3c0.1,0.1,0.2,0.3,0.2,0.4l-0.3,0.7l-0.3,0.5l-0.9,1.3l-0.2-0.2
	c0-1.1-0.7-2.4,0.9-3.1H16.5z"/>
<path class="st109" d="M15.5,176.8c-0.1,0-0.2,0.1-0.3,0.1l-0.1-0.2c0-0.3,0-0.6,0.4-0.5C15.5,176.4,15.5,176.6,15.5,176.8z"/>
<path class="st110" d="M22.6,146.3l0.9-0.9c0,0.4,0,0.8,0,1.2c-0.1,0-0.1,0.1-0.2,0.1L22.6,146.3z"/>
<path class="st111" d="M14,180.1c-0.2,0.4-0.4,0.8-0.4,1.3c-0.1,0-0.2,0-0.3,0c-0.8,0.4-0.8,1.2-1.4,1.8c-1.4,1.4-2.4,1.1-3-0.7
	c-0.1-0.5-0.2-0.9-0.2-1.4c0.6-1.1-0.1-2.4,0.5-3.5c0.1-0.1,0.2-0.2,0.3-0.2s0.3-0.1,0.4-0.1c1.8,0.4,2.7-0.6,3.4-2
	c0.1-0.2,0.2-0.4,0.4-0.5c0.4-0.4,0.7-1.1,1.4-0.8c0.7,0.3,0.3,1,0.3,1.6s-0.4,0.9-0.1,1.4v0.1c-0.2,0.6-0.5,1.3-0.7,1.9
	C14.2,179.1,14,179.6,14,180.1z"/>
<path class="st112" d="M9.1,181.4c0,0.6,0.2,1.3,0.5,1.8c0.4,0.8,0.8,0.8,1.5,0.3c0.9-0.8,1.6-1.7,2-2.8c0.3,0.2,0.2,0.5,0.2,0.8
	c-0.1,0.5-0.3,0.9-0.6,1.3c-0.4,0.7-1,1.2-1.7,1.6c-0.1,0-0.2,0-0.2,0.1c-0.8,0.2-1.6,0.3-1.9-0.7c-0.1-0.2-0.2-0.5-0.6-0.3
	c-0.7,0.4-0.8,0.1-0.8-0.5s0-1.2,0-1.7c0.4-0.2,0.7-0.7,1.3-0.6C9.1,180.6,8.8,181.1,9.1,181.4z"/>
<path class="st113" d="M11,184.2c0.5-0.6,1.1-1.1,1.7-1.6c0,0.2-0.1,0.4-0.1,0.6l-0.5,1C11.7,183.9,11.4,184.4,11,184.2z"/>
<path class="st49" d="M7.4,195.6h0.4C7.7,195.8,7.6,195.8,7.4,195.6z"/>
<path class="st114" d="M17.5,163.7c0.3,0.8,0.3,1.8,0.7,2.6c0.4,0.9,0.9,1.4,1.9,1.2c-0.7,0.6-1.4,0.5-1.9-0.3
	c-0.9-1.7-1.8-3.5-2.6-5.2c-0.5-0.5-0.8-1.2-0.9-2c0-0.2,0-0.3,0-0.5c0-0.2,0.1-0.3,0.2-0.5c1.7-0.4,2-0.2,2.1,1.3c0,1,0.2,2,0.6,3
	C17.4,163.5,17.5,163.6,17.5,163.7z"/>
<path class="st115" d="M15.2,162.1c0.1,0.7,0.3,1.3,0.6,1.9c-0.1,0-0.1,0.1-0.2,0.1c-0.1,0-0.1,0-0.2,0c-0.3-0.2-0.5-0.4-0.7-0.7
	c-0.2-0.3-0.3-0.6-0.3-0.9c0-0.1,0.1-0.2,0.1-0.3c0.1-0.1,0.1-0.2,0.2-0.2c0.1,0,0.1,0,0.2,0C15,162,15.1,162,15.2,162.1z"/>
<path class="st116" d="M15.2,162.1h-0.2c-0.2-0.2-0.3-0.3-0.4-0.6c-0.1-0.2-0.1-0.4,0-0.7c0-0.1,0-0.3,0.1-0.4
	c0.1-0.1,0.2-0.2,0.3-0.3c0.3,0.6,0.5,1.2,0.6,1.9L15.2,162.1z"/>
<path class="st117" d="M15.5,164h0.3c0.4,0.5,0.6,1,0.8,1.6l-0.3,0.3c-0.3-0.2-0.6-0.4-0.7-0.8C15.4,164.7,15.3,164.3,15.5,164z"/>
<path class="st118" d="M15.5,164c0,0.7,0.6,1.2,0.7,1.9c0.5,1.3,0.2,2.6,0.3,3.9c0,1,0,2.1,0,3.2h-0.1c0,0-0.1,0.1-0.1,0.1
	c0,0-0.1,0-0.1,0s-0.1,0-0.1,0c0,0-0.1,0-0.1-0.1c-0.4-0.8-0.5-1.6-0.3-2.5c0.3-2-0.1-4-1.2-5.7c-0.4-0.5-0.7-1.1-0.8-1.8
	c-0.1-0.7-0.1-1.3,0.1-2c0-0.1,0.1-0.1,0.2-0.2c0.1,0,0.1-0.1,0.2-0.1c0.4,0.1,0.4,0.4,0.6,0.7c0.1,0.3,0.1,0.6-0.1,0.9
	C14.8,163,15.1,163.5,15.5,164z"/>
<path class="st119" d="M15.5,131.9l0.1-0.3c0.3-0.6,0.7-1.1,1.2-1.5c0.5-0.4,1.1-0.6,1.8-0.7l0.4,0.1c0.1,0,0.2,0.1,0.3,0.1l0.6,0.1
	c-0.1,0.7-0.7,0.6-1.1,0.6c-0.4,0-0.7,0.1-1.1,0.3c-0.2,0.1-0.3,0.2-0.4,0.4c-0.1,0.2-0.1,0.4-0.1,0.5c0.2,0.6,0.6,0.3,0.9,0.1
	c0.8-0.2,1.6-0.3,2.4-0.2c0.6,0,1.2,0.1,1.4,0.8c0,0.1,0,0.1-0.1,0.2c0,0.1-0.1,0.1-0.2,0.1c-0.4,0.1-0.8-0.1-1.2,0.2
	c-0.2,1.1-0.4,1.9-1.9,2c-0.3,0-0.5,0.1-0.8,0.3c-0.2,0.1-0.5,0.3-0.6,0.5c-0.2,0.2-0.3,0.5-0.4,0.7c-0.1,0.3-0.1,0.6-0.1,0.8
	c0.1,1,0.4,2.3-1.1,2.7c-0.4-0.6-0.2-1.3-0.5-1.9c0-0.3,0-0.5,0-0.8c0-0.4,0-0.7,0-1.1C15.5,134.7,14.7,133.2,15.5,131.9z"/>
<path class="st120" d="M22,132.5c-1.1-1.2-2.4-0.6-3.7-0.4c-0.4,0.1-0.7,0.3-1,0.5c-0.3-0.3-0.4-0.6-0.5-1c0-0.4,0.1-0.8,0.3-1.1
	c0.3-0.7,0.9-0.6,1.5-0.6s1,0.1,1.4-0.3l1,0.3c1,0.6,1.2,2,2.2,2.5c-0.1,0.1-0.2,0.2-0.3,0.2c-0.1,0-0.2,0.1-0.3,0.1
	c-0.1,0-0.2,0-0.3-0.1C22.1,132.6,22,132.6,22,132.5z"/>
<path class="st120" d="M19.4,129.5l-0.3-0.1L19.4,129.5z"/>
<path class="st121" d="M9.1,185.8c-1.6,1.6-1,3.6-0.8,5.4c0.1,0.7,0,1.1-0.7,1.5c-0.9-2.1-0.3-4.2-0.5-6.3v-0.1
	C7.7,186,8.2,185.4,9.1,185.8z"/>
<path class="st122" d="M9.1,185.8c-0.7,0-1.2,0.8-2,0.6c0-0.6,0.1-1.2,0.1-1.8c0.3,0.5,0.5,1.2,1.3,0.5c0.2-0.2,0.8,0,1.2,0.1
	L9.1,185.8z"/>
<path class="st123" d="M22.8,157.8c-0.2,0.3-0.5,0.6-0.8,0.8c-0.3,0.3-0.6,0.7-0.8,1.1s-0.3,0.9-0.3,1.3c0,0.2,0,0.4,0,0.5
	c0,0.2-0.1,0.3-0.2,0.5c-0.4-0.3-0.4-0.8-0.6-1.2c-0.2-1.2,0.9-2.1,0.9-3.3c0.2-0.2,0.5-0.3,0.7-0.3c0.3,0,0.5,0.1,0.7,0.2
	C22.6,157.6,22.7,157.7,22.8,157.8z"/>
<path class="st124" d="M20.3,160.8c0.5,0.3,0.3,0.9,0.3,1.3l-0.3,2.2c-0.1,0-0.1,0.1-0.2,0.1c-0.1,0-0.1,0-0.2-0.1
	c-0.1-0.1-0.2-0.2-0.2-0.4c-0.1-0.3-0.1-0.6-0.1-0.9C19.7,162.2,19.5,161.4,20.3,160.8z"/>
<path class="st125" d="M20,164.3h0.4c0.4,0.4,0.2,0.9,0.3,1.3c-0.4,0.2-0.5,0.7-1,0.6c0,0-0.1-0.1-0.1-0.2c0-0.1,0-0.1,0-0.2
	c0-0.2,0.1-0.4,0.1-0.6C19.7,165.1,19.8,164.6,20,164.3z"/>
<path class="st92" d="M23,157.6c0,0.1-0.1,0.2-0.2,0.2c-0.1,0-0.1,0-0.2,0.1C22.5,157.6,22.6,157.5,23,157.6L23,157.6z"/>
<path class="st126" d="M19.7,166c0,0.1,0,0.2,0,0.3c-0.1,0.4-0.2,0.7-0.6,0.3c-0.7-0.7-1-1.6-1.1-2.5c-0.1-0.2-0.2-0.4-0.3-0.6
	c-0.1-0.2-0.1-0.4,0-0.6c0.5-2.1,0.9-4.2,1-6.4c0.1-1.2,0.6-1.3,1.6-0.5c0.1,0.1,0.2,0.3,0.3,0.4c0.1,0.2,0.2,0.4,0.3,0.6
	c0,0.1,0,0.3,0,0.4c0,0.1,0,0.1,0,0.2c0.3,0.4,0.8,0.7,0.2,1.3c-0.5,0.6-0.8,1.3-0.9,2c-0.2,0.8-0.4,1.7-0.3,2.6
	c-0.1,0.1-0.2,0.3-0.2,0.5s0.1,0.4,0.2,0.5c0,0.4,0.3,0.9,0,1.3C19.9,165.7,19.8,165.8,19.7,166z"/>
<path class="st127" d="M20.4,156.6c-0.4-0.2-0.2-0.8-0.8-1.1c-0.2,0.1-0.4,0.4-0.4,0.6c-0.1,0.2-0.1,0.5-0.1,0.7
	c0.1,1.9-0.2,3.8-0.8,5.6c-0.1,0.5-0.2,1-0.1,1.6l-0.6-0.3c-0.3-0.5-0.5-1-0.6-1.6c-0.1-0.6-0.1-1.2,0.1-1.7
	c0.4-2.1,0.6-4.2,0.6-6.3c0-0.3,0.1-0.6,0.3-0.9c0.2-0.2,0.5-0.4,0.8-0.5C20.5,153.3,21.2,155,20.4,156.6z"/>
<path class="st88" d="M8.1,174v-0.3c0.1,0,0.2,0.1,0.1,0.2C8.2,174,8.2,173.9,8.1,174z"/>
<path class="st128" d="M21.6,146.9c0.2,0.1,0.6,0.1,0.5,0.5c-0.2,0.8-0.2,1.7-0.2,2.5c0,0.3,0,0.7-0.4,0.8c-0.4,0.1-0.6-0.1-0.8-0.3
	l-0.8-0.8c-0.2-0.2-0.5-0.4-0.7-0.4c-1.2,0.5-1.2-0.5-1.6-1.2c1.1-0.4,2.4,0.3,3.3-0.8l0.1-0.1c0.1-0.1,0.2-0.1,0.3-0.2L21.6,146.9z
	"/>
<path class="st129" d="M20,146.6l0.9,0.3l0.2,0.2l-0.1,0.2c-0.3,0-0.5,0-0.8,0c-1.4-0.5-2.8-0.1-4.2,0c-1-1.7-0.5-3.5-0.4-5.2
	c0.3-0.5,0.6-0.4,0.8,0.1c0.2,0.4,0.2,0.9,0.2,1.4c0.2,1.3,0.6,2.4,2.2,2.4c0.3,0,0.6,0.2,0.9,0.4C19.8,146.4,19.9,146.5,20,146.6z"
	/>
<path class="st130" d="M15.9,148.3c0.1,0,0.2,0.1,0.2,0.2c0,0.1,0.1,0.2,0,0.3c0,0.2-0.1,0.4-0.2,0.6s-0.3,0.3-0.4,0.4
	c-0.2,0.1-0.3,0.1-0.5,0.1l-0.2-0.2c-0.2-0.9-0.3-1.9-0.2-2.9c0-0.6,0.2-1.2,0.9-1.2C15.9,146.5,15.4,147.4,15.9,148.3z"/>
<path class="st131" d="M15.9,148.3c-0.6-0.8-0.2-1.7-0.4-2.6c-0.4-0.9-0.6-1.9-0.5-2.9c0-0.3,0.2-0.6,0.4-0.9
	c0.1-0.1,0.1-0.1,0.2-0.1c0.1,0,0.2,0,0.2,0c0,1.8,0.1,3.6,0.1,5.5C15.9,147.6,15.9,147.9,15.9,148.3z"/>
<path class="st132" d="M17.8,149.9c0.5,0.1,0.9,0.4,1.3,0.7c0.4,0.3,0.7,0.8,0.8,1.2c-0.1,0.1-0.2,0.2-0.4,0.2
	c-0.1,0-0.3-0.1-0.4-0.1c-0.6-0.4-1.1-0.9-1.5-1.5c0-0.1,0-0.1,0-0.2S17.7,149.9,17.8,149.9z"/>
<path class="st133" d="M22,155l-0.3,0.3c-0.4-0.1-0.7-0.4-1-0.7c-0.2-0.3-0.3-0.8-0.3-1.2c0-0.2,0.1-0.3,0.3-0.4L22,155z"/>
<path class="st134" d="M15.5,149.5l0.6-0.7c0.1,0.3,0.4,0.6,0.7,0.8c0.1,0.3-0.1,0.4-0.3,0.5c-0.1,0-0.3,0.1-0.4,0.1
	c-0.2,0-0.4-0.1-0.6-0.2c0-0.1-0.1-0.1-0.1-0.2C15.4,149.6,15.4,149.6,15.5,149.5z"/>
<path class="st135" d="M20.7,153l-0.1,0.5c-0.2,0-0.4-0.1-0.5-0.2c-0.2-0.1-0.3-0.2-0.4-0.4s-0.2-0.3-0.2-0.5c0-0.2,0-0.4,0.1-0.6
	H20L20.7,153z"/>
<path class="st136" d="M16.5,149.8l0.3-0.2l1,0.3v0.3c-0.1,0.1-0.2,0.2-0.4,0.3c-0.2,0.1-0.3,0.1-0.5,0c-0.2,0-0.3-0.1-0.4-0.2
	c0-0.1-0.1-0.1-0.1-0.2C16.4,150,16.4,149.9,16.5,149.8z"/>
<path class="st129" d="M20.9,146.9c0.1-0.1,0.2-0.2,0.3-0.2c0.1,0,0.2-0.1,0.4-0.1c0,0.1,0,0.2,0,0.3c0,0-0.1,0.1-0.1,0.1
	c-0.1,0-0.1,0-0.2,0s-0.1,0-0.2,0C21.1,147,21,147,20.9,146.9L20.9,146.9z"/>
<path class="st93" d="M16.5,150.1l0.3,0.1c1.2,0,1.6,1.2,2.5,1.6h0.2c0.2,0.6,0.5,1.2,1,1.7c0.2,0.7,0.6,1.3,1,1.8
	c0.3,0.4,0.6,0.9,0.9,1.3c-0.6,1.2-1.3,0.8-1.9,0h-0.3c0.5-1.7-0.6-2.8-1.6-3.9C17.8,152,16.4,151.7,16.5,150.1z"/>
<path class="st137" d="M20.6,156.6c1,0.5,1,0.5,1.9,0l0.4,0.2c0,0.1,0,0.3,0,0.5c0,0.1,0,0.2,0,0.3l-0.3,0.3
	c-0.5-0.3-1.1-0.4-1.6-0.3c-0.1-0.1-0.2-0.2-0.2-0.3L20.6,156.6z"/>
<path class="st138" d="M10.7,165c-0.4-0.3-0.3-0.8-0.3-1.2c-0.1-1.6,0-3.3,0.3-4.9c0.5-0.2,0.8-0.8,1.4-0.7c0.5,0.1,0.9,0,1.3-0.2
	c0.4-0.2,0.7-0.6,0.9-1c0.2,0.3,0.4,0.7,0.4,1.1c0,0.4,0,0.8-0.1,1.1c-0.3,0.6-0.5,1.2-0.7,1.8c-0.1,0.5-0.2,1-0.8,1
	s-0.6-0.5-0.7-0.9c-0.1-0.1-0.2-0.2-0.1-0.2c0.1,1.6,0,3.1-0.4,4.6c-0.1,0.2-0.3,0.3-0.5,0.2c-0.7-1.2-0.3-2.4-0.5-3.7
	c-0.1-0.2-0.4,0.1-0.2,0c0.2-0.1,0.1,0,0.1,0.1C10.9,163,10.9,164,10.7,165z"/>
<path class="st139" d="M15.5,149.8h0.7c0.3,1.4,0,2.9-0.7,4.1c-0.6,0.2-0.4-0.4-0.6-0.6l0.6-2.4l-1.6,1.5c-0.1-0.1-0.2-0.2-0.2-0.4
	c0-0.2,0-0.3,0.1-0.4c0.1-0.1,0.2-0.2,0.4-0.3c0.5-0.3,0.8-0.7,0.9-1.2c-0.1-0.1-0.1-0.2,0-0.2c0,0,0.1-0.1,0.1-0.1
	C15.3,149.7,15.4,149.7,15.5,149.8z"/>
<path class="st140" d="M14.2,159.2c0-0.8,0-1.5,0.1-2.3c0-0.1,0-0.2,0.1-0.4c0-0.1,0.1-0.2,0.2-0.3c0.1,0.1,0.2,0.2,0.3,0.3
	c0.1,0.1,0.1,0.3,0.1,0.4c0,0.4,0.1,0.7,0.1,1.1c0,0.1,0,0.3,0,0.4c-0.3,0.6-0.4,1.2-0.3,1.8c0,0.1,0,0.3-0.1,0.4c0,0-0.1,0-0.1,0.1
	c0,0-0.1,0-0.1,0s-0.1,0-0.1,0s-0.1,0-0.1-0.1h-0.1c-0.2-0.2-0.3-0.5-0.3-0.8C14,159.7,14,159.4,14.2,159.2z"/>
<path class="st141" d="M15,153.4c0.2,0.2,0.2,0.4,0.3,0.6c0.1,0.1,0.2,0.2,0.3,0.4c0.1,0.1,0.1,0.3,0.1,0.5s-0.1,0.3-0.1,0.5
	c-0.1,0.1-0.2,0.3-0.3,0.4c-0.1,0-0.2,0-0.3,0c-0.1,0-0.2-0.1-0.2-0.1C14.7,154.9,14.8,154.2,15,153.4z"/>
<path class="st142" d="M13.9,152.1c0,0.1,0,0.2,0,0.4c0,0.5-0.5,0.8-0.7,1.2h-0.3c-0.2-0.4,0-0.7,0.1-1.1
	C13.2,152.3,13.4,151.9,13.9,152.1z"/>
<path class="st143" d="M14.6,155.6h0.3c0.2,0.2,0.3,0.4,0.3,0.7c0,0.3,0,0.5-0.2,0.8c0,0,0,0.1-0.1,0.1c0,0-0.1,0-0.1,0.1
	c0,0-0.1,0-0.1,0c0,0-0.1,0-0.1-0.1c0-0.3-0.1-0.6-0.1-1S14.6,155.8,14.6,155.6z"/>
<path class="st107" d="M13.3,152.7c-0.1,0.3-0.3,0.6-0.4,1c-0.4,0.3-0.4,0.8-0.9,1c-0.2-0.4-0.7-0.5-1-0.7v-0.6
	c0.5-0.5,1.1-0.8,1.8-1C13.1,152.3,13.4,152.3,13.3,152.7z"/>
<path class="st144" d="M10.7,156.6c0,0.1-0.1,0.2-0.1,0.2c-0.1,0.1-0.1,0.1-0.2,0.1c0-0.1,0-0.2,0.1-0.2
	C10.5,156.6,10.6,156.6,10.7,156.6z"/>
<path class="st145" d="M13.6,138.9c0.4-0.4,0.6-1.1,1.3-1.3c0.3,0.3,0.5,0.7,0.6,1.2c0.1,0.4,0.1,0.9,0,1.3
	c-0.2,0.4-0.3,0.8-0.9,0.7c-0.5-0.1-0.5-0.5-0.5-0.9c0-0.2,0-0.4-0.1-0.6C13.9,139.2,13.8,139,13.6,138.9z"/>
<path class="st103" d="M13.6,138.9c0.8,0.1,0.6,0.7,0.7,1.2c0.2,0.9,0.6,0.5,0.9,0.1c0.2,0.2,0.3,0.4,0.4,0.7c0,0.3,0,0.5-0.2,0.8
	c-0.2,0.3-0.4,0.6-0.8,0.5c0,0,0,0-0.1-0.1c0,0-0.1,0-0.1,0c0,0-0.1,0-0.1,0c0,0-0.1,0-0.1,0.1c0,0,0,0-0.1,0.1c0,0-0.1,0-0.1,0
	c0,0-0.1,0-0.1,0c0,0-0.1,0-0.1-0.1c0-0.6,0-1.2,0-1.7c0-0.3,0-0.6-0.1-0.8c-0.1-0.3-0.3-0.5-0.5-0.7L13.6,138.9z"/>
<path class="st146" d="M15.2,141.8c0-0.5,0-1.1,0-1.6c0-0.9-0.1-1.7-0.3-2.6c0-0.3,0-0.7,0.1-1c0.1,0,0.1-0.1,0.2-0.1
	c0.1,0,0.1,0,0.2,0.1c0.1,0.2,0.1,0.5,0.2,0.7l0.1,0.6c-0.2,1.3,0.8,2.5,0,3.8c0,0.1,0,0.3-0.1,0.4c-0.1,0.1-0.1,0.2-0.2,0.3
	c-0.1,0-0.1-0.1-0.1-0.1c0-0.1-0.1-0.1-0.1-0.2c0-0.1,0-0.1,0-0.2C15.1,141.9,15.1,141.9,15.2,141.8z"/>
<path class="st147" d="M15.2,136.7h-0.3c0-1.3-0.1-2.6-0.3-3.8c-0.1-0.3-0.2-0.6-0.1-0.9c0-0.3,0.2-0.6,0.4-0.8
	c0.7,1.6,0.4,3.3,0.4,5c0,0.1,0,0.2,0,0.3C15.3,136.6,15.2,136.6,15.2,136.7z"/>
<path class="st148" d="M15.3,136.3c0-1.7-0.1-3.4-0.3-5.2c0.2,0.2,0.4,0.4,0.6,0.7v4.5C15.4,136.5,15.3,136.5,15.3,136.3z"/>
<path class="st149" d="M10.7,165v-3.2c0.3,1.3,0.3,2.6,0.6,3.8c1.3,1.7,0.3,3.5,0.1,5.2c0,0.2-0.1,0.3-0.1,0.5
	c-0.1,0.2-0.2,0.5-0.2,0.7c-0.5,1.2-0.1,2.6-1.2,3.6c-0.5,0-0.3-0.5-0.5-0.7c0-1,0.3-2,0.6-2.9C10.8,169.7,11.4,167.4,10.7,165z"/>
<path class="st150" d="M9.1,181.4c-0.4-0.2-0.3-0.6-0.3-1v-4.5l0.3-0.3c0.4,0.3,0.4,0.8,0.6,1.3c0,0.1,0,0.2,0,0.4
	c0,0.1-0.1,0.2-0.2,0.3C8.8,178.7,9.2,180.1,9.1,181.4z"/>
<path class="st151" d="M9.4,176.8c-0.5-0.3-0.3-0.8-0.3-1.3c0.1-0.2,0.2-0.4,0.3-0.6c0.1,0.1,0.2,0.2,0.3,0.3
	c0.1,0.1,0.1,0.2,0.1,0.4c0.1,0.2,0.1,0.5,0.1,0.7C9.7,176.5,9.6,176.7,9.4,176.8z"/>
<path class="st152" d="M22,132.5h1.6c0.1,0.1,0.2,0.2,0.3,0.3c0.1,0.1,0.3,0.1,0.4,0.3c0.1,0.1,0.2,0.2,0.3,0.4c0,0,0.1,0.1,0.1,0.1
	c0,0,0,0.1,0,0.1c0,0.1,0,0.1-0.1,0.1c-0.6,0.1-1-0.3-1.5-0.4c-0.8-0.1-0.7,0.6-0.7,1c0,1.9-0.2,3.7-0.7,5.5c-0.1,0.4,0,1.2-0.5,1.2
	c-0.8-0.1-0.2-0.9-0.3-1.2c0-0.3-0.3,0-0.1-0.1c0.2-0.1,0.1,0,0.1,0.1c-0.1,1.3-0.8,2.5-0.7,3.9c0.1,0.5-0.1,1.3,0.9,0.9
	c0.5-0.6,0.6-1.6,1.6-1.7c0,0.3,0,0.6,0,1s-0.3,0.4-0.4,0.7c-0.8,1.5-0.8,1.5-2.5,1.3c-0.1,0.1-0.3,0.1-0.4,0.2
	c-0.2,0-0.3,0-0.5-0.1c-1.3-0.6-1.1-1.8-1.2-2.9c-0.1-1.2-0.5-2.1-1.8-2.2c0-0.4-0.2-0.8,0.2-1.2c0.9-1.2,0.6-2.6,0.7-4
	c0-0.4-0.2-0.8,0.5-0.4c0.2,0.1,0.3-0.2,0.4-0.3c0.5-0.7,1-1.2,1.9-0.9c0.5,0.2,0.8-0.1,0.7-0.7c-0.1-0.6-0.3-1.1,0.2-1.5
	c0.1,0.2,0-0.1,0.1,0.1c0.3,0.6,0.6,1.3,1.2,0.2L22,132.5z"/>
<path class="st153" d="M22.6,143.1l-1.3,1.9c-0.9-0.1-0.6-0.7-0.5-1.2c0.4-2.3,1.1-4.5,2.1-6.6c0.3-0.5,0.5-1,0.5-1.6
	c0-0.6-0.2-1.1-0.5-1.6c-0.3-0.4-0.8-1,0.4-1c0.6,0,0.8,0.5,1.3,0.6c0.5,1.1,0.9,2.3,1.3,3.5c-0.5,1.1-0.6,2.6-1.9,3.2
	C23.2,141.2,22.7,142.1,22.6,143.1L22.6,143.1z"/>
<path class="st154" d="M25.8,137.3c-0.7-1.1-1.1-2.3-1.3-3.5v-0.3C25.3,134.6,25.8,135.9,25.8,137.3z"/>
<path class="st152" d="M22.6,143.1c0-0.9,0.3-1.8,0.8-2.5c0.1-0.2,0.3-0.3,0.5-0.1L22.6,143.1z"/>
<path class="st154" d="M23.9,132.8l-0.3-0.3L23.9,132.8z"/>
<path class="st154" d="M13.9,142.1h0.3c-0.2,0.8-0.3,1.6-0.3,2.3c0.1,1.2,0,2.4-0.5,3.4c-0.2,0.5-0.2,0.9-0.1,1.4
	c0.1,0.8-0.3,1.3-1.3,1.6v-4.6c1-0.3,0.9-1.2,0.9-1.9c0-0.6,0.2-1.2,0.4-1.8c0.1-0.1,0.1-0.2,0.2-0.3
	C13.6,142.2,13.8,142.1,13.9,142.1z"/>
<path class="st155" d="M15.2,141.8c0,0.2,0.1,0.4,0.1,0.6c0.2,1.1,0.3,2.2,0.2,3.2c-0.4,0.6-0.6,1.3-0.7,2.1c0,0.7,0.1,1.5,0.4,2.1
	c0,0.1,0,0.2-0.1,0.3c-1-0.3-0.9-1.1-0.9-1.8c-0.1-2.1,0-4.2,0.3-6.2L15.2,141.8z"/>
<path class="st156" d="M13.3,152.7c-0.8,0-1.5,0.6-2.3,0.6c0.5-0.8,1.2-1.6,2.1-2.1c0.1-0.1,0.2-0.1,0.3-0.1c0.1,0,0.2,0,0.3,0
	c0.1,0,0.2,0,0.3,0.1c0.1,0.1,0.2,0.1,0.2,0.2l-0.3,0.7L13.3,152.7z"/>
<path class="st155" d="M14.2,142.1c0.1-0.2,0.2-0.2,0.3,0H14.2z"/>
<path class="st157" d="M15.9,139.9v1.3c0.9,0.2,1.1,0.9,1.4,1.7c0.3,1.1,0.4,2.4,1.5,3.1h0.9c0,0.1,0,0.2,0,0.3c-0.2,0-0.4,0-0.6,0
	c-2.1,0.3-2.7-1.2-2.9-2.8c-0.1-0.6,0.2-1.3-0.4-1.8c-0.1,0-0.2,0-0.2,0V138C16.1,138.5,15.8,139.2,15.9,139.9z"/>
<path class="st157" d="M20,146.6l-0.3-0.3L20,146.6z"/>
<path class="st104" d="M9.4,176.8c0-0.4,0.1-0.9,0.3-1.3c0.8-1.2,0.5-2.6,0.9-3.9c0.1-0.1,0.2-0.2,0.3-0.3v-0.3
	c1.2,0.2,2.6-0.2,3.4,1.2c-0.1-0.1-0.1-0.2-0.1-0.2c-1-1-0.5-1.8,0.2-2.6c0.3-0.3,0.6-0.9,1.2-0.6c0.5,0.3,0.4,0.8,0.2,1.2
	c-0.3,1-0.2,2.1,0.2,3.1h0.3c-0.3,0.4-0.9,0.4-0.7,1.2c0.2,0.8-0.4,1.3-0.3,2c-0.1,0.1-0.2,0.2-0.2,0.3c-0.1,0.1-0.1,0.2-0.1,0.3
	c-0.4-0.3-0.3-0.8-0.2-1.1c0.1-0.3,0.2-0.7,0.2-1.1c0-0.2-0.1-0.5-0.3-0.5c-0.1,0-0.2,0-0.2,0c-0.1,0-0.1,0.1-0.2,0.1
	c-0.4,0.6-0.8,1.1-1.1,1.7c-0.2,0.4-0.5,0.7-0.7,1c-0.2,0.3-0.5,0.6-0.8,0.7c-0.4,0.1-0.7,0.1-1.1-0.1c-0.4-0.1-0.8-0.2-1.2-0.2
	L9.4,176.8z"/>
<path class="st84" d="M14.9,157.2c0-0.5,0-1,0.1-1.6c0.4-0.5,0.2-1.1,0.3-1.6c0.4-1.4,0.8-2.8,1-4.2c0.1,0,0.2-0.1,0.3-0.1
	c0,0.1,0,0.2,0,0.3c0,0.2,0,0.3,0.1,0.4c0.1,0.1,0.2,0.2,0.3,0.3c0.7,0.5,1.3,1.1,1.8,1.8c-0.5,0.4-1.1,0.7-0.6,1.5
	c-0.5,1.8-0.1,3.6-0.6,5.3c-0.4,1.3-0.4,2.7,0,4.1c-0.9-0.6-0.9-1.5-1-2.4c0-0.4,0-0.7,0-1.1c0-0.7-0.1-1.2-1-0.9
	c-0.2,0.1-0.4-0.1-0.6-0.1c0,0-0.1-0.1-0.1-0.1c0-0.1,0-0.1-0.1-0.2c0-0.1,0-0.1,0-0.2c0-0.1,0-0.1,0.1-0.2v-0.4
	c-0.1-0.2-0.1-0.3-0.1-0.5C14.7,157.5,14.8,157.4,14.9,157.2z"/>
<path class="st158" d="M14.9,158.5l0.1,0.7v1c0,0.2-0.1,0.4-0.1,0.7l-0.1,0.1l-0.1-0.1C14.7,160,14.3,159.2,14.9,158.5z"/>
<path class="st159" d="M14.6,160.8h0.2c0,0.4,0.1,0.8,0.1,1.2l-0.3,0.3c0-0.3-0.1-0.6-0.1-0.9c-0.1-0.1-0.1-0.2-0.1-0.4
	C14.4,161,14.5,160.8,14.6,160.8L14.6,160.8z"/>
<path class="st160" d="M14.6,172.4c-0.6-0.4-1.1-1-1.9-0.7c-0.6,0.2-1.1-0.4-1.6-0.6c0-0.6,0.1-1.2,0.3-1.7c0.2-1.2,0.2-2.5,0-3.8
	c0.4-0.4,0.3-0.9,0.3-1.3c0-1.3,0.1-2.6,0.4-3.9c0.5,0,0.5,0.4,0.6,0.7c0.1,0.3,0.1,0.6,0.5,0.5c0.1,0,0.2-0.1,0.3-0.2
	c0.1-0.1,0.1-0.2,0.1-0.4c0.1-0.6-0.2-1.4,0.6-1.8c0,0.5,0,1.1,0,1.6c-0.3,0.5-0.4,1.1-0.3,1.7c0.1,0.6,0.3,1.1,0.7,1.6
	c0.7,1,1.2,2.1,1.4,3.2c0.3,1.2,0.3,2.4,0,3.5c0,0.7,0,1.5,0.2,2.2c-0.3-0.4-0.5-0.9-0.6-1.4c-0.1-0.5-0.1-1,0.1-1.5
	c0.1-0.2,0.2-0.4,0.2-0.6c0-0.2-0.1-0.4-0.2-0.6C14,170.5,14,170.5,14.6,172.4L14.6,172.4z"/>
<path class="st158" d="M14.6,160.8l-0.1,0.7c-0.1-0.1-0.2-0.2-0.2-0.3c0-0.1-0.1-0.3,0-0.4L14.6,160.8z"/>
<path class="st151" d="M21.6,132.5c-0.2,0.6-0.3,1.3-0.1,1.9c-0.4-0.2-0.7-0.6-0.9-0.9c-0.2-0.4-0.3-0.8-0.3-1.3
	C20.8,132.1,21.3,132.2,21.6,132.5z"/>
<path class="st161" d="M15.3,136.3h0.3c0,0.3,0,0.7,0,1c-0.1-0.1-0.2-0.2-0.2-0.3s-0.1-0.3-0.1-0.4
	C15.2,136.5,15.2,136.4,15.3,136.3z"/>
<path class="st125" d="M20,164.3c-0.1,0-0.2-0.1-0.2-0.2c-0.1-0.1-0.1-0.2-0.1-0.3c0-0.1,0-0.2,0.1-0.3c0.1-0.1,0.1-0.2,0.2-0.2
	C20,163.7,20,164,20,164.3z"/>
<path class="st84" d="M19.7,166l0.3-0.4L19.7,166z"/>
<path class="st93" d="M20.7,157.2l0.2,0.3c-0.1,0-0.1,0-0.2-0.1C20.7,157.4,20.7,157.3,20.7,157.2z"/>
<path class="st89" d="M21,147h0.6c-0.1,0.1-0.2,0.2-0.3,0.3c-0.1,0.1-0.3,0.1-0.4,0.1C21,147.2,21,147.1,21,147z"/>
<path class="st155" d="M15.5,149.8h-0.3l0.3-0.4C15.5,149.6,15.5,149.7,15.5,149.8z"/>
<path class="st162" d="M19.4,151.8c0,0.1-0.1,0.1-0.2,0.2c-0.1,0-0.1,0.1-0.2,0.1c-0.1,0-0.2,0-0.2-0.1s-0.1-0.1-0.1-0.2
	c-0.4-0.7-1-1.3-1.8-1.6h0.9C18.4,150.6,19,151.1,19.4,151.8z"/>
<path class="st163" d="M14.9,157.2v1c-0.4-0.3-0.3-0.6-0.2-1C14.7,157.2,14.8,157.2,14.9,157.2z"/>
<path class="st160" d="M11,171.4l-0.3,0.3L11,171.4z"/>
<path class="st154" d="M23.2,133.1c-0.3,0-0.6,0.1-0.3,0.4c1.4,1.3,1.1,2.6,0.2,4.1c-0.8,1.5-1.3,3.1-1.6,4.8
	c-0.1,0.6-0.3,1.1-0.4,1.7c-0.1,0.1-0.1,0.3,0,0.5c0,0.2,0.1,0.3,0.3,0.4c-0.3,0.9-0.8,0.2-1.2,0.1s-0.5-0.3-0.4-0.7
	c0-1.5,0.3-2.9,1-4.2c0.2-0.3,0.1-0.8,0.2-1.3c0.5,0.6,0,1.4,0.4,2c0.3-2.4,1-4.7,0.8-7.1C21.9,132.8,22.1,132.8,23.2,133.1z"/>
<path class="st164" d="M18.7,146c-0.5-0.3-1-0.7-1.3-1.1c-0.3-0.5-0.5-1-0.6-1.6c-0.1-0.8-0.4-1.5-1-2c1.5-0.7,1.8-0.5,1.9,1.1
	C17.9,143.5,17.9,144.9,18.7,146z"/>
<path class="st160" d="M14.6,172.4c0.1,0.1,0.3,0.3,0.2,0.3C14.4,172.8,14.6,172.5,14.6,172.4z"/>
</svg>
