<svg width="70" height="197" viewBox="0 0 70 197" fill="none" xmlns="http://www.w3.org/2000/svg">
<path d="M25.6455 159.696L25.5854 159.636C25.5854 159.636 25.5854 159.576 25.6554 159.636C25.7254 159.696 25.6555 159.636 25.7155 159.696H25.6455Z" fill="#888586"/>
<path d="M22.5357 116.326C21.6657 114.056 20.0657 112.206 18.9057 110.096C15.3157 103.536 11.0557 97.3465 7.60568 90.7065C4.18667 84.3955 1.84452 77.5583 0.675681 70.4765C0.01656 65.1701 -0.16083 59.8149 0.145681 54.4765C0.250025 52.3305 0.737718 50.2205 1.58568 48.2464C2.16568 46.8664 2.80568 45.5165 3.40568 44.1465C4.38511 41.8759 5.87749 39.8632 7.76568 38.2664C9.32194 36.8625 10.5831 35.1628 11.4757 33.2664C14.0085 28.3165 16.2132 23.2055 18.0757 17.9665C19.9409 12.7596 22.9202 8.02267 26.8057 4.08646C31.0357 -0.233545 37.2057 0.0864284 41.7057 3.99643C42.5867 4.79675 43.2098 5.84102 43.4957 6.99643C43.8357 8.17643 44.1257 9.36643 44.4957 10.5564C44.7336 11.5249 45.2321 12.4097 45.9373 13.1148C46.6424 13.82 47.5272 14.3186 48.4957 14.5564C50.4562 15.0763 52.5116 15.1277 54.4957 14.7065C56.144 14.3215 57.8549 14.2873 59.5173 14.606C61.1797 14.9247 62.7566 15.5892 64.1457 16.5564C65.5595 17.5373 66.6602 18.9054 67.3157 20.4964C69.6657 26.0364 69.4657 31.6464 67.8357 37.3064C66.6163 41.5925 64.4496 45.55 61.4957 48.8864C59.5013 51.3365 57.7151 53.949 56.1557 56.6964C53.4734 60.9815 51.0491 65.4227 48.8957 69.9964C47.9203 72.3135 47.3 74.7644 47.0557 77.2664C46.4757 81.5364 46.6857 85.8265 46.4357 90.0965C46.3594 91.9167 46.0433 93.7189 45.4957 95.4565C45.1185 96.6218 44.4263 97.6601 43.4957 98.4565C40.7024 101.044 37.6912 103.386 34.4957 105.456C32.0711 106.943 29.8522 108.742 27.8957 110.806C26.4022 112.553 25.0638 114.427 23.8957 116.406C23.8371 116.552 23.7402 116.679 23.6152 116.774C23.4902 116.869 23.3417 116.929 23.1857 116.946C23.0686 116.96 22.9501 116.948 22.8381 116.911C22.726 116.875 22.6229 116.816 22.5357 116.736C22.504 116.673 22.4875 116.603 22.4875 116.531C22.4875 116.46 22.504 116.39 22.5357 116.326Z" fill="#060607"/>
<path d="M21.6356 169.536C21.5892 169.667 21.5125 169.785 21.4117 169.881C21.3109 169.977 21.1889 170.047 21.0556 170.086C20.9776 170.024 20.8806 169.99 20.7806 169.99C20.6807 169.99 20.5837 170.024 20.5056 170.086C20.1456 170.506 19.6556 170.816 19.5056 171.386C19.1009 171.786 18.7633 172.249 18.5056 172.756C18.3566 172.94 18.1592 173.079 17.9356 173.156C17.698 173.251 17.4332 173.251 17.1956 173.156C16.1956 172.436 16.4556 171.426 16.5556 170.446C16.9356 169.446 16.5556 168.316 16.9156 167.286C17.0256 167.116 17.2256 166.806 17.3456 166.926C18.5456 168.066 20.1356 167.596 21.5156 167.926C22.1956 168.396 21.5356 169.006 21.6356 169.536Z" fill="#DAB1D2"/>
<path d="M28.4357 137.126C28.5045 137.51 28.477 137.906 28.3557 138.276C28.2354 138.526 28.1544 138.792 28.1157 139.066C28.1157 139.146 28.1157 139.206 28.0557 139.226C27.7357 139.296 27.5957 139.096 27.4857 138.846C27.3757 138.44 27.3757 138.012 27.4857 137.606C27.9257 135.796 27.4057 133.896 27.9857 132.086C28.1257 131.636 27.7757 131.426 27.3557 131.356C26.9357 131.286 26.2957 131.356 25.7657 131.266C25.0357 131.036 24.1957 131.126 23.5957 130.506C23.8157 129.646 24.5957 129.906 25.1157 129.786C26.4157 129.666 27.7757 130.096 29.0257 129.436C29.1126 129.348 29.2211 129.284 29.3404 129.251C29.4597 129.217 29.5856 129.216 29.7057 129.246L29.9457 129.576C30.036 129.709 30.0843 129.866 30.0843 130.026C30.0843 130.187 30.036 130.344 29.9457 130.476C29.3482 131.607 28.9331 132.826 28.7157 134.086C28.2957 135.076 28.7557 136.136 28.4357 137.126Z" fill="#2D1E3D"/>
<path d="M29.6853 129.246L29.3453 129.596C28.1553 129.496 27.2753 128.596 26.1453 128.326C25.175 128.014 24.1643 127.846 23.1453 127.826C23.0261 127.783 22.9211 127.708 22.8417 127.609C22.7623 127.511 22.7117 127.392 22.6953 127.266C22.9053 126.266 22.8253 125.166 23.6953 124.386C24.2553 124.696 23.9853 125.146 23.9053 125.566C23.8353 126.256 23.9053 126.766 24.7753 126.926C25.9824 127.144 27.1536 127.527 28.2553 128.066C28.8253 128.336 29.4753 128.546 29.6853 129.246Z" fill="#322442"/>
<path d="M14.8057 125.966C16.0057 124.966 17.3957 125.376 18.7357 125.506C19.8457 125.606 19.8357 125.656 19.9257 124.576L20.0757 122.846C20.1114 122.823 20.1514 122.808 20.1934 122.801C20.2354 122.794 20.2783 122.795 20.3196 122.806C20.3609 122.816 20.3996 122.835 20.4333 122.861C20.467 122.886 20.4951 122.919 20.5157 122.956C20.6471 123.179 20.7258 123.429 20.7457 123.686C20.8361 124.471 20.7955 125.265 20.6257 126.036C20.5756 126.159 20.4968 126.267 20.3958 126.353C20.2948 126.438 20.1747 126.497 20.0457 126.526C18.5857 126.526 17.1257 126.526 15.6657 126.456C15.4901 126.439 15.3181 126.395 15.1557 126.326C15.0764 126.293 15.0046 126.243 14.9445 126.181C14.8844 126.12 14.8372 126.047 14.8057 125.966Z" fill="#362945"/>
<path d="M7.09563 195.836C6.53934 194.879 6.26869 193.783 6.31563 192.676C6.01536 191.073 6.05624 189.423 6.43563 187.836C6.548 187.895 6.64531 187.979 6.71991 188.081C6.79452 188.183 6.84439 188.302 6.86563 188.426C6.93329 188.927 7.03689 189.421 7.17563 189.906C7.42563 191.316 7.17563 192.756 7.38563 194.176C7.527 194.56 7.59485 194.967 7.58563 195.376C7.55798 195.493 7.4968 195.598 7.40969 195.68C7.32258 195.762 7.21338 195.816 7.09563 195.836Z" fill="#72B9BD"/>
<path d="M22.6353 166.316L22.5453 167.196C22.507 167.218 22.4645 167.232 22.4204 167.237C22.3764 167.242 22.3318 167.238 22.2895 167.225C22.2472 167.212 22.2081 167.19 22.1747 167.161C22.1413 167.132 22.1142 167.096 22.0953 167.056C21.8848 166.547 21.7958 165.996 21.8353 165.446C22.2253 163.556 21.7653 161.506 22.9253 159.766C23.7553 160.046 23.3453 160.656 23.2853 161.176C23.2306 162.553 23.0903 163.926 22.8653 165.286C22.6753 165.606 22.8353 165.996 22.6353 166.316Z" fill="#3D2F4A"/>
<path d="M23.8955 125.566C23.8955 125.186 23.8955 124.766 23.6255 124.446C23.1555 124.076 23.3155 123.566 23.3955 123.126C23.6655 121.706 23.7655 120.336 22.6055 119.206C23.4455 118.776 24.2155 118.696 24.7855 119.616L24.4555 121.876C24.2155 122.296 24.4555 122.816 24.2155 123.236C24.3004 124.028 24.1905 124.827 23.8955 125.566Z" fill="#332543"/>
<path d="M7.54573 171.696C7.46063 169.557 7.53082 167.415 7.75573 165.286C7.90742 165.386 8.02583 165.529 8.09573 165.696C8.42573 166.806 8.09573 167.986 8.43573 169.096C8.58231 169.945 8.60924 170.81 8.51573 171.666C8.49518 171.833 8.4479 171.995 8.37573 172.146C8.33772 172.22 8.28393 172.284 8.21823 172.334C8.15253 172.384 8.07655 172.419 7.99573 172.436C7.55573 172.396 7.72573 171.946 7.54573 171.696Z" fill="#563A70"/>
<path d="M24.8053 119.617C24.0957 119.278 23.293 119.186 22.5253 119.357C22.491 119.365 22.4553 119.367 22.4204 119.361C22.3855 119.355 22.3523 119.341 22.323 119.321C22.2937 119.301 22.269 119.276 22.2504 119.245C22.2318 119.215 22.2199 119.182 22.2153 119.147C22.2475 119.041 22.307 118.945 22.3878 118.87C22.4685 118.794 22.5677 118.742 22.6753 118.717C24.1453 118.377 24.1453 118.377 23.1853 116.797L23.8853 116.437C25.5053 117.487 25.6053 117.807 24.8053 119.617Z" fill="#2E2240"/>
<path d="M22.6653 118.946L22.2753 119.316C22.0067 119.463 21.6961 119.515 21.3945 119.462C21.0929 119.409 20.8181 119.256 20.6153 119.026C20.554 118.911 20.522 118.782 20.522 118.651C20.522 118.521 20.554 118.392 20.6153 118.276C20.4953 116.906 21.4553 116.566 22.5053 116.276C22.5053 116.406 22.5553 116.546 22.5753 116.676C21.8253 117.486 22.1053 118.216 22.6653 118.946Z" fill="#302346"/>
<path d="M23.8956 152.696C24.2347 153.751 24.3271 154.87 24.1656 155.966C23.9256 156.226 24.0156 156.636 23.7456 156.886L23.5656 157.006C23.4301 157.056 23.2812 157.056 23.1456 157.006C23.0535 156.946 22.9742 156.868 22.9124 156.777C22.8506 156.686 22.8075 156.584 22.7856 156.476C22.7867 156.329 22.8245 156.185 22.8956 156.056C23.5156 155.136 22.9656 154.056 23.2456 153.056C23.2927 152.91 23.3674 152.774 23.4656 152.656C23.5329 152.618 23.6101 152.602 23.6869 152.609C23.7637 152.616 23.8365 152.647 23.8956 152.696Z" fill="#68B4C3"/>
<path d="M6.52555 188.456L6.43555 187.836C6.59555 185.666 6.43555 183.476 6.79555 181.306C7.34555 181.726 7.24555 182.306 7.29555 182.936V186.366C7.36708 187.046 7.27094 187.732 7.01555 188.366C6.9584 188.438 6.87737 188.486 6.78735 188.503C6.69733 188.519 6.60437 188.503 6.52555 188.456Z" fill="#415761"/>
<path d="M8.89551 157.896L9.19551 154.646C9.28551 154.436 9.38551 154.256 9.65551 154.266C9.78242 154.333 9.88157 154.443 9.93551 154.576C10.0555 155.256 9.61551 156.026 10.2655 156.576C10.3568 156.679 10.4342 156.793 10.4955 156.916C10.5114 156.981 10.5134 157.048 10.5014 157.114C10.4893 157.179 10.4634 157.241 10.4255 157.296C10.2979 157.442 10.1574 157.576 10.0055 157.696C9.83759 157.889 9.64609 158.061 9.43551 158.206C9.37772 158.234 9.31452 158.248 9.25051 158.248C9.1865 158.248 9.12329 158.234 9.06551 158.206C8.99615 158.11 8.93904 158.006 8.89551 157.896Z" fill="#684D69"/>
<path d="M23.8956 152.696H23.5956C23.092 151.91 22.8699 150.976 22.9656 150.046C23.054 149.641 23.1175 149.23 23.1556 148.816C23.2556 148.376 23.0756 147.816 23.7856 147.646L23.8956 152.696Z" fill="#5699A1"/>
<path d="M13.8954 128.566C14.1354 127.676 13.9854 126.646 14.8254 125.966L14.9354 126.076L15.0454 126.216C15.0454 126.276 15.0454 126.336 15.0454 126.396C15.0734 126.579 15.1344 126.755 15.2254 126.916C15.2959 127.03 15.3428 127.157 15.3635 127.289C15.3841 127.421 15.3779 127.556 15.3454 127.686C15.206 128.093 14.9809 128.464 14.6854 128.776C14.5291 128.937 14.3188 129.033 14.0954 129.046C13.8954 128.966 13.7254 128.836 13.8954 128.566Z" fill="#422A4C"/>
<path d="M11.8955 186.156L10.6155 189.696C10.3155 189.696 10.2155 189.526 10.1255 189.296C10.1239 188.028 10.5742 186.802 11.3955 185.836C11.7055 185.696 11.8355 185.896 11.8955 186.156Z" fill="#4A888D"/>
<path d="M8.72555 158.696L8.80555 158.206C8.82244 158.187 8.84321 158.172 8.86649 158.161C8.88976 158.151 8.91501 158.146 8.94055 158.146C8.96608 158.146 8.99133 158.151 9.0146 158.161C9.03788 158.172 9.05865 158.187 9.07555 158.206H9.16555C9.33866 158.458 9.45208 158.745 9.49714 159.046C9.54221 159.348 9.51772 159.656 9.42555 159.946C9.23555 160.566 9.22555 161.236 9.02555 161.856C8.95705 162.004 8.84075 162.124 8.69555 162.196C8.39555 162.196 8.28555 162.016 8.18555 161.786C8.21473 161.02 8.32535 160.259 8.51555 159.516C8.61547 159.252 8.6859 158.977 8.72555 158.696Z" fill="#443952"/>
<path d="M13.8957 128.566L14.2157 128.946C14.6157 129.876 13.9557 130.666 13.8757 131.536C13.6457 131.956 13.6457 132.536 12.8757 132.536C12.8144 132.426 12.7822 132.302 12.7822 132.176C12.7822 132.05 12.8144 131.926 12.8757 131.816C13.0236 130.682 13.3688 129.582 13.8957 128.566Z" fill="#482F5D"/>
<path d="M9.46546 152.406C9.25044 150.706 9.25044 148.986 9.46546 147.286C9.50448 147.261 9.54866 147.244 9.5949 147.237C9.64114 147.23 9.68832 147.233 9.73312 147.247C9.77792 147.26 9.81925 147.283 9.85421 147.314C9.88917 147.345 9.91691 147.383 9.93547 147.426C10.2717 148.897 10.3192 150.418 10.0755 151.906C9.95546 152.186 9.82546 152.436 9.46546 152.406Z" fill="#2B2237"/>
<path d="M11.0957 138.916C11.2511 137.799 11.5399 136.705 11.9557 135.656C12.0744 135.684 12.1835 135.743 12.2714 135.828C12.3594 135.912 12.4231 136.019 12.4557 136.136C12.5134 137.175 12.1898 138.199 11.5457 139.016C11.4682 139.038 11.3867 139.04 11.3082 139.022C11.2297 139.005 11.1568 138.969 11.0957 138.916Z" fill="#563773"/>
<path d="M23.2856 161.176C23.1656 160.726 23.3956 160.176 22.9656 159.816C22.8106 159.682 22.6979 159.506 22.6411 159.309C22.5843 159.112 22.5859 158.903 22.6456 158.706C22.698 158.466 22.775 158.231 22.8756 158.006C22.9144 157.89 22.9759 157.782 23.0565 157.689C23.1372 157.597 23.2355 157.521 23.3456 157.466C23.4261 157.454 23.5082 157.474 23.5751 157.52C23.642 157.566 23.6887 157.637 23.7056 157.716C23.7389 158.052 23.7083 158.392 23.6156 158.716C23.6591 159.55 23.5471 160.384 23.2856 161.176Z" fill="#453257"/>
<path d="M9.79551 191.696L8.73552 194.496C8.70529 194.524 8.66912 194.544 8.62977 194.556C8.59042 194.568 8.54892 194.57 8.50843 194.564C8.46793 194.557 8.42951 194.541 8.39608 194.517C8.36265 194.493 8.3351 194.462 8.31552 194.426C8.21433 193.845 8.26319 193.248 8.45745 192.692C8.65171 192.135 8.98494 191.638 9.42552 191.246C9.71552 191.266 9.89551 191.346 9.79551 191.696Z" fill="#407B81"/>
<path d="M7.89565 165.696C7.84298 165.586 7.79624 165.472 7.75565 165.356C7.67259 164.343 7.79156 163.323 8.10565 162.356C8.24967 162.437 8.37605 162.546 8.47737 162.677C8.57869 162.807 8.6529 162.957 8.69565 163.116C8.84774 163.933 8.71353 164.777 8.31565 165.506C8.28053 165.584 8.2186 165.645 8.14135 165.68C8.0641 165.715 7.9768 165.721 7.89565 165.696Z" fill="#372846"/>
<path d="M27.0257 140.516L25.1057 142.446C25.0783 142.469 25.0464 142.485 25.0122 142.494C24.9779 142.504 24.9421 142.505 24.9072 142.5C24.8722 142.494 24.8388 142.481 24.8092 142.461C24.7797 142.442 24.7546 142.416 24.7357 142.386C24.6812 142.202 24.6775 142.006 24.725 141.819C24.7725 141.633 24.8695 141.462 25.0057 141.326C25.4857 140.856 25.8757 140.266 26.5857 140.096C26.6422 140.095 26.6983 140.105 26.751 140.125C26.8037 140.146 26.8518 140.176 26.8927 140.215C26.9336 140.254 26.9663 140.301 26.9892 140.352C27.012 140.404 27.0244 140.46 27.0257 140.516Z" fill="#402E53"/>
<path d="M10.0856 143.756C10.0288 143.53 10.0208 143.295 10.0622 143.065C10.1036 142.836 10.1934 142.618 10.3256 142.426C10.3793 142.423 10.4324 142.439 10.4747 142.473C10.5171 142.506 10.5459 142.553 10.5556 142.606C10.5556 142.896 10.7756 142.686 10.8956 142.696C11.0111 142.736 11.1121 142.809 11.1856 142.906C11.3186 143.135 11.4047 143.389 11.4391 143.651C11.4734 143.914 11.4552 144.181 11.3856 144.436C11.2321 144.544 11.0436 144.589 10.858 144.563C10.6724 144.537 10.5035 144.442 10.3856 144.296C10.2856 144.136 10.2156 143.926 10.0856 143.756Z" fill="#9B70AA"/>
<path d="M10.4657 142.776C10.4657 142.656 10.3757 142.546 10.3257 142.426C10.3517 141.415 10.5795 140.418 10.9957 139.496C11.2022 139.655 11.3385 139.888 11.3757 140.146C11.4334 140.477 11.4334 140.815 11.3757 141.146C11.3207 141.732 11.0868 142.287 10.7057 142.736L10.6057 142.836L10.4657 142.776Z" fill="#604374"/>
<path d="M24.7555 142.456H25.1055L24.1655 145.026C24.1018 145.068 24.0247 145.086 23.949 145.075C23.8733 145.064 23.8044 145.025 23.7555 144.966C23.658 144.793 23.5987 144.6 23.5814 144.402C23.5642 144.204 23.5894 144.004 23.6555 143.816C23.8955 143.286 23.9955 142.586 24.7555 142.456Z" fill="#4A4667"/>
<path d="M9.46566 152.406L9.78566 152.046C9.85378 152.02 9.92809 152.015 9.99926 152.031C10.0704 152.047 10.1353 152.084 10.1857 152.136C10.2658 152.263 10.3265 152.402 10.3657 152.546C10.4545 153.07 10.3477 153.607 10.0657 154.056L9.91566 154.227L9.71566 154.336H9.42566C9.4009 154.331 9.37787 154.319 9.35846 154.303C9.33906 154.286 9.32384 154.266 9.31407 154.242C9.30429 154.219 9.30025 154.193 9.30226 154.168C9.30428 154.143 9.3123 154.118 9.32566 154.096L9.46566 152.406Z" fill="#56415C"/>
<path d="M6.89564 182.876C6.89564 182.356 6.82564 181.876 6.78564 181.306L6.86564 179.436C6.90041 179.41 6.94016 179.392 6.98233 179.383C7.02451 179.374 7.06819 179.373 7.11056 179.382C7.15293 179.39 7.19307 179.407 7.22838 179.432C7.2637 179.457 7.29342 179.489 7.31564 179.526C7.48841 179.831 7.57806 180.176 7.57564 180.526C7.67326 181.309 7.58416 182.104 7.31564 182.846C7.19564 183.026 7.05564 183.036 6.89564 182.876Z" fill="#2D2E4C"/>
<path d="M7.54527 171.696C7.72799 171.869 7.83869 172.105 7.85527 172.356C8.22534 173.001 8.34293 173.76 8.18527 174.486C8.17371 174.648 8.13658 174.806 8.07527 174.956C8.01007 175.108 7.89316 175.232 7.74527 175.306C7.46527 175.306 7.29527 175.146 7.43527 174.826C7.387 173.782 7.42378 172.735 7.54527 171.696Z" fill="#3A2C5A"/>
<path d="M16.7657 175.256C16.4776 175.982 16.0759 176.657 15.5757 177.256C15.4484 177.171 15.3506 177.049 15.2957 176.906C15.2406 176.686 15.2406 176.456 15.2957 176.236C15.5357 175.706 15.6757 175.096 16.2957 174.836C16.6057 174.846 16.6757 175.056 16.7657 175.256Z" fill="#47325E"/>
<path d="M12.8956 131.786V132.566C13.4256 133.256 13.1456 133.846 12.6756 134.406C12.6067 134.454 12.5246 134.48 12.4406 134.48C12.3565 134.48 12.2745 134.454 12.2056 134.406C12.257 133.495 12.4916 132.604 12.8956 131.786Z" fill="#543A6A"/>
<path d="M23.8953 144.986H24.2153L23.8753 147.246C23.4253 147.246 23.3753 146.906 23.2753 146.586C23.2065 146.179 23.2339 145.761 23.3553 145.366C23.392 145.253 23.4645 145.155 23.5619 145.086C23.6593 145.018 23.7763 144.982 23.8953 144.986Z" fill="#4F5C6C"/>
<path d="M15.4957 176.776L15.5757 177.256C15.51 177.931 15.261 178.574 14.8557 179.116C14.5657 179.176 14.4557 178.996 14.3857 178.766C14.3959 178.083 14.6393 177.423 15.0757 176.896C15.1973 176.808 15.346 176.766 15.4957 176.776Z" fill="#422F55"/>
<path d="M13.8955 181.346L12.8955 183.586C12.6255 183.636 12.5055 183.466 12.4255 183.246C12.3653 183.03 12.3653 182.802 12.4255 182.586C12.5818 182.168 12.7901 181.772 13.0455 181.406C13.1457 181.3 13.2739 181.223 13.4155 181.186C13.5024 181.174 13.5909 181.182 13.6742 181.21C13.7574 181.238 13.8332 181.284 13.8955 181.346Z" fill="#3E435D"/>
<path d="M9.79539 191.696L9.46539 191.336C9.3224 190.957 9.33209 190.536 9.49244 190.163C9.65278 189.79 9.95131 189.494 10.3254 189.336L10.6154 189.676C10.4364 190.384 10.1604 191.064 9.79539 191.696Z" fill="#5E9B9E"/>
<path d="M7.10534 178.086L7.24534 176.176C7.33687 176.152 7.43399 176.162 7.51862 176.205C7.60325 176.247 7.66961 176.319 7.70534 176.406C7.87534 177.406 8.42534 178.406 7.17534 179.156C7.07597 178.998 7.01756 178.817 7.00534 178.63C6.99312 178.443 7.02748 178.257 7.10534 178.086Z" fill="#3C305A"/>
<path d="M17.4656 173.146L18.0956 172.966C18.1856 173.046 18.2156 173.116 18.1756 173.186C18.1356 173.256 18.1156 173.296 18.0856 173.296L16.8956 175.006C16.766 174.94 16.6635 174.83 16.6056 174.696C16.5724 174.522 16.5766 174.343 16.618 174.17C16.6594 173.998 16.737 173.836 16.8456 173.696C16.9957 173.458 17.2108 173.267 17.4656 173.146Z" fill="#5E466A"/>
<path d="M18.4157 172.626C18.4492 172.361 18.548 172.107 18.7033 171.889C18.8586 171.671 19.0656 171.495 19.3057 171.376C19.4257 171.226 19.5457 171.236 19.6557 171.376C19.3193 171.972 18.9057 172.52 18.4257 173.006C18.3855 172.98 18.3549 172.942 18.3387 172.897C18.3224 172.851 18.3214 172.802 18.3357 172.756C18.3557 172.696 18.3857 172.626 18.4157 172.626Z" fill="#AC94B0"/>
<path d="M19.6557 171.376H19.3057C19.4212 171.038 19.6039 170.726 19.8427 170.46C20.0816 170.193 20.3717 169.978 20.6957 169.826C20.7486 169.889 20.7776 169.969 20.7776 170.051C20.7776 170.133 20.7486 170.213 20.6957 170.276L19.6557 171.376Z" fill="#9B7B9B"/>
<path d="M20.6455 118.276V118.906C20.8492 119.152 20.9804 119.45 21.0246 119.766C21.0687 120.082 21.0241 120.404 20.8955 120.696C20.8594 120.777 20.8056 120.849 20.7381 120.906C20.6706 120.963 20.5911 121.004 20.5055 121.026L20.2755 120.896C20.1713 120.006 20.2988 119.103 20.6455 118.276Z" fill="#453954"/>
<path d="M9.52539 146.326C9.55052 145.733 9.70767 145.152 9.98539 144.626C10.0991 144.696 10.1964 144.789 10.2707 144.899C10.3449 145.01 10.3943 145.135 10.4154 145.266C10.4978 145.561 10.5054 145.872 10.4372 146.171C10.3691 146.47 10.2276 146.746 10.0254 146.977C9.41539 147.107 9.67539 146.556 9.52539 146.326Z" fill="#614B6F"/>
<path d="M12.2853 134.406H12.6153C13.1053 135.066 12.8753 135.576 12.2653 136.006L11.9553 135.646C11.9157 135.207 12.0325 134.768 12.2853 134.406Z" fill="#52386C"/>
<path d="M23.5257 146.576C23.5425 146.837 23.6485 147.084 23.8257 147.276C23.8257 147.406 23.8257 147.526 23.8257 147.656C23.4657 147.996 23.6357 148.446 23.5557 148.836C23.5255 148.866 23.4887 148.888 23.4482 148.901C23.4078 148.914 23.3649 148.917 23.323 148.91C23.2811 148.904 23.2414 148.887 23.2071 148.862C23.1729 148.837 23.145 148.804 23.1257 148.766C22.9752 148.454 22.897 148.113 22.897 147.766C22.897 147.42 22.9752 147.078 23.1257 146.766C23.1642 146.697 23.2235 146.641 23.2952 146.607C23.367 146.573 23.4476 146.562 23.5257 146.576Z" fill="#3F7588"/>
<path d="M7.0957 195.836L7.4457 195.556H7.5957L7.7357 195.616L7.7857 195.466C7.88526 195.427 7.99615 195.427 8.0957 195.466C8.16264 195.513 8.21125 195.581 8.23316 195.66C8.25507 195.738 8.24889 195.822 8.2157 195.896C8.1557 196.226 8.0257 196.546 7.6557 196.526C7.2857 196.506 7.1657 196.156 7.0957 195.836Z" fill="#4D616C"/>
<path d="M12.6056 183.246L12.8856 183.586L12.2556 185.206C11.9756 185.206 11.8556 185.076 11.7656 184.856C11.7109 184.633 11.7109 184.399 11.7656 184.176C11.9756 183.796 11.9756 183.246 12.6056 183.246Z" fill="#466374"/>
<path d="M14.5454 178.786L14.8554 179.116C14.7763 179.591 14.5727 180.036 14.2654 180.406C14.1511 180.387 14.0451 180.333 13.9614 180.253C13.8776 180.173 13.8198 180.07 13.7954 179.956C13.8954 179.456 13.7654 178.846 14.5454 178.786Z" fill="#4E3963"/>
<path d="M7.54561 176.216C7.44618 176.231 7.34504 176.231 7.24561 176.216C7.142 175.765 7.2097 175.291 7.43561 174.886L7.76561 175.266C8.08561 175.696 8.20561 176.016 7.54561 176.216Z" fill="#47366E"/>
<path d="M8.21538 195.866L7.86538 195.556C7.55538 195.136 7.78538 194.806 8.05538 194.486C8.11682 194.434 8.19479 194.405 8.27538 194.405C8.35596 194.405 8.43393 194.434 8.49538 194.486H8.73538C8.74416 194.995 8.55817 195.489 8.21538 195.866Z" fill="#66AEB1"/>
<path d="M21.6353 169.536C20.9953 169.086 21.8253 168.626 21.6353 168.176C21.7129 168.08 21.8233 168.016 21.9453 167.996C22.0077 168 22.0685 168.017 22.1236 168.047C22.1788 168.076 22.2271 168.117 22.2653 168.166C22.3753 168.576 22.0053 168.816 21.9153 169.166C21.8342 169.253 21.7606 169.347 21.6953 169.446L21.6353 169.536Z" fill="#6E576D"/>
<path d="M20.3355 122.856H20.0755C19.9997 122.182 20.0748 121.499 20.2955 120.856L20.4255 120.966C20.6497 121.236 20.7648 121.579 20.7481 121.929C20.7315 122.279 20.5843 122.61 20.3355 122.856Z" fill="#453954"/>
<path d="M10.0957 145.386C10.0957 145.136 10.0257 144.886 9.9857 144.626C9.9457 144.366 10.0557 144.046 10.0857 143.756L10.3857 144.066C10.5356 144.26 10.6259 144.492 10.6457 144.736C10.6157 145.076 10.5357 145.386 10.0957 145.386Z" fill="#502E72"/>
<path d="M13.9854 180.066C14.0754 180.176 14.1654 180.296 14.2654 180.406C14.2127 180.75 14.0714 181.074 13.8553 181.346H13.7054H13.5654C13.4921 181.239 13.4445 181.116 13.4263 180.987C13.4081 180.858 13.4198 180.727 13.4603 180.603C13.5009 180.479 13.5694 180.367 13.6604 180.274C13.7514 180.181 13.8626 180.11 13.9854 180.066Z" fill="#312347"/>
<path d="M11.9657 184.846L12.2557 185.206L11.8957 186.206L11.6257 185.826C11.3957 185.346 11.3357 184.976 11.9657 184.846Z" fill="#4B7E85"/>
<path d="M23.6155 158.696L23.5555 157.516C23.4766 157.434 23.4326 157.325 23.4326 157.211C23.4326 157.097 23.4766 156.988 23.5555 156.906L23.6055 156.846C23.8955 156.846 24.0755 156.946 23.9755 157.286C23.9786 157.779 23.8546 158.265 23.6155 158.696Z" fill="#4D4761"/>
<path d="M23.9457 157.286L23.5757 156.846C23.7657 156.556 23.8257 156.156 24.1957 155.986C24.1957 156.436 24.3857 156.916 23.9457 157.286Z" fill="#5B8193"/>
<path d="M8.40547 163.026C8.21946 162.844 8.11183 162.597 8.10547 162.336L8.18547 161.756L8.49547 162.096C8.55476 162.161 8.59975 162.238 8.62754 162.322C8.65534 162.405 8.66532 162.494 8.65684 162.581C8.64836 162.669 8.62161 162.754 8.57831 162.83C8.53501 162.907 8.47614 162.974 8.40547 163.026Z" fill="#2B1F3B"/>
<path d="M24.2356 123.236C24.1856 122.756 24.0756 122.236 24.4756 121.876C24.5474 122.344 24.463 122.822 24.2356 123.236Z" fill="#4A4255"/>
<path d="M11.0454 140.246V139.496L11.1454 138.916H11.4154C11.5336 139.036 11.6173 139.186 11.6578 139.35C11.6982 139.513 11.694 139.685 11.6454 139.846C11.4954 140.096 11.3454 140.276 11.0454 140.246Z" fill="#51366F"/>
<path d="M7.10531 178.086L7.18531 179.156L7.27531 179.276L7.18531 179.386H6.87531C6.77712 178.94 6.85981 178.472 7.10531 178.086Z" fill="#645C71"/>
<path d="M22.6354 166.316C22.5798 166.144 22.5719 165.961 22.6124 165.785C22.6529 165.609 22.7403 165.447 22.8654 165.316C22.9013 165.49 22.8994 165.669 22.8597 165.842C22.82 166.014 22.7435 166.176 22.6354 166.316Z" fill="#54455B"/>
<path d="M22.2256 167.156H22.5456C22.5688 167.282 22.5578 167.411 22.5138 167.53C22.4698 167.65 22.3944 167.756 22.2956 167.836C22.204 167.82 22.1175 167.782 22.0428 167.727C21.9682 167.671 21.9075 167.599 21.8656 167.516C21.8209 167.4 21.8209 167.272 21.8656 167.156C21.9175 167.117 21.9806 167.096 22.0456 167.096C22.1105 167.096 22.1736 167.117 22.2256 167.156Z" fill="#54455B"/>
<path d="M9.52568 146.326L9.78568 146.996L9.84568 147.126L9.73568 147.236L9.45568 147.286C9.37792 146.967 9.4024 146.631 9.52568 146.326Z" fill="#5D5067"/>
<path d="M22.0257 167.536L22.2957 167.876C22.3152 167.922 22.3253 167.971 22.3253 168.021C22.3253 168.071 22.3152 168.12 22.2957 168.166H21.8957C21.8307 168.065 21.8079 167.942 21.8322 167.825C21.8565 167.707 21.926 167.603 22.0257 167.536Z" fill="#36263F"/>
<path d="M18.4157 172.626V173.006C18.4017 173.087 18.3601 173.16 18.298 173.213C18.2359 173.266 18.1573 173.295 18.0757 173.296V172.966C18.0878 172.881 18.1276 172.801 18.1889 172.74C18.2502 172.678 18.3298 172.639 18.4157 172.626Z" fill="#96849C"/>
<path d="M16.8053 174.386C16.8053 174.596 16.8553 174.796 16.8853 175.006C16.8869 175.054 16.8769 175.102 16.856 175.146C16.8351 175.189 16.804 175.227 16.7653 175.256L16.4753 174.926C16.3953 174.636 16.5553 174.476 16.8053 174.386Z" fill="#301F43"/>
<path d="M9.32554 154.106C9.37495 154.179 9.40898 154.26 9.42555 154.346L9.15554 154.646C9.12981 154.6 9.11378 154.549 9.10844 154.496C9.10309 154.444 9.10854 154.39 9.12444 154.34C9.14035 154.289 9.16639 154.243 9.20096 154.203C9.23554 154.162 9.27793 154.13 9.32554 154.106Z" fill="#D6ACCF"/>
<path d="M8.72528 158.696C8.76679 158.835 8.76914 158.981 8.73206 159.121C8.69499 159.26 8.61994 159.387 8.51528 159.486C8.47814 159.348 8.47798 159.202 8.51482 159.063C8.55167 158.925 8.62424 158.798 8.72528 158.696Z" fill="#4D4458"/>
<path d="M9.07566 158.176H8.80566L8.85566 157.866L9.07566 158.176Z" fill="#4D4458"/>
<path d="M21.6855 169.446C21.6813 169.412 21.684 169.377 21.6933 169.344C21.7027 169.311 21.7185 169.28 21.7399 169.253C21.7613 169.226 21.7878 169.204 21.818 169.187C21.8481 169.17 21.8813 169.16 21.9155 169.156C21.919 169.224 21.8976 169.291 21.8553 169.345C21.8129 169.398 21.7526 169.434 21.6855 169.446Z" fill="#DAB1D2"/>
<path d="M20.6855 170.276V169.826C20.9055 169.826 20.9955 169.896 21.0455 170.086L20.6855 170.276Z" fill="#79657B"/>
<path d="M23.1554 115.456C21.6254 112.796 20.1554 110.216 18.6654 107.606C16.8154 104.286 14.7454 101.096 12.8454 97.8161C8.65541 90.5462 4.52541 83.2362 2.55541 74.9662C1.40858 69.4644 0.852092 63.856 0.895414 58.2361C0.863405 52.6456 2.39057 47.1568 5.30541 42.3862C6.18442 40.9842 7.28934 39.7374 8.57541 38.6962C10.1182 37.28 11.3772 35.5832 12.2854 33.6962C14.8495 28.707 17.1103 23.5676 19.0554 18.3061C20.8713 13.4321 23.6498 8.97355 27.2254 5.19615C31.1454 0.996151 36.4754 1.19617 40.7654 4.65617C41.6284 5.39257 42.243 6.37741 42.5254 7.47618C42.8554 8.59618 43.1554 9.73613 43.4754 10.8661C43.7801 11.9826 44.3743 12.9987 45.1979 13.8118C46.0215 14.6248 47.0452 15.2058 48.1654 15.4961C50.3281 16.1306 52.617 16.2029 54.8154 15.7062C56.308 15.3647 57.8555 15.3387 59.3588 15.6297C60.8621 15.9207 62.288 16.5224 63.5454 17.3962C64.8305 18.2757 65.8286 19.5137 66.4154 20.9562C68.5654 26.0162 68.4854 31.1461 67.1154 36.3561C65.9328 40.9311 63.6538 45.1494 60.4754 48.6462C58.2321 51.3787 56.2438 54.3109 54.5354 57.4062C52.178 61.2275 50.0477 65.1844 48.1554 69.2561C47.0082 71.9395 46.296 74.7886 46.0454 77.6962C45.5854 81.6962 45.7454 85.6962 45.4554 89.6962C45.3642 91.2432 45.1366 92.7792 44.7754 94.2862C44.4919 95.608 43.7907 96.8035 42.7754 97.6962C40.0621 100.109 37.2034 102.353 34.2154 104.416C30.5654 106.806 26.9654 109.416 24.7954 113.416C24.3968 114.05 23.9488 114.652 23.4554 115.216C23.3687 115.312 23.2675 115.393 23.1554 115.456Z" fill="white"/>
<path d="M22.6657 118.947C22.2257 118.547 21.2957 118.667 21.3357 117.787C21.3757 116.907 22.1657 117.067 22.6057 116.727L23.1857 116.797C23.5098 116.975 23.8236 117.172 24.1257 117.387C24.4157 117.617 24.7557 117.887 24.6357 118.307C24.5157 118.727 24.0857 118.927 23.6357 118.937C23.1857 118.947 22.9857 118.947 22.6657 118.947Z" fill="#543387"/>
<path d="M22.0255 167.536C21.9655 167.746 21.9155 167.956 21.8555 168.156H21.7355H21.6255C21.0355 168.156 20.4455 168.156 19.8655 168.156C18.8655 168.156 17.8655 168.276 17.3955 167.086L17.1155 167.206C16.2455 167.066 16.5355 166.206 16.2455 165.746C16.0244 165.172 15.7638 164.614 15.4655 164.076C15.2155 163.436 14.6955 162.836 15.1055 162.076C15.1669 162.028 15.2383 161.994 15.3143 161.977C15.3904 161.96 15.4693 161.959 15.5455 161.976C16.5908 163.31 17.4487 164.78 18.0955 166.346C18.5455 167.246 19.0955 167.716 20.0955 167.106C20.3802 166.923 20.7148 166.832 21.0532 166.846C21.3916 166.861 21.7173 166.979 21.9855 167.186L22.0255 167.536Z" fill="#B88EBF"/>
<path d="M16.5357 165.576C17.0257 166.016 16.6057 166.786 17.1157 167.226C17.2163 168.312 17.1352 169.407 16.8757 170.466C16.7187 170.392 16.5796 170.284 16.4675 170.151C16.3554 170.019 16.2729 169.863 16.2257 169.696C16.0708 168.503 16.0006 167.3 16.0157 166.096C16.0397 165.967 16.1022 165.848 16.1951 165.756C16.2879 165.663 16.4066 165.6 16.5357 165.576Z" fill="#7A4989"/>
<path d="M16.5256 169.816C16.7856 169.966 16.7856 170.246 16.8756 170.466C16.8756 171.396 16.5156 172.466 17.4656 173.146C17.4624 173.259 17.4266 173.367 17.3627 173.46C17.2988 173.552 17.2095 173.624 17.1056 173.666C16.8818 173.59 16.681 173.458 16.5219 173.284C16.3628 173.109 16.2505 172.896 16.1956 172.666C16.0856 171.696 15.7756 170.696 16.5256 169.816Z" fill="#593168"/>
<path d="M15.2157 127.696C15.2302 127.572 15.2161 127.446 15.1745 127.328C15.1329 127.21 15.0649 127.104 14.9757 127.016C14.6757 126.846 14.7057 126.636 14.8857 126.396C14.9814 126.272 15.0962 126.164 15.2257 126.076C16.8312 125.883 18.4584 125.989 20.0257 126.386C20.4325 126.837 20.9365 127.189 21.4996 127.416C22.0627 127.643 22.6701 127.739 23.2757 127.696C23.6657 127.556 24.0357 127.296 24.4857 127.436C26.1757 128.006 27.9957 128.286 29.3457 129.616C29.2657 130.276 28.7657 130.296 28.2757 130.296C27.2757 130.296 26.2757 130.246 25.2757 130.216C22.5253 130.162 19.7971 129.711 17.1757 128.876C16.4657 128.516 15.4657 128.696 15.2157 127.696Z" fill="#56358B"/>
<path d="M27.7154 138.896L26.7154 140.136L25.1554 141.496C24.6654 140.636 25.3054 139.946 25.5654 139.256C25.9403 138.523 26.1357 137.71 26.1357 136.886C26.1357 136.062 25.9403 135.25 25.5654 134.516C24.8754 133.256 24.7754 131.676 23.5654 130.716L23.6354 130.506L25.8854 130.896C27.1454 131.026 27.6354 131.706 27.7954 132.976C28.002 134.549 28.0188 136.14 27.8454 137.716L27.7154 138.896Z" fill="#58338A"/>
<path d="M27.7757 137.696C27.7058 136.911 27.7058 136.122 27.7757 135.336C27.9857 134.146 27.1657 133.196 27.1757 132.036C27.1757 131.426 26.3057 131.246 25.8257 130.876L28.5057 131.016C28.8957 131.536 28.4457 131.936 28.3257 132.356C28.0948 133.552 27.9876 134.769 28.0057 135.986C28.085 136.567 28.0055 137.158 27.7757 137.696Z" fill="#512D83"/>
<path d="M17.0854 128.546C17.1912 128.469 17.3157 128.422 17.4459 128.41C17.576 128.398 17.7071 128.421 17.8254 128.476C20.0926 129.248 22.4416 129.755 24.8254 129.986C24.9787 130.034 25.1238 130.105 25.2554 130.196C24.7054 130.356 24.0754 130.026 23.5854 130.506V130.636C22.6954 131.016 21.9054 130.466 21.0754 130.356C20.7154 130.266 20.3654 130.146 20.0054 130.036L19.4054 129.826C19.2054 129.766 19.0154 129.696 18.8054 129.646L18.3854 129.566C17.8954 129.366 17.2454 129.246 17.0854 128.546Z" fill="#372153"/>
<path d="M20.6657 120.886C20.6657 120.226 20.6657 119.566 20.6657 118.886L22.2557 119.296C22.2953 119.313 22.3378 119.322 22.3807 119.322C22.4237 119.322 22.4662 119.313 22.5057 119.296C22.5426 119.332 22.587 119.359 22.6357 119.376C24.3457 119.746 24.3257 119.736 24.0257 121.446C23.8457 122.446 23.7557 123.446 23.6257 124.386C23.5726 125.387 23.3282 126.368 22.9057 127.276C21.2857 127.816 20.7057 127.516 20.3657 125.936V123.476C20.7557 122.696 20.2657 121.696 20.6657 120.886Z" fill="#56358B"/>
<path d="M20.3854 125.996C20.7954 127.276 21.7954 127.436 22.9254 127.336C23.0454 127.446 23.1654 127.556 23.2754 127.676C21.5554 128.316 20.6054 127.926 20.0254 126.366L20.3854 125.996Z" fill="#301E4F"/>
<path d="M20.6657 120.886C20.7935 121.779 20.6973 122.69 20.3857 123.536C20.3857 123.306 20.3857 123.076 20.3857 122.856L20.4757 120.976C20.5347 120.938 20.5986 120.908 20.6657 120.886Z" fill="#332254"/>
<path d="M15.2253 126.056L14.8853 126.376C14.8755 126.277 14.8755 126.176 14.8853 126.076C14.9969 126.052 15.1116 126.045 15.2253 126.056Z" fill="#32204E"/>
<path d="M11.9655 184.847C11.8443 184.967 11.751 185.113 11.6923 185.274C11.6336 185.434 11.6108 185.606 11.6255 185.777C11.0266 186.896 10.5889 188.094 10.3255 189.337C10.0355 190.007 9.74554 190.677 9.46554 191.337C9.11554 192.387 8.41554 193.336 8.46554 194.516H8.12554C7.79554 194.236 7.46554 193.796 7.12554 194.516C6.70554 194.146 6.84554 193.646 6.83554 193.196C6.83554 191.996 6.83554 190.806 6.77554 189.606C6.62104 189.211 6.62104 188.772 6.77554 188.376L6.89554 186.597C6.93146 186.575 6.97127 186.562 7.0126 186.556C7.05392 186.551 7.09591 186.554 7.13605 186.565C7.17619 186.576 7.21365 186.595 7.24621 186.621C7.27877 186.647 7.30575 186.68 7.32554 186.717C7.95554 188.457 7.32554 190.296 7.77554 192.006C8.01554 190.006 6.94554 187.736 8.60554 185.866C8.84528 185.563 9.12831 185.297 9.44554 185.076C9.85554 184.776 10.1955 184.386 10.6255 184.076C10.7543 184.01 10.888 183.953 11.0255 183.907C11.3955 183.907 11.9055 183.446 12.0255 184.206L11.9655 184.847Z" fill="#6FC6DC"/>
<path d="M7.15554 194.546C7.14542 194.44 7.14542 194.333 7.15554 194.226C7.22554 193.966 6.99554 193.526 7.47554 193.506C7.63499 193.504 7.78943 193.562 7.90676 193.67C8.02408 193.778 8.09528 193.927 8.10554 194.086C8.10554 194.236 8.10554 194.396 8.10554 194.556C8.00554 194.886 7.91554 195.226 7.81554 195.556C7.68453 195.592 7.54655 195.592 7.41554 195.556C7.34554 195.216 7.24554 194.876 7.15554 194.546Z" fill="#9FD6E2"/>
<path d="M6.78544 188.406C6.78544 188.816 6.78544 189.226 6.78544 189.636C6.32544 189.326 6.48543 188.876 6.50543 188.456C6.59618 188.427 6.69032 188.411 6.78544 188.406Z" fill="#306B76"/>
<path d="M23.3157 157.586L23.1557 158.246C23.086 158.347 23.0257 158.454 22.9757 158.566C22.9757 158.986 22.9757 159.396 22.9757 159.816C22.7357 161.756 22.4857 163.696 22.2457 165.636C21.6957 166.476 21.1257 166.086 20.5657 165.636C20.3396 165.199 20.1811 164.731 20.0957 164.246C20.0759 163.518 20.1773 162.791 20.3957 162.096C20.6357 160.516 20.7557 158.876 22.2657 157.846C22.4426 157.684 22.6499 157.558 22.8757 157.476C22.9526 157.462 23.0317 157.465 23.1075 157.484C23.1834 157.503 23.2544 157.538 23.3157 157.586Z" fill="#5E368C"/>
<path d="M20.6957 165.596C21.2057 165.596 21.6957 166.056 22.2357 165.596C22.2357 166.096 22.2357 166.596 22.2357 167.116H21.9957C21.3262 167.027 20.6454 167.145 20.0457 167.456C19.8739 167.559 19.6806 167.62 19.4811 167.635C19.2815 167.65 19.0811 167.619 18.8959 167.543C18.7106 167.468 18.5454 167.35 18.4135 167.199C18.2816 167.049 18.1865 166.87 18.1357 166.676C17.603 165.818 17.3223 164.827 17.3257 163.816C17.5657 163.426 17.8557 163.546 18.1457 163.756C18.7757 164.396 18.5357 165.666 19.7057 165.926C20.0257 165.856 20.2157 165.356 20.6957 165.596Z" fill="#7A509C"/>
<path d="M8.4055 163.026L8.4955 162.096L8.7355 161.986C8.85045 161.948 8.97288 161.938 9.09259 161.956C9.2123 161.975 9.32581 162.022 9.42366 162.093C9.52151 162.165 9.60087 162.259 9.65512 162.367C9.70936 162.475 9.73692 162.595 9.7355 162.716C10.1955 166.936 10.7355 171.166 8.59551 175.146C8.48353 175.251 8.33877 175.315 8.18551 175.326C8.12347 175.288 8.07183 175.235 8.03518 175.173C7.99853 175.11 7.97803 175.039 7.9755 174.966C7.9755 174.676 7.9755 174.396 7.9755 174.106C7.9755 173.816 8.2155 173.736 7.9755 173.536C8.0455 173.216 8.0755 172.886 8.1555 172.536C8.2355 172.186 8.2655 172.166 8.0755 172.016L8.0255 169.016C7.84199 167.852 7.85891 166.665 8.0755 165.506C8.25143 164.69 8.36178 163.86 8.4055 163.026Z" fill="#562F88"/>
<path d="M8.12569 165.586C8.12569 166.756 8.12569 167.926 8.07569 169.096C7.8072 167.984 7.74618 166.831 7.89569 165.696C7.96646 165.649 8.04398 165.611 8.12569 165.586Z" fill="#36204F"/>
<path d="M8.45543 172.356C8.48555 172.806 8.37361 173.254 8.13543 173.636C8.1691 173.661 8.19468 173.695 8.20893 173.734C8.22317 173.773 8.22544 173.816 8.21543 173.856C8.21543 173.926 8.16543 173.956 8.13543 173.956V174.956C8.02543 175.096 7.91543 175.096 7.81543 174.956C7.81543 174.106 7.81543 173.256 7.81543 172.406H8.05543C8.07285 172.37 8.09903 172.339 8.13159 172.316C8.16415 172.292 8.20205 172.277 8.24182 172.272C8.2816 172.267 8.32199 172.272 8.3593 172.287C8.39661 172.302 8.42966 172.326 8.45543 172.356Z" fill="#5A4091"/>
<path d="M8.45564 172.356H8.09564C8.08531 172.26 8.08531 172.163 8.09564 172.066L8.45564 172.356Z" fill="#5D378D"/>
<path d="M23.3156 146.696C23.2257 147.43 23.2257 148.172 23.3156 148.906C23.3857 149.064 23.4219 149.234 23.4219 149.406C23.4219 149.578 23.3857 149.749 23.3156 149.906C23.4156 150.906 23.5056 151.836 23.5956 152.796L23.5356 153.186C23.2056 153.886 23.7656 155.056 22.4556 155.186C22.3038 155.216 22.1475 155.216 21.9956 155.186C21.2356 154.756 20.9956 153.936 20.4656 153.296C20.1756 152.886 19.9456 152.436 19.6856 152.006C19.2361 151.216 18.5307 150.602 17.6856 150.266C17.335 150.181 16.9983 150.046 16.6856 149.866C16.3522 149.674 16.0894 149.379 15.9356 149.026C15.8015 148.739 15.7008 148.437 15.6356 148.126C15.5985 147.965 15.5962 147.798 15.629 147.636C15.6617 147.473 15.7288 147.32 15.8256 147.186C16.61 146.827 17.4628 146.64 18.3256 146.64C19.1885 146.64 20.0412 146.827 20.8256 147.186C21.2356 148.066 20.4556 148.076 19.9856 148.266C19.5156 148.456 18.9856 148.266 18.2856 148.626C19.1824 148.894 20.0251 149.317 20.7756 149.876C21.2556 150.346 21.5456 149.986 21.5456 149.446C21.6557 148.66 21.6557 147.862 21.5456 147.076C21.5099 146.925 21.5099 146.767 21.5456 146.616C21.6509 146.451 21.8004 146.318 21.9771 146.233C22.1538 146.148 22.3508 146.115 22.5456 146.136C22.7149 146.143 22.8782 146.2 23.0152 146.3C23.1522 146.399 23.2567 146.537 23.3156 146.696Z" fill="#60C3E3"/>
<path d="M22.2254 155.066C23.1454 154.726 23.2254 153.816 23.5354 153.066C23.5354 153.746 23.5354 154.426 23.6554 155.066C23.7754 155.706 23.6554 156.116 22.9654 156.196C22.3254 156.096 21.9654 155.776 22.2254 155.066Z" fill="#9CD5E9"/>
<path d="M22.2257 155.066C22.3983 155.501 22.6491 155.901 22.9657 156.246V156.646L22.7757 156.726C22.6333 156.719 22.4954 156.674 22.3757 156.596C22.163 156.467 21.98 156.294 21.8387 156.089C21.6974 155.884 21.6009 155.651 21.5557 155.406C21.5764 155.301 21.6286 155.205 21.7054 155.13C21.7821 155.055 21.8799 155.005 21.9857 154.986L22.2257 155.066Z" fill="#4185A1"/>
<path d="M23.3154 157.586H22.9554L22.8254 157.446C22.8077 157.322 22.8323 157.195 22.8954 157.086C22.9796 156.989 23.0911 156.919 23.2154 156.886H23.5254V157.496C23.4599 157.536 23.3892 157.566 23.3154 157.586Z" fill="#5F408A"/>
<path d="M23.2154 156.896L22.9454 157.246C22.9101 157.219 22.8816 157.184 22.8619 157.144C22.8423 157.105 22.832 157.061 22.832 157.016C22.832 156.972 22.8423 156.928 22.8619 156.888C22.8816 156.848 22.9101 156.813 22.9454 156.786V156.696L23.2154 156.896Z" fill="#7070B2"/>
<path d="M7.14528 186.486C7.05481 186.504 6.9694 186.542 6.89528 186.596C6.8103 185.358 6.8103 184.115 6.89528 182.876C6.95535 182.917 7.0236 182.945 7.09528 182.956C7.61528 183.336 7.55528 183.956 7.60528 184.446C7.65125 185.079 7.55912 185.713 7.33528 186.306L7.14528 186.486Z" fill="#3B4B67"/>
<path d="M9.05566 160.136C9.05566 159.486 9.12566 158.836 9.16566 158.136L9.71566 157.506C9.89566 157.336 10.2057 157.416 10.3657 157.176C11.1257 155.876 12.3657 154.916 12.9657 153.506C13.2357 153.046 13.5357 152.596 13.8257 152.156C14.3457 151.666 14.8257 150.556 15.4157 150.846C16.3057 151.256 15.5157 152.246 15.4757 152.986C15.4581 153.144 15.4211 153.298 15.3657 153.446C15.2957 154.146 15.0557 154.806 14.9757 155.506C14.9459 155.734 14.8957 155.958 14.8257 156.176C14.7202 156.459 14.6 156.736 14.4657 157.006C14.3486 157.468 14.0708 157.872 13.6822 158.147C13.2936 158.422 12.8197 158.55 12.3457 158.506C11.8208 158.57 11.3249 158.782 10.9157 159.116C10.2057 159.316 9.89566 160.226 9.05566 160.136Z" fill="#572F87"/>
<path d="M10.2955 156.856C9.85553 156.936 9.44553 157.016 9.41553 156.346C9.42574 155.669 9.52664 154.997 9.71553 154.346H9.79553C10.0655 153.966 10.4955 153.986 10.8755 153.866C11.0144 153.841 11.1566 153.841 11.2955 153.866C11.7255 153.996 12.1055 154.176 12.1655 154.696C11.9141 155.438 11.4768 156.102 10.8955 156.626C10.809 156.743 10.6858 156.828 10.5455 156.866L10.2955 156.856Z" fill="#D6ACCF"/>
<path d="M10.6854 156.566C11.0854 155.906 11.7654 155.456 12.0254 154.706C12.1854 154.216 12.2954 153.706 12.8954 153.536C12.9672 153.536 13.0384 153.55 13.1039 153.58C13.1695 153.609 13.228 153.652 13.2754 153.706C12.655 155.13 11.6422 156.347 10.3554 157.216L10.2954 156.856L10.3454 156.906C10.4953 156.837 10.6158 156.716 10.6854 156.566Z" fill="#562C7E"/>
<path d="M10.3653 157.216C10.3126 157.339 10.2187 157.438 10.1 157.499C9.98125 157.559 9.84516 157.576 9.71533 157.546C9.77929 157.433 9.87504 157.342 9.99064 157.283C10.1062 157.225 10.2366 157.201 10.3653 157.216Z" fill="#562C7E"/>
<path d="M23.3154 149.816V148.816C23.3907 148.837 23.4701 148.837 23.5454 148.816C23.5554 149.186 23.6354 149.536 23.3154 149.816Z" fill="#3C92A5"/>
<path d="M11.0454 140.246L11.3754 139.886C11.6609 139.245 12.0843 138.675 12.6154 138.216C13.2006 137.733 13.6142 137.074 13.7944 136.337C13.9746 135.6 13.9118 134.824 13.6154 134.126C13.3502 133.266 13.3502 132.346 13.6154 131.486C13.6576 130.609 13.8645 129.747 14.2254 128.946C14.3354 128.846 14.4554 128.756 14.5754 128.666C14.8428 129.028 15.0346 129.441 15.1394 129.879C15.2442 130.317 15.2598 130.772 15.1854 131.216C14.7654 132.956 15.6354 134.676 15.3454 136.416C15.3422 136.737 15.2985 137.056 15.2154 137.366C14.8018 137.995 14.3151 138.572 13.7654 139.086C13.6509 139.174 13.5307 139.254 13.4054 139.326C12.4854 139.746 12.1754 140.936 11.0954 141.166L11.0454 140.246Z" fill="#60378C"/>
<path d="M14.8956 131.176C14.8956 130.326 14.3656 129.546 14.5656 128.666C14.8856 128.396 14.6856 127.786 15.2356 127.666L17.1056 128.536C17.5678 128.934 18.1207 129.212 18.7156 129.346C17.5909 130.021 16.5786 130.868 15.7156 131.856C15.2556 132.046 15.0356 131.786 14.9056 131.386L14.8956 131.176Z" fill="#DAB2D4"/>
<path d="M14.8956 126.376L14.9856 126.996C14.5856 126.846 14.5456 126.636 14.8956 126.376Z" fill="#32204E"/>
<path d="M9.05571 160.136C9.48475 159.571 10.0533 159.126 10.7057 158.846C11.2657 159.586 10.8357 160.386 10.8457 161.166C10.7354 162.379 10.796 163.601 11.0257 164.796C11.9557 167.246 11.2257 169.596 10.5457 171.926C10.2857 172.836 9.98571 173.736 9.81571 174.666C9.74115 175.007 9.59453 175.327 9.38571 175.606C9.23983 175.814 9.07943 176.011 8.90571 176.196C8.66571 176.376 8.39571 176.756 8.11571 176.436C7.98824 176.264 7.91943 176.055 7.91943 175.841C7.91943 175.627 7.98824 175.418 8.11571 175.246C8.89462 173.855 9.40036 172.327 9.60571 170.746C9.82393 168.603 9.79709 166.443 9.52571 164.306C9.43366 163.893 9.4 163.469 9.42571 163.046C9.54571 162.396 9.04571 162.276 8.71571 161.986C8.83571 161.376 8.68571 160.696 9.05571 160.136Z" fill="#5D378D"/>
<path d="M13.5854 131.486C13.2054 132.886 14.1654 134.086 14.2054 135.486C14.2554 135.951 14.2034 136.42 14.0531 136.862C13.9029 137.305 13.6579 137.709 13.3354 138.046C12.7345 138.733 12.0643 139.357 11.3354 139.906C11.3354 139.586 11.3354 139.266 11.3354 138.906C11.9054 138.026 11.8654 136.906 12.2354 136.006C12.3254 135.466 12.6754 135.006 12.5854 134.406C12.818 133.817 12.94 133.19 12.9454 132.556C13.1854 132.206 13.3854 131.846 13.5854 131.486Z" fill="#552F87"/>
<path d="M9.73535 147.236C9.77551 147.163 9.79292 147.08 9.78535 146.996C10.1954 146.516 10.0354 145.936 10.0954 145.386C10.2799 145.201 10.3933 144.957 10.4154 144.696C11.1354 144.346 11.5254 144.696 11.7054 145.346C11.8151 145.671 11.8151 146.022 11.7054 146.346C11.0231 148.266 10.4488 150.222 9.98535 152.206L9.74535 152.096C9.76535 150.436 9.75535 148.836 9.73535 147.236Z" fill="#704694"/>
<path d="M22.9756 158.566L23.1556 158.246L22.9756 158.566Z" fill="#5F408A"/>
<path d="M21.0156 129.986L23.6156 130.636C24.0097 130.745 24.3609 130.972 24.622 131.287C24.883 131.602 25.0413 131.989 25.0756 132.396C25.3003 133.37 25.6856 134.299 26.2156 135.146C26.4583 135.585 26.5995 136.072 26.6289 136.572C26.6583 137.072 26.5752 137.573 26.3856 138.036C26.0056 139.196 25.5756 140.346 25.1756 141.496L24.7556 142.496L23.8956 143.786C23.4456 143.896 23.0656 144.316 22.5356 144.106C22.4442 143.994 22.3781 143.864 22.3418 143.724C22.3056 143.585 22.3 143.438 22.3256 143.296C22.3435 143.15 22.3771 143.006 22.4256 142.866C22.6991 141.951 23.1325 141.091 23.7056 140.326C24.5895 139.483 25.1637 138.366 25.3356 137.156C25.2821 135.989 24.9605 134.849 24.3956 133.826C24.2316 133.538 24.0223 133.278 23.7756 133.056C23.6153 132.938 23.4446 132.834 23.2656 132.746L22.8956 132.556C21.8956 131.996 21.5956 130.886 21.0156 129.986Z" fill="#5F3B8F"/>
<path d="M10.0257 152.156C10.0257 151.516 10.0857 150.866 10.0257 150.236C9.94234 149.764 9.97329 149.279 10.116 148.821C10.2586 148.364 10.5089 147.947 10.8457 147.606C11.5757 146.936 11.3357 146.016 11.2657 145.176C11.2657 144.676 10.7457 144.736 10.3857 144.696V144.066C10.6868 144.254 11.0312 144.361 11.3857 144.376C12.6257 144.486 12.3857 145.466 12.4657 146.226C12.4392 147.501 12.4826 148.776 12.5957 150.046C12.8757 148.286 13.5957 146.606 13.5257 144.786C13.4106 143.93 13.5755 143.06 13.9957 142.306C14.0996 142.17 14.2483 142.074 14.4157 142.036L14.6657 142.116L14.8157 142.326C14.9357 144.166 14.6157 145.996 14.7057 147.836C14.6576 148.577 14.8505 149.314 15.2557 149.936C15.4757 150.686 15.0257 151.146 14.5157 151.566C12.9757 151.356 12.2857 152.646 11.2857 153.386C11.1633 153.474 11.0235 153.536 10.8757 153.566C10.0257 153.566 10.4557 152.746 10.0957 152.436C10.0423 152.353 10.0177 152.255 10.0257 152.156Z" fill="#774E9A"/>
<path d="M11.9957 146.306C11.9257 145.616 12.2457 144.796 11.3457 144.376C10.9457 143.906 11.2557 143.156 10.6857 142.756C10.6381 142.199 10.7714 141.642 11.0657 141.166C11.6586 140.287 12.4117 139.527 13.2857 138.926C14.9057 139.606 14.3757 140.846 14.0857 142.016C13.4057 142.856 13.5257 143.896 13.2957 144.856C13.1457 145.516 13.2657 146.596 11.9957 146.306Z" fill="#6A4494"/>
<path d="M10.4653 142.776H10.6953C10.6353 142.876 10.5753 143.026 10.4653 142.776Z" fill="#6A4494"/>
<path d="M22.5954 144.056C23.0454 144.006 23.3554 143.296 23.9154 143.776C23.9154 144.186 23.9154 144.586 23.8454 144.986L23.5454 145.406C23.3854 145.866 23.1654 146.256 22.6054 146.286L21.6054 146.626C21.5311 146.745 21.43 146.845 21.3102 146.918C21.1904 146.991 21.0552 147.035 20.9154 147.046C20.5629 147.02 20.2209 146.914 19.9154 146.736C19.798 146.645 19.7023 146.529 19.6354 146.396C19.6306 146.323 19.6306 146.249 19.6354 146.176C19.6441 146.103 19.6693 146.032 19.7091 145.97C19.7489 145.907 19.8024 145.855 19.8654 145.816C21.4054 146.266 21.5354 144.426 22.5954 144.056Z" fill="#5E61A9"/>
<path d="M10.0555 152.437C10.5055 152.627 10.3055 153.437 11.0555 153.437C11.0988 153.477 11.1333 153.526 11.157 153.58C11.1806 153.634 11.1928 153.692 11.1928 153.752C11.1928 153.811 11.1806 153.869 11.157 153.923C11.1333 153.978 11.0988 154.026 11.0555 154.067C10.8783 154.176 10.674 154.235 10.4655 154.235C10.257 154.235 10.0527 154.176 9.87549 154.067L10.0555 152.437Z" fill="#9E72AC"/>
<path d="M9.8957 154.046H11.0757C10.7757 154.536 10.2757 154.346 9.8457 154.406L9.8957 154.046Z" fill="#B98DBF"/>
<path d="M8.13566 175.246C8.12568 175.403 8.12568 175.56 8.13566 175.716C8.13566 175.896 8.02566 176.186 8.28566 176.216C8.54566 176.246 8.60566 176.006 8.76566 175.886C9.59566 177.206 9.14566 178.636 9.10566 180.026C8.99423 180.315 8.8091 180.569 8.56872 180.764C8.32834 180.959 8.04111 181.087 7.73566 181.136C7.21566 181.136 7.40566 180.666 7.26566 180.406C7.12566 180.146 7.20566 179.726 7.18566 179.406C7.20559 179.331 7.20559 179.252 7.18566 179.176C7.72566 178.246 7.37566 177.176 7.54566 176.236C7.87566 175.956 7.81566 175.606 7.76566 175.236H7.81566C7.83429 175.211 7.85845 175.191 7.88622 175.177C7.91399 175.163 7.94462 175.156 7.97566 175.156C8.00671 175.156 8.03734 175.163 8.06511 175.177C8.09288 175.191 8.11703 175.211 8.13566 175.236V175.246Z" fill="#5A4091"/>
<path d="M7.26572 180.406C7.34581 180.488 7.4084 180.585 7.44967 180.691C7.49094 180.798 7.51001 180.912 7.50572 181.026C7.88572 182.806 9.22572 183.636 10.7557 184.276C10.4847 184.644 10.1452 184.957 9.75572 185.196C9.41572 185.486 8.94572 185.326 8.58572 185.516C7.58572 186.006 7.32572 185.416 7.22572 184.596C7.22572 184.046 7.15572 183.496 7.11572 182.956C7.15572 182.106 7.20572 181.256 7.26572 180.406Z" fill="#5464AC"/>
<path d="M8.13543 175.246H7.81543V174.926H8.13543V175.246Z" fill="#5D378D"/>
<path d="M16.5355 172.966C16.6722 173.039 16.7929 173.139 16.8908 173.259C16.9886 173.379 17.0616 173.518 17.1055 173.666L16.8055 174.386L16.4755 174.926L15.5455 176.226L15.3755 176.066C15.3755 174.956 14.7155 173.616 16.3055 172.966H16.5355Z" fill="#5F398C"/>
<path d="M15.4954 176.776C15.4052 176.815 15.3115 176.845 15.2154 176.866L15.0854 176.696C15.0854 176.386 15.0854 176.136 15.4954 176.186C15.5254 176.406 15.5154 176.586 15.4954 176.776Z" fill="#5F398C"/>
<path d="M22.6055 146.286L23.5455 145.406C23.5455 145.796 23.5455 146.186 23.5455 146.576C23.484 146.62 23.4109 146.644 23.3355 146.646L22.6055 146.286Z" fill="#5BA3CB"/>
<path d="M13.9855 180.066C13.7752 180.463 13.6332 180.892 13.5655 181.336C13.469 181.326 13.3719 181.326 13.2755 181.336C12.5155 181.696 12.4355 182.586 11.8855 183.136C10.5155 184.496 9.48546 184.276 8.88546 182.426C8.73883 181.971 8.67118 181.494 8.68546 181.016C9.23546 179.886 8.57546 178.586 9.18546 177.476C9.26909 177.37 9.37767 177.286 9.50154 177.232C9.62541 177.178 9.76073 177.155 9.89546 177.166C11.6555 177.596 12.5555 176.556 13.2955 175.166C13.3968 174.98 13.5175 174.806 13.6555 174.646C14.0155 174.196 14.3455 173.536 15.0255 173.806C15.7055 174.076 15.3455 174.806 15.3055 175.356C15.2655 175.906 14.8655 176.236 15.1555 176.726V176.786C14.9255 177.426 14.7055 178.066 14.4855 178.706C14.2015 179.107 14.029 179.576 13.9855 180.066Z" fill="#613E91"/>
<path d="M9.09539 181.356C9.09197 181.991 9.25764 182.616 9.57539 183.166C9.93539 183.926 10.3854 183.956 11.0554 183.426C11.9287 182.647 12.6127 181.679 13.0554 180.596C13.3854 180.836 13.2754 181.116 13.3054 181.366C13.2413 181.833 13.0473 182.273 12.7454 182.636C12.3389 183.318 11.7455 183.87 11.0354 184.226C10.9556 184.257 10.871 184.274 10.7854 184.276C9.97539 184.506 9.23539 184.606 8.92539 183.546C8.84539 183.306 8.67539 183.056 8.34539 183.276C7.67539 183.726 7.52539 183.346 7.52539 182.756C7.52539 182.166 7.52539 181.596 7.52539 181.026C7.96539 180.846 8.23539 180.346 8.78539 180.386C9.08539 180.636 8.77539 181.096 9.09539 181.356Z" fill="#584A99"/>
<path d="M11.0054 184.226C11.5057 183.626 12.0803 183.092 12.7154 182.636C12.7154 182.836 12.6354 183.046 12.6054 183.246L12.0654 184.246C11.7154 183.866 11.3654 184.366 11.0054 184.226Z" fill="#508FC7"/>
<path d="M7.44531 195.566H7.89531C7.71531 195.826 7.58531 195.826 7.44531 195.566Z" fill="#66AEB1"/>
<path d="M17.4553 163.696C17.7853 164.536 17.7353 165.456 18.1053 166.306C18.4753 167.156 19.0153 167.716 20.0353 167.556C19.3153 168.106 18.5953 168.076 18.1653 167.286C17.2253 165.586 16.3953 163.826 15.5253 162.086C15.0061 161.542 14.6885 160.836 14.6253 160.086C14.5836 159.916 14.5781 159.739 14.6091 159.567C14.6401 159.395 14.707 159.231 14.8053 159.086C16.4653 158.666 16.8053 158.866 16.8753 160.396C16.9002 161.421 17.0927 162.434 17.4453 163.396C17.4453 163.506 17.4553 163.586 17.4553 163.696Z" fill="#9166A9"/>
<path d="M15.1553 162.076C15.2412 162.755 15.4514 163.413 15.7753 164.016C15.7197 164.061 15.6556 164.094 15.5867 164.113C15.5179 164.132 15.4459 164.136 15.3753 164.126C15.1018 163.958 14.8727 163.727 14.7074 163.452C14.542 163.177 14.4453 162.866 14.4253 162.546C14.4395 162.439 14.4775 162.337 14.5363 162.247C14.5952 162.158 14.6734 162.082 14.7653 162.026C14.8289 161.999 14.8985 161.989 14.9671 161.998C15.0356 162.007 15.1005 162.034 15.1553 162.076Z" fill="#724579"/>
<path d="M15.1555 162.077H14.9155C14.75 161.925 14.6276 161.732 14.5609 161.518C14.4941 161.304 14.4854 161.075 14.5355 160.857C14.546 160.724 14.5854 160.595 14.6511 160.479C14.7168 160.364 14.807 160.264 14.9155 160.187C15.2362 160.783 15.443 161.434 15.5255 162.107L15.1555 162.077Z" fill="#A67CB4"/>
<path d="M15.4753 163.986H15.7753C16.1397 164.444 16.3992 164.977 16.5353 165.546L16.2053 165.846C15.8764 165.68 15.6202 165.399 15.4855 165.056C15.3509 164.713 15.3472 164.332 15.4753 163.986Z" fill="#583165"/>
<path d="M15.4757 163.986C15.5257 164.696 16.0557 165.216 16.2057 165.876C16.7457 167.156 16.3757 168.506 16.5257 169.816C16.5257 170.816 16.5257 171.916 16.5257 172.976H16.4657C16.4385 173.01 16.4042 173.036 16.3653 173.055C16.3263 173.074 16.2838 173.083 16.2407 173.083C16.1976 173.083 16.155 173.074 16.1161 173.055C16.0772 173.036 16.0429 173.01 16.0157 172.976C15.6559 172.199 15.5341 171.332 15.6657 170.486C15.976 168.504 15.5414 166.477 14.4457 164.796C14.0158 164.278 13.7236 163.66 13.596 163C13.4684 162.339 13.5096 161.657 13.7157 161.016C13.7596 160.945 13.8179 160.885 13.8868 160.838C13.9557 160.792 14.0337 160.76 14.1157 160.746C14.4857 160.846 14.5457 161.176 14.6657 161.476C14.7463 161.774 14.7252 162.091 14.6057 162.376C14.7639 162.974 15.0621 163.526 15.4757 163.986Z" fill="#8B60A4"/>
<path d="M15.5254 131.856L15.6654 131.566C15.9343 130.972 16.3515 130.457 16.8768 130.07C17.4021 129.683 18.0179 129.437 18.6654 129.356L19.0954 129.416C19.1979 129.445 19.2956 129.489 19.3854 129.546L19.9754 129.656C19.8954 130.336 19.3254 130.216 18.8854 130.306C18.5162 130.324 18.1549 130.419 17.8254 130.586C17.6563 130.672 17.5193 130.809 17.4346 130.979C17.35 131.148 17.3222 131.34 17.3554 131.526C17.5154 132.136 17.9354 131.786 18.2454 131.676C19.0134 131.449 19.8193 131.378 20.6154 131.466C21.2054 131.466 21.7954 131.586 22.0154 132.286C22.0166 132.357 21.9974 132.427 21.9602 132.487C21.923 132.548 21.8692 132.596 21.8054 132.626C21.4254 132.776 20.9854 132.546 20.6254 132.806C20.4654 133.916 20.1854 134.676 18.7554 134.806C18.4761 134.839 18.206 134.926 17.9609 135.063C17.7157 135.201 17.5003 135.386 17.3272 135.607C17.1541 135.829 17.0268 136.082 16.9527 136.353C16.8785 136.625 16.859 136.908 16.8954 137.186C16.9454 138.186 17.2754 139.446 15.7654 139.846C15.3654 139.286 15.5154 138.576 15.2754 137.966C15.2554 137.707 15.2554 137.446 15.2754 137.186C15.2754 136.816 15.2754 136.456 15.2754 136.086C15.4554 134.696 14.6854 133.206 15.5254 131.856Z" fill="#724A98"/>
<path d="M21.9657 132.476C20.8457 131.306 19.5357 131.856 18.2857 132.096C17.9279 132.213 17.5905 132.385 17.2857 132.606C17.0128 132.342 16.8452 131.987 16.8139 131.608C16.7827 131.229 16.8899 130.852 17.1157 130.546C17.4557 129.896 18.0257 129.926 18.6157 129.916C19.2057 129.906 19.6157 130.056 19.9757 129.656L20.9757 129.986C21.9757 130.566 22.1357 131.986 23.2057 132.476C23.1262 132.561 23.0302 132.629 22.9236 132.675C22.8169 132.721 22.702 132.745 22.5857 132.745C22.4695 132.745 22.3546 132.721 22.2479 132.675C22.1413 132.629 22.0452 132.561 21.9657 132.476Z" fill="#694293"/>
<path d="M19.4155 129.546L19.1255 129.416L19.4155 129.546Z" fill="#694293"/>
<path d="M9.09547 185.846C7.54547 187.456 8.09547 189.416 8.31547 191.256C8.38547 191.946 8.31547 192.376 7.62547 192.766C6.77547 190.676 7.34547 188.546 7.14547 186.486V186.426C7.72547 186.036 8.24547 185.376 9.09547 185.846Z" fill="#55C1E2"/>
<path d="M9.0957 185.846C8.3757 185.846 7.8857 186.606 7.0957 186.426C7.0957 185.816 7.1557 185.206 7.1957 184.596C7.4957 185.106 7.6757 185.776 8.5157 185.126C8.7557 184.936 9.3157 185.126 9.7257 185.196L9.0957 185.846Z" fill="#4A99D4"/>
<path d="M22.7856 157.816C22.5356 158.096 22.3056 158.396 22.0356 158.646C21.6873 158.941 21.4108 159.311 21.2271 159.729C21.0434 160.147 20.9574 160.601 20.9756 161.056C21.0026 161.233 20.9917 161.414 20.9434 161.587C20.8951 161.759 20.8106 161.919 20.6956 162.056C20.2756 161.746 20.2656 161.256 20.1456 160.826C19.9256 159.596 21.0356 158.706 21.0056 157.516C21.2031 157.337 21.4567 157.232 21.723 157.22C21.9894 157.207 22.2518 157.287 22.4656 157.446C22.5904 157.553 22.6983 157.678 22.7856 157.816Z" fill="#976FAE"/>
<path d="M20.3453 160.776C20.8353 161.116 20.6053 161.656 20.6953 162.106L20.3953 164.306C20.3329 164.342 20.2622 164.361 20.1903 164.361C20.1183 164.361 20.0476 164.342 19.9853 164.306C19.8798 164.196 19.8011 164.062 19.7553 163.916C19.6748 163.613 19.6344 163.3 19.6353 162.986C19.6553 162.216 19.5453 161.356 20.3453 160.776Z" fill="#9A73B1"/>
<path d="M20.0256 164.316H20.3956C20.7956 164.676 20.6456 165.166 20.6956 165.606C20.3456 165.786 20.2256 166.306 19.6956 166.236C19.6502 166.191 19.6158 166.136 19.595 166.075C19.5742 166.015 19.5675 165.95 19.5756 165.886C19.5756 165.686 19.6656 165.496 19.7056 165.296C19.7456 165.096 19.7556 164.586 20.0256 164.316Z" fill="#966EAE"/>
<path d="M22.9555 157.596C22.9162 157.681 22.8581 157.757 22.7855 157.816C22.7256 157.825 22.6679 157.846 22.6155 157.876C22.5055 157.576 22.6155 157.496 22.9155 157.556L22.9555 157.596Z" fill="#5F408A"/>
<path d="M19.7357 165.956C19.7307 166.046 19.7307 166.136 19.7357 166.226C19.6757 166.586 19.5357 166.896 19.1857 166.486C18.5338 165.816 18.1497 164.93 18.1057 163.996C17.9703 163.83 17.8718 163.637 17.8166 163.431C17.7614 163.224 17.7509 163.007 17.7857 162.796C18.3189 160.699 18.6538 158.556 18.7857 156.396C18.8657 155.226 19.4257 155.136 20.4257 155.916C20.5109 156.052 20.6044 156.182 20.7057 156.306C20.8349 156.491 20.9297 156.698 20.9857 156.916C21.0172 157.054 21.0339 157.195 21.0357 157.336C21.0357 157.406 21.0357 157.476 21.0357 157.546C21.3457 157.926 21.8557 158.246 21.2257 158.806C20.7361 159.365 20.4383 160.066 20.3757 160.806C20.1263 161.632 20.0148 162.494 20.0457 163.356C19.9338 163.499 19.873 163.675 19.873 163.856C19.873 164.037 19.9338 164.213 20.0457 164.356C20.0457 164.786 20.3857 165.216 20.0457 165.636C19.9244 165.724 19.8195 165.832 19.7357 165.956Z" fill="#6D4695"/>
<path d="M20.3657 156.596C19.9157 156.396 20.1257 155.776 19.5857 155.526C19.3877 155.676 19.2352 155.878 19.1452 156.109C19.0551 156.34 19.0311 156.592 19.0757 156.836C19.1842 158.738 18.8982 160.641 18.2357 162.426C18.1194 162.941 18.0723 163.469 18.0957 163.996L17.4557 163.676C17.1283 163.188 16.9082 162.637 16.8099 162.057C16.7117 161.478 16.7375 160.885 16.8857 160.316C17.2515 158.224 17.4687 156.109 17.5357 153.986C17.5471 153.672 17.6564 153.369 17.8482 153.12C18.04 152.871 18.3049 152.688 18.6057 152.596C20.4757 153.306 21.2357 155.016 20.3657 156.596Z" fill="#734C99"/>
<path d="M8.13574 173.956V173.636C8.26574 173.636 8.31574 173.766 8.25574 173.866C8.19574 173.966 8.17574 173.926 8.13574 173.956Z" fill="#5D378D"/>
<path d="M21.6053 146.926C21.8553 146.996 22.2353 147.046 22.1353 147.376C21.9707 148.216 21.9102 149.072 21.9553 149.926C21.9553 150.246 21.9553 150.596 21.5853 150.726C21.2153 150.856 20.9753 150.616 20.7453 150.386L19.9353 149.606C19.7453 149.416 19.4853 149.156 19.2453 149.256C18.0153 149.776 18.0353 148.746 17.6953 148.066C18.7653 147.626 20.1153 148.406 20.9653 147.246L21.0953 147.116C21.1969 147.047 21.3081 146.993 21.4253 146.956L21.6053 146.926Z" fill="#70C8DE"/>
<path d="M20.0355 146.606L20.9455 146.896L21.0955 147.066L20.9655 147.256C20.7075 147.301 20.4436 147.301 20.1855 147.256C18.7555 146.726 17.3455 147.156 15.9355 147.256C14.9355 145.576 15.4555 143.796 15.5855 142.046C15.8855 141.576 16.1655 141.686 16.3855 142.106C16.5435 142.556 16.628 143.029 16.6355 143.506C16.8455 144.776 17.2555 145.886 18.8555 145.886C19.1776 145.913 19.4792 146.055 19.7055 146.286C19.8075 146.401 19.9178 146.508 20.0355 146.606Z" fill="#6F88C4"/>
<path d="M15.8954 148.256C15.9917 148.302 16.0686 148.38 16.1126 148.477C16.1565 148.574 16.1646 148.684 16.1354 148.786C16.1169 148.991 16.0501 149.188 15.9406 149.362C15.8311 149.536 15.6819 149.681 15.5054 149.786C15.3518 149.867 15.1763 149.895 15.0054 149.866L14.8154 149.676C14.5657 148.745 14.5045 147.772 14.6354 146.816C14.6354 146.216 14.7954 145.636 15.5754 145.566C15.8954 146.456 15.4154 147.406 15.8954 148.256Z" fill="#7176B4"/>
<path d="M15.8954 148.256C15.2554 147.476 15.7354 146.526 15.5054 145.696C15.1023 144.771 14.9175 143.765 14.9654 142.756C15.0063 142.42 15.1576 142.107 15.3954 141.866C15.454 141.809 15.5294 141.772 15.6105 141.762C15.6916 141.751 15.774 141.766 15.8454 141.806C15.8454 143.636 15.9354 145.456 15.9754 147.286C15.8954 147.606 15.8954 147.926 15.8954 148.256Z" fill="#45598C"/>
<path d="M17.7756 149.886C18.265 150.005 18.7181 150.241 19.0961 150.574C19.474 150.906 19.7656 151.326 19.9456 151.796C19.8409 151.891 19.7069 151.948 19.5656 151.956C19.4243 151.937 19.2882 151.889 19.1656 151.816C18.5975 151.387 18.1042 150.866 17.7056 150.276C17.6791 150.211 17.6716 150.14 17.684 150.071C17.6964 150.002 17.7282 149.938 17.7756 149.886Z" fill="#365C85"/>
<path d="M21.9555 154.986L21.6755 155.296C21.2784 155.182 20.9351 154.93 20.7077 154.586C20.4803 154.241 20.3837 153.826 20.4355 153.416C20.4674 153.254 20.5605 153.111 20.6955 153.016L21.9555 154.986Z" fill="#32567C"/>
<path d="M15.4958 149.526L16.0958 148.786C16.2441 149.116 16.4791 149.399 16.7758 149.606C16.8358 149.866 16.6758 149.976 16.4858 150.066C16.3492 150.106 16.2079 150.126 16.0658 150.126C15.8517 150.121 15.6449 150.047 15.4758 149.916C15.4356 149.858 15.4157 149.788 15.4194 149.718C15.423 149.647 15.4498 149.58 15.4958 149.526Z" fill="#252D48"/>
<path d="M20.6955 153.016L20.6255 153.506C20.4394 153.481 20.2614 153.414 20.1048 153.31C19.9481 153.206 19.8169 153.068 19.7208 152.907C19.6247 152.746 19.5663 152.565 19.5498 152.378C19.5333 152.19 19.5591 152.002 19.6255 151.826H19.9655L20.6955 153.016Z" fill="#334A77"/>
<path d="M16.4953 149.836L16.7753 149.606L17.7753 149.886V150.166C17.6683 150.287 17.5316 150.377 17.379 150.428C17.2263 150.478 17.063 150.488 16.9053 150.456C16.7494 150.421 16.6029 150.353 16.4753 150.256C16.4273 150.196 16.4029 150.12 16.4066 150.043C16.4103 149.966 16.4418 149.892 16.4953 149.836Z" fill="#334A78"/>
<path d="M20.9453 146.896C21.029 146.803 21.1328 146.73 21.249 146.683C21.3651 146.637 21.4904 146.617 21.6153 146.626C21.6153 146.726 21.6153 146.826 21.6153 146.926C21.5768 146.971 21.5292 147.006 21.4757 147.031C21.4222 147.055 21.3641 147.068 21.3053 147.068C21.2465 147.068 21.1884 147.055 21.1349 147.031C21.0814 147.006 21.0338 146.971 20.9953 146.926L20.9453 146.896Z" fill="#6F88C4"/>
<path d="M16.5153 150.106L16.8353 150.196C18.0353 150.196 18.4653 151.366 19.3653 151.806H19.6053C19.813 152.432 20.1542 153.006 20.6053 153.486C20.82 154.153 21.1785 154.764 21.6553 155.276C21.9453 155.706 22.2353 156.136 22.5353 156.556C21.9053 157.716 21.2653 157.336 20.6153 156.556H20.3453C20.8453 154.826 19.7153 153.796 18.7153 152.696C17.8153 152.016 16.4053 151.696 16.5153 150.106Z" fill="#7070B2"/>
<path d="M20.6357 156.596C21.6357 157.066 21.6357 157.066 22.5557 156.596L22.9257 156.806C22.9257 156.956 22.9257 157.116 22.9257 157.266C22.9158 157.369 22.9158 157.473 22.9257 157.576L22.6257 157.896C22.1319 157.634 21.573 157.519 21.0157 157.566C20.919 157.478 20.8349 157.377 20.7657 157.266L20.6357 156.596Z" fill="#B5A4D0"/>
<path d="M10.7055 164.956C10.3055 164.646 10.3855 164.196 10.3855 163.776C10.2772 162.126 10.3848 160.468 10.7055 158.846C11.1655 158.616 11.5255 158.076 12.0755 158.166C12.5271 158.238 12.9897 158.154 13.3864 157.926C13.7831 157.699 14.0898 157.342 14.2555 156.916C14.4788 157.228 14.6205 157.591 14.6676 157.972C14.7148 158.352 14.6659 158.739 14.5255 159.096C14.2319 159.659 13.9909 160.248 13.8055 160.856C13.6755 161.326 13.6155 161.856 12.9855 161.856C12.3555 161.856 12.3955 161.346 12.2655 160.956C12.2155 160.816 12.1055 160.726 12.2055 160.786C12.3205 162.34 12.1888 163.903 11.8155 165.416C11.7555 165.626 11.5255 165.686 11.2955 165.636C10.6255 164.486 10.9655 163.206 10.8255 161.986C10.7555 161.786 10.4555 162.046 10.6455 161.986C10.8355 161.926 10.7655 161.986 10.7755 162.076C10.947 163.031 10.9232 164.011 10.7055 164.956Z" fill="#6D4495"/>
<path d="M15.5156 149.846H16.2256C16.5156 151.265 16.266 152.741 15.5256 153.986C14.9356 154.176 15.1356 153.606 14.9556 153.396L15.5356 150.956L13.9456 152.436C13.832 152.34 13.7602 152.204 13.7456 152.056C13.7442 151.905 13.7923 151.758 13.8826 151.637C13.9729 151.516 14.1005 151.428 14.2456 151.386C14.6998 151.104 15.0261 150.655 15.1556 150.136C15.0656 150.036 15.0556 149.966 15.1056 149.916C15.1395 149.88 15.1861 149.858 15.2356 149.856C15.3056 149.746 15.4056 149.696 15.5156 149.846Z" fill="#3F285F"/>
<path d="M14.2056 159.186C14.2056 158.426 14.2056 157.676 14.2556 156.916C14.2498 156.791 14.2699 156.666 14.3146 156.549C14.3594 156.432 14.4278 156.326 14.5156 156.236C14.6403 156.327 14.7422 156.446 14.8133 156.583C14.8844 156.72 14.9229 156.872 14.9256 157.026C14.9256 157.386 14.9956 157.756 15.0556 158.126C15.0756 158.269 15.0756 158.414 15.0556 158.556C14.7566 159.113 14.6411 159.75 14.7256 160.376C14.73 160.517 14.7027 160.657 14.6456 160.786C14.6223 160.811 14.5943 160.83 14.5634 160.843C14.5324 160.856 14.4992 160.863 14.4656 160.863C14.432 160.863 14.3987 160.856 14.3678 160.843C14.3369 160.83 14.3089 160.811 14.2856 160.786H14.2256C14.0592 160.554 13.968 160.276 13.9645 159.99C13.9609 159.703 14.045 159.423 14.2056 159.186Z" fill="#4C2B69"/>
<path d="M14.9557 153.437C15.1857 153.587 15.1857 153.827 15.2257 154.057C15.3395 154.167 15.428 154.3 15.4849 154.448C15.5419 154.596 15.566 154.754 15.5555 154.912C15.545 155.07 15.5002 155.224 15.4243 155.363C15.3484 155.502 15.2431 155.622 15.1157 155.717C15.0328 155.749 14.9427 155.759 14.8548 155.745C14.7669 155.73 14.6844 155.693 14.6157 155.637C14.6687 154.895 14.7825 154.159 14.9557 153.437Z" fill="#2F1D49"/>
<path d="M13.8953 152.106C13.8953 152.226 13.8953 152.356 13.8953 152.476C13.8953 152.996 13.4153 153.276 13.2253 153.706H12.8953C12.6453 153.306 12.8953 152.976 13.0453 152.636C13.1953 152.296 13.4253 151.936 13.8953 152.106Z" fill="#562E69"/>
<path d="M14.6154 155.636H14.8954C15.0703 155.836 15.1771 156.086 15.2005 156.35C15.2239 156.614 15.1626 156.879 15.0254 157.106C15.0069 157.146 14.9794 157.18 14.9451 157.207C14.9109 157.234 14.8708 157.253 14.828 157.262C14.7853 157.27 14.7411 157.269 14.699 157.258C14.6568 157.246 14.618 157.225 14.5854 157.196C14.5854 156.876 14.5154 156.546 14.4854 156.196C14.4554 155.846 14.5854 155.836 14.6154 155.636Z" fill="#2E1B45"/>
<path d="M13.2854 152.696C13.1454 153.016 13.0154 153.346 12.8854 153.696C12.5154 153.956 12.4754 154.506 12.0254 154.696C11.7954 154.316 11.3754 154.216 11.0254 154.006V153.376C11.5488 152.926 12.1576 152.586 12.8154 152.376C13.0654 152.326 13.3654 152.286 13.2854 152.696Z" fill="#B98DBF"/>
<path d="M10.6857 156.566C10.6649 156.648 10.6223 156.723 10.5625 156.783C10.5026 156.843 10.4277 156.886 10.3457 156.906C10.3562 156.82 10.3954 156.739 10.4571 156.678C10.5187 156.616 10.5992 156.577 10.6857 156.566Z" fill="#5C3270"/>
<path d="M13.5957 138.906C14.0457 138.506 14.1957 137.806 14.8757 137.636C15.1707 137.969 15.3789 138.37 15.4818 138.802C15.5847 139.235 15.5792 139.686 15.4657 140.116C15.2857 140.486 15.1257 140.946 14.5957 140.836C14.0657 140.726 14.0757 140.356 14.0957 139.976C14.1279 139.768 14.0976 139.556 14.0085 139.365C13.9195 139.175 13.7758 139.015 13.5957 138.906Z" fill="#684092"/>
<path d="M13.5954 138.906C14.3854 138.986 14.1754 139.616 14.2654 140.086C14.4454 140.966 14.8254 140.566 15.1754 140.206C15.3785 140.387 15.511 140.634 15.5495 140.903C15.5879 141.172 15.5298 141.446 15.3854 141.676C15.2054 142.006 15.0054 142.286 14.5654 142.126C14.5468 142.101 14.5226 142.081 14.4948 142.067C14.4671 142.053 14.4364 142.046 14.4054 142.046C14.3743 142.046 14.3437 142.053 14.3159 142.067C14.2882 142.081 14.264 142.101 14.2454 142.126C14.2268 142.151 14.2026 142.171 14.1748 142.185C14.1471 142.199 14.1164 142.206 14.0854 142.206C14.0543 142.206 14.0237 142.199 13.9959 142.185C13.9682 142.171 13.944 142.151 13.9254 142.126C13.9254 141.556 13.9254 140.976 13.9254 140.416C13.9569 140.133 13.9135 139.846 13.7994 139.584C13.6853 139.323 13.5046 139.096 13.2754 138.926L13.5954 138.906Z" fill="#774E9A"/>
<path d="M15.1555 141.826C15.1555 141.286 15.1555 140.746 15.1555 140.206C15.1655 139.34 15.0647 138.477 14.8555 137.636C14.8555 137.306 14.8555 136.986 14.9055 136.636C14.9558 136.598 15.0173 136.578 15.0805 136.578C15.1436 136.578 15.2051 136.598 15.2555 136.636C15.3655 136.876 15.3255 137.156 15.4855 137.376L15.5655 137.986C15.4055 139.246 16.3655 140.516 15.5655 141.776C15.5682 141.906 15.5428 142.035 15.491 142.154C15.4392 142.273 15.3623 142.38 15.2655 142.466C15.2128 142.435 15.1676 142.392 15.133 142.341C15.0983 142.29 15.075 142.232 15.0645 142.172C15.0541 142.111 15.0568 142.049 15.0725 141.989C15.0882 141.93 15.1165 141.874 15.1555 141.826Z" fill="#453671"/>
<path d="M15.1756 136.696H14.8956C14.8938 135.413 14.7867 134.132 14.5756 132.866C14.4543 132.595 14.4153 132.294 14.4633 132.001C14.5113 131.708 14.6442 131.435 14.8456 131.216C15.5156 132.816 15.2356 134.516 15.2856 136.216C15.3016 136.3 15.3001 136.385 15.2811 136.468C15.2622 136.551 15.2262 136.628 15.1756 136.696Z" fill="#45285F"/>
<path d="M15.2555 136.337C15.2525 134.614 15.1389 132.894 14.9155 131.187C15.1155 131.407 15.3255 131.627 15.5255 131.857V136.357C15.4155 136.497 15.3355 136.487 15.2555 136.337Z" fill="#865B9E"/>
<path d="M10.7053 164.956V161.786C10.9953 163.066 11.0353 164.346 11.3553 165.596C12.6253 167.316 11.6753 169.086 11.4653 170.836C11.4325 171 11.3857 171.16 11.3253 171.316C11.2553 171.546 11.1753 171.786 11.0953 172.016C10.5953 173.186 11.0153 174.646 9.93529 175.626C9.44529 175.626 9.59529 175.156 9.42529 174.926C9.46747 173.917 9.68399 172.922 10.0653 171.986C10.8053 169.696 11.4453 167.386 10.7053 164.956Z" fill="#7C559F"/>
<path d="M9.09562 181.356C8.71562 181.126 8.79562 180.736 8.76562 180.356V175.856L9.08562 175.526C9.49562 175.856 9.51562 176.356 9.63562 176.816C9.65019 176.934 9.63798 177.054 9.59989 177.167C9.5618 177.279 9.49881 177.382 9.41562 177.466C8.81562 178.696 9.21562 180.066 9.09562 181.356Z" fill="#714F9B"/>
<path d="M9.41545 176.846C8.92545 176.516 9.14545 176.006 9.08545 175.556C9.19545 175.346 9.30545 175.136 9.42545 174.926C9.53485 174.994 9.62352 175.09 9.68174 175.205C9.73995 175.32 9.76545 175.448 9.75545 175.576C9.84997 175.795 9.86783 176.04 9.80613 176.27C9.74443 176.501 9.60678 176.704 9.41545 176.846Z" fill="#936DAD"/>
<path d="M21.9657 132.477H23.5657C23.6632 132.592 23.774 132.697 23.8957 132.787C24.0405 132.847 24.1718 132.935 24.2817 133.047C24.3916 133.158 24.478 133.291 24.5357 133.437C24.5756 133.465 24.6056 133.506 24.6217 133.552C24.6378 133.599 24.6392 133.649 24.6257 133.697C24.6257 133.777 24.6257 133.827 24.5457 133.827C23.9757 133.947 23.5457 133.497 23.0657 133.397C22.2557 133.317 22.3657 133.977 22.3957 134.397C22.4052 136.265 22.1767 138.126 21.7157 139.937C21.6357 140.387 21.7157 141.167 21.1757 141.097C20.4257 141.007 20.9757 140.247 20.8557 139.867C20.8557 139.587 20.5457 139.867 20.7557 139.807C20.9657 139.747 20.8457 139.807 20.8357 139.937C20.6957 141.257 19.9957 142.477 20.1557 143.857C20.2257 144.387 20.0657 145.137 21.0457 144.787C21.5757 144.227 21.6057 143.207 22.6057 143.107C22.6057 143.427 22.6057 143.747 22.6057 144.107C22.6057 144.467 22.2957 144.537 22.1657 144.767C21.3557 146.267 21.3557 146.267 19.7057 146.047C19.5689 146.129 19.4156 146.181 19.2568 146.198C19.0979 146.215 18.9371 146.198 18.7857 146.147C17.4757 145.597 17.6657 144.317 17.5457 143.297C17.3957 142.077 17.0657 141.237 15.7257 141.117C15.7257 140.717 15.5757 140.287 15.8857 139.927C16.7757 138.727 16.4657 137.307 16.5757 135.927C16.5757 135.507 16.4157 135.127 17.0657 135.547C17.2657 135.677 17.3657 135.387 17.4857 135.217C17.9457 134.537 18.4857 133.997 19.4257 134.347C19.8757 134.507 20.2457 134.247 20.1357 133.647C20.0257 133.047 19.8457 132.597 20.3757 132.187C20.4957 132.367 20.3757 132.117 20.4757 132.307C20.7857 132.957 21.0757 133.597 21.6457 132.497L21.9657 132.477Z" fill="#79509B"/>
<path d="M22.6054 143.096L21.3154 145.026C20.4254 144.926 20.7254 144.286 20.8354 143.836C21.2277 141.544 21.9343 139.316 22.9354 137.216C23.2547 136.755 23.4216 136.205 23.4126 135.643C23.4037 135.082 23.2193 134.538 22.8854 134.086C22.6154 133.706 22.0554 133.086 23.2454 133.086C23.8054 133.086 24.0854 133.546 24.5354 133.736C25.0376 134.884 25.4651 136.063 25.8154 137.266C25.2654 138.396 25.2554 139.846 23.8954 140.486C23.1846 141.171 22.7293 142.078 22.6054 143.056V143.096Z" fill="#684293"/>
<path d="M25.8156 137.306C25.1354 136.238 24.6984 135.033 24.5356 133.776V133.446C25.3349 134.578 25.7804 135.921 25.8156 137.306Z" fill="#6F4796"/>
<path d="M22.6056 143.096C22.5805 142.198 22.8588 141.317 23.3956 140.596C23.5056 140.406 23.6856 140.296 23.8956 140.526L22.6056 143.096Z" fill="#79509B"/>
<path d="M23.8954 132.796L23.5654 132.486L23.8954 132.796Z" fill="#6F4796"/>
<path d="M13.8956 142.126H14.2156C13.9794 142.886 13.8712 143.68 13.8956 144.476C14.0233 145.648 13.8584 146.833 13.4156 147.926C13.2419 148.378 13.1902 148.868 13.2656 149.346C13.3356 150.186 12.9356 150.626 11.9756 150.916V146.296C12.9756 145.986 12.8756 145.106 12.9156 144.366C12.9478 143.738 13.0725 143.118 13.2856 142.526C13.3356 142.406 13.4204 142.304 13.5292 142.232C13.6379 142.161 13.7656 142.124 13.8956 142.126Z" fill="#6F4796"/>
<path d="M15.1556 141.826C15.1556 142.036 15.2156 142.246 15.2556 142.456C15.4753 143.521 15.546 144.612 15.4656 145.696C15.0735 146.319 14.8466 147.031 14.8063 147.766C14.7661 148.501 14.9138 149.234 15.2356 149.896C15.2336 149.995 15.206 150.091 15.1556 150.176C14.1556 149.886 14.2456 149.096 14.2456 148.346C14.137 146.267 14.2443 144.183 14.5656 142.126L15.1556 141.826Z" fill="#745CA3"/>
<path d="M13.2854 152.696C12.4654 152.696 11.8254 153.316 11.0254 153.346C11.5566 152.508 12.2628 151.795 13.0954 151.256C13.1796 151.189 13.2765 151.139 13.3803 151.109C13.4841 151.079 13.5927 151.071 13.6999 151.084C13.807 151.097 13.9104 151.131 14.0041 151.185C14.0978 151.239 14.1798 151.31 14.2454 151.396L13.9254 152.076L13.2854 152.696Z" fill="#9B71AE"/>
<path d="M14.2456 142.126C14.3556 141.906 14.4556 141.916 14.5656 142.126H14.2456Z" fill="#745CA3"/>
<path d="M15.8954 139.876V141.166C16.8454 141.336 17.0154 142.076 17.2554 142.856C17.5954 143.966 17.6754 145.236 18.7854 145.986H19.7354C19.7354 146.096 19.7354 146.196 19.7354 146.306C19.5257 146.291 19.3152 146.291 19.1054 146.306C17.0254 146.576 16.4154 145.106 16.2054 143.556C16.1254 142.956 16.4554 142.276 15.8354 141.786C15.7528 141.801 15.6681 141.801 15.5854 141.786V137.996C16.0754 138.546 15.7554 139.246 15.8954 139.876Z" fill="#746DAF"/>
<path d="M20.0356 146.606L19.7056 146.316L20.0356 146.606Z" fill="#746DAF"/>
<path d="M9.41551 176.846C9.4057 176.399 9.52365 175.959 9.75551 175.576C10.5155 174.396 10.2455 172.966 10.7055 171.716C10.8255 171.616 10.9155 171.486 11.0255 171.386V171.066C12.2355 171.276 13.6655 170.836 14.4655 172.216C14.4111 172.139 14.361 172.059 14.3155 171.976C13.3155 170.976 13.7755 170.146 14.5455 169.336C14.8655 168.996 15.1655 168.466 15.7155 168.736C16.2655 169.006 16.0755 169.536 15.9355 169.896C15.6335 170.913 15.7154 172.006 16.1655 172.966H16.4555C16.1955 173.336 15.5555 173.386 15.7755 174.156C15.9955 174.926 15.4055 175.466 15.4755 176.156C15.3809 176.231 15.3033 176.324 15.2481 176.431C15.1929 176.538 15.1613 176.656 15.1555 176.776C14.7355 176.446 14.8455 176.026 14.9955 175.626C15.1405 175.286 15.1989 174.915 15.1655 174.546C15.1655 174.336 15.1055 174.096 14.8455 174.086C14.7674 174.086 14.6901 174.102 14.6192 174.135C14.5484 174.168 14.4856 174.216 14.4355 174.276C14.0455 174.826 13.6755 175.406 13.2955 175.976C13.0555 176.326 12.8355 176.686 12.5755 176.976C12.3915 177.304 12.089 177.549 11.73 177.66C11.371 177.772 10.9829 177.742 10.6455 177.576C10.2441 177.438 9.81809 177.387 9.39551 177.426L9.41551 176.846Z" fill="#6A4494"/>
<path d="M14.8956 157.226C14.8956 156.696 14.9456 156.226 14.9756 155.646C15.3956 155.176 15.2156 154.586 15.2756 154.056C15.7228 152.696 16.0572 151.302 16.2756 149.886C16.359 149.844 16.4526 149.827 16.5456 149.836C16.5456 149.926 16.5456 150.016 16.5456 150.106C16.539 150.26 16.5736 150.412 16.6457 150.547C16.7178 150.683 16.8248 150.796 16.9556 150.876C17.6552 151.369 18.2585 151.986 18.7356 152.696C18.2556 153.096 17.5856 153.426 18.0856 154.236C17.5956 155.986 18.0256 157.846 17.4356 159.576C17.0007 160.895 17.0007 162.318 17.4356 163.636C16.5856 163.066 16.5556 162.156 16.4356 161.266C16.4156 160.9 16.4156 160.533 16.4356 160.166C16.4356 159.496 16.3556 158.966 15.4356 159.266C15.2656 159.326 15.0356 159.186 14.8356 159.146C14.7876 159.109 14.7478 159.062 14.7187 159.008C14.6895 158.954 14.6716 158.895 14.666 158.834C14.6604 158.774 14.6672 158.712 14.686 158.654C14.7049 158.596 14.7353 158.542 14.7756 158.496V158.136C14.7215 157.986 14.7041 157.825 14.725 157.667C14.7459 157.509 14.8044 157.358 14.8956 157.226Z" fill="#7A509C"/>
<path d="M14.8954 158.536L14.9554 159.186V160.186C14.9554 160.406 14.8954 160.626 14.8554 160.846L14.7254 160.926L14.6054 160.826C14.6654 160.036 14.3054 159.226 14.8954 158.536Z" fill="#5E3D72"/>
<path d="M14.5654 160.786H14.8154C14.8154 161.196 14.8854 161.606 14.9154 162.016L14.6154 162.316C14.6154 162.026 14.5554 161.736 14.5154 161.446C14.4466 161.341 14.4151 161.216 14.4259 161.091C14.4368 160.966 14.4895 160.848 14.5754 160.756L14.5654 160.786Z" fill="#422655"/>
<path d="M14.5654 172.357C13.9754 171.977 13.5154 171.357 12.6254 171.667C12.0654 171.837 11.5654 171.277 11.0254 171.067C11.0289 170.48 11.1443 169.9 11.3654 169.357C11.5812 168.112 11.5812 166.841 11.3654 165.597C11.8054 165.237 11.6954 164.727 11.6654 164.277C11.6424 162.97 11.7869 161.666 12.0954 160.397C12.5954 160.397 12.5954 160.787 12.6454 161.087C12.6954 161.387 12.7654 161.647 13.1054 161.587C13.2324 161.547 13.345 161.471 13.4287 161.368C13.5123 161.265 13.5634 161.139 13.5754 161.007C13.6854 160.367 13.3954 159.577 14.2154 159.187C14.2154 159.727 14.2154 160.267 14.2154 160.797C13.9345 161.311 13.8157 161.899 13.8746 162.483C13.9334 163.066 14.1673 163.618 14.5454 164.067C15.243 165.027 15.7346 166.122 15.9893 167.282C16.2439 168.442 16.2562 169.642 16.0254 170.807C15.9855 171.537 16.0392 172.27 16.1854 172.987C15.8702 172.595 15.6583 172.131 15.5692 171.637C15.4801 171.142 15.5166 170.633 15.6754 170.157C15.7789 169.975 15.8333 169.77 15.8333 169.562C15.8333 169.353 15.7789 169.148 15.6754 168.967C13.9954 170.467 13.9954 170.467 14.6054 172.357H14.5654Z" fill="#754B99"/>
<path d="M14.5754 160.776L14.5154 161.466C14.4198 161.379 14.3477 161.269 14.3058 161.147C14.2638 161.025 14.2534 160.894 14.2754 160.766L14.5754 160.776Z" fill="#5E3D72"/>
<path d="M21.6353 132.486C21.3883 133.083 21.3495 133.745 21.5253 134.366C21.1555 134.136 20.8532 133.813 20.6494 133.428C20.4456 133.043 20.3476 132.611 20.3653 132.176C20.811 132.14 21.2563 132.249 21.6353 132.486Z" fill="#936DAD"/>
<path d="M15.2555 136.336H15.5155C15.5155 136.676 15.5155 137.006 15.5155 137.336C15.4156 137.246 15.3349 137.137 15.2782 137.015C15.2215 136.893 15.19 136.761 15.1855 136.626C15.2055 136.546 15.2255 136.436 15.2555 136.336Z" fill="#795989"/>
<path d="M20.0253 164.316C19.9356 164.267 19.8608 164.195 19.8086 164.107C19.7565 164.019 19.729 163.919 19.729 163.816C19.729 163.714 19.7565 163.614 19.8086 163.526C19.8608 163.438 19.9356 163.366 20.0253 163.316C20.0153 163.696 20.0253 163.986 20.0253 164.316Z" fill="#966EAE"/>
<path d="M19.7354 165.956L20.0254 165.596L19.7354 165.956Z" fill="#7A509C"/>
<path d="M20.7256 157.236L20.9756 157.536C20.905 157.524 20.841 157.488 20.7951 157.433C20.7493 157.378 20.7246 157.308 20.7256 157.236Z" fill="#7070B2"/>
<path d="M21.0053 146.966H21.6253C21.5678 147.087 21.4716 147.185 21.3521 147.245C21.2325 147.305 21.0964 147.323 20.9653 147.296C20.966 147.185 20.9794 147.074 21.0053 146.966Z" fill="#60C3E3"/>
<path d="M15.5154 149.846H15.2354L15.4954 149.486C15.5146 149.605 15.5213 149.726 15.5154 149.846Z" fill="#745CA3"/>
<path d="M19.3654 151.806C19.3298 151.878 19.2736 151.937 19.204 151.976C19.1345 152.015 19.0548 152.033 18.9752 152.026C18.8956 152.02 18.8197 151.99 18.7574 151.94C18.6951 151.89 18.6491 151.823 18.6254 151.746C18.2283 151.036 17.5949 150.488 16.8354 150.196H17.7754C18.4494 150.569 19.0015 151.128 19.3654 151.806Z" fill="#717EBB"/>
<path d="M14.8956 157.227V158.227C14.5456 157.967 14.6356 157.607 14.6656 157.227C14.7415 157.242 14.8197 157.242 14.8956 157.227Z" fill="#3A2659"/>
<path d="M11.0256 171.386L10.7056 171.716L11.0256 171.386Z" fill="#754B99"/>
<path d="M23.2458 133.126C22.9758 133.126 22.6058 133.276 22.9358 133.576C24.3858 134.916 24.0258 136.216 23.1158 137.706C22.3462 139.215 21.8165 140.834 21.5458 142.506C21.4158 143.066 21.2758 143.626 21.0958 144.176C21.0261 144.321 21.0099 144.486 21.0502 144.641C21.0905 144.797 21.1845 144.933 21.3158 145.026C21.0158 145.946 20.4758 145.226 20.0658 145.166C19.6558 145.106 19.6058 144.906 19.6258 144.476C19.5981 142.998 19.9419 141.537 20.6258 140.226C20.8258 139.906 20.7258 139.396 20.7758 138.886C21.2958 139.526 20.7758 140.256 21.2158 140.886C21.4758 138.476 22.2158 136.206 22.0258 133.796C21.8958 132.816 22.1158 132.756 23.2458 133.126Z" fill="#6F4796"/>
<path d="M18.7455 145.986C18.2253 145.719 17.782 145.324 17.4581 144.837C17.1343 144.351 16.9406 143.789 16.8955 143.206C16.8059 142.443 16.4521 141.736 15.8955 141.206C17.3955 140.526 17.6455 140.716 17.8355 142.316C17.9455 143.546 17.8955 144.896 18.7455 145.986Z" fill="#7760A7"/>
<path d="M14.5654 172.356C14.7054 172.426 14.8654 172.636 14.7954 172.666C14.4254 172.826 14.6454 172.466 14.5654 172.356Z" fill="#754B99"/>
</svg>
