<svg width="157" height="191" viewBox="0 0 157 191" fill="none" xmlns="http://www.w3.org/2000/svg">
<path d="M20.3989 152.315C20.1977 152.341 19.9935 152.302 19.8162 152.204C19.6389 152.105 19.4978 151.953 19.4137 151.768C18.7569 150.838 17.7536 149.944 17.8448 148.794C18.0637 145.875 16.2941 145.93 14.2873 146.076C12.5778 146.185 10.8744 145.783 9.39334 144.923C7.91226 144.062 6.72019 142.781 5.96833 141.242C3.85072 138.059 2.73156 134.317 2.75432 130.495C2.77707 126.673 3.94069 122.944 6.09604 119.787C7.22713 117.963 9.17916 117.087 11.2772 115.099C9.72002 115.368 8.11775 115.154 6.68592 114.485C5.25409 113.817 4.0614 112.726 3.2683 111.359C1.49184 108.87 0.59919 105.858 0.732472 102.803C0.671216 102.287 0.735422 101.763 0.919635 101.277C1.10385 100.791 1.40263 100.357 1.79059 100.011C3.0129 99.1905 3.61493 100.577 4.89196 101.106C3.2683 97.4574 1.95478 94.1188 3.81561 90.4154C5.47576 87.1316 7.31833 84.1215 10.9305 82.6802L11.6785 82.3154C12.0425 82.1488 12.3959 81.9599 12.7366 81.7498C13.9772 80.8559 13.5028 79.4876 13.5576 78.3383C13.9589 70.5484 18.538 65.9875 25.1969 62.9409C25.458 62.8366 25.7262 62.7513 25.9996 62.6854C28.7543 61.9739 29.3929 62.5395 28.955 65.349C30.7705 63.2008 33.1073 61.5548 35.7416 60.5691C38.4963 59.511 39.6456 60.5692 39.3902 63.5428C39.217 64.3766 39.18 65.233 39.2808 66.0787C39.3705 66.7938 39.6981 67.458 40.211 67.9643C40.7239 68.4706 41.3923 68.7896 42.1085 68.87C43.8051 69.0524 44.6991 67.8848 45.1916 66.4618C45.5647 65.5712 45.6235 64.5801 45.3582 63.6516C45.0929 62.7232 44.5195 61.9128 43.7322 61.3537C41.5065 59.73 41.6342 57.9056 42.6923 55.6617C45.2606 50.4596 49.5828 46.3313 54.8971 44.0042C49.7707 44.5333 46.3045 47.5252 43.6409 51.6482C43.0282 52.6079 42.5609 53.6529 42.2545 54.7495C41.4335 57.7414 39.4632 58.5806 36.5078 59.5475C30.7794 61.3719 24.1935 61.08 19.3225 65.4766C18.8704 65.8305 18.3255 66.046 17.7536 66.0969C17.4616 66.1239 17.1675 66.0801 16.8961 65.9692C16.6491 65.8302 16.422 65.6585 16.2211 65.4585C13.9224 62.576 14.8711 59.7665 16.513 57.0482C16.9643 56.2164 17.586 55.4891 18.3374 54.9137C19.6165 54.1348 20.7262 53.1069 21.6005 51.891C22.4748 50.675 23.0961 49.2959 23.4273 47.8353C23.9381 45.2812 26.4921 44.4238 28.6631 43.4569C29.7577 42.9644 30.7064 42.563 30.4875 41.0305C29.6847 34.8278 33.2057 31.1244 38.022 28.2602C39.5544 27.3297 41.3605 26.8372 42.5099 24.9581C40.0105 26.9284 37.0368 27.6216 34.6652 29.227C34.2091 29.5189 33.5888 29.8108 33.078 29.3912C32.5672 28.9716 32.7496 28.3879 32.8409 27.8041C33.0907 25.7833 34.0096 23.9042 35.451 22.466C36.8924 21.0279 38.7736 20.1134 40.795 19.8681C41.7688 19.6697 42.6918 19.2746 43.5074 18.7068C44.3231 18.139 45.0141 17.4105 45.5383 16.5661C46.8734 14.8764 48.0118 13.0403 48.9315 11.0931C49.6105 9.62706 50.4552 8.24379 51.4491 6.97015C52.2389 5.83504 53.2646 4.88399 54.4561 4.18219C55.6476 3.4804 56.9767 3.04436 58.3523 2.90402C59.728 2.76368 61.1178 2.92238 62.4264 3.36912C63.7351 3.81587 64.9317 4.54007 65.9344 5.49232C66.6641 6.09436 67.1567 6.9518 68.0689 7.31666C68.4702 7.18896 68.4155 6.89717 68.4155 6.62352C68.4155 5.65662 66.9743 4.79911 68.1966 3.81396C68.656 3.45609 69.2152 3.24985 69.797 3.2237C70.3787 3.19756 70.9542 3.35276 71.4439 3.66798C74.8554 6.44098 77.0993 5.03631 80.0365 2.48223C83.5028 -0.509688 87.9177 1.25992 91.7123 2.48223C94.6105 3.31054 97.1777 5.02337 99.0551 7.38158C100.932 9.73979 102.026 12.6256 102.184 15.6358C102.103 17.068 102.314 18.5017 102.804 19.85C103.291 18.8683 104.003 18.015 104.881 17.359C105.758 16.703 106.778 16.2627 107.858 16.0736C108.921 15.8295 110.024 15.8104 111.096 16.0178C112.167 16.2252 113.183 16.6543 114.079 17.2776C114.444 17.533 114.936 17.9161 115.356 17.4965C117.326 15.4533 120.081 15.8911 122.489 15.2161C123.784 14.8768 125.152 14.9318 126.416 15.3738C127.68 15.8157 128.784 16.6246 129.586 17.6972C131.995 20.4161 133.466 23.8381 133.782 27.4574C133.985 29.3429 134.308 31.2136 134.748 33.0582C134.684 31.8428 134.684 30.6249 134.748 29.4095C134.748 28.6615 134.748 27.7675 135.551 27.4209C136.354 27.0743 136.956 27.7311 137.521 28.2054C139.497 29.9304 140.903 32.2136 141.554 34.754C142.206 37.2944 142.072 39.9725 141.17 42.4352C140.583 43.5158 140.182 44.6877 139.984 45.9015C142.867 45.2812 144.29 47.4157 145.95 49.0941C151.466 54.8096 154.658 62.3722 154.907 70.3112C154.986 72.31 154.702 74.3064 154.068 76.2038C153.28 78.4245 151.965 80.4213 150.237 82.0234C149.215 82.8444 148.23 83.8477 146.734 83.2822C145.317 81.6334 143.699 80.1686 141.918 78.922C139.017 77.426 136.445 77.9552 135.278 80.3633C138.525 78.7214 141.699 79.5059 144.509 82.6437C145.621 83.8903 146.255 85.491 146.299 87.1611C146.342 88.8313 145.792 90.4628 144.746 91.7654C143.04 93.8736 141.908 96.3876 141.462 99.0628C140.349 104.682 136.19 107.856 131.538 110.41C128.576 111.901 125.438 113.011 122.197 113.712C120.373 114.15 120.136 114.77 121.413 116.12C122.216 116.948 122.672 118.051 122.69 119.203C122.69 120.9 121.978 122.633 120.154 122.195C115.52 121.028 112.4 123.582 109.208 125.972C108.801 126.081 108.373 126.081 107.967 125.972C107.573 125.893 107.192 125.758 106.836 125.57C106.585 125.48 106.341 125.37 106.106 125.242C104.971 124.629 103.735 124.221 102.458 124.038C101.334 123.965 100.206 123.965 99.0826 124.038C95.5982 124.567 92.1684 125.862 88.6292 124.385C87.5085 123.909 86.4827 123.235 85.6008 122.396C81.7449 118.931 77.0012 116.606 71.9 115.682C69.5634 115.559 67.2213 115.78 64.9492 116.339C63.5188 116.797 62.014 116.977 60.5161 116.868C56.7215 115.044 53.2187 116.303 49.8255 118.054C46.8335 119.878 43.8964 121.703 40.1747 120.9C38.7196 120.366 37.1368 120.286 35.6353 120.67C34.1338 121.055 32.7841 121.885 31.7645 123.053C31.2891 123.626 30.6541 124.045 29.9402 124.257C23.7009 123.71 19.2678 115.518 22.3874 110.155C23.0172 108.819 23.9108 107.625 25.0144 106.643C26.1181 105.662 27.4088 104.914 28.8091 104.445C29.8489 104.153 30.1773 103.824 29.63 102.62C28.3151 100.098 27.9602 97.1833 28.6312 94.4188C29.3023 91.6542 30.9536 89.2269 33.2787 87.5876C34.0022 87.1956 34.5499 86.5436 34.8111 85.7633C32.5564 86.8622 30.77 88.7327 29.776 91.0356C28.1658 94.184 27.5307 97.7409 27.9516 101.252C28.1142 101.944 28.0713 102.668 27.8283 103.335C27.5852 104.003 27.1526 104.585 26.5834 105.01C25.6411 105.803 24.7627 106.67 23.9563 107.601C19.8698 112.198 20.1617 117.379 24.5401 121.721C25.9084 123.071 28.1888 123.545 28.5537 125.881C28.2123 127.294 27.6847 128.656 26.9847 129.931C24.8839 134.635 24.4151 139.907 25.653 144.908C25.3428 147.006 22.5333 146.532 22.0043 148.429C22.0043 148.685 21.7854 148.922 21.6941 149.159C21.0374 150.308 21.5117 151.622 20.3989 152.315Z" fill="#F0D0E3"/>
<path d="M153.576 76.1128C153.89 74.0644 154.085 71.9993 154.16 69.9283C153.874 62.321 150.818 55.0804 145.567 49.5687C144.892 48.8937 144.235 48.2187 143.542 47.5619C142.082 46.1207 142.064 46.1206 140.203 47.2517C139.857 47.4524 139.51 47.6349 139.182 47.3977C139.037 47.2682 138.936 47.0966 138.893 46.9068C138.85 46.717 138.868 46.5186 138.945 46.3396C139.262 45.2529 139.646 44.1867 140.094 43.147C141.431 40.466 141.716 37.3816 140.892 34.5013C140.068 31.621 138.195 29.1537 135.642 27.5854C135.223 30.2672 135.861 32.9489 134.967 35.4847C134.04 33.2511 133.426 30.8997 133.143 28.4976C133.032 24.6856 131.615 21.0274 129.13 18.1353C128.428 17.1236 127.431 16.3529 126.275 15.9285C125.12 15.5041 123.861 15.4465 122.671 15.7636C120.5 16.3656 118.238 16.6576 116.104 17.0772C115.702 17.8434 116.834 18.2813 116.104 19.157C115.009 18.5732 113.878 17.9894 112.784 17.3326C111.528 16.6874 110.123 16.3909 108.714 16.4743C107.305 16.5578 105.945 17.018 104.775 17.8068C103.972 18.3906 104.063 19.3029 103.68 20.0509C103.297 20.7988 103.26 21.2367 102.585 21.1637C101.91 21.0907 101.874 20.3974 101.673 19.8684C101.035 18.2447 101.546 16.5298 101.308 14.8697C100.902 11.6615 99.4418 8.67921 97.1568 6.39092C94.8718 4.10263 91.8916 2.63796 88.684 2.22703C87.8448 2.11757 87.0056 2.06283 86.1664 1.8804C84.5006 1.45755 82.7427 1.58433 81.1549 2.24184C79.567 2.89934 78.2341 4.05238 77.3548 5.52908C76.1872 7.22571 76.1873 7.20747 74.4541 5.98516C72.721 4.76285 70.8054 3.32162 68.0872 4.16082C68.1966 5.3284 69.7473 5.98516 69.4007 7.35342C69.273 7.90072 69.2365 8.52105 68.6527 8.77645C68.0689 9.03186 67.7041 8.42977 67.3574 8.02841C66.194 6.5097 64.7119 5.26428 63.0155 4.37973C61.2265 3.51549 59.1993 3.27586 57.2581 3.69917C55.3168 4.12247 53.5735 5.18433 52.3066 6.71494C50.9914 8.44392 49.866 10.3094 48.9499 12.2792C47.7522 15.0628 45.8694 17.4979 43.4768 19.3576C42.6833 20.0141 41.6964 20.3921 40.6674 20.4339C37.4383 20.4339 35.7781 22.6597 34.2822 24.9401C33.5938 26.4058 33.0854 27.9495 32.768 29.5375C36.4166 26.8374 40.4119 26.1259 43.714 22.9515C43.6803 24.0069 43.3421 25.0302 42.74 25.8977C42.1379 26.7652 41.2977 27.44 40.3207 27.8407C37.0996 29.0469 34.3587 31.2691 32.5125 34.1712C31.8275 35.1285 31.3545 36.2208 31.1248 37.3753C30.8952 38.5298 30.9142 39.72 31.1808 40.8665C31.6916 42.9098 31.4362 43.1105 29.4477 43.8585C28.7362 44.1321 28.0612 44.497 27.3679 44.7889C26.3299 45.1375 25.4104 45.7701 24.7139 46.615C24.0173 47.4599 23.5716 48.4832 23.4273 49.5687C23.3403 50.4522 23.0345 51.3001 22.5376 52.0358C22.0407 52.7716 21.3684 53.372 20.5814 53.7829C19.1547 54.7318 17.9174 55.9382 16.9327 57.3404C15.9849 58.4189 15.4295 59.7862 15.3566 61.2202C15.2837 62.6542 15.6977 64.0706 16.5313 65.2397C16.6937 65.4753 16.8978 65.6793 17.1334 65.8418C17.9361 68.7607 17.4253 69.4904 14.6705 69.8371C14.8391 69.4022 15.0531 68.9864 15.309 68.5965C16.0752 67.7391 16.1117 67.1188 15.1996 66.2066C14.6076 65.5983 14.1876 64.8438 13.9825 64.0201C13.7774 63.1964 13.7945 62.333 14.032 61.5181C14.2914 59.7317 14.9386 58.0238 15.9282 56.5142C16.9178 55.0045 18.2258 53.7299 19.7604 52.7795C20.3239 52.4698 20.803 52.027 21.156 51.4895C21.5089 50.9521 21.725 50.3365 21.7854 49.6964C22.0182 48.1454 22.6431 46.6796 23.6009 45.4377C24.5586 44.1958 25.8176 43.2189 27.2585 42.5997L29.2652 41.724C27.4409 38.3308 28.9368 35.5212 30.9801 32.9124C31.5991 32.0952 31.9208 31.0913 31.8923 30.0665C32.1112 26.1624 33.2058 22.6414 36.672 20.2698C37.4738 19.5931 38.4872 19.2187 39.5363 19.2116C40.5868 19.2408 41.6241 18.9718 42.5281 18.4359C43.4321 17.8999 44.1659 17.1189 44.6444 16.1833C45.5328 14.8454 46.2154 13.3818 46.6694 11.8413C47.3784 9.06549 48.9056 6.56693 51.0528 4.67024C53.2 2.77355 55.868 1.56634 58.7101 1.2054C60.5939 0.979581 62.5019 1.32937 64.1831 2.20876C65.2489 2.7153 66.4653 2.80639 67.5946 2.4642C70.5318 1.75271 73.6879 1.49736 75.8953 4.68995C76.6433 3.43116 76.7528 1.78921 78.194 1.22366C80.4544 0.217423 82.939 -0.178862 85.4002 0.0743179C88.0268 0.416938 90.5969 1.10392 93.0442 2.11757C99.1375 4.76286 102.713 9.21424 102.987 16.019C103.032 16.2372 103.112 16.4466 103.224 16.6394C104.592 16.311 105.742 15.3987 107.128 15.0703C108.563 14.5623 110.122 14.524 111.579 14.9609C112.264 15.2354 113.004 15.3407 113.738 15.2676C114.472 15.1946 115.177 14.9454 115.794 14.5413C121.267 12.1514 131.155 12.8447 133.472 21.8387C133.648 23.0674 134.304 24.1761 135.296 24.9218L135.168 25.0861L135.314 24.9401C138.681 27.1188 141.134 30.4543 142.21 34.3172C143.025 36.8561 143.025 39.5864 142.21 42.1253C142.077 42.3625 141.994 42.6248 141.967 42.8955C141.94 43.1663 141.97 43.4397 142.054 43.6985C142.138 43.9573 142.274 44.1959 142.455 44.3993C142.636 44.6027 142.857 44.7663 143.104 44.8801C149.165 49.239 153.402 55.6844 154.999 62.9775C156.002 67.3012 156.823 71.7344 154.743 76.0581C154.397 76.3683 154.488 76.879 154.214 77.2256C153.211 77.3168 153.211 76.806 153.576 76.1128Z" fill="#C098AF"/>
<path d="M108.66 125.644C110.156 124.513 111.597 123.29 113.148 122.25C113.913 121.656 114.817 121.266 115.774 121.116C116.731 120.966 117.711 121.061 118.621 121.393C119.643 121.758 120.901 122.123 121.722 120.955C122.05 120.395 122.207 119.752 122.175 119.104C122.142 118.456 121.922 117.831 121.54 117.306C121.218 116.84 120.838 116.417 120.409 116.048C119.989 115.573 119.187 115.208 119.406 114.479C119.624 113.749 120.537 113.366 121.412 113.147C126.265 111.943 131.118 110.702 135.113 107.4C138.415 104.682 140.969 101.562 141.188 97.0197C141.338 95.3047 142.118 93.706 143.377 92.5318C144.314 91.6577 144.998 90.5481 145.359 89.319C145.72 88.0899 145.745 86.7865 145.429 85.5449C145.114 84.3032 144.472 83.169 143.568 82.2607C142.665 81.3525 141.534 80.7035 140.294 80.3817C138.47 79.7615 136.791 79.5243 135.606 81.4945C135.529 81.668 135.4 81.8128 135.236 81.9079C135.072 82.003 134.882 82.0435 134.693 82.0236C134.055 79.0316 135.168 77.4446 137.977 77.3168C139.868 77.2295 141.738 77.7322 143.33 78.7553C144.922 79.7784 146.156 81.2712 146.862 83.0269C147.19 83.5195 148.358 83.1547 148.084 84.2493C147.81 84.3588 147.683 84.6141 147.464 84.7783C147.225 85.1882 147.099 85.654 147.099 86.1283C147.225 87.3524 147.091 88.5891 146.708 89.7583C146.324 90.9275 145.699 92.003 144.873 92.9149C143.852 94.192 143.633 94.94 144.873 96.5636C146.763 99.3066 147.85 102.522 148.011 105.849C148.677 110.383 147.783 115.008 145.475 118.966C145.22 119.368 144.873 119.897 144.965 120.262C145.567 122.433 144.545 124.348 144.144 126.355C143.886 128.093 143.118 129.716 141.935 131.015C140.752 132.315 139.209 133.233 137.503 133.652C136.846 133.762 136.24 134.075 135.77 134.546C136.305 135.679 136.592 136.912 136.611 138.165C136.631 139.417 136.383 140.659 135.884 141.807C135.385 142.956 134.646 143.985 133.717 144.825C132.788 145.665 131.69 146.297 130.498 146.678C130.08 146.9 129.622 147.033 129.15 147.067C128.679 147.102 128.206 147.038 127.761 146.879C126.079 146.245 124.239 146.162 122.507 146.642C121.814 146.094 120.81 146.842 120.154 146.058C120.5 146.496 120.956 146.824 121.321 147.244V148.265C121.302 148.372 121.271 148.476 121.23 148.576C120.91 148.898 120.494 149.109 120.044 149.178C119.584 149.126 119.151 148.935 118.803 148.63L117.928 147.973C117.467 147.717 117.107 147.312 116.906 146.824C116.468 145.459 116.539 143.981 117.107 142.665C118.019 140.713 119.46 140.384 121.084 141.716C123.079 143.177 125.416 144.1 127.87 144.398C130.68 144.927 133.873 141.534 133.343 138.231C132.741 134.291 134.31 132.138 137.777 130.806C138.799 130.278 139.67 129.499 140.308 128.542C140.947 127.584 141.331 126.48 141.425 125.333C142.41 120.499 144.837 116.102 145.366 111.177C145.825 107.04 145.281 102.853 143.779 98.9718C142.473 102.712 140.272 106.077 137.37 108.773C134.467 111.469 130.949 113.415 127.122 114.442C125.189 115.026 123.82 115.427 124.568 118.219C124.784 119.054 124.783 119.931 124.564 120.765C124.345 121.6 123.916 122.364 123.318 122.986C122.72 123.608 121.973 124.066 121.147 124.318C120.322 124.569 119.446 124.604 118.603 124.421C117.084 124.012 115.472 124.126 114.025 124.745C112.579 125.364 111.383 126.452 110.63 127.833C108.879 128.052 108.624 126.957 108.66 125.644Z" fill="#C098AF"/>
<path d="M14.7072 69.8735C17.2248 69.5816 16.9147 67.5566 17.1701 65.8782C19.3411 64.9113 21.0924 63.2511 23.2451 62.2295C25.1691 61.205 27.3233 60.69 29.5026 60.7335C30.4453 60.8987 31.4156 60.7033 32.2209 60.1862C33.9184 58.9485 36.0001 58.3537 38.0953 58.5079C38.3719 58.5684 38.6581 58.5706 38.9357 58.5147C39.2133 58.4587 39.4762 58.3457 39.7077 58.1827C39.9393 58.0198 40.1345 57.8105 40.2809 57.5681C40.4273 57.3257 40.5217 57.0555 40.5581 56.7747C40.8924 55.6958 41.3008 54.6412 41.7804 53.6185C42.6669 51.3658 44.0188 49.3255 45.7479 47.6311C47.4769 45.9366 49.5441 44.6262 51.8143 43.7854C52.3927 43.5194 53.0076 43.341 53.6386 43.2563C54.6238 43.2563 56.1745 42.6543 56.4664 43.6395C56.9042 45.0807 55.1346 44.8253 54.3137 45.2084C51.5385 46.4205 49.0414 48.1889 46.9767 50.4042C44.912 52.6196 43.3235 55.2347 42.3095 58.0882C42.1623 58.3838 42.1372 58.7255 42.2396 59.0395C42.342 59.3534 42.5636 59.6145 42.8568 59.7666C43.4771 60.1862 43.9879 60.7701 44.6811 61.2444C45.3976 61.8746 45.9091 62.7048 46.1497 63.6281C46.3903 64.5515 46.349 65.5257 46.0312 66.4254C45.8829 67.4114 45.373 68.307 44.6008 68.9376C43.8285 69.5682 42.8491 69.8888 41.8534 69.837C40.7249 69.6195 39.7265 68.9689 39.0718 68.0244C38.4171 67.0799 38.1583 65.9165 38.3507 64.7835C38.5789 63.8697 38.7074 62.9338 38.7338 61.9923C38.7507 61.7567 38.6854 61.5224 38.549 61.3295C38.4126 61.1365 38.2136 60.9968 37.9858 60.9342C37.2086 60.882 36.4289 60.9895 35.6948 61.25C34.9606 61.5104 34.2875 61.9182 33.7169 62.4484C33.5162 62.7403 33.4432 63.2511 33.1696 63.3971C32.2209 63.8714 30.9074 63.397 30.2324 64.6923C29.9108 65.7392 29.3194 66.683 28.5175 67.4288C27.2404 65.9876 28.1891 64.6559 28.7547 63.2511C28.0053 63.0707 27.2263 63.0505 26.4686 63.192C25.711 63.3335 24.9917 63.6334 24.358 64.0721C19.7242 66.389 16.0572 69.6546 14.689 74.9269C14.1772 76.8282 14.0347 78.8098 14.2694 80.7647C14.4518 82.0965 13.7403 82.4431 12.6457 82.5891C12.1399 82.3461 11.7014 81.9829 11.3687 81.531C9.54436 78.831 10.8031 76.3863 12.0072 73.9235C12.2991 73.4674 12.8282 73.1938 13.1201 72.7012C13.7403 71.789 13.6856 70.512 14.7072 69.8735Z" fill="#C097AF"/>
<path d="M11.5508 83.027C8.38672 84.5058 5.88393 87.1061 4.52712 90.3244C3.90066 91.5404 3.55571 92.8818 3.51782 94.2492C3.47992 95.6166 3.75005 96.9749 4.3082 98.2238C4.45414 98.5704 4.6913 98.8988 4.80076 99.2454C5.16563 100.249 6.62511 101.562 5.73118 102.164C4.41766 103.04 3.56021 101.343 2.72102 100.34C2.6022 100.248 2.47375 100.168 2.33791 100.103C1.93143 100.387 1.61087 100.777 1.41136 101.23C1.21185 101.684 1.14109 102.184 1.20683 102.675C1.15805 104.57 1.51168 106.454 2.24439 108.203C2.9771 109.951 4.07223 111.524 5.45753 112.819C6.64335 113.968 8.08458 115.135 9.9819 114.023C10.8758 113.512 11.3684 113.895 11.8062 114.679C11.9245 114.832 12.0022 115.013 12.0323 115.203C12.0624 115.394 12.0439 115.59 11.9784 115.772C11.9129 115.954 11.8027 116.116 11.6578 116.244C11.5129 116.372 11.338 116.461 11.1495 116.504C9.9886 116.921 8.92445 117.57 8.02136 118.41C7.11828 119.25 6.39504 120.265 5.89538 121.393C3.32306 126.866 2.3744 132.339 5.18389 137.958C5.40281 138.378 5.62172 138.797 5.80416 139.235C8.06634 144.27 11.4778 146.441 17.4434 145C17.6076 145 17.7901 145 18.1732 145.182C18.145 147.4 18.5799 149.6 19.4502 151.641C18.7596 151.314 18.1764 150.797 17.7692 150.151C17.362 149.505 17.1478 148.756 17.1516 147.992C17.1516 146.915 16.7867 146.368 15.6373 146.569H15.309C9.65351 147.517 5.49402 143.613 3.28657 138.195C1.89899 135.216 1.31063 131.927 1.57932 128.652C1.848 125.376 2.96449 122.227 4.81901 119.514C5.75184 118.305 6.76352 117.159 7.84742 116.084C1.80886 113.402 -0.234406 108.55 0.0210016 102.438C0.0210016 101.799 0.0209961 100.924 0.385864 100.614C2.2102 98.7893 1.51696 96.436 1.82709 94.265C2.08888 92.0005 2.82939 89.8175 3.99947 87.8611C5.16954 85.9047 6.74241 84.2195 8.61364 82.9176C8.95343 82.588 9.38667 82.3714 9.85419 82.2973C10.1763 82.257 10.5034 82.3033 10.8017 82.4316C11.0999 82.5599 11.3585 82.7654 11.5508 83.027Z" fill="#C09AB0"/>
<path d="M103.042 173.021C101.637 173.422 101.217 174.845 100.177 175.703C99.9637 175.657 99.7703 175.543 99.6258 175.379C99.4813 175.215 99.3933 175.009 99.3748 174.791C101.443 171.025 103.054 167.026 104.173 162.878C104.261 162.411 104.458 161.972 104.746 161.596C105.034 161.219 105.406 160.914 105.833 160.707C106.05 160.704 106.262 160.775 106.434 160.907C106.606 161.039 106.728 161.226 106.782 161.436C106.314 164.676 105.444 167.844 104.191 170.868C103.972 171.379 103.698 171.835 103.443 172.328C103.295 172.55 103.161 172.782 103.042 173.021Z" fill="#3D3432"/>
<path d="M56.7946 189.933C51.8075 189.129 47.0242 187.363 42.7107 184.734C42.6012 184.15 42.9661 183.968 43.4404 183.858C48.3662 185.683 53.529 186.905 58.1994 189.331C57.9987 190.28 57.4149 190.171 56.7946 189.933Z" fill="#383333"/>
<path d="M147.994 84.1763L146.771 82.9541C147.895 82.6557 148.943 82.1248 149.848 81.3957C150.753 80.6666 151.495 79.7556 152.025 78.7216C152.591 77.9006 152.792 76.8973 153.576 76.1128C153.556 76.3515 153.604 76.5909 153.713 76.8038C153.823 77.0167 153.99 77.1946 154.196 77.3169C153.779 78.8694 152.999 80.3007 151.92 81.4932C150.842 82.6856 149.496 83.6052 147.994 84.1763Z" fill="#C2A1B3"/>
<path d="M20.3992 152.315C21.0194 151.239 20.1255 149.871 21.0742 148.867C21.2755 148.907 21.4654 148.992 21.6296 149.115C21.7938 149.238 21.9282 149.397 22.0228 149.579C22.0851 151.364 22.499 153.119 23.241 154.744C23.9829 156.369 25.0383 157.831 26.3465 159.047C26.4166 159.311 26.384 159.591 26.2553 159.831C26.1315 159.885 25.998 159.913 25.8631 159.913C25.7281 159.913 25.5946 159.885 25.4708 159.831C22.9103 158.038 21.1038 155.361 20.3992 152.315Z" fill="#473F3F"/>
<path d="M123.529 156.475C122.58 159.904 121.705 163.334 118.366 165.432L117.965 165.286C117.765 165.103 117.63 164.86 117.582 164.593V164.192C119.44 161.874 120.918 159.275 121.96 156.493C122.197 155.909 122.343 155.198 123.128 155.052C123.876 155.38 123.675 155.909 123.529 156.475Z" fill="#403A3A"/>
<path d="M11.5507 83.0263L9.58042 82.8987C9.21011 82.5954 8.8737 82.2528 8.57704 81.8771C7.5919 79.3048 7.20878 76.7872 9.19731 74.452C9.70813 74.3243 9.92705 74.6345 10.1095 75.0176C10.1468 76.2393 10.0612 77.4617 9.85408 78.6663C9.85408 80.3446 10.3467 81.5669 12.1527 81.8953C12.2436 82.0769 12.2783 82.2816 12.2523 82.4831C12.2263 82.6845 12.1408 82.8737 12.0068 83.0263C11.8554 83.0454 11.7021 83.0454 11.5507 83.0263Z" fill="#BBA1AF"/>
<path d="M76.9538 189.933C74.4774 190.516 71.9449 190.828 69.401 190.864C67.2959 190.684 65.1824 190.623 63.0705 190.681C62.9137 190.672 62.7656 190.606 62.6545 190.495C62.5435 190.384 62.4772 190.236 62.4685 190.079C62.5228 189.927 62.6074 189.787 62.7171 189.667C62.8268 189.548 62.9595 189.453 63.107 189.386C67.1753 188.747 71.2983 189.112 75.3848 188.766C75.7166 188.832 76.0295 188.971 76.3008 189.173C76.5722 189.375 76.7952 189.634 76.9538 189.933Z" fill="#5C5553"/>
<path d="M30.9073 169.354C30.2302 167.849 29.9236 166.204 30.0134 164.556C30.0134 163.863 30.4329 163.078 29.6302 162.531L29.3201 162.203C29.0652 161.495 29.0652 160.721 29.3201 160.013C29.7579 159.138 29.3201 157.751 30.6883 157.368C31.783 158.134 31.6917 159.32 31.6735 160.415C31.6703 162.914 31.8042 165.411 32.0748 167.895C31.8559 168.551 31.8377 169.299 30.9073 169.354Z" fill="#403736"/>
<path d="M39.3351 181.304C36.9107 179.553 34.9352 177.252 33.5702 174.591C33.2601 174.043 33.5702 173.879 34.0445 173.751C36.4706 175.462 38.3671 177.82 39.5175 180.556C39.5086 180.69 39.5086 180.824 39.5175 180.958C39.4626 181.076 39.4017 181.192 39.3351 181.304Z" fill="#3F3A39"/>
<path d="M123.529 156.474C123.531 156.234 123.485 155.996 123.394 155.774C123.303 155.552 123.169 155.35 123 155.179C121.979 153.191 121.34 151.038 120.464 148.995C120.532 148.866 120.631 148.757 120.752 148.677C120.873 148.597 121.013 148.55 121.158 148.539C121.178 148.518 121.194 148.494 121.205 148.467C121.216 148.441 121.222 148.412 121.222 148.384C121.222 148.355 121.216 148.326 121.205 148.3C121.194 148.273 121.178 148.249 121.158 148.229C123.438 150.545 124.952 153.081 123.529 156.474Z" fill="#4D4645"/>
<path d="M99.6303 175.083L100.178 175.703C98.6182 177.905 96.6634 179.798 94.4127 181.286C94.3392 181.181 94.2722 181.071 94.212 180.957C94.1478 180.694 94.1478 180.418 94.212 180.155C95.5682 178.04 97.4305 176.297 99.6303 175.083Z" fill="#363233"/>
<path d="M34.1543 173.952L33.5705 174.59C32.3772 173.018 31.4751 171.245 30.907 169.355C31.0656 169.193 31.1908 169.003 31.2754 168.793C31.3599 168.583 31.4021 168.358 31.3995 168.132C33.0059 169.665 33.9874 171.738 34.1543 173.952Z" fill="#4F4847"/>
<path d="M88.7566 185.847C87.7119 186.75 86.4575 187.377 85.1079 187.671C84.5789 187.872 84.287 187.671 84.1228 187.16C84.5023 186.44 85.0805 185.844 85.7887 185.443C86.497 185.042 87.3054 184.853 88.1181 184.898C88.5194 185.062 88.8661 185.281 88.7566 185.847Z" fill="#47403F"/>
<path d="M121.194 147.208C120.345 147.18 119.532 146.858 118.895 146.295C118.457 145.912 118.603 145.456 118.895 145.037C118.934 144.951 118.998 144.879 119.077 144.828C119.156 144.778 119.248 144.751 119.342 144.751C119.436 144.751 119.528 144.778 119.607 144.828C119.686 144.879 119.749 144.951 119.789 145.037C120.464 145.912 121.613 145.949 122.398 146.624C121.85 146.678 121.449 146.733 121.194 147.208Z" fill="#EFE5EB"/>
<path d="M88.7573 185.846L88.0823 185.244C88.3194 183.42 90.1438 183.274 91.2566 182.398C91.4911 182.313 91.7371 182.264 91.9864 182.252C92.2306 182.317 92.4479 182.457 92.6066 182.654C92.6572 182.766 92.6998 182.882 92.7343 183C91.5269 184.104 90.1917 185.06 88.7573 185.846Z" fill="#58504F"/>
<path d="M9.7813 75.0725L9.19751 74.4523C9.96373 72.6279 11.4779 72.6279 13.1016 72.6279C13.1502 72.8567 13.1332 73.0945 13.0525 73.314C12.9718 73.5334 12.8307 73.7257 12.6455 73.8685C11.4962 73.832 11.0583 75.4374 9.7813 75.0725Z" fill="#C4AEB9"/>
<path d="M29.6304 162.531C29.6304 163.152 29.4297 163.498 28.9189 163.115C27.848 162.431 26.9088 161.559 26.1459 160.543C26.091 160.334 26.091 160.114 26.1459 159.904L26.2554 159.722C28.3169 159.594 28.7729 161.346 29.6669 162.604L29.6304 162.531Z" fill="#373333"/>
<path d="M118.366 165.432C117.686 166.456 116.713 167.251 115.574 167.712C115.009 168.04 114.863 167.712 114.753 167.238C115.374 165.942 116.049 164.738 117.764 164.83L117.983 165.012L118.165 165.194C118.241 165.265 118.309 165.345 118.366 165.432Z" fill="#474242"/>
<path d="M82.0612 188.784C80.923 189.35 79.6817 189.679 78.4126 189.751C78.0477 189.441 77.2267 189.751 77.2085 188.948C77.629 188.472 78.1667 188.113 78.7682 187.908C79.3698 187.704 80.0144 187.66 80.6383 187.781C80.936 187.829 81.2189 187.944 81.4654 188.118C81.712 188.292 81.9157 188.52 82.0612 188.784Z" fill="#605957"/>
<path d="M62.6138 190.426C64.8759 190.663 67.1929 190.006 69.4003 190.863C67.1479 191.046 64.8844 191.046 62.632 190.863C62.4861 190.754 62.4496 190.663 62.4861 190.553C62.5225 190.444 62.5773 190.426 62.6138 190.426Z" fill="#484444"/>
<path d="M82.0611 188.784C81.605 188.656 81.1125 188.692 80.8206 188.218C81.1541 187.647 81.6847 187.216 82.3127 187.008C82.9408 186.8 83.6232 186.828 84.2321 187.087L85.053 187.689C84.1747 188.321 83.1398 188.699 82.0611 188.784Z" fill="#474241"/>
<path d="M114.936 167.129L115.574 167.713C114.652 168.455 113.634 169.069 112.546 169.537L112.218 169.318C112.035 169.11 111.926 168.847 111.907 168.57C112.15 168.002 112.592 167.543 113.149 167.277C113.707 167.012 114.342 166.959 114.936 167.129Z" fill="#514A4A"/>
<path d="M110.43 169.993C109.408 170.814 108.095 170.613 106.946 171.014C106.544 170.85 106.216 170.65 106.289 170.139C106.715 169.691 107.249 169.359 107.84 169.173C108.43 168.988 109.058 168.956 109.664 169.081C109.857 169.158 110.028 169.281 110.162 169.44C110.295 169.6 110.388 169.789 110.43 169.993Z" fill="#655B57"/>
<path d="M43.404 184.131L42.7472 184.733C41.7389 184.295 40.9453 183.475 40.5398 182.453C40.6675 182.07 40.8682 181.76 41.3243 181.723C42.3094 182.252 43.404 182.727 43.404 184.131Z" fill="#5D5452"/>
<path d="M106.197 170.394L106.945 171.014L106.708 171.124H106.435C106.106 171.452 105.595 171.324 105.267 171.634L103.534 172.747C103.446 172.661 103.38 172.554 103.342 172.437C103.303 172.319 103.294 172.194 103.315 172.072C103.512 171.605 103.776 171.168 104.099 170.777C104.331 170.453 104.679 170.232 105.071 170.161C105.462 170.089 105.866 170.173 106.197 170.394Z" fill="#504B4C"/>
<path d="M60.1875 190.498L58.655 190.371C58.655 189.787 58.9469 189.55 59.3848 189.367C59.8311 189.207 60.3094 189.156 60.7793 189.22C61.2493 189.283 61.697 189.459 62.0848 189.732C62.194 189.845 62.2551 189.995 62.2551 190.152C62.2551 190.308 62.194 190.459 62.0848 190.571C61.4656 190.786 60.7883 190.76 60.1875 190.498Z" fill="#383333"/>
<path d="M59.3117 189.805L58.6549 190.389C58.3373 190.455 58.0092 190.449 57.6939 190.374C57.3786 190.298 57.0838 190.154 56.8306 189.951L58.0711 189.441C58.6732 188.839 59.0927 188.985 59.3117 189.805Z" fill="#555051"/>
<path d="M77.3001 189.203L78.4859 189.75L76.9534 189.933C76.5521 189.714 76.0048 189.805 75.7129 189.349C75.8032 189.229 75.9175 189.129 76.0486 189.056C76.1797 188.983 76.3247 188.938 76.4742 188.924C76.6236 188.911 76.7743 188.928 76.9165 188.976C77.0588 189.024 77.1894 189.101 77.3001 189.203Z" fill="#2C282A"/>
<path d="M110.43 169.994L109.828 169.446C109.968 169.165 110.194 168.936 110.472 168.791C110.751 168.647 111.069 168.595 111.379 168.644C111.488 168.7 111.584 168.777 111.663 168.871C111.741 168.965 111.8 169.074 111.835 169.191C111.84 169.437 111.77 169.678 111.634 169.884L110.43 169.994Z" fill="#332B2B"/>
<path d="M93.3728 182.052C93.3622 182.253 93.2972 182.447 93.1847 182.614C93.0723 182.781 92.9166 182.915 92.7343 183C92.7436 182.945 92.7364 182.887 92.7138 182.835C92.6911 182.784 92.6539 182.739 92.6066 182.708L92.4424 182.581C92.4103 182.539 92.3687 182.506 92.3211 182.484C92.2735 182.461 92.2212 182.451 92.1687 182.453C92.041 181.504 92.4789 181.14 93.391 181.285C93.4889 181.39 93.5418 181.529 93.5384 181.672C93.535 181.816 93.4756 181.952 93.3728 182.052Z" fill="#312E31"/>
<path d="M60.188 190.499L62.0123 190.389C62.213 190.134 62.4137 190.152 62.5961 190.389C62.587 190.547 62.587 190.706 62.5961 190.864C61.7751 190.965 60.9423 190.838 60.188 190.499Z" fill="#555051"/>
<path d="M8.57739 81.877C8.81444 81.9541 9.0294 82.0872 9.20406 82.265C9.37873 82.4428 9.50795 82.6602 9.58077 82.8986L8.61387 82.9898C8.59563 82.6249 8.59564 82.2601 8.57739 81.877Z" fill="#F2EDF0"/>
<path d="M93.3721 182.052V181.432C92.9343 181.067 93.2627 180.866 93.5181 180.647C93.7735 180.428 94.1566 180.811 94.2843 181.176L94.4302 181.286C94.3291 181.49 94.18 181.666 93.9957 181.799C93.8113 181.933 93.5974 182.019 93.3721 182.052Z" fill="#282327"/>
<path d="M111.634 169.883V169.518C111.853 168.953 112.273 169.154 112.656 169.263V169.518C112.619 169.615 112.562 169.702 112.489 169.775C112.415 169.847 112.327 169.903 112.229 169.937C112.132 169.972 112.029 169.985 111.926 169.976C111.823 169.967 111.723 169.935 111.634 169.883Z" fill="#F8D1AA"/>
<path d="M154.196 77.317C154.153 77.0916 154.181 76.8584 154.275 76.6494C154.37 76.4404 154.527 76.2657 154.725 76.1494C154.754 76.3739 154.719 76.6019 154.626 76.808C154.532 77.0142 154.384 77.1905 154.196 77.317Z" fill="#C2A1B3"/>
<path d="M105.267 171.562C105.386 171.367 105.562 171.214 105.771 171.123C105.98 171.031 106.211 171.006 106.435 171.051L105.267 171.562Z" fill="#655B57"/>
<path d="M40.3024 182.033C40.0923 182.004 39.8931 181.922 39.7238 181.794C39.5545 181.667 39.4208 181.498 39.3354 181.303H39.5361C39.6291 181.242 39.7339 181.2 39.8439 181.181C39.9538 181.163 40.0665 181.167 40.1747 181.194C40.3793 181.298 40.5454 181.464 40.649 181.668C40.6672 181.851 40.5578 182.015 40.3024 182.033Z" fill="#2F2928"/>
<path d="M26.1276 159.904V160.616C25.9629 160.55 25.816 160.446 25.6987 160.313C25.5815 160.18 25.4972 160.021 25.4526 159.85L26.1276 159.904Z" fill="#2B272B"/>
<path d="M147.391 84.6687L148.011 84.1396C147.972 84.2795 147.893 84.4046 147.782 84.4989C147.672 84.5931 147.535 84.6522 147.391 84.6687Z" fill="#C2A1B3"/>
<path d="M103.607 172.036V172.729L103.115 173.021V172.219C103.164 172.137 103.239 172.074 103.329 172.041C103.418 172.008 103.516 172.006 103.607 172.036Z" fill="#1E1D1F"/>
<path d="M40.9773 182.015L40.503 182.453C40.4623 182.439 40.4247 182.417 40.3926 182.388C40.3604 182.359 40.3342 182.324 40.3156 182.285C40.2969 182.246 40.2862 182.204 40.2839 182.161C40.2816 182.117 40.2879 182.074 40.3023 182.034L40.5213 181.815C40.5633 181.791 40.6104 181.777 40.6588 181.774C40.7072 181.772 40.7555 181.781 40.7998 181.8C40.8442 181.82 40.8833 181.849 40.9141 181.887C40.945 181.924 40.9666 181.968 40.9773 182.015Z" fill="#332C2D"/>
<path d="M87.5344 79.2503C87.6397 78.4763 87.9249 77.7377 88.3672 77.0939C88.8095 76.45 89.3965 75.9187 90.0811 75.5427C90.7658 75.1666 91.5291 74.9562 92.3098 74.9285C93.0904 74.9007 93.8667 75.0563 94.5764 75.3828C96.5952 76.2306 98.1995 77.8385 99.0427 79.8593C99.8858 81.8801 99.9001 84.1515 99.0825 86.1828C98.5899 87.3869 97.9879 88.5544 97.4588 89.6855C97.9514 90.5612 98.6811 90.3058 99.2832 90.3423C100.559 90.4872 101.782 90.9312 102.853 91.6381C103.925 92.3451 104.814 93.295 105.449 94.4106C105.989 95.252 106.3 96.2196 106.351 97.2178C106.402 98.216 106.192 99.2103 105.741 100.103C105.013 102.279 103.523 104.119 101.545 105.284C100.962 105.594 100.268 105.959 99.721 105.284C99.1737 104.609 99.5386 104.061 100.049 103.459C100.962 102.492 101.874 101.471 102.695 100.504C103.109 100.15 103.446 99.7142 103.684 99.224C103.923 98.7338 104.057 98.1996 104.08 97.655C104.102 97.1104 104.011 96.567 103.814 96.0589C103.616 95.5509 103.316 95.0891 102.932 94.7025C102.322 93.9139 101.548 93.2684 100.662 92.8114C99.7763 92.3544 98.8013 92.0969 97.8055 92.0571C96.3825 92.0571 94.9777 92.0572 93.5548 92.2214C93.0622 92.2214 92.5696 92.3309 92.3507 91.8018C92.1318 91.2728 92.5331 90.6889 93.0622 90.47C93.9923 90.1195 94.841 89.5828 95.5562 88.8926C96.2715 88.2024 96.8382 87.3734 97.2217 86.4564C97.8383 84.9676 97.9638 83.3208 97.5799 81.7557C97.196 80.1906 96.3228 78.7889 95.0872 77.7544C94.1402 77.0299 92.9612 76.6763 91.7718 76.7603C90.5824 76.8442 89.4647 77.36 88.629 78.2105C88.4403 78.4231 88.2752 78.6555 88.1365 78.9037C88.0452 79.1591 87.8628 79.3598 87.5344 79.2503Z" fill="#C198B0"/>
<path d="M27.9515 126.19C27.8238 124.785 26.492 124.585 25.6346 123.928C24.2953 123.051 23.143 121.918 22.2443 120.593C21.3456 119.269 20.7183 117.779 20.3987 116.211C20.1679 114.629 20.2921 113.017 20.7623 111.489C21.2325 109.962 22.0369 108.559 23.117 107.381C23.4666 106.931 23.8711 106.527 24.3211 106.177C26.3643 104.553 28.0792 102.82 26.8386 99.883C27.313 94.3005 28.4258 88.9369 33.5157 85.5984C34.1907 85.1423 34.9022 84.1572 35.632 85.1605C36.3617 86.1639 35.632 86.9848 34.7745 87.4956C33.0811 88.3695 31.6515 89.6795 30.6333 91.2903C29.4124 93.3198 28.6816 95.606 28.4988 97.9673C28.4215 98.9124 28.5679 99.8623 28.9261 100.74C29.2842 101.618 29.8441 102.399 30.5603 103.021C30.9981 103.404 31.3995 103.842 31.1806 104.48C30.9617 105.119 30.3049 105.064 29.7576 105.119C25.7258 105.538 23.865 108.585 22.2596 111.686C20.6541 114.788 22.0771 117.67 23.9744 120.097C24.6134 121.094 25.4497 121.95 26.4316 122.612C27.4136 123.273 28.5206 123.728 29.6846 123.946C29.8117 124.102 29.8941 124.29 29.923 124.489C29.9519 124.688 29.9263 124.891 29.8488 125.077C29.4292 125.789 28.9731 126.482 27.9515 126.19Z" fill="#C199B0"/>
<path d="M30.2683 157.332C30.0129 158.299 30.5602 159.412 29.7575 160.288C28.6446 159.449 28.6264 158.153 28.4075 156.986C27.8754 153.76 26.7363 150.665 25.0507 147.864C24.4487 147.08 25.4338 146.368 25.1602 145.584C23.0804 140.111 24.0291 134.856 26.2912 129.675C26.875 129.675 27.094 130.022 27.2764 130.478C27.2435 132.442 26.9802 134.395 26.4919 136.298C25.9101 140.32 26.5455 144.425 28.3163 148.083C29.294 150.116 30.0229 152.26 30.4872 154.468C30.7426 155.38 31.071 156.42 30.2683 157.332Z" fill="#2F2828"/>
<path d="M60.4613 116.449C62.0608 116.459 63.6491 116.181 65.1498 115.628C68.8892 114.938 72.7408 115.175 76.3668 116.32C79.9928 117.466 83.2825 119.483 85.9473 122.195C85.8789 122.332 85.818 122.472 85.7649 122.615C85.6635 122.726 85.5394 122.815 85.401 122.875C85.2626 122.935 85.1129 122.964 84.9622 122.961L84.5243 122.852C81.3682 121.028 78.5405 118.62 74.9283 117.543C71.5409 116.677 67.9899 116.677 64.6026 117.543C63.8088 117.851 62.9565 117.978 62.1076 117.915C61.2587 117.851 60.4346 117.6 59.6951 117.178C59.6768 116.576 59.8228 116.211 60.4613 116.449Z" fill="#3E3436"/>
<path d="M29.5566 124.804L29.7208 123.964L31.0343 122.523C32.1209 121.276 33.5725 120.402 35.1835 120.025C36.7945 119.649 38.4831 119.789 40.0101 120.425C39.9578 120.638 39.8608 120.838 39.7256 121.011C39.5904 121.184 39.4199 121.327 39.2256 121.429C35.96 121.721 32.8587 122.395 30.8154 125.333C30.6705 125.523 30.4632 125.657 30.2298 125.71C29.9964 125.764 29.7517 125.733 29.5384 125.625C29.4741 125.497 29.4421 125.355 29.4453 125.212C29.4485 125.069 29.4867 124.929 29.5566 124.804Z" fill="#483D3E"/>
<path d="M39.2991 120.991L40.0106 120.425C43.6592 120.936 46.5052 119.294 49.4059 117.579C50.0627 117.306 50.2086 117.707 50.2634 118.236C48.1836 121.21 44.991 121.885 41.6707 122.231C41.1956 122.295 40.7124 122.21 40.2876 121.988C39.8629 121.766 39.5175 121.417 39.2991 120.991Z" fill="#453B3B"/>
<path d="M50.0993 118.182L49.406 117.579C52.9087 115.518 56.5392 114.533 60.4615 116.448L59.7865 116.978C56.5209 117.069 53.3831 118.218 50.0993 118.182Z" fill="#504547"/>
<path d="M88.392 123.819C92.0407 124.968 95.4887 124.001 99.0279 123.454C99.1235 123.576 99.1911 123.718 99.2258 123.869C99.2604 124.02 99.2614 124.178 99.2286 124.329C99.086 124.612 98.8641 124.846 98.59 125.004C95.9611 126.019 93.1241 126.376 90.3258 126.044C89.757 126.049 89.1969 125.905 88.701 125.626C88.205 125.348 87.7904 124.945 87.498 124.457C87.5528 123.891 87.717 123.508 88.392 123.819Z" fill="#504546"/>
<path d="M98.9917 124.366C98.9917 124.183 98.9917 123.983 98.9917 123.8C100.269 123.344 101.637 123.91 102.896 123.454C104.177 123.674 105.381 124.214 106.399 125.023C106.343 125.245 106.221 125.445 106.048 125.595C105.875 125.745 105.66 125.838 105.432 125.862C103.37 125.096 100.925 125.807 98.9917 124.366Z" fill="#685758"/>
<path d="M25.1602 145.51C25.9447 146.075 25.3061 146.586 25.1602 147.115C24.1999 147.881 23.1602 148.542 22.0588 149.086C21.6027 149.086 21.4203 148.757 21.2561 148.374C21.431 147.799 21.7627 147.285 22.2139 146.889C22.6651 146.492 23.2179 146.23 23.8102 146.13C24.248 146.021 24.9048 146.203 25.1602 145.51Z" fill="#463C3E"/>
<path d="M29.5573 124.804L29.6668 125.68C29.585 126.611 29.2888 127.511 28.8014 128.308C28.314 129.106 27.6486 129.78 26.8573 130.277L26.2917 129.602C26.6504 128.38 27.2116 127.227 27.9519 126.191L29.5573 124.804Z" fill="#433739"/>
<path d="M108.66 125.643L110.284 127.978C110.379 128.055 110.446 128.161 110.475 128.279C110.505 128.398 110.495 128.522 110.448 128.635C110.361 128.805 110.228 128.947 110.063 129.044C109.898 129.141 109.709 129.189 109.518 129.182C108.332 128.544 107.931 127.358 107.329 126.209C107.316 126.086 107.331 125.961 107.372 125.845C107.413 125.728 107.479 125.622 107.566 125.534L108.66 125.643Z" fill="#483D3E"/>
<path d="M88.3919 123.819L87.644 124.366C86.2757 124.695 85.4912 124.184 85.3635 122.761L85.4912 122.524L85.6737 122.341C85.7475 122.265 85.8432 122.214 85.9473 122.195L88.3919 123.819Z" fill="#594B49"/>
<path d="M102.932 123.454C101.692 124.202 100.324 123.727 99.0283 123.8V123.454C100.32 123.226 101.641 123.226 102.932 123.454Z" fill="#342A32"/>
<path d="M12.0071 82.9718V81.7495C11.8794 81.7495 11.8247 81.5488 11.8612 81.4576C11.8977 81.3664 11.8612 81.2935 11.9889 81.2935C12.5544 81.5124 12.6274 82.0232 12.6822 82.534L12.0071 82.9718Z" fill="#C09AB0"/>
<path d="M107.566 125.534V126.136C107.074 126.592 106.654 126.483 106.289 125.972C106.289 125.479 106.563 125.297 106.946 125.169C107.011 125.15 107.078 125.144 107.145 125.153C107.212 125.161 107.277 125.183 107.335 125.217C107.393 125.251 107.444 125.297 107.484 125.351C107.523 125.406 107.551 125.468 107.566 125.534Z" fill="#625251"/>
<path d="M106.928 125.169L106.38 125.625C106.345 125.667 106.299 125.699 106.247 125.716C106.194 125.733 106.138 125.735 106.085 125.722C106.031 125.709 105.983 125.68 105.945 125.641C105.907 125.601 105.881 125.551 105.87 125.497L106.435 125.023C106.523 125.003 106.614 125.007 106.7 125.032C106.787 125.058 106.865 125.105 106.928 125.169Z" fill="#3D3435"/>
<path d="M21.2012 148.375L21.7302 149.013C21.7591 149.049 21.7789 149.092 21.7881 149.137C21.7973 149.182 21.7956 149.229 21.7831 149.274C21.7707 149.318 21.7478 149.359 21.7164 149.393C21.685 149.427 21.646 149.453 21.6025 149.469L21.0735 148.867C21.0533 148.781 21.0543 148.691 21.0766 148.605C21.0988 148.519 21.1416 148.44 21.2012 148.375Z" fill="#251D20"/>
<path d="M17.1699 65.896L16.5679 65.2939L17.1699 65.896Z" fill="#C097AF"/>
<path d="M135.368 25.031L135.095 25.2864L135.35 25.0127L135.368 25.031Z" fill="#7D6471"/>
<path d="M110.302 128.489C110.358 128.323 110.358 128.144 110.302 127.978C110.465 127.17 110.799 126.406 111.281 125.738C111.763 125.069 112.382 124.511 113.097 124.1C113.811 123.689 114.605 123.435 115.426 123.355C116.246 123.275 117.074 123.371 117.855 123.636C118.902 123.971 120.032 123.932 121.055 123.528C122.077 123.123 122.927 122.378 123.462 121.417C123.997 120.457 124.183 119.341 123.989 118.259C123.795 117.177 123.233 116.196 122.397 115.482C124.054 114.69 125.791 114.079 127.578 113.657C130.787 112.772 133.747 111.155 136.226 108.932C139.437 105.922 142.647 102.693 142.939 97.603C144.983 98.5517 145.165 100.431 145.53 102.036C146.405 106.103 146.442 110.305 145.639 114.387C145.202 116.667 143.56 118.546 143.213 120.699C143.067 122.925 142.504 125.103 141.553 127.121C141.116 127.852 140.731 128.615 140.403 129.401C140.169 129.965 139.806 130.467 139.344 130.866C138.882 131.265 138.332 131.551 137.74 131.7C134.091 132.977 133.489 134.035 134.091 138.03C134.184 139.028 134.046 140.034 133.688 140.97C133.329 141.906 132.76 142.747 132.025 143.428C131.289 144.109 130.407 144.611 129.446 144.897C128.485 145.182 127.472 145.242 126.484 145.072C124.951 144.707 123.583 143.886 121.978 143.613C121.391 143.432 120.86 143.107 120.433 142.667C120.006 142.227 119.696 141.687 119.533 141.095C118.746 141.372 118.077 141.911 117.639 142.622C117.201 143.332 117.019 144.171 117.125 144.999C117.125 145.747 117.125 146.514 117.125 147.262C116.359 148.265 115.1 148.247 114.097 148.776L113.385 149.122C113.151 149.262 112.907 149.384 112.655 149.487L112.272 149.633C109.718 149.104 111.67 147.298 111.269 146.167C112.382 141.934 111.561 137.757 111.032 133.561C110.902 133.015 110.817 132.46 110.776 131.901C110.683 131.012 110.468 130.14 110.138 129.31C110.104 129.169 110.102 129.023 110.13 128.882C110.158 128.74 110.217 128.606 110.302 128.489Z" fill="#F0D0E3"/>
<path d="M111.525 168.954L109.828 169.446C108.559 169.499 107.315 169.823 106.18 170.395C105.465 170.51 104.782 170.771 104.173 171.161C104.138 171.222 104.087 171.272 104.026 171.307C103.965 171.342 103.896 171.36 103.826 171.36C103.756 171.36 103.687 171.342 103.627 171.307C103.566 171.272 103.515 171.222 103.48 171.161C104.556 168.041 105.158 164.757 106.472 161.711C106.472 159.503 107.931 157.807 108.716 155.873C109.082 155.075 109.393 154.252 109.646 153.41C109.828 152.782 110.066 152.171 110.358 151.586C110.588 151.142 110.877 150.731 111.215 150.364C111.689 149.962 112.237 149.634 112.729 149.232C113.222 148.831 113.897 148.667 114.553 148.357C115.442 147.94 116.42 147.752 117.399 147.809C117.967 147.879 118.518 148.052 119.023 148.32L120.227 148.758C120.267 148.732 120.313 148.715 120.36 148.708C120.407 148.7 120.455 148.702 120.501 148.714C120.548 148.726 120.591 148.748 120.628 148.777C120.666 148.807 120.697 148.844 120.72 148.886C122.288 150.6 123.126 152.858 123.055 155.18C122.172 158.795 120.368 162.119 117.819 164.831L114.991 167.129L112.091 168.808C111.926 169.045 111.762 169.099 111.525 168.954Z" fill="#F8D1AA"/>
<path d="M117.253 148.247L114.316 148.831C114.192 148.797 114.079 148.735 113.984 148.649C113.889 148.563 113.815 148.457 113.768 148.338C114.747 147.586 115.945 147.176 117.18 147.17L118.439 147.718C118.201 148.229 117.599 147.955 117.253 148.247Z" fill="#675657"/>
<path d="M117.253 148.246C117.545 147.827 118.019 147.845 118.439 147.717C118.858 147.59 118.986 147.955 118.968 148.319L117.253 148.246Z" fill="#483735"/>
<path d="M120.665 148.886L120.172 148.758C120.464 148.466 120.756 148.247 121.157 148.539L120.665 148.886Z" fill="#2A2021"/>
<path d="M11.9336 81.2936C11.9336 81.4395 11.9336 81.6037 11.9336 81.7497C10.1092 82.2787 9.43424 81.9686 9.14235 80.3632C8.85359 78.5762 9.06837 76.7442 9.76261 75.0725L11.2221 73.7955C11.7147 73.3759 12.189 73.2847 12.6268 73.8868C11.7694 76.1307 10.2917 78.2834 11.5687 80.8558C11.6681 81.0189 11.791 81.1665 11.9336 81.2936Z" fill="#F2EDF0"/>
<path d="M42.1088 62.4844C43.0575 63.5972 43.9332 64.4181 43.769 65.8228C43.7518 66.1571 43.6243 66.4764 43.4064 66.7306C43.1886 66.9847 42.8927 67.1595 42.5649 67.2276C41.8717 67.3371 41.671 66.662 41.4338 66.1695C41.1321 65.565 41.0348 64.8789 41.1565 64.2143C41.2783 63.5497 41.6124 62.9427 42.1088 62.4844Z" fill="#ECCBDF"/>
<path d="M105.869 125.497C106.017 125.602 106.2 125.647 106.38 125.625C106.515 125.802 106.693 125.942 106.897 126.031C107.102 126.121 107.325 126.157 107.547 126.136C108.788 126.756 108.751 128.325 109.773 129.091C109.988 129.258 110.179 129.454 110.339 129.675C111.05 130.605 110.868 131.791 111.232 132.831C111.432 133.418 111.525 134.036 111.506 134.655C112.159 138.077 112.258 141.582 111.798 145.036C111.597 146.514 111.214 147.936 110.995 149.396C111.054 149.954 110.973 150.519 110.758 151.038C110.457 151.621 110.213 152.232 110.028 152.862C109.718 153.72 109.426 154.687 109.098 155.453C108.422 157.466 107.356 159.326 105.96 160.926C105.123 162.272 104.507 163.745 104.136 165.286C103.314 168.828 101.795 172.171 99.6662 175.119L94.4303 180.592C94.4262 180.649 94.4101 180.703 94.3833 180.753C94.3565 180.803 94.3195 180.846 94.2748 180.881C94.23 180.915 94.1785 180.94 94.1235 180.953C94.0686 180.966 94.0115 180.968 93.956 180.957C93.8203 180.973 93.6929 181.03 93.5916 181.122C93.4902 181.214 93.4199 181.334 93.3904 181.468C92.8886 181.661 92.4694 182.022 92.2046 182.489C90.736 183.254 89.3641 184.191 88.1181 185.281L84.2687 187.105L80.8572 188.236C79.6434 188.399 78.4583 188.73 77.3363 189.221L75.7491 189.367C71.4015 189.866 67.0255 190.073 62.6503 189.988C62.573 190.058 62.4722 190.097 62.3676 190.097C62.2629 190.097 62.1621 190.058 62.0848 189.988L59.3483 189.823C59.182 189.662 58.9784 189.544 58.7556 189.48C58.5328 189.417 58.2977 189.409 58.0712 189.458C53.0506 188.159 48.1639 186.387 43.4765 184.168L41.0866 182.052C41.0729 182.006 41.0495 181.965 41.0181 181.929C40.9867 181.894 40.948 181.866 40.9047 181.847C40.8614 181.828 40.8145 181.818 40.7671 181.819C40.7198 181.82 40.6732 181.831 40.6306 181.851C40.6489 181.782 40.6501 181.709 40.634 181.64C40.6179 181.57 40.585 181.506 40.5383 181.452C40.4915 181.398 40.4322 181.356 40.3656 181.33C40.299 181.304 40.2272 181.295 40.1562 181.304C39.9766 181.272 39.8127 181.181 39.6905 181.045C39.5682 180.91 39.4946 180.738 39.4812 180.556L34.2636 173.988C33.1378 172.153 32.2142 170.202 31.5089 168.168C31.0353 165.766 30.8394 163.318 30.9251 160.871C31.0684 159.628 30.8795 158.369 30.3778 157.222C30.1979 154.386 29.4208 151.619 28.0973 149.104C26.6959 146.422 25.8551 143.483 25.6262 140.466C25.3972 137.449 25.7849 134.417 26.7656 131.554C26.8694 131.098 26.9365 130.634 26.9662 130.167L29.7757 125.57C30.0635 125.343 30.3264 125.086 30.5602 124.804C31.4611 123.328 32.7907 122.162 34.3716 121.461C35.9525 120.76 37.7095 120.558 39.4082 120.881C40.781 121.32 42.2348 121.445 43.6621 121.246C45.0894 121.047 46.4538 120.53 47.6543 119.732C48.5482 119.24 49.3691 118.619 50.2083 118.072C53.1758 116.482 56.629 116.052 59.8956 116.868C62.3037 117.616 64.6024 116.74 66.8646 116.266C70.6964 115.531 74.6642 116.116 78.1207 117.926C80.7102 119.244 83.1558 120.828 85.4181 122.651C86.0268 123.374 86.8125 123.927 87.6985 124.257C90.7634 126.081 93.9743 125.278 97.1668 124.731C97.8054 124.621 98.4256 124.421 98.9912 124.257C101.354 124.031 103.734 124.46 105.869 125.497Z" fill="#F8D1AA"/>
<path d="M105.96 160.89L108.788 155.216C109.317 155.216 109.591 155.307 109.317 155.891C108.624 157.913 107.673 159.839 106.49 161.619L105.96 160.89Z" fill="#52453F"/>
<path d="M103.498 171.069H104.191C103.972 171.361 103.753 171.653 103.553 171.963L102.987 172.127C103.06 171.799 102.969 171.307 103.498 171.069Z" fill="#A7998F"/>
<path d="M21.6034 149.469C21.6553 149.406 21.6935 149.333 21.7155 149.255C21.7375 149.176 21.7428 149.094 21.7311 149.013C22.0687 148.426 22.5633 147.944 23.1594 147.621C23.7555 147.299 24.4296 147.149 25.1061 147.189C26.8525 149.003 28.0044 151.307 28.4081 153.793C29.0467 155.927 29.3203 158.153 29.7582 160.36L29.6487 162.677C28.6197 161.595 27.4757 160.629 26.2372 159.795C25.7339 159.159 25.1981 158.551 24.6318 157.971C23.433 156.938 22.5235 155.611 21.9925 154.121C21.4616 152.63 21.3275 151.027 21.6034 149.469Z" fill="#F5D0AA"/>
<path d="M118.202 165.195H118.038V165.031C118.06 165.028 118.083 165.03 118.104 165.037C118.125 165.045 118.145 165.057 118.161 165.073C118.176 165.088 118.188 165.108 118.196 165.129C118.203 165.15 118.205 165.173 118.202 165.195Z" fill="#151214"/>
<path d="M62.0485 189.951H62.6141V190.407H62.0303C62.0462 190.256 62.0523 190.103 62.0485 189.951Z" fill="#484444"/>
<path d="M39.3721 180.52C39.5355 180.582 39.6818 180.683 39.7991 180.813C39.9164 180.943 40.0013 181.099 40.0471 181.268C39.878 181.295 39.7054 181.295 39.5363 181.268L39.3721 180.52Z" fill="#2A2525"/>
<path d="M93.9197 180.921L94.394 180.556C94.394 180.757 94.394 180.976 94.2663 181.176C94.1882 181.179 94.1114 181.155 94.0485 181.109C93.9856 181.063 93.9402 180.996 93.9197 180.921Z" fill="#292323"/>
<path d="M92.4419 182.563L92.6061 182.709L92.4419 182.745V182.563Z" fill="#181417"/>
<path d="M111.524 168.953C111.592 168.89 111.673 168.844 111.762 168.818C111.851 168.793 111.945 168.789 112.035 168.807L112.601 169.263L111.579 169.518L111.524 168.953Z" fill="#2A2527"/>
<path d="M85.6734 122.305V122.487H85.491C85.5005 122.442 85.5228 122.401 85.5552 122.369C85.5876 122.337 85.6286 122.314 85.6734 122.305Z" fill="#1F1519"/>
<path d="M109.883 129.602C109.791 129.469 109.752 129.306 109.773 129.146L110.302 128.544C110.364 128.59 110.411 128.651 110.44 128.722C110.469 128.793 110.478 128.87 110.467 128.945C110.722 129.602 110.43 129.602 109.883 129.602Z" fill="#221C1F"/>
<path d="M111.434 145.237C111.604 141.523 111.464 137.8 111.014 134.109C111.379 133.762 111.014 133.106 111.616 132.85C112.797 137.353 112.915 142.068 111.963 146.624C110.904 146.514 111.397 145.785 111.434 145.237Z" fill="#4D4247"/>
<path d="M111.433 145.236C111.426 145.491 111.469 145.744 111.56 145.982C111.65 146.22 111.787 146.438 111.962 146.623C111.853 147.17 111.762 147.736 111.634 148.283C111.324 149.523 112.072 149.14 112.674 148.958C112.746 149.003 112.801 149.07 112.831 149.149C112.86 149.228 112.863 149.315 112.838 149.396C112.838 149.542 112.747 149.615 112.692 149.615C112.447 150.095 112.049 150.48 111.561 150.709C110.886 150.582 110.777 149.961 110.448 149.505C110.557 148.04 110.889 146.601 111.433 145.236Z" fill="#544844"/>
<path d="M109.883 129.602L110.466 128.945C111.075 129.614 111.413 130.486 111.415 131.39C111.087 131.755 111.415 132.412 110.831 132.649C110.389 131.677 110.07 130.653 109.883 129.602Z" fill="#54474A"/>
<path d="M110.904 132.594C111.105 132.175 111.032 131.627 111.488 131.335L111.689 132.85C111.506 133.288 111.561 133.816 111.087 134.108L110.904 132.594Z" fill="#272022"/>
<path d="M112.729 149.67V149.013V148.776C112.808 148.782 112.886 148.76 112.95 148.713C113.013 148.666 113.058 148.597 113.075 148.52L113.787 148.393L114.334 148.885L112.729 149.67Z" fill="#403337"/>
<path d="M113.058 148.466C113.058 148.684 112.93 148.757 112.711 148.721C112.731 148.645 112.777 148.579 112.84 148.533C112.903 148.486 112.979 148.463 113.058 148.466Z" fill="#F8D1AA"/>
<path d="M109.317 155.891L108.788 155.216C109.134 154.413 109.043 153.392 109.718 152.771C110.083 152.771 110.12 153.209 110.302 153.446C110.178 154.329 109.84 155.169 109.317 155.891Z" fill="#665750"/>
<path d="M110.448 149.506C110.704 149.622 110.935 149.789 111.126 149.996C111.317 150.203 111.465 150.445 111.561 150.71L110.849 151.75C110.174 151.75 110.138 151.385 110.284 150.874L110.448 149.506Z" fill="#4A3E3B"/>
<path d="M110.284 150.874L110.85 151.75L110.302 153.446L109.719 152.771C109.674 152.092 109.875 151.418 110.284 150.874Z" fill="#4C3F3B"/>
<path d="M50.7008 173.988C49.0862 174.015 47.4962 173.591 46.1101 172.762C44.724 171.934 43.597 170.734 42.8561 169.3C41.9151 167.206 41.7978 164.835 42.5277 162.659C43.019 160.547 44.146 158.637 45.7568 157.186C47.7457 155.287 49.3825 153.052 50.5913 150.582C51.3822 148.968 52.4575 147.509 53.7657 146.277C54.7611 145.302 56.0372 144.664 57.4143 144.452C61.738 143.777 62.2671 143.102 62.0482 138.724C61.9924 136.556 61.7235 134.399 61.2455 132.284C60.8537 130.243 61.089 128.132 61.9205 126.227C62.3218 131.499 63.7448 136.042 63.7448 140.822C63.8354 142.056 63.4718 143.28 62.7225 144.264C61.9732 145.249 60.8899 145.926 59.6765 146.167C57.7699 146.526 55.9859 147.364 54.4923 148.602C52.9987 149.841 51.8447 151.438 51.1386 153.246C50.0555 155.45 48.483 157.378 46.5413 158.883C45.5997 159.724 44.8751 160.78 44.4291 161.961C43.983 163.142 43.8286 164.414 43.979 165.667C44.1295 166.921 44.5803 168.12 45.2931 169.162C46.006 170.204 46.9599 171.058 48.0737 171.653C48.6284 171.973 49.2576 172.142 49.8981 172.142C50.5385 172.142 51.1677 171.973 51.7224 171.653C52.9265 171.033 54.3312 170.285 55.4805 171.908C55.7542 172.273 56.2468 172.602 56.0096 173.131C55.7724 173.66 55.1886 173.587 54.7873 173.368C53.1454 172.456 52.4339 173.496 51.7589 174.718C51.394 174.39 51.0656 174.043 50.7008 173.988Z" fill="#DBB389"/>
<path d="M83.6486 147.846C84.5425 149.415 86.4033 150.054 87.2972 151.695C88.1912 153.337 88.3918 154.304 87.5344 155.344C87.0004 155.808 86.324 156.075 85.6172 156.102C84.9104 156.128 84.2158 155.913 83.6486 155.49C82.0928 154.396 80.8379 152.928 79.9999 151.221C77.9453 146.973 76.8906 142.312 76.9167 137.593C77.0329 137.535 77.1609 137.505 77.2907 137.505C77.4205 137.505 77.5485 137.535 77.6647 137.593C79.0915 139.227 80.2548 141.074 81.1127 143.066C81.2039 145.018 83.083 146.022 83.6486 147.846Z" fill="#DCB387"/>
<path d="M50.7014 173.988C51.5771 173.04 51.796 173.678 51.9237 174.517C51.4311 175.612 50.2818 176.013 49.4791 176.798C48.2203 178.075 48.3115 179.078 49.8622 180.009C51.5615 181.044 53.4597 181.711 55.4335 181.966C57.4072 182.22 59.4125 182.057 61.319 181.486C63.2455 180.973 65.0886 180.187 66.7921 179.151C68.7031 178.004 70.9745 177.613 73.159 178.057C73.0147 178.516 72.7164 178.913 72.3144 179.178C71.9124 179.444 71.4312 179.563 70.9516 179.516C68.7912 179.771 66.7219 180.534 64.913 181.742C61.8797 183.503 58.4004 184.346 54.8974 184.168C52.3453 183.896 49.9164 182.931 47.8737 181.377C45.7392 179.863 45.8669 177.892 47.8737 176.232C48.6946 175.466 50.0264 175.211 50.7014 173.988Z" fill="#CC8867"/>
<path d="M80.7483 143.248C79.5029 141.434 78.3697 139.545 77.355 137.593C77.209 136.99 77.355 136.753 78.0482 136.899C78.5591 137.447 79.1064 137.976 79.5807 138.559C82.7003 142.372 86.2213 145.547 91.2565 146.568C91.7287 146.578 92.1857 146.737 92.5624 147.022C92.9391 147.307 93.2163 147.704 93.3545 148.155C90.463 148.412 87.5492 148.096 84.78 147.225C83.821 146.968 82.9451 146.467 82.2383 145.77C81.5315 145.072 81.018 144.203 80.7483 143.248Z" fill="#171311"/>
<path d="M47.6183 142.591C44.8596 143.267 41.9714 143.204 39.2446 142.409C42.1818 140.584 45.5933 141.077 48.1474 139.179C50.7015 137.282 52.5988 135.221 54.9522 133.269C55.4813 134.272 54.6603 134.71 54.6785 135.348C54.2147 136.511 53.6014 137.609 52.8542 138.614C51.3947 140.31 50.1542 142.372 47.6183 142.591Z" fill="#1E1917"/>
<path d="M52.5258 138.14C53.1225 137.117 53.8526 136.179 54.6967 135.349C53.8758 139.38 53.0731 143.412 50.0082 146.514C49.606 147.043 49.062 147.448 48.4393 147.681C48.0837 147.818 47.6924 147.831 47.3283 147.719C46.9643 147.606 46.6487 147.375 46.4325 147.061C46.3295 146.924 46.2548 146.767 46.2128 146.601C46.1707 146.434 46.1622 146.261 46.1877 146.091C46.2131 145.922 46.2721 145.759 46.3611 145.612C46.4501 145.465 46.5674 145.338 46.7061 145.237C47.4359 144.507 48.2203 143.85 48.9865 143.175C49.7163 141.241 52.0514 140.347 52.5258 138.14Z" fill="#DBB388"/>
<path d="M57.4517 173.806C58.6493 172.469 59.357 170.764 59.4584 168.972C60.7355 169.282 61.4835 169.847 61.2828 171.106C61.1916 172.657 59.951 173.605 57.4517 173.806Z" fill="#DDB58C"/>
<path d="M69.4554 157.332C70.5729 157.126 71.7235 157.188 72.8122 157.514C72.3743 157.97 72.6845 158.591 72.4838 159.101C72.2831 159.612 71.9365 159.503 71.7176 159.758C71.3581 159.96 70.9529 160.065 70.5409 160.065C70.1288 160.065 69.7237 159.96 69.3642 159.758C69.1304 159.376 69.0339 158.926 69.0905 158.481C69.0905 158.153 69.4371 157.97 69.4006 157.642C69.4099 157.537 69.4282 157.433 69.4554 157.332Z" fill="#CCAB89"/>
<path d="M52.5251 138.14C52.9629 138.541 52.8534 138.943 52.5251 139.362C51.6268 140.918 50.3773 142.243 48.8764 143.23C48.5845 142.719 48.0372 142.665 47.5264 142.592C49.3585 141.305 51.0358 139.812 52.5251 138.14Z" fill="#ECCBA7"/>
<path d="M80.7483 143.248C81.9385 144.721 83.2909 146.055 84.7801 147.225C84.3422 147.225 83.8861 147.316 83.649 147.791C82.3123 146.853 81.2282 145.6 80.4929 144.142C80.4509 144.067 80.4241 143.984 80.4142 143.898C80.4043 143.812 80.4115 143.725 80.4352 143.642C80.4589 143.559 80.4988 143.482 80.5525 143.414C80.6062 143.346 80.6728 143.29 80.7483 143.248Z" fill="#E3C09E"/>
<path d="M74.5998 170.65C74.3626 171.252 74.0707 171.544 73.6876 171.562C73.5018 171.577 73.315 171.551 73.1407 171.484C72.9664 171.418 72.809 171.314 72.6798 171.18C72.5506 171.045 72.4529 170.884 72.3937 170.707C72.3345 170.53 72.3154 170.343 72.3376 170.158C72.3376 169.756 72.6112 169.282 72.9396 169.318C73.7971 169.428 73.5417 170.796 74.5998 170.65Z" fill="#746257"/>
<path d="M88.2092 165.414L90.6538 165.122C89.6322 166.016 89.2856 166.946 88.191 166.107C87.8808 165.87 87.8991 165.632 88.2092 165.414Z" fill="#906F5C"/>
<path d="M69.4739 158.172V159.759C68.1604 158.938 68.8172 158.135 69.4739 157.333C69.4519 157.384 69.4405 157.44 69.4405 157.497C69.4405 157.553 69.4519 157.609 69.4739 157.661C69.5309 157.693 69.577 157.741 69.6062 157.8C69.6355 157.858 69.6466 157.924 69.6381 157.989C69.5469 158.099 69.5287 158.172 69.4739 158.172Z" fill="#55453F"/>
<path d="M72.2832 159.101C72.2832 158.518 71.9001 157.788 72.8122 157.514C72.9582 158.299 73.1589 159.101 72.265 159.612C72.1373 159.484 72.1008 159.375 72.1555 159.266C72.2102 159.156 72.2285 159.101 72.2832 159.101Z" fill="#6E574C"/>
<path d="M69.4006 159.722H71.754C71.6366 159.93 71.4657 160.104 71.2589 160.225C71.0521 160.346 70.8169 160.41 70.5773 160.41C70.3378 160.41 70.1025 160.346 69.8957 160.225C69.6889 160.104 69.5181 159.93 69.4006 159.722Z" fill="#5B423A"/>
<path d="M87.6622 165.889C87.4801 165.862 87.3143 165.769 87.1966 165.627C87.0788 165.486 87.0172 165.306 87.0237 165.122C87.0237 164.885 87.1878 164.447 87.2608 164.447C87.7899 164.447 87.6987 164.885 87.6804 165.232C87.7417 165.285 87.7863 165.354 87.8089 165.432C87.8316 165.509 87.8313 165.592 87.8081 165.67C87.7534 165.816 87.6986 165.889 87.6622 165.889Z" fill="#6C554A"/>
<path d="M37.4197 151.804C37.0001 151.603 36.8906 151.111 37.1643 150.946C37.8575 150.527 38.0035 151.275 38.3136 151.658C38.273 151.736 38.2147 151.803 38.1435 151.855C38.0722 151.906 37.99 151.94 37.9032 151.955C37.8164 151.969 37.7275 151.963 37.6436 151.936C37.5597 151.91 37.483 151.865 37.4197 151.804Z" fill="#685549"/>
<path d="M37.4204 151.804L38.3143 151.658H39.2812C39.3457 151.695 39.3994 151.748 39.4367 151.812C39.474 151.876 39.4936 151.949 39.4936 152.023C39.4936 152.097 39.474 152.17 39.4367 152.234C39.3994 152.298 39.3457 152.351 39.2812 152.388C39.1229 152.481 38.9467 152.54 38.7641 152.561C38.5814 152.582 38.3965 152.565 38.2211 152.51C38.0457 152.455 37.8838 152.363 37.7459 152.242C37.608 152.12 37.4971 151.971 37.4204 151.804Z" fill="#332625"/>
<path d="M78.066 136.899L77.3727 137.592L76.9349 137.465C76.9349 137.063 76.6977 136.571 77.318 136.407C77.9383 136.242 77.9201 136.553 78.066 136.899Z" fill="#735B4C"/>
<path d="M39.2991 152.315V151.585C39.4085 151.312 39.6822 151.166 39.8281 151.403C39.9741 151.64 39.8464 152.224 39.2991 152.315Z" fill="#604B3F"/>
<path d="M72.283 159.102C72.2557 159.271 72.2557 159.443 72.283 159.612L71.7356 159.758C71.7255 159.679 71.7319 159.598 71.7543 159.521C71.7768 159.444 71.8149 159.372 71.8663 159.311C71.9176 159.249 71.9811 159.199 72.0528 159.163C72.1245 159.127 72.2029 159.106 72.283 159.102Z" fill="#513A30"/>
<path d="M87.6619 165.889C87.6619 165.67 87.6619 165.451 87.6619 165.232L88.1909 165.414V166.089L87.6619 165.889Z" fill="#52392F"/>
<path d="M69.4736 158.171C69.5015 158.002 69.5015 157.829 69.4736 157.66C69.6196 157.66 69.8567 157.66 69.875 157.66C69.8932 157.66 69.6743 158.043 69.4736 158.171Z" fill="#44312E"/>
</svg>
