<svg width="229" height="215" viewBox="0 0 229 215" fill="none" xmlns="http://www.w3.org/2000/svg">
<path d="M79.7125 14.155C81.69 10.0107 84.4508 6.28821 87.8427 3.19287C89.1034 1.9505 89.7976 2.09668 90.8573 3.5583C92.9584 6.46326 94.9864 9.4413 97.1605 12.3097C100.815 17.2061 104.469 22.2122 107.721 27.3827C109.694 30.4521 111.539 33.6311 111.375 37.4861C111.268 38.7818 111.079 40.0694 110.808 41.3411C110.699 42.0537 110.808 42.3825 111.612 42.6018C113.016 42.9519 114.381 43.4415 115.687 44.0634C116.6 44.4836 116.71 44.2095 116.892 43.3874C118.025 38.29 119.213 33.1926 120.693 28.1683C122.728 21.1374 126.361 14.6721 131.308 9.27686C133.64 6.72814 135.812 4.03728 137.812 1.21971C138.999 -0.406339 139.365 -0.369822 140.698 1.11007C144.645 5.51319 147.276 10.7933 150.692 15.5618C152.848 18.5764 155.15 21.4814 157.452 24.3864C160.695 28.4049 162.842 33.1951 163.682 38.29C164.294 42.1938 164.696 46.1275 164.888 50.0743C164.843 50.6496 165.002 51.2224 165.335 51.6931C165.669 52.1638 166.158 52.5025 166.715 52.6504C168.262 53.1915 169.75 53.8894 171.155 54.7332C171.941 55.19 172.233 55.4092 171.904 56.5602C171.21 58.8623 170.589 61.1643 169.73 63.4116C169.31 64.526 168.908 64.5991 168.104 63.7404C166.656 62.4397 165.009 61.3789 163.226 60.598C162.789 62.7264 162.096 64.7939 161.161 66.755C160.835 67.457 160.712 68.2364 160.805 69.0048C160.899 69.7733 161.206 70.5002 161.691 71.1033C165.851 76.6714 169.717 82.4526 173.274 88.4235C177.476 95.1287 180.308 102.528 184.09 109.434C186.666 114.148 184.986 118.259 182.062 122.223C179.815 125.275 176.581 127.065 173.603 129.111C167.835 132.93 161.703 136.168 155.296 138.776C154.419 139.142 154.237 139.343 154.602 140.384C156.456 145.622 158.96 150.606 162.056 155.219C168.455 164.996 176.081 173.911 184.748 181.748C191.246 187.629 198.28 192.89 205.759 197.46C211.847 201.009 218.186 204.111 224.723 206.742C225.666 207.091 226.553 207.577 227.354 208.185C227.829 208.569 228.304 208.97 228.012 209.683C227.899 209.985 227.701 210.248 227.441 210.439C227.182 210.631 226.872 210.742 226.55 210.761C222.178 211.284 217.743 210.842 213.56 209.464C207.935 207.829 201.912 208.25 196.569 210.651C193.694 211.804 190.893 213.134 188.183 214.634C187.251 215.201 186.685 215.201 186.191 213.977C183.159 206.577 177.056 203.014 169.639 201.681C164.826 201.05 159.954 201.014 155.132 201.571C154.255 201.571 154.365 201.187 154.346 200.712C154.023 194.962 152.61 189.326 150.181 184.105C148.685 180.479 146.327 177.273 143.312 174.764C140.297 172.255 136.716 170.52 132.879 169.708C132.432 169.642 132.021 169.424 131.715 169.092C131.409 168.759 131.227 168.332 131.198 167.881C131.091 167.345 130.938 166.819 130.741 166.31C129.535 163.295 128.147 163.039 125.918 165.378C125.406 165.926 125.918 166.017 126.174 166.273C127.656 167.766 128.889 169.487 129.828 171.37C130.2 171.965 130.423 172.642 130.477 173.342C130.531 174.042 130.415 174.745 130.138 175.39C129.809 176.011 130.467 176.523 130.339 177.125C130.339 177.363 130.339 177.655 130.065 177.747C130.005 177.766 129.941 177.772 129.878 177.763C129.816 177.754 129.756 177.732 129.703 177.696C129.65 177.661 129.606 177.615 129.574 177.56C129.542 177.506 129.522 177.444 129.517 177.381C129.407 176.358 128.64 176.194 127.855 175.956C127.024 175.548 126.279 174.984 125.662 174.294C125.388 175.244 125.151 176.121 124.876 177.089C124.602 178.057 123.744 178.733 123.963 179.756C123.119 179.131 122.424 178.327 121.928 177.402C121.432 176.476 121.147 175.452 121.095 174.403C120.047 175.722 118.734 176.805 117.24 177.582C115.814 173.928 118.226 171.242 119.87 168.118C116.422 168.776 112.903 168.978 109.402 168.721C110.333 172.375 113.165 175.773 111.119 180.067C110.26 177.674 107.867 176.65 107.465 174.257C107.142 175.22 106.611 176.101 105.91 176.836C105.209 177.572 104.355 178.144 103.409 178.514C103.007 178.66 102.97 179.026 102.806 179.318C102.642 179.61 102.696 180.268 102.13 180.14C101.564 180.012 101.819 179.482 101.71 179.117C101.236 178.012 101.178 176.772 101.545 175.627C99.9376 176.376 98.2202 175.956 97.4529 177.838C97.2519 176.011 96.9047 174.184 98.5856 172.942C100.596 171.441 102.121 169.383 102.97 167.022C100.212 165.378 99.3164 165.597 97.5807 168.356C96.6399 169.963 96.0194 171.738 95.7537 173.581C95.7444 173.848 95.6427 174.103 95.4661 174.303C95.2894 174.503 95.0488 174.635 94.7854 174.677C87.9706 176.212 84.4079 181.346 81.2106 186.9C80.3215 188.536 79.9339 190.398 80.0961 192.253C80.0961 193.477 79.6028 193.496 78.7807 193.368C77.7971 193.153 76.8735 192.722 76.0767 192.107C71.5954 189.019 66.2419 187.45 60.8028 187.631C54.9791 187.884 49.347 189.785 44.5605 193.112C42.8167 194.098 41.2231 195.328 39.8285 196.766C39.1891 197.479 38.6775 197.058 38.166 196.638C36.4486 195.25 34.8225 193.788 32.9772 192.564C30.4126 190.884 27.5042 189.801 24.4658 189.393C21.4274 188.985 18.3363 189.263 15.4195 190.207C13.7021 190.682 11.9847 191.212 10.249 191.687C8.64493 192.082 6.974 192.123 5.35232 191.808C3.73064 191.492 2.19708 190.828 0.858146 189.86C-0.38423 189.056 -0.238068 188.289 1.04085 187.521C2.24325 186.798 3.56867 186.302 4.95068 186.06C9.26718 185.169 13.3886 183.511 17.1187 181.163C33.3662 171.952 48.8427 161.443 63.3971 149.738C67.4545 146.796 71.3006 143.572 74.9074 140.092C76.0367 138.941 77.0924 137.721 78.0681 136.438L73.4275 133.989C67.5058 130.706 62.2658 126.322 57.9892 121.072C56.7002 119.594 55.805 117.814 55.3867 115.898C54.9683 113.982 55.0402 111.991 55.5958 110.11C58.3377 99.7806 61.6559 89.6125 65.5348 79.6538C65.6464 79.4074 65.6782 79.1323 65.6258 78.867C65.5734 78.6016 65.4394 78.3593 65.2424 78.1739C63.1821 75.4674 61.3488 72.5953 59.7614 69.5869C59.2406 68.7611 58.8984 67.8354 58.7569 66.8694C58.6153 65.9034 58.6774 64.9185 58.9392 63.9779C60.1156 58.8283 61.8366 53.8184 64.0731 49.0329C64.3655 48.4848 64.4568 48.0463 63.7808 47.6992C63.4136 47.4448 63.0655 47.164 62.7394 46.8587C62.1957 46.5203 61.7293 46.0712 61.3704 45.5408C61.0114 45.0104 60.7681 44.4104 60.6561 43.7798C60.5441 43.1492 60.566 42.5021 60.7203 41.8806C60.8746 41.259 61.1579 40.6768 61.5518 40.1718C63.4431 37.6175 66.2178 35.859 69.335 35.2389C69.5959 35.2024 69.8416 35.0943 70.0448 34.9266C70.248 34.7589 70.4007 34.5381 70.486 34.2888C70.5782 34.2302 70.6493 34.1436 70.6888 34.0417C70.7282 33.9398 70.734 33.8279 70.7052 33.7224C71.0706 33.9417 70.961 34.3253 71.0158 34.6542V35.2389C70.5956 35.6956 70.8331 36.2437 70.7783 36.7553C70.7054 36.6146 70.6032 36.491 70.4787 36.3928C70.3542 36.2947 70.2102 36.2243 70.0563 36.1862C69.9024 36.1482 69.7421 36.1434 69.5862 36.1722C69.4303 36.2011 69.2824 36.2628 69.1523 36.3534H68.6407C68.5128 36.2437 68.4397 36.3534 68.3849 36.3534C66.2542 37.1853 64.3687 38.5429 62.9038 40.2997C62.4522 40.8415 62.1671 41.5024 62.0828 42.2027C61.9985 42.9029 62.1187 43.6126 62.4288 44.2461C62.9423 45.278 63.7477 46.1364 64.7449 46.7146C65.742 47.2927 66.8871 47.5652 68.0378 47.4982C69.6951 47.4747 71.2893 46.859 72.5323 45.7625C72.788 45.4702 73.0804 45.1048 72.8977 44.6846C72.715 44.2644 72.2582 44.2826 71.8563 44.3009C70.9517 44.3246 70.0514 44.1694 69.2071 43.8441C68.6246 43.6896 68.0976 43.3737 67.6869 42.9327C67.2762 42.4916 66.9985 41.9435 66.8858 41.3515C66.7731 40.7595 66.83 40.1476 67.05 39.5866C67.27 39.0255 67.6441 38.538 68.1291 38.1804C68.2577 38.1712 68.3863 38.1991 68.4995 38.2606C68.6128 38.3221 68.7062 38.4147 68.7686 38.5275C68.6407 38.8564 68.4945 39.1852 68.4032 39.5141C67.6906 41.7979 68.6407 43.0768 71.0341 43.0403C72.0755 43.0403 73.1169 43.0403 74.1766 43.0403C74.4517 43.0258 74.7251 43.0904 74.9647 43.2264C75.2043 43.3623 75.3999 43.564 75.5286 43.8076C75.7661 44.3923 75.2728 44.7211 74.9439 45.0865C73.8864 46.3136 72.5435 47.262 71.0334 47.8482C69.5233 48.4344 67.8923 48.6404 66.2838 48.4482C66.0161 48.3998 65.74 48.4312 65.4899 48.5384C65.2397 48.6456 65.0266 48.8239 64.877 49.0512C64.5664 49.1791 64.5482 49.4348 64.5664 49.7089L64.4568 50.2205C63.7077 50.458 64.0001 51.0974 63.927 51.5725C63.7991 52.486 64.201 53.3995 63.6712 54.313C62.9404 54.0207 62.8308 54.587 62.6481 55.0438C61.4599 57.7228 60.666 60.5598 60.2912 63.4664C59.93 65.2582 60.208 67.12 61.0768 68.7282C63.3058 72.1082 64.4751 76.2738 68.1839 78.6124C68.8599 79.0326 68.5859 79.398 67.9099 79.5624C66.9233 79.8182 66.5579 80.5856 66.2656 81.4991C65.3521 84.3675 64.4385 87.2177 63.3606 90.0313C60.6167 96.9263 58.3698 104.009 56.6372 111.225C56.3127 112.5 56.2738 113.831 56.5234 115.122C56.7729 116.414 57.3046 117.635 58.0805 118.697C61.6736 123.598 66.2 127.739 71.3995 130.884C76.8799 134.22 82.7858 136.801 88.9572 138.557C99.0177 141.655 109.392 143.622 119.889 144.422C134.414 145.262 147.824 141.279 160.631 134.903C163.92 133.295 167.026 131.468 170.095 129.641C174.992 126.663 180.29 124.16 183.012 118.569C184.045 116.839 184.353 114.771 183.871 112.814C183.365 111.247 182.754 109.715 182.044 108.228C177.667 98.0591 172.307 88.3418 166.039 79.2153C164.534 76.7512 162.77 74.4545 160.777 72.364C160.065 71.688 159.097 71.012 158.256 71.688C155.56 73.6533 152.209 74.504 148.902 74.0631C145.458 73.9542 142.084 73.0657 139.033 71.4644C135.983 69.8631 133.335 67.5908 131.289 64.8184C130.184 63.4764 129.398 61.9011 128.989 60.2111C128.581 58.5212 128.562 56.7606 128.932 55.0621C129.243 53.6004 129.481 52.1206 129.809 50.659C131.381 43.8259 133.463 37.1572 135.565 30.4703C137.388 23.8125 141.341 17.9347 146.819 13.7348C147.55 13.1867 147.203 12.7299 146.819 12.2001C144.992 9.58747 143.348 6.95655 141.575 4.3439C139.803 1.73126 138.963 1.91397 137.008 4.03331C136.734 4.32564 136.496 4.63623 136.241 4.94683C134.633 6.99309 133.098 9.11244 131.399 11.0856C126.504 16.6202 122.952 23.2103 121.021 30.3424C119.468 36.3716 118.226 42.4556 117.093 48.6127C117.013 49.2214 116.809 49.8074 116.495 50.335C116.181 50.8626 115.763 51.321 115.266 51.6821C115.091 49.7772 114.736 47.8931 114.207 46.0548C114.132 45.6874 113.956 45.3484 113.697 45.0769C113.438 44.8054 113.108 44.6124 112.745 44.5202C111.448 44.173 110.151 43.7711 108.853 43.4605C107.958 43.2412 107.776 42.8758 108.251 42.0902C109.263 40.4528 109.827 38.5776 109.884 36.6532C109.942 34.7289 109.492 32.8232 108.579 31.1281C107.155 28.3097 105.479 25.6253 103.573 23.1074C99.3712 17.1879 95.1569 11.2744 90.9304 5.36703C90.7333 4.98122 90.4373 4.65462 90.0727 4.42057C89.7082 4.18652 89.288 4.05342 88.8551 4.03485C88.4223 4.01627 87.9923 4.11288 87.609 4.31483C87.2257 4.51678 86.9028 4.81684 86.6734 5.18435C85.833 6.11613 85.0839 7.12097 84.2435 8.01621C83.403 8.91145 83.6771 9.27688 84.682 9.49612C84.682 10.0808 84.2252 10.0808 83.7867 10.2635C82.9828 10.5923 81.8501 10.5375 81.6491 11.7434L81.3385 12.0905L80.023 14.5387L79.7125 14.155ZM212.117 206.76C212.117 206.102 212.665 206.175 213.085 206.12C214.729 206.76 216.739 206.979 217.415 208.971C217.483 209.104 217.585 209.218 217.71 209.301C217.834 209.384 217.978 209.434 218.128 209.445C220.03 209.958 222.043 209.882 223.901 209.226C224.34 209.044 224.979 208.989 224.979 208.368C224.979 207.746 224.34 207.819 223.938 207.655C219.777 206.097 215.725 204.266 211.806 202.174C206.452 199.26 201.3 195.988 196.386 192.381C193.244 190.006 189.992 187.777 187.068 185.073C180.512 179.32 174.478 172.998 169.036 166.182C162.716 158.491 157.478 149.971 153.469 140.859C153.122 140 152.757 139.781 151.916 140.092C147.817 141.687 143.603 142.969 139.31 143.928C138.871 144.02 138.451 144.093 138.378 144.714C138.065 146.984 137.45 149.202 136.551 151.31C135.508 154.402 133.965 157.303 131.984 159.897C131.482 160.632 131.151 161.47 131.016 162.349C130.881 163.229 130.944 164.127 131.202 164.979C131.46 165.831 131.905 166.614 132.505 167.271C133.105 167.928 133.844 168.442 134.669 168.776C140.445 170.577 145.462 174.239 148.938 179.19C151.948 184.114 154.098 189.514 155.296 195.158C156.155 198.447 157.434 199.47 160.777 199.506C164.182 199.315 167.596 199.517 170.954 200.109C176.625 201.253 181.645 204.521 184.986 209.245C185.541 210.214 186.379 210.991 187.388 211.471C188.397 211.951 189.528 212.111 190.631 211.93C191.413 211.773 192.169 211.509 192.878 211.145C194.851 210.304 196.806 209.409 198.816 208.623C202.761 207.252 207.006 206.98 211.094 207.838C211.751 207.947 212.519 208.24 212.921 207.271C212.912 207.18 212.883 207.091 212.835 207.013C212.787 206.934 212.722 206.868 212.644 206.819C212.567 206.769 212.479 206.738 212.387 206.728C212.296 206.718 212.203 206.729 212.117 206.76ZM19.2928 187.905C19.7678 188.508 20.3525 188.325 20.8823 188.362C22.3257 188.362 23.769 188.362 25.2306 188.471C29.2456 189.208 33.0836 190.703 36.5399 192.874C37.6062 193.49 38.8305 193.777 40.0592 193.699C41.2879 193.621 42.4662 193.181 43.4461 192.436C44.9652 191.384 46.5659 190.456 48.2329 189.659C52.4215 187.593 57.0356 186.537 61.7058 186.575C66.3759 186.613 70.9723 187.744 75.1266 189.878C75.5028 190.16 75.9429 190.345 76.4079 190.416C76.8728 190.487 77.348 190.442 77.7912 190.284C78.2344 190.127 78.6318 189.862 78.9479 189.514C79.264 189.166 79.489 188.745 79.6028 188.289C80.2618 186.715 81.0629 185.204 81.9962 183.776C84.6454 179.793 87.6417 176.139 92.2276 174.239C92.9855 173.977 93.6639 173.526 94.198 172.928C94.7321 172.33 95.1042 171.605 95.2787 170.822C95.6507 169.628 96.1856 168.491 96.8682 167.442C98.2933 164.939 98.2933 164.939 96.046 163.149L95.3152 162.619C92.1584 160.215 89.5705 157.145 87.7357 153.627C85.9009 150.109 84.8645 146.23 84.7002 142.266C84.7555 141.612 84.6514 140.955 84.3968 140.35C84.1422 139.746 83.7448 139.212 83.2386 138.795C82.2913 138.214 81.1734 137.978 80.0723 138.124C78.9713 138.271 77.954 138.791 77.1912 139.598C73.4203 143.546 69.319 147.165 64.9318 150.414C60.2912 153.831 55.9246 157.613 51.1926 160.865C42.3377 166.955 33.3243 172.814 24.1527 178.441C20.1516 181.104 15.9629 183.473 11.6193 185.53C9.05743 186.573 6.38488 187.321 3.65349 187.759C3.0323 187.868 2.44766 188.069 2.33803 188.782C2.22841 189.494 2.86787 189.805 3.39771 190.079C3.92754 190.353 4.05544 190.298 4.3843 190.444C7.61813 191.796 10.6693 190.719 13.7204 189.732C14.1223 189.604 14.7435 189.494 14.7253 188.946C14.7253 187.302 15.9859 187.01 17.0456 186.608C19.6399 185.603 22.3439 184.781 24.9383 183.812C28.7834 182.39 32.4947 180.629 36.0283 178.551C41.7104 175.006 47.4838 171.571 53.2754 168.21C59.2468 164.645 64.9721 160.684 70.4129 156.352C73.4644 154.007 76.2627 151.349 78.7624 148.423C79.1095 148.021 79.4384 147.254 80.2606 147.455C80.425 147.93 80.0961 148.149 79.8769 148.405C77.6192 151.147 75.1114 153.673 72.3861 155.95C66.8652 160.413 61.0615 164.514 55.0111 168.228C51.3571 170.457 47.703 172.43 44.049 174.787C37.7685 179.194 30.9462 182.774 23.7507 185.438C22.1065 185.935 20.5868 186.776 19.2928 187.905ZM149.359 73.0034C151.812 72.9848 154.223 72.357 156.374 71.1764C159.645 69.0571 160.741 65.6953 161.855 62.2057C162.385 60.6345 161.855 59.7758 160.248 59.3738C159.535 59.1729 158.841 58.8806 158.11 58.6796C157.379 58.4786 156.594 58.0949 157.361 56.9987C158.018 55.9846 158.414 54.8232 158.512 53.6187C158.896 50.7868 158.859 50.7686 161.801 50.8599C162.098 50.8232 162.399 50.8232 162.696 50.8599C163.5 51.0244 163.719 50.6224 163.81 49.9281C163.92 48.6231 163.865 47.3095 163.646 46.0183C163.098 41.2315 162.952 36.3168 160.759 31.8954C157.799 25.9028 153.25 20.9333 149.267 15.6532C148.372 14.4473 147.276 14.4839 146.198 15.6532C143.055 19.1976 139.566 22.5045 138.068 27.2C137.465 29.027 136.752 30.9819 136.241 32.882C133.881 39.3582 131.964 45.9873 130.504 52.7235C129.6 56.0881 129.998 59.6696 131.618 62.7538C135.638 69.5138 142.032 72.163 149.359 73.0034ZM112.946 168.009C120.985 167.808 127.562 164.702 131.837 157.741C134.107 154.371 135.753 150.621 136.697 146.669C137.044 145.043 136.697 144.568 134.962 144.732C132.678 144.97 130.394 145.354 128.11 145.5C119.414 146.283 110.649 145.666 102.148 143.673C97.6721 142.467 93.2324 141.115 88.7745 139.836C87.2946 139.416 86.4724 139.964 86.2897 141.499C86.2532 141.942 86.2532 142.388 86.2897 142.832C86.5546 145.627 87.2127 148.37 88.2447 150.981C91.3506 160.244 102.733 168.319 112.946 168.009ZM161.161 52.1206C160.814 52.3581 159.791 51.6455 159.827 52.6138C159.754 54.0541 159.341 55.4565 158.622 56.7064C158.311 57.492 158.622 57.8026 159.334 57.9853C161.56 58.5794 163.693 59.477 165.674 60.6528C166.715 61.2557 167.793 61.7673 168.853 62.3336C169.328 61.2009 169.84 60.0864 170.26 58.9354C171.392 55.9573 171.392 55.9025 168.433 54.6053C166.112 53.6004 163.956 52.084 161.161 52.1206ZM121.752 172.54C121.9 173.791 122.207 175.019 122.666 176.194C122.666 176.523 122.483 177.162 123.104 177.107C123.329 177.078 123.542 176.987 123.719 176.846C123.896 176.704 124.031 176.516 124.109 176.303C124.495 175.269 124.693 174.174 124.694 173.069C124.694 172.741 124.694 172.284 125.023 172.138C125.351 171.992 125.607 172.412 125.808 172.686C126.196 173.277 126.715 173.771 127.325 174.129C127.745 174.367 128.037 175.079 128.713 174.513C129.018 174.331 129.253 174.052 129.379 173.72C129.505 173.389 129.515 173.024 129.407 172.686C128.804 171.04 127.791 169.576 126.466 168.429C126.087 168.049 125.633 167.752 125.134 167.555C124.634 167.358 124.099 167.266 123.563 167.285C123.026 167.304 122.5 167.433 122.015 167.664C121.531 167.896 121.099 168.224 120.747 168.63C119.608 170.153 118.748 171.867 118.208 173.691C118.208 173.983 117.696 174.385 118.354 174.622C119.012 174.86 119.268 175.061 119.669 174.421C119.875 173.986 120.165 173.596 120.523 173.273C120.88 172.95 121.298 172.701 121.752 172.54ZM104.103 172.777C103.921 173.837 103.044 174.367 102.751 175.207C102.623 175.573 102.276 176.376 102.642 176.267C103.372 176.048 103.628 177.473 104.469 176.577C105.347 175.693 106.043 174.644 106.515 173.49C106.661 173.106 106.844 172.668 107.246 172.594C107.648 172.521 107.794 173.106 107.958 173.417C108.36 174.111 108.634 174.878 109.073 175.554C109.328 175.938 109.31 176.851 110.279 176.395C111.247 175.938 110.808 175.372 110.644 174.86C110.096 173.307 109.511 171.772 108.817 170.274C108.529 169.555 108.019 168.947 107.362 168.536C106.706 168.126 105.935 167.935 105.163 167.99C103.646 167.99 103.336 169.214 102.769 170.329C102.299 171.327 101.575 172.184 100.668 172.814C99.9924 173.307 99.353 173.837 98.6404 174.385C101.125 175.993 101.984 172.704 104.14 172.777H104.103Z" fill="#181722"/>
<path d="M79.7125 14.155L80.0231 14.4656C79.0483 16.6101 77.9503 18.6964 76.7345 20.7141C74.5694 25.2441 72.6602 29.892 71.0159 34.636C71.0159 34.3071 71.0159 33.9234 70.7053 33.7042C72.1324 28.8816 74.0869 24.2311 76.5335 19.8371C77.4751 17.8793 78.5368 15.9817 79.7125 14.155Z" fill="#291B35"/>
<path d="M70.6863 33.7406C70.715 33.846 70.7093 33.9579 70.6698 34.0599C70.6304 34.1618 70.5593 34.2484 70.467 34.307L70.6863 33.7406Z" fill="#291B35"/>
<path d="M84.8824 9.53262C83.8776 9.31337 83.6583 8.89316 84.444 8.05273C85.2296 7.2123 86.0335 6.2257 86.8739 5.22084C87.1033 4.85333 87.4262 4.5533 87.8095 4.35135C88.1928 4.1494 88.6228 4.05276 89.0556 4.07134C89.4885 4.08992 89.9086 4.22304 90.2732 4.45709C90.6378 4.69114 90.9338 5.01774 91.1309 5.40355C95.3452 11.3231 99.5595 17.2366 103.774 23.144C105.68 25.6619 107.355 28.3462 108.78 31.1646C109.693 32.8598 110.143 34.7654 110.085 36.6897C110.027 38.6141 109.464 40.4893 108.451 42.1267C107.976 42.9123 108.159 43.2778 109.054 43.497C110.351 43.8076 111.648 44.2095 112.946 44.5566C113.309 44.6489 113.639 44.8419 113.897 45.1134C114.156 45.3849 114.333 45.7239 114.407 46.0914C114.936 47.9297 115.291 49.8137 115.467 51.7186C115.963 51.3575 116.381 50.8992 116.696 50.3715C117.01 49.8439 117.213 49.2579 117.294 48.6492C118.427 42.5469 119.669 36.4629 121.222 30.379C123.131 23.2388 126.664 16.6361 131.545 11.0856C133.244 9.11241 134.778 6.99306 136.386 4.9468C136.642 4.6362 136.88 4.32561 137.154 4.03329C139.108 1.91394 140.095 1.96875 141.721 4.34388C143.347 6.71901 145.211 9.58744 146.965 12.2001C147.312 12.7299 147.659 13.1867 146.965 13.7348C141.486 17.9346 137.534 23.8125 135.71 30.4703C133.682 37.1572 131.526 43.8259 129.955 50.6589C129.626 52.1205 129.389 53.6004 129.078 55.062C128.707 56.7606 128.727 58.5211 129.135 60.2111C129.543 61.901 130.33 63.4763 131.435 64.8184C133.481 67.5907 136.128 69.8631 139.179 71.4643C142.23 73.0656 145.604 73.9542 149.047 74.0631C152.355 74.504 155.705 73.6533 158.402 71.688C159.242 71.0119 160.229 71.6879 160.923 72.3639C162.88 74.4417 164.613 76.7198 166.094 79.1605C172.361 88.287 177.721 98.0042 182.098 108.174C182.809 109.66 183.419 111.192 183.925 112.759C184.408 114.716 184.099 116.784 183.067 118.515C180.344 124.087 175.046 126.608 170.15 129.586C167.08 131.413 163.974 133.24 160.74 134.903C147.951 141.279 134.523 145.262 119.998 144.422C109.501 143.622 99.1268 141.655 89.0663 138.557C82.895 136.801 76.989 134.22 71.5086 130.883C66.2877 127.739 61.7421 123.591 58.1348 118.679C57.3589 117.617 56.8272 116.396 56.5777 115.104C56.3282 113.812 56.367 112.481 56.6915 111.206C58.3825 103.994 60.5866 96.9114 63.287 90.013C64.3832 87.1994 65.2785 84.3492 66.192 81.4808C66.4843 80.5673 66.8497 79.7999 67.8363 79.5442C68.5123 79.3797 68.7864 79.0143 68.1104 78.5941C64.4563 76.2555 63.2322 72.0899 61.0032 68.7099C60.1344 67.1017 59.8565 65.2399 60.2176 63.4481C60.5667 60.5586 61.3297 57.7343 62.4831 55.062C62.6658 54.6053 62.7755 54.0389 63.5063 54.3312C63.5054 54.374 63.5196 54.4157 63.5463 54.449C63.573 54.4824 63.6105 54.5054 63.6524 54.5139C63.653 54.549 63.6637 54.5831 63.6831 54.6122C63.7025 54.6414 63.7299 54.6644 63.7621 54.6784V54.7697L63.963 55.0986L64.2919 55.4275C66.667 59.4469 70.6317 61.2739 74.7973 62.3336C82.3794 64.2885 88.4634 61.548 90.2722 52.4128C90.5829 50.0785 90.5829 47.7132 90.2722 45.3788C89.6875 37.3217 90.0712 29.2462 89.9798 21.1708C89.925 19.0727 89.742 16.9798 89.4317 14.9041C89.3058 13.6536 88.8036 12.4708 87.9913 11.5118C87.1791 10.5528 86.0951 9.86266 84.8824 9.53262ZM125.698 120.725C125.187 120.214 125.351 119.647 125.333 119.117C125.314 118.588 125.424 118.003 125.333 117.473C124.401 110.019 121.807 103.423 115.759 98.5817C110.771 94.5988 105.619 94.2152 100.704 98.2529C97.0206 101.27 93.9822 104.998 91.7703 109.215C90.6558 111.371 89.6144 113.563 88.5365 115.756C88.1163 115.555 88.0066 115.153 87.8422 114.806C86.9002 112.748 86.3311 110.54 86.1614 108.283C86.1614 107.845 86.1614 107.315 85.5402 107.205C84.919 107.096 84.6997 107.552 84.5353 107.973C83.5979 109.859 83.0982 111.932 83.0737 114.038C83.1954 117.272 84.1521 120.419 85.8508 123.173C88.299 126.974 89.7058 127.54 94.3647 126.828C95.5739 126.621 96.8095 126.621 98.0187 126.828C99.9919 127.138 101.965 127.504 103.938 127.759C110.351 128.636 116.837 128.307 123.25 129.221C124.055 129.286 124.864 129.178 125.624 128.904C126.384 128.63 127.076 128.196 127.653 127.631C131.07 124.818 132.75 118.076 131.307 113.216C131.124 112.595 131.088 111.773 130.211 111.901C129.334 112.029 129.407 112.832 129.407 113.472C129.344 114.876 128.981 116.25 128.341 117.502C127.701 118.753 126.8 119.852 125.698 120.725ZM85.5036 90.3236C85.4391 92.0525 85.7573 93.7744 86.4354 95.3662C86.5507 95.8589 86.8046 96.3083 87.1673 96.6612C87.5299 97.0141 87.986 97.2558 88.4817 97.3576C88.9837 97.4116 89.4901 97.3067 89.9293 97.0575C90.3686 96.8084 90.7185 96.4277 90.9299 95.9691C91.0929 95.6317 91.2332 95.2837 91.3501 94.9277C93.1977 90.8938 93.7221 86.3789 92.8483 82.0289C92.5377 80.549 92.1357 79.0143 90.4 78.5941C89.0115 78.2652 87.6595 79.4163 86.746 81.4077C86.746 81.6452 86.5633 81.8828 86.4902 82.1203C85.7175 84.784 85.3601 87.5509 85.4305 90.3236H85.5036ZM137.848 89.9764C137.878 87.2845 137.349 84.6156 136.295 82.1385C136.205 81.8342 136.03 81.5617 135.792 81.3525C135.553 81.1432 135.26 81.0058 134.947 80.9561C134.633 80.9064 134.312 80.9465 134.02 81.0717C133.729 81.1968 133.478 81.402 133.299 81.6635C132.469 82.4237 131.841 83.3779 131.472 84.4406C130.232 88.4556 130.258 92.7547 131.545 96.7547C131.837 97.7596 132.166 98.9106 133.372 99.075C134.577 99.2395 135.327 98.1981 135.911 97.248C137.225 95.0566 137.873 92.5298 137.775 89.9764H137.848Z" fill="#706EB1"/>
<path d="M212.774 207.198C212.427 208.167 211.66 207.874 210.947 207.765C206.859 206.907 202.615 207.179 198.67 208.55C196.66 209.336 194.705 210.231 192.732 211.072C192.023 211.436 191.266 211.7 190.485 211.857C189.382 212.038 188.25 211.878 187.241 211.398C186.232 210.918 185.394 210.141 184.839 209.172C181.499 204.448 176.479 201.18 170.808 200.036C167.45 199.444 164.035 199.242 160.631 199.433C157.288 199.433 156.009 198.374 155.15 195.085C153.968 189.444 151.837 184.044 148.847 179.117C145.37 174.166 140.353 170.504 134.578 168.703C133.753 168.369 133.013 167.855 132.413 167.198C131.813 166.541 131.368 165.758 131.11 164.906C130.853 164.054 130.789 163.156 130.924 162.276C131.06 161.397 131.39 160.559 131.892 159.824C133.873 157.23 135.416 154.329 136.46 151.237C137.359 149.129 137.973 146.911 138.287 144.641C138.287 144.02 138.78 143.947 139.218 143.855C143.511 142.896 147.726 141.614 151.825 140.019C152.665 139.708 153.031 139.927 153.378 140.786C157.409 149.928 162.678 158.474 169.035 166.182C174.479 172.986 180.513 179.295 187.068 185.037C189.991 187.704 193.243 189.933 196.386 192.345C201.3 195.952 206.452 199.223 211.806 202.137C215.725 204.23 219.777 206.061 223.937 207.619C224.339 207.783 224.961 207.765 224.979 208.331C224.997 208.897 224.339 209.007 223.901 209.19C222.043 209.845 220.03 209.922 218.128 209.409C217.978 209.397 217.834 209.348 217.709 209.264C217.585 209.181 217.483 209.067 217.415 208.934C216.648 206.943 214.729 206.723 213.085 206.084C210.673 205.006 208.28 203.855 205.777 202.868C200.761 201.011 195.964 198.609 191.471 195.706C186.966 192.648 182.63 189.349 178.481 185.822C170.938 179.113 164.31 171.441 158.768 163.003C155.331 157.609 152.243 152.001 149.523 146.212C149.377 145.92 149.395 145.372 148.774 145.427C148.372 146.157 148.774 146.76 149.048 147.382C150.766 151.266 152.762 155.021 155.022 158.618C162.232 170.73 171.616 181.409 182.702 190.116C185.68 192.399 188.53 194.829 191.654 196.912C198.03 201.151 205.32 203.453 212.153 206.76C212.281 206.979 212.445 207.198 212.774 207.198Z" fill="#4E4C99"/>
<path d="M19.2926 187.905C20.5866 186.776 22.1063 185.935 23.7505 185.438C30.9841 182.783 37.8437 179.203 44.1584 174.787C47.7028 172.43 51.4665 170.457 55.1205 168.228C61.1709 164.514 66.9746 160.413 72.4955 155.95C75.2208 153.673 77.7286 151.146 79.9863 148.405C80.2055 148.149 80.5344 147.93 80.37 147.455C79.5478 147.254 79.2189 148.021 78.8718 148.423C76.3721 151.349 73.5738 154.007 70.5223 156.352C65.0815 160.684 59.3562 164.645 53.3848 168.21C47.5932 171.571 41.8198 175.006 36.1377 178.55C32.6041 180.629 28.8928 182.39 25.0477 183.812C22.4533 184.854 19.7493 185.639 17.155 186.608C16.0953 187.01 14.7616 187.302 14.8347 188.946C14.8347 189.494 14.2317 189.604 13.8298 189.732C10.7787 190.718 7.72754 191.796 4.49371 190.444C4.16484 190.298 3.79944 190.243 3.50711 190.079C3.21479 189.915 2.35609 189.531 2.44744 188.782C2.53879 188.033 3.14171 187.868 3.7629 187.759C6.52536 187.328 9.22893 186.58 11.8201 185.53C16.1636 183.473 20.3524 181.103 24.3534 178.441C33.5007 172.814 42.5141 166.955 51.3934 160.865C56.1254 157.613 60.5285 153.831 65.1326 150.414C69.5197 147.165 73.6211 143.546 77.3919 139.598C78.1443 138.819 79.1365 138.314 80.2097 138.165C81.2829 138.016 82.3751 138.231 83.3115 138.776C83.8177 139.193 84.2151 139.727 84.4697 140.332C84.7242 140.937 84.8284 141.594 84.7731 142.248C84.9374 146.212 85.9738 150.091 87.8086 153.609C89.6433 157.127 92.2313 160.197 95.3881 162.601L96.1189 163.13C98.3661 164.957 98.3661 164.957 96.9411 167.424C96.2584 168.472 95.7236 169.61 95.3516 170.804C95.177 171.587 94.805 172.311 94.2709 172.909C93.7368 173.508 93.0584 173.959 92.3004 174.22C87.7146 176.047 84.7183 179.701 82.0691 183.757C81.1358 185.186 80.3347 186.696 79.6757 188.27C79.5618 188.727 79.3368 189.148 79.0207 189.496C78.7046 189.844 78.3073 190.109 77.8641 190.266C77.4209 190.423 76.9457 190.469 76.4807 190.398C76.0158 190.327 75.5756 190.142 75.1995 189.86C71.0451 187.726 66.4488 186.595 61.7786 186.557C57.1085 186.519 52.4943 187.575 48.3057 189.641C46.6388 190.437 45.0381 191.366 43.5189 192.418C42.539 193.163 41.3608 193.602 40.1321 193.68C38.9034 193.758 37.6791 193.472 36.6128 192.856C33.1343 190.676 29.2707 189.181 25.2304 188.453C23.7688 188.289 22.3255 188.453 20.8821 188.343C20.3523 188.325 19.7676 188.508 19.2926 187.905Z" fill="#4E4C99"/>
<path d="M149.358 73.0034C142.05 72.2177 135.637 69.5686 131.545 62.8634C129.925 59.7791 129.527 56.1977 130.43 52.833C131.891 46.0969 133.808 39.4678 136.167 32.9916C136.77 31.1646 137.483 29.2096 137.994 27.3095C139.493 22.6141 142.982 19.3072 146.125 15.7627C147.203 14.5569 148.299 14.5204 149.194 15.7627C153.177 21.0794 157.726 26.0123 160.686 32.005C162.878 36.4264 163.025 41.341 163.573 46.1278C163.792 47.419 163.847 48.7327 163.737 50.0377C163.737 50.7319 163.427 51.1339 162.623 50.9695C162.325 50.9328 162.025 50.9328 161.727 50.9695C158.786 50.8781 158.822 50.9695 158.439 53.7283C158.34 54.9328 157.945 56.0941 157.288 57.1083C156.52 58.2045 157.032 58.5333 158.037 58.7891C159.042 59.0449 159.462 59.2824 160.174 59.4834C161.691 59.8854 162.312 60.744 161.782 62.3153C160.649 65.7318 159.553 69.1666 156.301 71.286C154.162 72.4167 151.778 73.0064 149.358 73.0034ZM161.508 48.3386C161.67 48.341 161.832 48.3111 161.982 48.2507C162.133 48.1903 162.27 48.1005 162.386 47.9865C162.501 47.8726 162.593 47.7369 162.656 47.5872C162.718 47.4374 162.751 47.2768 162.751 47.1145C162.766 46.94 162.745 46.7642 162.687 46.5989C162.629 46.4336 162.536 46.2826 162.415 46.1561C162.294 46.0297 162.147 45.9308 161.984 45.866C161.821 45.8013 161.647 45.7722 161.472 45.7807C161.322 45.7575 161.17 45.7689 161.025 45.814C160.881 45.8591 160.749 45.9367 160.64 46.0409C160.53 46.1451 160.446 46.273 160.394 46.4147C160.342 46.5565 160.323 46.7084 160.339 46.8587C160.331 47.2028 160.444 47.5389 160.657 47.809C160.871 48.0791 161.172 48.2664 161.508 48.3386Z" fill="#F9EF9F"/>
<path d="M112.946 168.009C102.733 168.319 91.3504 160.244 88.2262 150.963C87.1942 148.352 86.5361 145.609 86.2713 142.814C86.2348 142.37 86.2348 141.924 86.2713 141.48C86.454 139.946 87.2762 139.398 88.756 139.818C93.214 141.097 97.6536 142.449 102.13 143.654C110.63 145.648 119.396 146.265 128.092 145.481C130.376 145.335 132.659 144.952 134.943 144.714C136.624 144.55 137.026 145.025 136.679 146.651C135.735 150.602 134.088 154.353 131.819 157.723C127.489 164.702 120.985 167.808 112.946 168.009Z" fill="#706EB1"/>
<path d="M71.0156 34.6359C72.6599 29.8919 74.5691 25.244 76.7342 20.7139C77.9475 18.72 79.0455 16.6582 80.0228 14.5386L81.5393 12.2L81.8499 11.8529C85.1385 10.3182 86.7828 10.9942 88.1165 14.4472C89.2015 17.9007 89.4827 21.5565 88.9387 25.1353C88.7985 29.8327 88.8961 34.5342 89.231 39.2217C89.5572 43.8658 89.49 48.5291 89.0301 53.1619C88.8239 55.5161 87.7686 57.715 86.0609 59.3487C84.3533 60.9824 82.1098 61.9394 79.7488 62.0412C77.2912 62.2831 74.8114 61.9333 72.5165 61.0211C70.2217 60.1089 68.1785 58.6608 66.5577 56.7977C65.0047 54.9706 63.3969 53.1436 64.2922 50.3483L64.4018 49.8367C64.6941 49.7088 64.6758 49.4348 64.7124 49.179C64.862 48.9517 65.0751 48.7733 65.3252 48.6661C65.5753 48.559 65.8514 48.5276 66.1192 48.576C67.7276 48.7682 69.3587 48.5622 70.8688 47.976C72.3789 47.3898 73.7218 46.4414 74.7793 45.2143C75.1081 44.8489 75.6014 44.52 75.3639 43.9354C75.2353 43.6918 75.0396 43.4901 74.8001 43.3542C74.5605 43.2182 74.287 43.1536 74.0119 43.168C72.9522 43.168 71.9109 43.168 70.8694 43.168C68.476 43.168 67.526 41.9257 68.2385 39.6419C68.2385 39.313 68.476 38.9842 68.6039 38.6553L70.705 36.8283C71.2531 36.3898 70.9243 35.8234 70.9425 35.3118L71.0156 34.6359Z" fill="#B177B1"/>
<path d="M64.2918 50.257C63.3965 52.9793 65.0043 54.9159 66.5573 56.7064C68.1689 58.5861 70.2079 60.0516 72.5033 60.9799C74.7986 61.9082 77.2832 62.2722 79.7484 62.0413C82.1066 61.94 84.3477 60.9856 86.0549 59.3557C87.7621 57.7258 88.8193 55.5312 89.0297 53.1802C89.4895 48.5475 89.5568 43.8842 89.2306 39.2401C88.8957 34.5526 88.7981 29.8511 88.9383 25.1537C89.4823 21.5749 89.2011 17.9191 88.1161 14.4657C86.7824 11.0126 85.1381 10.3366 81.8495 11.8713C82.0504 10.6654 83.1832 10.7202 83.9871 10.3914C84.4256 10.2087 84.8458 10.2087 84.8823 9.62402C86.1112 9.96076 87.2068 10.6673 88.0206 11.6477C88.8344 12.6282 89.327 13.8352 89.4316 15.1051C89.7419 17.1809 89.9249 19.2737 89.9797 21.3718C89.9797 29.4472 89.6874 37.5227 90.272 45.5799C90.5827 47.9142 90.5827 50.2795 90.272 52.6139C88.445 61.749 82.3793 64.4895 74.7971 62.5346C70.6315 61.4749 66.6669 59.6479 64.2918 55.6285C64.8399 54.8246 64.1639 55.0073 63.7619 54.9525V54.8611C63.7062 54.8219 63.6671 54.7632 63.6523 54.6967C63.6104 54.6881 63.5729 54.6652 63.5461 54.6318C63.5194 54.5984 63.5053 54.5567 63.5061 54.514C64.036 53.637 63.634 52.687 63.7619 51.7735C63.835 51.0792 63.5427 50.4945 64.2918 50.257Z" fill="#291B35"/>
<path d="M161.16 52.1205C163.956 52.1205 166.112 53.6004 168.469 54.6053C171.428 55.9025 171.428 55.9573 170.296 58.9353C169.875 60.0864 169.364 61.2008 168.889 62.3336C167.829 61.7672 166.751 61.2557 165.71 60.6527C163.729 59.4769 161.596 58.5793 159.37 57.9853C158.584 57.8026 158.347 57.492 158.657 56.7064C159.377 55.4565 159.79 54.054 159.863 52.6138C159.79 51.6455 160.777 52.3581 161.16 52.1205Z" fill="#A8D8DD"/>
<path d="M212.116 206.76C205.283 203.453 197.994 201.151 191.617 196.912C188.493 194.829 185.643 192.399 182.665 190.116C171.592 181.405 162.221 170.727 155.022 158.618C152.762 155.021 150.766 151.266 149.048 147.381C148.792 146.76 148.372 146.157 148.774 145.427C149.395 145.427 149.377 145.92 149.523 146.212C152.243 152.001 155.331 157.609 158.767 163.002C164.324 171.457 170.971 179.142 178.536 185.859C182.685 189.385 187.021 192.684 191.526 195.743C196.019 198.645 200.816 201.047 205.832 202.905C208.28 203.891 210.673 205.042 213.14 206.12C212.665 206.175 212.135 206.102 212.116 206.76Z" fill="#291B35"/>
<path d="M121.752 172.54C120.844 172.852 120.096 173.508 119.669 174.367C119.267 175.006 118.865 174.769 118.353 174.568C117.842 174.367 118.116 173.928 118.207 173.636C118.748 171.812 119.607 170.099 120.747 168.575C121.099 168.17 121.53 167.841 122.015 167.61C122.499 167.378 123.026 167.249 123.562 167.23C124.099 167.211 124.633 167.303 125.133 167.5C125.632 167.697 126.086 167.994 126.465 168.374C127.791 169.521 128.803 170.986 129.407 172.631C129.514 172.969 129.504 173.334 129.378 173.666C129.252 173.997 129.018 174.277 128.713 174.458C128.037 175.024 127.744 174.312 127.324 174.074C126.714 173.717 126.195 173.223 125.808 172.631C125.607 172.357 125.46 171.919 125.022 172.083C124.584 172.247 124.711 172.686 124.693 173.015C124.692 174.119 124.494 175.214 124.108 176.249C124.03 176.462 123.895 176.649 123.718 176.791C123.541 176.932 123.329 177.023 123.104 177.052C122.482 177.052 122.738 176.468 122.665 176.139C122.211 174.982 121.904 173.773 121.752 172.54Z" fill="#706EB1"/>
<path d="M68.5675 36.3168H69.0791C68.8048 36.98 68.4288 37.5964 67.9646 38.1438C67.4796 38.5015 67.1055 38.9889 66.8855 39.55C66.6655 40.1111 66.6086 40.7229 66.7213 41.3149C66.8339 41.9069 67.1116 42.455 67.5223 42.8961C67.933 43.3371 68.46 43.6531 69.0426 43.8076C69.8869 44.1328 70.7872 44.288 71.6917 44.2643C72.0937 44.2643 72.5504 44.2643 72.7331 44.648C72.9158 45.0317 72.6235 45.4336 72.3677 45.726C71.1248 46.8225 69.5306 47.4381 67.8733 47.4616C66.7226 47.5286 65.5775 47.2561 64.5803 46.678C63.5832 46.0998 62.7778 45.2415 62.2643 44.2095C61.9542 43.5761 61.834 42.8663 61.9183 42.1661C62.0026 41.4658 62.2877 40.8049 62.7393 40.2631C64.2042 38.5064 66.0897 37.1488 68.2204 36.3168H68.3666H68.5675Z" fill="#A8D8DD"/>
<path d="M104.14 172.777C102.02 172.777 101.161 175.993 98.6584 174.367C99.371 173.818 100.01 173.289 100.686 172.795C101.593 172.166 102.317 171.309 102.788 170.311C103.281 169.196 103.664 167.99 105.181 167.972C105.953 167.916 106.724 168.107 107.38 168.518C108.037 168.928 108.547 169.537 108.835 170.256C109.493 171.754 110.077 173.289 110.662 174.842C110.826 175.353 111.119 175.993 110.297 176.376C109.474 176.76 109.347 175.92 109.091 175.536C108.652 174.86 108.378 174.093 107.976 173.398C107.812 173.088 107.812 172.503 107.264 172.576C106.716 172.649 106.679 173.088 106.533 173.471C106.063 174.632 105.367 175.688 104.487 176.577C103.646 177.473 103.39 176.047 102.66 176.267C102.294 176.376 102.66 175.572 102.769 175.207C103.043 174.367 103.92 173.837 104.14 172.777Z" fill="#706EB1"/>
<path d="M67.9648 38.2899C68.429 37.7425 68.805 37.1261 69.0793 36.4629C69.2095 36.3723 69.3574 36.3106 69.5133 36.2818C69.6692 36.2529 69.8294 36.2577 69.9833 36.2957C70.1372 36.3338 70.2813 36.4042 70.4058 36.5024C70.5303 36.6005 70.6324 36.7241 70.7054 36.8648L68.6043 38.6918C68.5498 38.5688 68.4599 38.4649 68.3459 38.3932C68.232 38.3216 68.0993 38.2857 67.9648 38.2899Z" fill="#291B35"/>
<path d="M70.9423 35.2389C70.9423 35.7505 71.2529 36.3168 70.7048 36.7553C70.7596 36.2438 70.5221 35.6956 70.9423 35.2389Z" fill="#291B35"/>
<path d="M212.774 207.198C212.446 207.198 212.281 206.979 212.117 206.76C212.261 206.741 212.407 206.776 212.527 206.856C212.648 206.937 212.736 207.058 212.774 207.198Z" fill="#291B35"/>
<path d="M64.7117 49.0876C64.7117 49.3434 64.7118 49.6175 64.4012 49.7454C64.3829 49.4713 64.4012 49.2521 64.7117 49.0876Z" fill="#291B35"/>
<path d="M68.5675 36.3169L68.4579 36.4083H68.3118C68.3666 36.2621 68.4397 36.2073 68.5675 36.3169Z" fill="#291B35"/>
<path d="M81.8494 11.78L81.5388 12.1271L81.8494 11.78Z" fill="#291B35"/>
<path d="M125.698 120.725C126.797 119.841 127.692 118.731 128.322 117.47C128.953 116.209 129.304 114.826 129.352 113.417C129.352 112.778 129.352 111.974 130.156 111.846C130.96 111.718 131.07 112.54 131.252 113.161C132.732 118.021 131.051 124.763 127.598 127.577C127.021 128.141 126.329 128.575 125.569 128.849C124.81 129.123 124 129.232 123.195 129.166C116.782 128.253 110.296 128.582 103.884 127.705C101.91 127.449 99.9373 127.083 97.9641 126.773C96.7549 126.566 95.5193 126.566 94.31 126.773C89.6511 127.522 88.2443 126.955 85.7961 123.119C84.0974 120.364 83.1407 117.217 83.019 113.984C83.0436 111.877 83.5432 109.804 84.4807 107.918C84.6451 107.498 84.9557 107.077 85.4855 107.151C86.0154 107.224 86.0702 107.79 86.1067 108.228C86.2764 110.485 86.8455 112.693 87.7876 114.751C87.952 115.098 88.0616 115.5 88.4818 115.701C89.5598 113.509 90.6012 111.316 91.7157 109.16C93.9276 104.943 96.966 101.215 100.65 98.1981C105.565 94.1604 110.717 94.5441 115.704 98.527C121.752 103.369 124.346 109.964 125.278 117.418C125.278 117.948 125.278 118.515 125.278 119.063C125.278 119.611 125.187 120.214 125.698 120.725ZM114.06 127.412C114.754 127.412 115.047 127.412 115.357 127.412C116.618 127.248 118.061 127.668 119.011 126.554C119.903 125.542 120.922 124.652 122.044 123.904C122.834 123.523 123.48 122.898 123.888 122.122C124.296 121.346 124.444 120.459 124.31 119.593C124.127 118.405 124.109 117.199 123.963 115.939C123.729 112.912 122.9 109.961 121.523 107.256C120.147 104.55 118.25 102.143 115.942 100.171C111.082 96.0605 105.802 95.0191 100.595 99.678C96.2596 103.639 92.7995 108.462 90.4368 113.837C89.9104 114.655 89.6305 115.606 89.6305 116.578C89.6305 117.55 89.9104 118.501 90.4368 119.319C91.5791 120.905 92.8766 122.374 94.31 123.703C95.1629 124.472 96.1921 125.017 97.3064 125.293C102.934 126.919 108.744 126.7 114.06 127.412ZM85.0836 110.256C85.0836 110.421 84.8826 110.585 84.8095 110.75C84.6953 111.08 84.5977 111.415 84.5172 111.755C83.6037 116.322 85.4855 120.049 88.0616 123.575C88.6736 124.465 89.5403 125.148 90.5478 125.536C91.5553 125.924 92.6566 125.999 93.7071 125.75C93.9264 125.75 94.237 125.878 94.3649 125.567C94.4928 125.256 94.2187 125.019 93.9812 124.854C88.9203 121.292 87.0202 115.829 85.0836 110.256ZM130.54 113.911C129.407 116.724 128.823 119.501 126.703 121.438C124.967 123.009 123.049 124.489 121.35 126.005C121.039 126.279 120.382 126.407 120.546 126.919C120.65 127.177 120.823 127.401 121.045 127.568C121.267 127.736 121.53 127.84 121.807 127.869C122.78 128.05 123.781 128.003 124.733 127.73C125.684 127.457 126.559 126.967 127.288 126.298C128.947 124.353 130.002 121.965 130.321 119.428C130.937 117.67 131.014 115.767 130.54 113.965V113.911Z" fill="#181722"/>
<path d="M85.431 90.3235C85.3942 87.539 85.7887 84.7657 86.6003 82.1019C86.6003 81.8644 86.7648 81.6269 86.8561 81.3893C87.7331 79.3979 89.0851 78.2469 90.5102 78.5757C92.2458 78.996 92.6478 80.5306 92.9584 82.0105C93.8021 86.3779 93.2391 90.9003 91.3506 94.9276C91.1872 95.2938 90.9979 95.6479 90.7842 95.9873C90.5729 96.4459 90.2229 96.8266 89.7837 97.0757C89.3444 97.3248 88.8381 97.4298 88.336 97.3758C87.8403 97.2739 87.3842 97.0323 87.0216 96.6793C86.659 96.3264 86.405 95.8771 86.2897 95.3843C85.6339 93.7813 85.3407 92.0531 85.431 90.3235Z" fill="#181722"/>
<path d="M137.775 89.9763C137.892 92.5384 137.257 95.0786 135.948 97.2844C135.364 98.2162 134.706 99.2759 133.409 99.1114C132.111 98.947 131.856 97.796 131.582 96.7911C130.33 92.8006 130.33 88.5224 131.582 84.5318C131.951 83.4692 132.579 82.5149 133.409 81.7547C133.589 81.4933 133.839 81.2881 134.13 81.1629C134.422 81.0377 134.743 80.9977 135.057 81.0473C135.37 81.097 135.663 81.2345 135.902 81.4437C136.14 81.653 136.315 81.9255 136.405 82.2298C137.384 84.6917 137.851 87.3278 137.775 89.9763Z" fill="#181722"/>
<path d="M63.8174 54.7332C64.2193 54.7332 64.8953 54.6053 64.3472 55.4092L64.0184 55.0803L63.8174 54.7332Z" fill="#181722"/>
<path d="M63.6523 54.5321C63.6672 54.5986 63.7062 54.6573 63.762 54.6965C63.7299 54.6825 63.7024 54.6596 63.683 54.6304C63.6636 54.6013 63.6529 54.5671 63.6523 54.5321Z" fill="#181722"/>
<path d="M63.9448 55.1169L64.2737 55.4458L63.9448 55.1169Z" fill="#291B35"/>
<path d="M161.507 48.3386C161.171 48.2664 160.87 48.0791 160.657 47.809C160.443 47.5389 160.331 47.2029 160.338 46.8587C160.322 46.7084 160.341 46.5565 160.394 46.4148C160.446 46.273 160.53 46.1451 160.639 46.0409C160.749 45.9368 160.881 45.8592 161.025 45.814C161.169 45.7689 161.322 45.7575 161.471 45.7808C161.646 45.7722 161.821 45.8013 161.983 45.866C162.146 45.9308 162.293 46.0297 162.414 46.1562C162.536 46.2826 162.628 46.4336 162.686 46.5989C162.744 46.7642 162.766 46.94 162.75 47.1145C162.75 47.2768 162.718 47.4375 162.655 47.5872C162.592 47.7369 162.5 47.8726 162.385 47.9866C162.269 48.1005 162.132 48.1903 161.982 48.2507C161.831 48.3111 161.67 48.341 161.507 48.3386Z" fill="#181722"/>
<path d="M114.06 127.412C108.743 126.7 102.933 126.919 97.3426 125.311C96.2283 125.036 95.1991 124.49 94.3463 123.722C92.9128 122.392 91.6154 120.923 90.473 119.337C89.9466 118.52 89.6667 117.568 89.6667 116.596C89.6667 115.624 89.9466 114.673 90.473 113.856C92.8358 108.48 96.2958 103.657 100.631 99.6962C105.838 95.0373 111.118 96.0422 115.978 100.19C118.287 102.161 120.183 104.568 121.559 107.274C122.936 109.98 123.765 112.93 123.999 115.957C124.145 117.144 124.163 118.35 124.346 119.611C124.48 120.477 124.332 121.364 123.925 122.14C123.517 122.917 122.87 123.541 122.08 123.923C120.958 124.67 119.939 125.56 119.048 126.572C118.079 127.686 116.636 127.266 115.394 127.43C115.101 127.449 114.754 127.412 114.06 127.412ZM112.927 122.881C114.268 122.753 115.518 122.151 116.453 121.182C116.924 120.843 117.252 120.341 117.374 119.774C117.495 119.207 117.402 118.615 117.111 118.113C116.124 116.085 115.284 114.002 114.279 111.992C113.727 110.748 112.858 109.67 111.758 108.868C110.333 107.863 109.474 108.192 109.072 109.909C108.954 110.443 108.899 110.989 108.908 111.535C109.08 114.782 109.613 117.999 110.497 121.127C110.604 121.673 110.914 122.158 111.366 122.484C111.817 122.81 112.375 122.952 112.927 122.881ZM97.2695 121.62C97.8616 121.746 98.4792 121.642 98.9979 121.33C99.5165 121.018 99.8978 120.521 100.065 119.94C100.357 119.245 100.686 118.569 100.942 117.875C101.92 115.528 102.756 113.124 103.445 110.677C103.567 110.264 103.562 109.824 103.432 109.414C103.302 109.003 103.052 108.641 102.714 108.375C102.075 107.881 101.362 108.375 100.741 108.612C99.8567 109.099 99.0501 109.715 98.3475 110.439C96.6118 112.138 96.0271 114.495 94.6934 116.432C94.2765 116.865 93.9968 117.412 93.8896 118.003C93.7823 118.595 93.8522 119.205 94.0905 119.757C94.3757 120.348 94.8303 120.841 95.3964 121.173C95.9625 121.504 96.6145 121.66 97.2695 121.62Z" fill="#4E4C99"/>
<path d="M85.0834 110.256C87.02 115.829 88.9201 121.218 93.981 124.873C94.2185 125.037 94.5108 125.22 94.3646 125.585C94.2185 125.95 93.9262 125.731 93.7069 125.768C92.6564 126.017 91.5551 125.943 90.5476 125.555C89.5401 125.167 88.6734 124.483 88.0614 123.594C85.4853 120.067 83.6035 116.286 84.517 111.773C84.5975 111.433 84.6951 111.098 84.8093 110.768C84.8824 110.585 84.992 110.421 85.0834 110.256Z" fill="#F9EF9F"/>
<path d="M130.54 113.965C130.994 115.78 130.892 117.69 130.248 119.446C129.929 121.983 128.874 124.371 127.215 126.316C126.486 126.985 125.611 127.476 124.66 127.748C123.708 128.021 122.707 128.069 121.734 127.887C121.457 127.858 121.194 127.754 120.972 127.587C120.75 127.419 120.577 127.195 120.473 126.937C120.309 126.426 120.966 126.298 121.277 126.024C123.104 124.507 124.931 123.027 126.63 121.456C128.822 119.556 129.407 116.852 130.54 113.965Z" fill="#C38EBE"/>
<path d="M112.927 122.881C112.364 122.95 111.797 122.798 111.344 122.457C110.891 122.117 110.587 121.614 110.497 121.054C109.613 117.926 109.08 114.709 108.908 111.462C108.899 110.916 108.954 110.37 109.072 109.836C109.474 108.119 110.333 107.79 111.758 108.795C112.858 109.597 113.727 110.675 114.279 111.919C115.266 113.929 116.106 116.012 117.111 118.04C117.402 118.542 117.495 119.134 117.374 119.701C117.252 120.268 116.924 120.77 116.453 121.109C115.529 122.105 114.277 122.734 112.927 122.881ZM110.168 112.887C110.269 115.138 110.599 117.373 111.155 119.556C111.74 121.84 112.215 122.077 114.389 121.091C114.913 120.807 115.398 120.457 115.832 120.049C116.039 119.899 116.18 119.675 116.228 119.424C116.275 119.173 116.225 118.913 116.088 118.697C114.937 116.523 114.261 114.166 112.854 112.102C112.361 111.334 111.959 110.074 110.881 110.275C109.803 110.476 110.187 111.956 110.168 112.887Z" fill="#181722"/>
<path d="M97.2701 121.621C96.6151 121.648 95.9667 121.481 95.4072 121.139C94.8476 120.798 94.4023 120.298 94.1276 119.702C93.8893 119.15 93.8194 118.54 93.9266 117.949C94.0339 117.357 94.3136 116.81 94.7305 116.377C96.0277 114.44 96.5575 112.084 98.3845 110.384C99.0872 109.66 99.8938 109.044 100.778 108.557C101.399 108.247 102.112 107.827 102.751 108.32C103.089 108.587 103.339 108.949 103.469 109.359C103.599 109.769 103.604 110.209 103.482 110.622C102.793 113.07 101.957 115.473 100.979 117.82C100.723 118.515 100.394 119.191 100.102 119.885C99.9463 120.485 99.5642 121 99.0361 121.324C98.508 121.648 97.8749 121.754 97.2701 121.621ZM95.0046 118.99C94.9803 119.128 94.9868 119.269 95.0236 119.404C95.0604 119.539 95.1265 119.664 95.2172 119.771C95.308 119.877 95.4212 119.962 95.5486 120.02C95.6761 120.078 95.8147 120.106 95.9546 120.104C96.9777 120.214 98.1105 121.073 98.8413 119.611C99.3163 118.679 99.7365 117.784 100.157 116.779C100.974 114.898 101.622 112.947 102.093 110.951C102.203 110.531 102.294 110.037 101.838 109.727C101.381 109.416 101.271 109.727 101.052 109.964C98.4804 112.039 96.5015 114.755 95.3151 117.839C95.1923 118.217 95.0887 118.601 95.0046 118.99Z" fill="#181722"/>
<path d="M110.168 112.887C110.168 111.956 109.73 110.695 110.881 110.366C112.032 110.037 112.361 111.334 112.854 112.193C114.206 114.258 114.937 116.615 116.088 118.789C116.225 119.004 116.275 119.264 116.228 119.515C116.18 119.767 116.039 119.99 115.832 120.141C115.398 120.548 114.913 120.898 114.389 121.182C112.214 122.169 111.739 121.931 111.155 119.647C110.593 117.434 110.263 115.169 110.168 112.887Z" fill="#4E4C99"/>
<path d="M95.0039 118.99C95.088 118.601 95.1916 118.217 95.3144 117.838C96.5008 114.755 98.4797 112.039 101.051 109.964C101.271 109.781 101.508 109.507 101.837 109.727C102.166 109.946 102.202 110.53 102.093 110.951C101.649 112.969 101.025 114.944 100.229 116.852C99.8089 117.802 99.3887 118.679 98.9137 119.684C98.1829 121.145 97.0867 120.287 96.027 120.177C95.8736 120.194 95.7183 120.173 95.5746 120.117C95.431 120.061 95.3032 119.97 95.2025 119.853C95.1017 119.736 95.0309 119.596 94.9963 119.446C94.9617 119.295 94.9643 119.139 95.0039 118.99Z" fill="#4E4C99"/>
</svg>
