<svg width="95" height="104" viewBox="0 0 95 104" fill="none" xmlns="http://www.w3.org/2000/svg">
<path d="M58.3713 5.43987C58.421 5.00595 58.6017 4.59746 58.8893 4.26876C59.1769 3.94006 59.5578 3.70674 59.9813 3.59988C62.7496 2.48313 65.6018 1.58701 68.5113 0.919886C70.1178 0.457189 71.7656 0.152407 73.4313 0.0098822C73.9131 -0.0357212 74.3966 0.077339 74.8082 0.331873C75.2198 0.586407 75.5369 0.968476 75.7113 1.41989C76.6695 3.77321 76.8722 6.36624 76.2913 8.83987C75.6087 12.1766 74.6212 15.4437 73.3413 18.5999C73.2976 18.8539 73.196 19.0944 73.0444 19.3028C72.8928 19.5113 72.6953 19.682 72.4671 19.8019C72.239 19.9218 71.9863 19.9875 71.7287 19.9941C71.471 20.0007 71.2153 19.9479 70.9813 19.8399C71.6958 21.4609 72.2907 23.132 72.7613 24.8399C73.7104 28.0283 73.9862 31.3792 73.5713 34.6799C73.1291 39.1796 72.3943 43.6457 71.3713 48.0499C70.8913 49.9599 70.2813 51.8499 69.6613 53.7199C69.4538 54.3034 69.4789 54.9444 69.7313 55.5099C70.9575 58.8861 73.1266 61.8397 75.9813 64.0199C79.9813 67.1099 84.3713 68.9499 89.5213 68.6599C90.9713 68.717 92.4133 68.4183 93.7213 67.7899C94.1613 67.5299 94.2013 68.0099 94.1113 68.3699C93.6993 69.9089 92.9165 71.3235 91.8313 72.4899C89.7013 74.7999 86.9513 75.4899 83.9513 75.6099C83.0213 75.6099 82.0913 75.7299 81.1613 75.6999C80.1396 75.6196 79.1172 75.8473 78.226 76.3535C77.3348 76.8597 76.6157 77.6212 76.1613 78.5399C75.8224 79.236 75.2352 79.7801 74.5153 80.0651C73.7954 80.3501 72.9949 80.3553 72.2713 80.0799C70.8359 79.6957 69.539 78.912 68.5313 77.8199C67.2814 76.4306 65.7691 75.3023 64.0813 74.4999C63.4413 74.2199 63.2113 74.3399 63.2113 75.0599C63.2317 78.6917 64.4674 82.2121 66.7213 85.0599C68.2705 86.8965 70.0368 88.5385 71.9813 89.9499C73.912 91.266 75.6031 92.903 76.9813 94.7899C77.6714 95.8649 78.1316 97.071 78.3329 98.3325C78.5343 99.594 78.4724 100.883 78.1513 102.12C78.0531 102.467 77.8784 102.788 77.6402 103.059C77.402 103.33 77.1062 103.544 76.7746 103.686C76.4429 103.828 76.0837 103.894 75.7232 103.879C75.3628 103.864 75.0102 103.769 74.6913 103.6C73.386 102.713 72.1462 101.734 70.9813 100.67C69.0913 99.2199 67.1813 97.7999 65.1913 96.4799C63.2609 95.3311 61.1116 94.5988 58.8813 94.3299C50.1093 92.8136 41.7266 89.5673 34.2213 84.7799C32.4663 83.7054 30.7705 82.5371 29.1413 81.2799C29.0799 81.2041 29.0015 81.1438 28.9124 81.1041C28.8233 81.0643 28.7261 81.0461 28.6286 81.051C28.5312 81.0558 28.4363 81.0836 28.3516 81.1321C28.2669 81.1805 28.1949 81.2483 28.1413 81.3299C27.0763 82.4447 26.2884 83.7944 25.8413 85.2699C25.5953 86.0849 25.1806 86.8391 24.6242 87.4835C24.0677 88.1278 23.3819 88.6479 22.6113 89.0099C21.9542 89.3922 21.1939 89.5593 20.4371 89.4875C19.6803 89.4158 18.9649 89.1089 18.3913 88.6099C17.1113 87.4999 15.8313 87.8999 14.3913 88.9499C13.0148 90.0855 11.4279 90.9384 9.72132 91.4599C7.62131 91.952 5.41938 91.7665 3.43133 90.9299C2.43133 90.5299 1.43133 90.0999 0.431326 89.6699C0.271326 89.5999 0.0213257 89.5999 0.00132566 89.3499C-0.0186743 89.0999 0.191325 88.9699 0.381325 88.8599C2.80262 87.4066 5.13969 85.8174 7.38132 84.0999C8.79229 83.0082 9.94047 81.614 10.7413 80.0199C12.4913 76.7799 13.0213 73.1999 13.5113 69.6199C13.7996 67.4213 13.9532 65.2072 13.9713 62.9899C13.9868 62.6624 13.9216 62.3362 13.7813 62.0399C9.27258 52.1918 7.51371 41.3068 8.69132 30.5399C8.80132 29.8299 8.97133 29.1399 9.10133 28.4399C9.16133 28.1099 9.10132 27.7899 8.70132 27.8099C8.30132 27.8299 7.94132 27.4599 7.70132 27.0799C6.79268 25.3614 6.11995 23.5282 5.70132 21.6299C4.80365 18.8959 4.0986 16.1024 3.59133 13.2699C3.30133 11.3399 4.32132 10.0599 6.28132 10.1699C9.26842 10.2831 12.2466 10.5669 15.2013 11.0199C15.6484 11.0863 16.0673 11.2786 16.4091 11.5743C16.7509 11.87 17.0014 12.257 17.1313 12.6899C17.1898 12.705 17.2517 12.6993 17.3065 12.6738C17.3612 12.6482 17.4054 12.6044 17.4313 12.5499C18.6659 10.7192 20.2918 9.18561 22.1913 8.05987C24.5362 6.48925 27.0279 5.14965 29.6313 4.05987C32.8596 2.87286 36.2717 2.26357 39.7113 2.25988C44.7043 2.00197 49.7067 2.53865 54.5313 3.84988C55.8013 4.22988 56.9813 4.90987 58.3713 5.43987ZM75.5813 8.68987C75.9814 6.78172 75.9609 4.80931 75.5213 2.90988C74.9013 0.859876 74.7913 0.809874 72.7013 0.969874C68.8269 1.36941 65.0213 2.27374 61.3813 3.65988C60.1313 4.09988 59.0813 4.65988 59.3813 6.28988C59.4413 6.58988 59.3213 6.82989 58.9013 6.57989C55.7644 4.86266 52.3112 3.80113 48.7513 3.45986C43.8113 2.89986 38.8813 2.53988 33.9313 3.53988C29.3344 4.5932 25.0321 6.66401 21.3413 9.59988C19.6236 10.9209 18.0959 12.4721 16.8013 14.2099C16.6713 14.3799 16.5613 14.6199 16.3013 14.5099C16.0413 14.3999 16.1613 14.2599 16.1813 14.0799C16.3213 12.4399 15.9613 11.9299 14.3513 11.6099C13.3782 11.4368 12.397 11.3133 11.4113 11.2399C9.72132 11.0899 8.03133 10.9299 6.33133 10.8499C5.14133 10.7899 4.03133 11.3399 4.33133 13.0799C4.76923 15.7763 5.35343 18.4469 6.08133 21.0799C6.42886 22.544 6.90057 23.9759 7.49133 25.3599C8.10133 26.6599 8.69133 26.9699 9.74133 26.1599C9.87133 26.0599 10.0413 25.8499 10.2413 26.0199C10.4413 26.1899 10.3013 26.3799 10.2413 26.5599C9.85065 28.1299 9.61287 29.734 9.53132 31.3499C8.90946 38.1622 9.43338 45.0307 11.0813 51.6699C12.1828 56.1631 13.8282 60.5052 15.9813 64.5999C19.8313 72.0299 25.5713 77.6599 32.2913 82.3499C36.7967 85.5364 41.6851 88.1436 46.8413 90.1099C50.6067 91.5867 54.4862 92.7539 58.4413 93.5999C60.2328 93.8259 61.9854 94.2935 63.6513 94.9899C65.1942 95.769 66.6752 96.6649 68.0813 97.6699C70.0813 99.1099 71.9613 100.72 73.8713 102.29C74.1856 102.597 74.59 102.796 75.0255 102.857C75.4609 102.919 75.9045 102.839 76.2913 102.63C76.7038 102.439 77.0535 102.134 77.2996 101.751C77.5457 101.369 77.6781 100.925 77.6813 100.47C77.752 99.0798 77.4958 97.6926 76.9331 96.4195C76.3704 95.1465 75.5169 94.0232 74.4413 93.1399C72.5913 91.4199 70.5713 89.8999 68.7513 88.1399C66.5263 86.1318 64.7684 83.6605 63.6013 80.8999C62.3901 77.5852 62.1133 74.0013 62.8013 70.5399C63.6888 65.7962 65.1705 61.1831 67.2113 56.8099C68.3247 54.3327 69.2506 51.7756 69.9813 49.1599C70.8913 45.8299 71.4513 42.4199 72.0513 39.0199C73.2213 32.3199 72.9913 25.7599 70.2013 19.4299C70.0413 19.0699 69.5313 18.5299 69.9713 18.1899C70.4113 17.8499 70.7813 18.4499 71.1513 18.6899C71.2654 18.7979 71.4061 18.8738 71.5591 18.9099C71.712 18.9459 71.8718 18.9408 72.0221 18.8951C72.1725 18.8494 72.308 18.7647 72.415 18.6496C72.522 18.5345 72.5967 18.3932 72.6313 18.2399C73.7951 15.1951 74.7965 12.0908 75.6313 8.93987C75.7713 8.93987 75.9913 9.04989 75.9813 8.79989C75.9713 8.54989 75.7113 8.68987 75.5813 8.68987ZM93.4413 68.3899C92.5666 68.696 91.6664 68.9236 90.7513 69.0699C87.033 69.4275 83.2859 68.807 79.8813 67.2699C75.9452 65.5953 72.643 62.7133 70.4513 59.0399C69.4513 57.4199 68.5113 57.5899 67.5113 58.8899C67.3665 59.0889 67.2329 59.2959 67.1113 59.5099C66.502 60.6427 66.003 61.8315 65.6213 63.0599C64.5488 65.5206 63.9646 68.1663 63.9013 70.8499C63.8624 71.5109 63.9883 72.1712 64.2675 72.7716C64.5468 73.372 64.9707 73.8937 65.5013 74.2899C67.1082 75.3922 68.5874 76.6701 69.9113 78.0999C70.3436 78.5203 70.8484 78.8591 71.4013 79.0999C71.7614 79.3196 72.1638 79.4609 72.5822 79.5145C73.0007 79.5682 73.4257 79.533 73.8296 79.4113C74.2335 79.2895 74.6072 79.084 74.9262 78.8081C75.2453 78.5321 75.5026 78.192 75.6813 77.8099C76.0747 76.9113 76.7345 76.1552 77.5715 75.6437C78.4084 75.1322 79.3823 74.8901 80.3613 74.9499C82.0584 75.0049 83.7572 74.9748 85.4513 74.8599C87.2875 74.7362 89.0406 74.0482 90.4708 72.8901C91.901 71.7319 92.9385 70.1602 93.4413 68.3899ZM0.841326 89.2099C2.33156 90.0179 3.91268 90.6457 5.55132 91.0799C7.64666 91.5654 9.84893 91.2062 11.6813 90.0799C12.7913 89.4099 13.8313 88.6599 14.9513 88.0199C15.5637 87.5893 16.2977 87.3658 17.0461 87.382C17.7945 87.3982 18.5182 87.6532 19.1113 88.1099C19.697 88.5713 20.4259 88.8129 21.1712 88.7928C21.9166 88.7727 22.6313 88.4921 23.1913 87.9999C24.2608 87.0894 25.0771 85.9183 25.5613 84.5999C25.8913 83.6499 26.2513 82.6999 26.5613 81.7499C26.7317 81.3418 26.7845 80.8943 26.7139 80.4578C26.6432 80.0213 26.4518 79.6133 26.1613 79.2799C25.7479 78.8047 25.3107 78.3508 24.8513 77.9199C22.8421 76.0109 20.9519 73.9804 19.1913 71.8399C18.0094 70.4404 17.002 68.9025 16.1913 67.2599C15.9513 66.7399 15.5113 66.2599 14.9413 66.3399C14.3713 66.4199 14.6513 67.1099 14.5013 67.5199C14.496 67.5998 14.496 67.68 14.5013 67.7599C14.125 72.1104 13.009 76.3648 11.2013 80.3399C10.4192 82.108 9.14965 83.6169 7.54132 84.6899C5.31132 86.1199 3.45133 88.0299 0.841326 89.2099ZM75.4913 10.6999C75.4913 10.6999 75.4213 10.8099 75.4313 10.8399C75.4413 10.8699 75.5213 10.8399 75.5713 10.8999C75.6213 10.9599 75.6313 10.7999 75.5713 10.7599C75.5113 10.7199 75.5313 10.7199 75.4913 10.6999ZM75.8013 10.0999L75.6613 10.0299C75.6613 10.0799 75.6013 10.1399 75.6113 10.1699C75.6213 10.1999 75.6913 10.1699 75.7413 10.2299L75.8013 10.0999Z" fill="#2D262C"/>
<path d="M75.5613 8.94008C74.7265 12.091 73.7251 15.1953 72.5613 18.2401C72.5267 18.3934 72.4521 18.5347 72.3451 18.6498C72.2381 18.7649 72.1025 18.8496 71.9522 18.8953C71.8018 18.941 71.642 18.9461 71.4891 18.9101C71.3361 18.874 71.1954 18.7981 71.0813 18.6901C70.7113 18.4501 70.3013 17.8801 69.9013 18.1901C69.5013 18.5001 69.9713 19.0701 70.1313 19.4301C72.9213 25.7601 73.1313 32.3201 71.9813 39.0201C71.3813 42.4201 70.8213 45.8301 69.9113 49.1601C69.1899 51.7715 68.274 54.3254 67.1713 56.8001C65.1305 61.1734 63.6488 65.7864 62.7613 70.5301C62.0733 73.9915 62.3501 77.5754 63.5613 80.8901C64.7284 83.6507 66.4863 86.122 68.7113 88.1301C70.5313 89.8801 72.5513 91.4001 74.4013 93.1301C75.4769 94.0134 76.3304 95.1368 76.8931 96.4098C77.4558 97.6828 77.7121 99.07 77.6413 100.46C77.638 100.907 77.5098 101.344 77.2713 101.722C77.0327 102.101 76.6933 102.405 76.2913 102.6C75.9045 102.809 75.4609 102.889 75.0255 102.828C74.59 102.767 74.1856 102.568 73.8713 102.26C71.9613 100.69 70.0913 99.0801 68.0813 97.6401C66.6752 96.6351 65.1942 95.7391 63.6513 94.9601C61.9839 94.274 60.2314 93.8165 58.4413 93.6001C54.4794 92.7552 50.5932 91.588 46.8213 90.1101C41.6651 88.1438 36.7767 85.5367 32.2713 82.3501C25.5513 77.6001 19.8113 72.0101 15.9813 64.6001C13.8374 60.514 12.1987 56.1821 11.1013 51.7001C9.4534 45.0609 8.92948 38.1925 9.55134 31.3801C9.63289 29.7643 9.87067 28.1601 10.2613 26.5901C10.2613 26.4101 10.4113 26.1901 10.2613 26.0501C10.1113 25.9101 9.89134 26.0501 9.76134 26.1901C8.71134 27.0001 8.12134 26.6901 7.51134 25.3901C6.92058 24.0061 6.44887 22.5742 6.10134 21.1101C5.37344 18.4771 4.78925 15.8065 4.35134 13.1101C4.06134 11.3701 5.17134 10.8201 6.35134 10.8801C8.05134 10.9601 9.74134 11.1201 11.4313 11.2701C12.417 11.3435 13.3982 11.467 14.3713 11.6401C15.9813 11.9601 16.3713 12.4701 16.2013 14.1101C16.2013 14.2901 16.1513 14.4801 16.3213 14.5401C16.4913 14.6001 16.6913 14.4101 16.8213 14.2401C18.1077 12.4931 19.6286 10.9317 21.3413 9.60009C25.0468 6.65752 29.3668 4.58638 33.9813 3.54009C38.9813 2.54009 43.8613 2.90007 48.8013 3.46007C52.3729 3.80354 55.8369 4.872 58.9813 6.60009C59.4013 6.85009 59.5213 6.60008 59.4613 6.31008C59.1113 4.68008 60.1613 4.12007 61.4613 3.68007C65.1013 2.29394 68.9069 1.38964 72.7813 0.990102C74.8713 0.830102 74.9813 0.880074 75.6013 2.93007C76.041 4.82951 76.0614 6.80192 75.6613 8.71007L75.5613 8.94008ZM18.0413 31.9401C18.0413 31.7201 17.9613 31.6201 17.7513 31.5901V31.4401C17.7513 30.9401 17.8313 30.3701 17.2713 30.1801C16.7113 29.9901 16.4713 30.4001 16.2713 30.7501C15.3252 31.9904 14.8663 33.5344 14.9813 35.0901C15.0798 36.2608 15.3045 37.4176 15.6513 38.5401C16.1826 39.965 16.5386 41.4492 16.7113 42.9601C16.8213 43.8601 16.2313 44.4201 15.3913 44.1901C14.5513 43.9601 14.2913 44.0701 14.4913 44.9701C14.7406 46.1428 15.0748 47.2959 15.4913 48.4201C16.3313 50.6101 16.8013 52.9101 17.6913 55.1101C18.4213 56.9301 19.2613 58.6801 20.1313 60.4301C21.3336 62.846 22.7563 65.1458 24.3813 67.3001C25.6113 68.9601 26.9513 70.5401 28.3213 72.0801C29.816 73.6643 31.4418 75.1195 33.1813 76.4301C35.1189 77.8858 37.2898 79.0017 39.6013 79.7301C40.6747 80.1571 41.8391 80.3041 42.985 80.1571C44.1308 80.0102 45.2204 79.5742 46.1513 78.8901C48.0303 77.6986 49.5619 76.0325 50.5913 74.0601C50.891 73.3403 51.2917 72.6669 51.7813 72.0601C52.3649 71.2719 52.7739 70.3686 52.9813 69.4101C53.6413 67.1401 54.0713 64.8101 54.7613 62.5401C55.3505 60.351 56.1823 58.2345 57.2413 56.2301C58.1302 54.5775 58.8827 52.8551 59.4913 51.0801C60.1913 49.2201 60.9713 47.4001 61.5613 45.5001C61.9779 44.4635 62.3384 43.4054 62.6413 42.3301C62.8713 41.1401 63.1613 39.9401 63.2913 38.7201C63.4463 37.3055 63.5164 35.883 63.5013 34.4601C63.5074 34.2817 63.4615 34.1055 63.3691 33.9528C63.2768 33.8001 63.1421 33.6776 62.9813 33.6001C62.6813 33.4401 62.3313 33.4101 62.1813 33.8501C62.1813 33.9601 61.9313 34.0301 61.9113 33.9601C61.7013 33.2901 60.8513 33.1801 60.7013 32.4101C60.4467 30.5112 60.3364 28.5957 60.3713 26.6801C60.4264 26.2719 60.3885 25.8567 60.2604 25.4653C60.1322 25.0739 59.9172 24.7166 59.6313 24.4201C59.1013 23.9801 58.6913 24.0601 58.4413 24.7001C58.2443 24.9937 57.973 25.2298 57.6551 25.3844C57.3371 25.5389 56.9839 25.6065 56.6313 25.5801C56.536 25.5632 56.4501 25.5124 56.3894 25.437C56.3287 25.3616 56.2974 25.2668 56.3013 25.1701C56.3156 24.9276 56.2691 24.6853 56.1661 24.4653C56.0631 24.2453 55.9068 24.0544 55.7113 23.9101C55.4863 23.7057 55.3381 23.4304 55.2913 23.1301C55.1097 21.8584 55.0728 20.5701 55.1813 19.2901C55.2413 18.9201 55.1213 18.8901 54.8213 18.8501C53.9513 18.7501 53.6613 18.4101 53.6513 17.5301C53.6513 16.8401 53.6513 16.1601 53.6513 15.4701C53.6581 15.3805 53.6468 15.2904 53.6181 15.2052C53.5893 15.1201 53.5437 15.0416 53.484 14.9744C53.4243 14.9072 53.3517 14.8527 53.2705 14.8142C53.1893 14.7757 53.1011 14.7538 53.0113 14.7501C52.9162 14.7361 52.8193 14.7418 52.7265 14.7669C52.6337 14.792 52.5471 14.836 52.4721 14.896C52.397 14.9561 52.3351 15.0309 52.2903 15.1159C52.2454 15.2009 52.2186 15.2943 52.2113 15.3901C52.1114 16.1218 51.8811 16.8297 51.5313 17.4801C51.2219 17.9774 50.9607 18.5031 50.7513 19.0501C50.6386 19.2709 50.4779 19.4637 50.2809 19.6143C50.084 19.7649 49.8558 19.8694 49.6131 19.9202C49.3704 19.9711 49.1195 19.9669 48.8786 19.908C48.6378 19.8492 48.4132 19.7371 48.2213 19.5801C47.594 18.9927 47.2149 18.1878 47.1613 17.3301C46.9523 15.8633 46.892 14.379 46.9813 12.9001C46.9964 12.0298 46.9362 11.16 46.8013 10.3001C46.7504 10.0525 46.6076 9.83339 46.4017 9.68682C46.1958 9.54025 45.9419 9.4771 45.6913 9.51009C45.6133 9.51572 45.5376 9.53959 45.4705 9.57979C45.4033 9.62 45.3465 9.67542 45.3047 9.74157C45.2629 9.80772 45.2372 9.88275 45.2296 9.96065C45.2221 10.0386 45.233 10.1171 45.2613 10.1901C45.3869 10.8502 45.4638 11.5187 45.4913 12.1901C45.7704 13.3199 45.6467 14.5117 45.1413 15.5601C44.6413 16.4501 44.3213 17.4001 43.9013 18.3101C43.6767 18.9011 43.3368 19.4416 42.9013 19.9001C42.7428 20.0487 42.5553 20.1631 42.3506 20.236C42.1458 20.3089 41.9283 20.3387 41.7115 20.3237C41.4947 20.3087 41.2833 20.2491 41.0905 20.1487C40.8978 20.0483 40.7279 19.9092 40.5913 19.7401C40.0057 19.012 39.6567 18.1222 39.5913 17.1901C39.5013 16.5901 39.3513 16.2401 38.6613 16.6301C38.6008 16.6784 38.5287 16.7099 38.4521 16.7214C38.3755 16.7329 38.2973 16.724 38.2253 16.6956C38.1532 16.6672 38.09 16.6203 38.0419 16.5597C37.9938 16.499 37.9626 16.4267 37.9513 16.3501C37.8513 15.6501 37.5913 15.0001 37.5413 14.2701C37.4513 12.9301 37.6013 11.6001 37.5413 10.2701C37.5565 10.0804 37.5565 9.88979 37.5413 9.70009C37.5413 9.53009 37.4513 9.37009 37.2513 9.35009C37.1817 9.34945 37.1137 9.37156 37.0578 9.41308C37.0018 9.45459 36.9609 9.51324 36.9413 9.5801C36.7783 9.8337 36.6631 10.115 36.6013 10.4101C36.5313 11.2401 36.2013 12.0001 36.0813 12.8101C35.9113 14.0201 34.9213 14.7401 34.3313 15.6801C34.1313 16.0001 33.6113 16.1101 33.3313 16.4501C33.2234 16.5404 33.0871 16.5899 32.9463 16.5899C32.8056 16.5899 32.6693 16.5404 32.5613 16.4501C31.5613 15.5401 30.4313 14.7401 30.5013 13.1801C30.5031 12.7422 30.4002 12.3102 30.2013 11.9201C30.0513 11.5501 29.9713 10.9901 29.5113 11.0101C29.0513 11.0301 28.8513 11.6001 28.7413 12.0101C28.7265 12.2031 28.7265 12.397 28.7413 12.5901C28.5613 14.8601 28.8213 17.2201 27.4613 19.2801C27.4013 19.3601 27.4613 19.5001 27.4013 19.6001C27.2413 20.0501 27.0013 20.6001 26.5113 20.5501C26.2238 20.5458 25.9461 20.4448 25.7229 20.2634C25.4998 20.082 25.3442 19.8307 25.2813 19.5501C25.2421 19.2795 25.1716 19.0144 25.0713 18.7601C24.9713 18.5301 24.9313 18.1601 24.5613 18.2401C24.1913 18.3201 24.3013 18.6201 24.3013 18.8601C24.3013 19.5501 24.3013 20.2401 24.3013 20.9201C24.3274 22.1757 24.1135 23.4247 23.6713 24.6001C23.3613 25.2501 23.0413 25.8301 22.2113 25.9901C21.3813 26.1501 21.3613 25.5401 21.0413 25.1901C20.7213 24.8401 20.3113 24.7001 20.0413 25.1001C19.4225 26.1693 19.0597 27.3672 18.9813 28.6001C18.9427 29.3622 18.9829 30.1262 19.1013 30.8801C19.0981 31.2251 19.0232 31.5656 18.8813 31.8801L18.7313 32.0401H18.4113C18.3213 31.9101 18.1913 31.8901 18.0413 31.9101V31.9401ZM71.4413 7.18007C71.4413 6.01007 71.1613 5.63008 70.2113 5.41009C69.706 5.27706 69.1796 5.2431 68.6613 5.31008C66.8532 5.54639 65.1337 6.23421 63.6613 7.31008C62.7813 7.99008 62.6613 7.94008 63.4113 8.75008C64.8212 10.1669 66.1185 11.6915 67.2913 13.3101C68.1413 14.6501 68.5813 14.6101 69.2213 13.1401C69.9513 11.4601 70.6113 9.7501 71.2813 8.0501C71.3665 7.75664 71.4201 7.45491 71.4413 7.15008V7.18007ZM10.9013 14.6001C8.75134 14.6001 7.73134 15.8801 8.22134 17.9801C8.59277 19.5592 9.392 21.0054 10.5313 22.1601C11.0713 22.7101 11.2713 22.6801 11.5313 21.9601C12.1438 20.1721 12.8996 18.4365 13.7913 16.7701C13.8839 16.6148 13.9137 16.43 13.8746 16.2535C13.8356 16.0769 13.7307 15.9219 13.5813 15.8201C13.2369 15.4504 12.8228 15.1523 12.3629 14.943C11.903 14.7336 11.4064 14.6171 10.9013 14.6001Z" fill="#F9EDF5"/>
<path d="M93.4417 68.3899C92.94 70.1636 91.9018 71.7386 90.4695 72.8988C89.0371 74.059 87.2809 74.7475 85.4417 74.8699C83.7476 74.9848 82.0488 75.0149 80.3517 74.9599C79.3726 74.9001 78.3988 75.1423 77.5618 75.6538C76.7248 76.1652 76.0651 76.9214 75.6717 77.8199C75.493 78.202 75.2357 78.5422 74.9166 78.8181C74.5975 79.094 74.2238 79.2996 73.8199 79.4213C73.416 79.543 72.991 79.5782 72.5726 79.5246C72.1542 79.4709 71.7518 79.3296 71.3917 79.1099C70.8388 78.8692 70.334 78.5304 69.9017 78.1099C68.5777 76.6801 67.0986 75.4022 65.4917 74.2999C64.9611 73.9037 64.5371 73.3821 64.2579 72.7817C63.9786 72.1813 63.8528 71.5209 63.8917 70.8599C63.955 68.1763 64.5391 65.5306 65.6117 63.0699C65.9934 61.8415 66.4923 60.6527 67.1017 59.5199C67.2233 59.3059 67.3568 59.0989 67.5017 58.8999C68.5017 57.5999 69.5017 57.4299 70.4417 59.0499C72.6333 62.7233 75.9355 65.6053 79.8717 67.2799C83.2762 68.817 87.0234 69.4375 90.7417 69.0799C91.6604 68.9309 92.564 68.7 93.4417 68.3899Z" fill="#F9EDF5"/>
<path d="M0.841309 89.2098C3.45131 88.0298 5.31131 86.1198 7.52131 84.7098C9.12964 83.6368 10.3991 82.128 11.1813 80.3598C12.989 76.3848 14.105 72.1304 14.4813 67.7798C14.4759 67.6999 14.4759 67.6197 14.4813 67.5398C14.6313 67.1298 14.3113 66.4398 14.9213 66.3598C15.5313 66.2798 15.9213 66.7598 16.1713 67.2798C16.982 68.9224 17.9894 70.4604 19.1713 71.8598C20.9319 74.0003 22.8221 76.0308 24.8313 77.9398C25.2907 78.3708 25.7279 78.8247 26.1413 79.2998C26.4318 79.6333 26.6231 80.0412 26.6938 80.4777C26.7645 80.9142 26.7117 81.3618 26.5413 81.7698C26.2013 82.7198 25.8413 83.6698 25.5413 84.6198C25.0586 85.9419 24.2422 87.1166 23.1713 88.0298C22.6113 88.5221 21.8965 88.8026 21.1512 88.8227C20.4059 88.8428 19.677 88.6012 19.0913 88.1398C18.4981 87.6832 17.7745 87.4281 17.0261 87.4119C16.2777 87.3957 15.5437 87.6193 14.9313 88.0498C13.8113 88.6898 12.7713 89.4398 11.6613 90.1098C9.82891 91.2361 7.62665 91.5954 5.53131 91.1098C3.89821 90.6646 2.32384 90.0268 0.841309 89.2098Z" fill="#F9EDF5"/>
<path d="M18.8512 31.8696C18.993 31.5551 19.0679 31.2146 19.0712 30.8696C19.3012 30.8196 19.3712 30.6596 19.3712 30.4396C19.3116 29.7599 19.5077 29.0824 19.9212 28.5396C20.0868 28.3362 20.19 28.0891 20.2184 27.8283C20.2468 27.5675 20.1992 27.304 20.0812 27.0696C19.9312 26.8096 19.6812 26.5097 20.0812 26.2997C20.23 26.2214 20.4036 26.2047 20.5645 26.2534C20.7254 26.302 20.8607 26.412 20.9412 26.5596C21.8212 27.7196 23.3612 27.3596 24.0212 25.9596C24.6665 24.5185 25.0524 22.9749 25.1612 21.3996C25.1612 20.9496 25.3312 20.7796 25.7712 21.0296C26.005 21.179 26.2702 21.272 26.5461 21.3012C26.8219 21.3305 27.1008 21.2953 27.3607 21.1983C27.6206 21.1013 27.8544 20.9452 28.0436 20.7424C28.2329 20.5396 28.3724 20.2956 28.4512 20.0296C28.9285 18.8098 29.2217 17.5258 29.3212 16.2196C29.3339 15.455 29.4074 14.6926 29.5412 13.9396C30.1812 14.7096 30.3712 15.4896 30.8712 16.1196C31.1953 16.4849 31.6006 16.7691 32.0546 16.9492C32.5085 17.1293 32.9984 17.2003 33.4848 17.1565C33.9712 17.1127 34.4405 16.9554 34.855 16.6972C35.2695 16.4389 35.6175 16.087 35.8712 15.6697C36.4294 14.4028 36.7676 13.0501 36.8712 11.6697C36.8712 11.4697 36.8112 11.1396 37.1112 11.1496C37.4112 11.1596 37.3412 11.5097 37.3412 11.7397C37.3412 11.8197 37.2812 11.8997 37.2712 11.9797C37.0812 13.5697 36.7112 15.1596 37.5012 16.7196C37.7012 17.0996 37.8812 17.3996 38.3312 17.3496C39.1112 17.2596 39.3312 17.7396 39.4812 18.3496C39.5801 19.0572 39.8957 19.7168 40.3845 20.2378C40.8733 20.7588 41.5114 21.1158 42.2112 21.2597C42.4432 21.3623 42.7055 21.3728 42.945 21.2893C43.1845 21.2057 43.3834 21.0343 43.5012 20.8096C43.8015 20.3007 44.0688 19.773 44.3012 19.2297C44.6443 17.7824 45.2808 16.421 46.1712 15.2297C46.2115 15.3428 46.2384 15.4603 46.2512 15.5797C46.1944 16.543 46.3796 17.5052 46.7901 18.3786C47.2006 19.252 47.8232 20.0087 48.6012 20.5797C48.7732 20.7401 48.9802 20.8584 49.2057 20.9252C49.4312 20.9921 49.6692 21.0057 49.9008 20.9649C50.1325 20.9242 50.3515 20.8303 50.5407 20.6906C50.73 20.5509 50.8842 20.3691 50.9912 20.1596C51.4512 19.1596 51.8212 18.0797 52.2512 17.0397C52.3712 16.7397 52.3412 16.1697 52.7712 16.2297C53.2012 16.2897 52.9912 16.8197 53.0012 17.1397C53.0012 18.3197 53.1712 19.4396 54.3712 20.0896C54.4767 20.1564 54.5604 20.2526 54.6119 20.3663C54.6634 20.48 54.6806 20.6063 54.6612 20.7297C54.6885 21.8193 54.7955 22.9056 54.9812 23.9797C55.0169 24.6031 55.2893 25.1895 55.7428 25.6188C56.1963 26.0482 56.7967 26.2881 57.4212 26.2897C58.3412 26.3697 58.9712 26.3696 59.1612 27.3796C58.3071 28.2196 57.2211 28.7847 56.0431 29.0021C54.865 29.2196 53.6489 29.0794 52.5512 28.5996C49.7659 27.6066 47.4094 25.6812 45.8812 23.1496C45.8164 23.0287 45.7393 22.9148 45.6512 22.8096C45.5612 22.6996 45.4312 22.5996 45.3012 22.7096C45.2644 22.7457 45.2363 22.7896 45.219 22.8381C45.2016 22.8866 45.1956 22.9385 45.2012 22.9897C45.2255 23.177 45.269 23.3613 45.3312 23.5397C46.2925 26.222 48.2028 28.4596 50.7012 29.8297C51.6089 30.3664 52.6468 30.6431 53.7012 30.6296C55.3759 30.6357 57.0136 30.1374 58.4012 29.1997C58.6284 29.2413 58.8313 29.3677 58.9688 29.5534C59.1062 29.7391 59.1678 29.9702 59.1412 30.1997C59.1141 30.9333 59.2366 31.6648 59.5012 32.3496C59.6514 32.968 60.0265 33.5083 60.5534 33.8651C61.0803 34.2219 61.7213 34.3697 62.3512 34.2796C62.6312 34.2796 62.9912 34.1496 62.9112 34.6896C62.6112 36.8396 62.4512 39.0096 61.9912 41.1496C61.5717 43.3929 61.0105 45.6073 60.3112 47.7796C59.5533 49.6103 58.6988 51.3995 57.7512 53.1397C57.2337 54.0863 56.7696 55.0611 56.3612 56.0596C55.8612 57.5796 55.2712 59.0596 54.7312 60.5896C54.3012 61.7896 53.9412 63.0097 53.6112 64.2297C53.1095 66.5115 52.4136 68.7463 51.5312 70.9096C50.8643 72.2748 50.0494 73.5625 49.1012 74.7496C48.4209 75.8358 47.5622 76.7993 46.5612 77.5996C44.9556 78.6472 43.0967 79.2415 41.1812 79.3196C40.5112 79.3196 40.0812 78.8196 39.4912 78.8196C38.5592 78.7375 37.6623 78.4248 36.8812 77.9096C35.2649 76.9558 33.7357 75.8616 32.3112 74.6397C30.0114 72.8216 27.9188 70.7558 26.0712 68.4797C24.1775 66.1699 22.5287 63.6699 21.1512 61.0197C20.1498 59.1753 19.2615 57.2718 18.4912 55.3196C17.2291 52.4161 16.3226 49.3707 15.7912 46.2496C15.7412 45.8896 15.6712 45.5596 16.1312 45.3696C16.4136 45.2693 16.6731 45.1137 16.8945 44.9117C17.1159 44.7098 17.2947 44.4656 17.4204 44.1936C17.5462 43.9216 17.6163 43.6272 17.6268 43.3278C17.6372 43.0283 17.5877 42.7297 17.4812 42.4497C16.8955 40.8415 16.4374 39.1897 16.1112 37.5097C15.7011 35.6583 15.8331 33.728 16.4912 31.9497C16.7712 31.2897 17.0812 31.0896 17.7112 31.3696V31.5197C17.7021 31.5624 17.7029 31.6067 17.7133 31.6491C17.7238 31.6916 17.7437 31.7311 17.7716 31.7647C17.7995 31.7984 17.8346 31.8253 17.8744 31.8435C17.9141 31.8616 17.9575 31.8706 18.0012 31.8696C18.0012 32.0796 18.1012 32.2496 18.3412 32.0296H18.6612L18.8512 31.8696ZM50.4412 43.2397C50.5087 42.748 50.4747 42.2477 50.3412 41.7697C50.2665 41.0034 50.0093 40.2661 49.5912 39.6196C49.3112 39.2896 48.9512 38.9697 48.7912 39.7597C48.5324 40.5699 48.1104 41.3186 47.5512 41.9596C47.2312 42.4196 46.9012 42.4796 46.4912 42.0696C45.8767 41.5642 45.3554 40.955 44.9512 40.2697C44.8492 40.0465 44.6791 39.8614 44.4652 39.741C44.2514 39.6206 44.0049 39.5711 43.7612 39.5996C41.3204 39.7457 38.9288 40.3495 36.7112 41.3796C34.9466 41.9956 33.3412 42.9965 32.0112 44.3096C31.753 44.5132 31.5823 44.8078 31.5339 45.1331C31.4856 45.4583 31.5633 45.7898 31.7512 46.0596C33.7512 49.5096 36.4112 52.0596 40.3612 53.2096C41.4459 53.5946 42.6385 53.5371 43.6812 53.0497C44.444 52.6727 45.159 52.2061 45.8112 51.6596C48.4112 49.5096 50.3012 46.9497 50.4412 43.2397ZM27.2212 28.8196C27.2212 28.1596 27.2212 27.4996 27.2212 26.8196C27.2212 26.6496 27.1712 26.4696 26.9712 26.4596C26.7712 26.4496 26.6812 26.5897 26.6412 26.7597C26.6012 26.9297 26.5312 27.2397 26.5012 27.4897C26.2954 29.2954 25.7092 31.037 24.7812 32.5996C23.4212 34.8596 21.6812 36.7196 18.7812 36.9696C18.5712 36.9696 18.2412 36.8296 18.1812 37.2096C18.1212 37.5896 18.4812 37.6596 18.7112 37.7096C19.447 37.9389 20.2241 38.004 20.9878 37.9003C21.7515 37.7967 22.4831 37.5268 23.1312 37.1097C24.4772 36.2051 25.563 34.9638 26.2805 33.5095C26.998 32.0551 27.3224 30.4382 27.2212 28.8196ZM41.2212 35.1196C41.203 34.9558 41.1346 34.8016 41.0254 34.6781C40.9163 34.5546 40.7716 34.4678 40.6112 34.4296C39.8658 34.2321 39.0797 34.2494 38.3436 34.4794C37.6076 34.7094 36.9515 35.1428 36.4512 35.7297C36.1512 36.1197 36.0312 36.6297 36.5912 36.7997C37.1512 36.9697 38.0112 37.1697 38.7012 37.4497C39.1512 37.5997 41.2712 35.5996 41.2512 35.1196H41.2212ZM29.5912 22.3996C29.5912 23.5196 30.0212 23.8697 30.8912 23.4497C31.7612 23.0297 32.6512 20.7597 32.3412 20.0097C32.312 19.917 32.2633 19.8316 32.1983 19.7593C32.1333 19.6871 32.0536 19.6296 31.9645 19.5907C31.8754 19.5519 31.7791 19.5326 31.6819 19.5341C31.5847 19.5357 31.489 19.558 31.4012 19.5996C30.9159 19.9087 30.5029 20.3189 30.1906 20.8021C29.8782 21.2853 29.6738 21.8302 29.5912 22.3996ZM59.7312 39.1496C59.6312 38.7996 59.9912 38.1497 59.3012 37.9897C58.6112 37.8297 58.3812 38.4697 58.1912 38.9897C57.8753 39.7764 57.6765 40.6052 57.6012 41.4497C57.6012 41.8197 57.6012 42.1796 58.0112 42.3396C58.4212 42.4996 58.6712 42.2097 58.8912 41.9197C59.4756 41.1175 59.7716 40.1413 59.7312 39.1496ZM28.5912 63.9396C28.2192 62.8292 27.7473 61.7548 27.1812 60.7297C27.0512 60.5997 26.9012 60.5297 26.7612 60.7297C26.4212 61.1097 25.9712 61.4996 26.1812 62.0696C26.4196 62.9376 26.8503 63.7407 27.4412 64.4197C27.6412 64.6197 27.7912 64.9197 28.1812 64.7297C28.3331 64.6692 28.4581 64.5561 28.5334 64.411C28.6087 64.266 28.6292 64.0986 28.5912 63.9396ZM41.1512 37.3696C41.1512 37.9896 41.1512 38.5796 41.8012 38.7096C41.9164 38.7389 42.0364 38.7441 42.1536 38.7247C42.2709 38.7053 42.3828 38.6618 42.4824 38.597C42.582 38.5321 42.6671 38.4473 42.7323 38.348C42.7975 38.2486 42.8414 38.1368 42.8612 38.0197C43.095 37.114 43.0175 36.156 42.6412 35.2997C42.4212 34.8397 42.1512 34.7696 41.8812 35.2096C41.439 35.8464 41.186 36.5952 41.1512 37.3696ZM20.3612 51.5996C20.4758 52.4409 20.8221 53.2338 21.3612 53.8897C21.5912 54.1197 21.8412 54.4297 22.1912 54.1997C22.3233 54.0979 22.4204 53.9575 22.4688 53.7979C22.5172 53.6383 22.5146 53.4676 22.4612 53.3096C22.3112 52.6496 22.1412 51.9896 22.0012 51.3096C21.9898 51.1952 21.9532 51.0846 21.8941 50.9859C21.835 50.8873 21.7548 50.8029 21.6592 50.7388C21.5636 50.6748 21.4551 50.6327 21.3413 50.6155C21.2275 50.5984 21.1114 50.6066 21.0012 50.6397C20.4712 50.7097 20.4412 51.1696 20.3612 51.5996ZM38.1612 24.1496C37.5712 24.0196 37.4812 24.4996 37.3812 24.9296C37.3361 25.7117 37.3763 26.4963 37.5012 27.2697C37.4925 27.3817 37.5271 27.4928 37.5977 27.5802C37.6684 27.6676 37.7698 27.7247 37.8812 27.7397C38.0013 27.7603 38.1249 27.7412 38.2332 27.6853C38.3415 27.6293 38.4286 27.5396 38.4812 27.4296C38.9472 26.6574 39.1605 25.7589 39.0912 24.8597C39.0969 24.7446 39.0746 24.6299 39.0261 24.5255C38.9776 24.421 38.9044 24.33 38.8129 24.2601C38.7214 24.1902 38.6142 24.1436 38.5007 24.1244C38.3872 24.1052 38.2706 24.1138 38.1612 24.1496ZM25.2912 41.4497C25.3411 40.7922 25.2278 40.1327 24.9612 39.5296C24.9103 39.3711 24.8023 39.2372 24.6581 39.1541C24.5139 39.0709 24.3439 39.0444 24.1812 39.0797C23.7912 39.1597 23.6812 39.4396 23.6512 39.8096C23.6331 40.3801 23.7178 40.9492 23.9012 41.4897C24.0512 42.0197 24.2512 42.6597 24.9012 42.5396C25.5512 42.4196 25.2112 41.7697 25.2912 41.4497ZM34.2212 38.7796C34.181 39.0783 34.181 39.381 34.2212 39.6796C34.3712 40.1596 34.6812 40.6096 35.2212 40.5696C35.7612 40.5296 35.8012 40.0396 35.8112 39.5696C35.7852 38.9712 35.6775 38.379 35.4912 37.8096C35.4768 37.7298 35.4467 37.6537 35.4025 37.5857C35.3584 37.5177 35.3011 37.4591 35.2341 37.4135C35.167 37.3679 35.0916 37.3361 35.0121 37.32C34.9326 37.3038 34.8507 37.3037 34.7712 37.3196C34.3212 37.3196 34.2212 37.6196 34.1812 37.9696C34.1412 38.3196 34.2212 38.5096 34.2212 38.7796ZM49.5112 34.1997V33.6997C49.5112 33.3097 49.5112 32.8896 48.9712 32.8696C48.4312 32.8496 48.2812 33.1496 48.1912 33.6296C47.9887 34.4304 48.1109 35.2787 48.5312 35.9897C48.6912 36.2497 48.7412 36.7296 49.1712 36.5996C49.3647 36.5275 49.5223 36.3824 49.6101 36.1955C49.698 36.0086 49.7091 35.7947 49.6412 35.5996C49.5419 35.1399 49.4983 34.6698 49.5112 34.1997ZM43.8912 62.5996C43.8012 62.3596 43.9812 61.7997 43.4712 61.6997C42.9612 61.5997 42.6912 62.0996 42.4712 62.5296C42.4179 62.7113 42.3943 62.9004 42.4012 63.0896C42.4092 63.4726 42.3723 63.8553 42.2912 64.2297C42.1812 64.6797 42.2912 65.1697 42.8312 65.2297C43.3712 65.2897 43.6212 64.8996 43.6912 64.4296C43.7612 63.9596 43.8312 63.3396 43.8912 62.5996ZM37.3212 61.0097C37.3212 60.1096 36.6912 59.5096 36.3212 58.7796C36.2879 58.6447 36.2038 58.5278 36.0864 58.4533C35.9691 58.3788 35.8275 58.3524 35.6912 58.3796C35.3412 58.4496 35.3212 58.7197 35.2912 59.0097C35.366 59.8412 35.6039 60.65 35.9912 61.3897C36.0191 61.4692 36.0626 61.5423 36.1192 61.6047C36.1759 61.6671 36.2444 61.7175 36.3209 61.753C36.3973 61.7884 36.4801 61.8081 36.5643 61.811C36.6486 61.8138 36.7325 61.7998 36.8112 61.7697C36.965 61.7248 37.099 61.6292 37.1916 61.4985C37.2842 61.3678 37.3299 61.2096 37.3212 61.0497V61.0097ZM38.0912 68.8597C37.848 68.1812 37.4705 67.5588 36.9812 67.0296C36.5112 66.4896 36.3312 66.7396 36.1512 67.2196C36.0784 67.7021 36.1518 68.1954 36.3622 68.6357C36.5725 69.076 36.9101 69.4431 37.3312 69.6896C37.8212 69.8296 38.1512 69.6596 38.0912 68.8996V68.8597ZM33.2212 66.0696C33.1052 65.3364 32.7982 64.6467 32.3312 64.0696C32.3019 64.015 32.262 63.9666 32.2138 63.9274C32.1657 63.8882 32.1103 63.859 32.0508 63.8413C31.9913 63.8236 31.9289 63.8179 31.8672 63.8245C31.8054 63.8311 31.7456 63.8498 31.6912 63.8796C31.5797 63.9338 31.4884 64.0222 31.4308 64.132C31.3732 64.2418 31.3523 64.3671 31.3712 64.4897C31.4244 65.2916 31.7822 66.0428 32.3712 66.5896C32.4473 66.6868 32.5515 66.7582 32.6696 66.794C32.7877 66.8297 32.914 66.8282 33.0312 66.7896C33.2712 66.6996 33.1912 66.4197 33.2212 66.1097V66.0696ZM42.6112 73.2896C42.6112 73.8896 42.9212 73.9197 43.3512 73.7297C43.6473 73.4837 43.889 73.1789 44.0611 72.8346C44.2333 72.4904 44.3321 72.1141 44.3512 71.7297C44.3465 71.6191 44.3113 71.5121 44.2495 71.4203C44.1877 71.3285 44.1018 71.2556 44.0012 71.2096C43.8966 71.168 43.7805 71.1653 43.6741 71.202C43.5676 71.2387 43.4779 71.3124 43.4212 71.4096C42.9668 71.9552 42.6848 72.6235 42.6112 73.3297V73.2896ZM54.6112 46.8796C54.6112 46.4696 54.6112 46.1297 54.2412 46.0396C54.0915 46.0015 53.9329 46.0215 53.7974 46.0958C53.6619 46.17 53.5596 46.2929 53.5112 46.4396C53.2109 47.046 53.031 47.7048 52.9812 48.3796C52.9761 48.5021 53.0144 48.6225 53.0895 48.7195C53.1645 48.8165 53.2714 48.8838 53.3912 48.9096C53.6412 48.9996 53.7912 48.8396 53.9312 48.6496C54.2881 48.132 54.5239 47.5408 54.6212 46.9197L54.6112 46.8796ZM55.8912 33.0197C55.8912 32.5797 55.7512 32.3297 55.4312 32.2297C55.3734 32.2071 55.3118 32.1962 55.2498 32.1975C55.1878 32.1989 55.1267 32.2126 55.07 32.2377C55.0133 32.2628 54.9621 32.2988 54.9194 32.3438C54.8767 32.3888 54.8433 32.4417 54.8212 32.4996C54.4379 33.1306 54.2532 33.8623 54.2912 34.5996C54.2912 34.7796 54.2912 34.9996 54.5112 35.0696C54.6048 35.0991 54.7052 35.0986 54.7985 35.0681C54.8917 35.0376 54.9731 34.9787 55.0312 34.8996C55.4544 34.3586 55.7516 33.73 55.9012 33.0596L55.8912 33.0197ZM28.1112 46.7397C28.031 47.2907 28.144 47.8525 28.4312 48.3297C28.5812 48.5597 28.7212 48.8297 29.0312 48.7997C29.1963 48.7875 29.3559 48.7346 29.4955 48.6455C29.6352 48.5565 29.7505 48.4342 29.8312 48.2896C30.0732 47.1971 29.9022 46.0536 29.3512 45.0797C29.0012 44.6597 28.7512 44.7697 28.4512 45.0797C28.2866 45.3197 28.1717 45.5902 28.1133 45.8753C28.0549 46.1604 28.0542 46.4543 28.1112 46.7397ZM47.3412 66.4897C47.4212 66.9097 47.2112 67.4097 47.6512 67.4897C48.0912 67.5697 48.1912 67.0896 48.3212 66.7896C48.6471 66.1752 48.7224 65.4584 48.5312 64.7896C48.4612 64.5797 48.4212 64.3496 48.1512 64.3196C47.8812 64.2896 47.7012 64.5397 47.6512 64.7697C47.5212 65.3897 47.4312 65.9897 47.3412 66.4897ZM52.9812 57.3297C53.007 56.9468 52.956 56.5626 52.8312 56.1997C52.6412 55.7497 52.5012 55.1996 51.8312 55.3096C51.558 55.3497 51.3077 55.4851 51.1247 55.6919C50.9417 55.8987 50.8377 56.1636 50.8312 56.4396C50.8312 56.7996 50.8312 57.1497 50.8312 57.5097C50.8312 58.6796 51.2212 59.3896 51.8312 59.3696C52.4412 59.3496 52.9812 58.6897 52.9812 57.3297ZM30.8812 30.7297C30.8112 30.3797 30.7412 29.9196 30.6312 29.4696C30.6312 29.2996 30.5112 29.0696 30.2812 29.0696C30.1703 29.0737 30.0631 29.1111 29.9739 29.1772C29.8846 29.2432 29.8175 29.3347 29.7812 29.4396C29.6314 29.9386 29.6314 30.4706 29.7812 30.9696C29.8712 31.4196 30.0112 31.9697 30.4912 31.8897C30.9712 31.8097 30.8212 31.2397 30.8712 30.7297H30.8812ZM47.9812 56.5197V55.9497C47.9812 55.6097 47.9812 55.2896 47.5112 55.2896C47.0412 55.2896 46.9012 55.5496 46.9012 55.9596V57.4296C46.9012 57.7296 47.0112 57.8897 47.3312 57.8897C47.6512 57.8897 47.9112 57.8896 47.9512 57.4996C47.9812 57.1739 47.9912 56.8466 47.9812 56.5197ZM54.4512 51.9797C54.4512 52.2997 54.4512 52.5596 54.6612 52.7096C54.7011 52.7383 54.7463 52.7587 54.7942 52.7697C54.8421 52.7807 54.8917 52.782 54.9401 52.7737C54.9885 52.7653 55.0347 52.7473 55.0761 52.7209C55.1175 52.6945 55.1532 52.66 55.1812 52.6196C55.4298 52.3646 55.625 52.0625 55.7555 51.7311C55.886 51.3998 55.9491 51.0457 55.9412 50.6896C55.947 50.579 55.9143 50.4697 55.8487 50.3804C55.7831 50.2911 55.6885 50.2272 55.5812 50.1997C55.4734 50.1674 55.3576 50.1749 55.2548 50.2207C55.152 50.2666 55.0692 50.3478 55.0212 50.4497C54.7202 50.9112 54.5256 51.4337 54.4512 51.9797ZM19.9812 42.5996C19.8821 42.0959 19.6587 41.625 19.3312 41.2297C19.0312 40.8297 18.7112 40.9397 18.5512 41.3897C18.3112 42.0897 18.7412 42.6196 19.0812 43.1496C19.146 43.2571 19.2487 43.3362 19.3691 43.3714C19.4895 43.4066 19.6188 43.3953 19.7312 43.3396C19.9812 43.1996 19.9812 42.9296 19.9812 42.5996ZM33.6612 55.4897C33.5818 54.9201 33.413 54.3666 33.1612 53.8496C33.1288 53.7439 33.0595 53.6534 32.9658 53.5946C32.8722 53.5358 32.7605 53.5128 32.6512 53.5296C32.5889 53.5367 32.5287 53.5566 32.4745 53.5883C32.4204 53.6199 32.3734 53.6625 32.3367 53.7134C32.3 53.7642 32.2743 53.8222 32.2613 53.8835C32.2483 53.9449 32.2483 54.0083 32.2612 54.0696C32.2834 54.671 32.4516 55.2578 32.7512 55.7796C32.797 55.8817 32.8771 55.9645 32.9775 56.0138C33.0779 56.0631 33.1924 56.0758 33.3012 56.0497C33.5912 55.9597 33.6612 55.7396 33.6612 55.4696V55.4897ZM27.5512 54.3897C27.589 53.9302 27.5346 53.4678 27.3912 53.0296C27.3787 52.9324 27.329 52.8437 27.2526 52.7822C27.1762 52.7207 27.0789 52.6911 26.9812 52.6997C26.8859 52.6954 26.7923 52.7252 26.7171 52.7839C26.6419 52.8426 26.5902 52.9262 26.5712 53.0197C26.4875 53.2507 26.4656 53.4995 26.5077 53.7416C26.5498 53.9836 26.6544 54.2105 26.8112 54.3996C26.9612 54.6396 27.0712 55.0696 27.3812 54.9996C27.6912 54.9296 27.5212 54.4696 27.5512 54.3696V54.3897ZM34.1712 30.6997C34.0912 30.4597 34.3812 29.8296 33.7512 29.8496C33.1212 29.8696 33.2312 30.4396 33.2512 30.8496C33.2602 31.0366 33.2938 31.2215 33.3512 31.3996C33.4012 31.5696 33.4012 31.8197 33.6712 31.7896C33.7952 31.7925 33.9155 31.7472 34.0068 31.6633C34.0981 31.5794 34.1535 31.4634 34.1612 31.3396C34.1812 31.1596 34.1712 30.9696 34.1712 30.6796V30.6997Z" fill="#A8D8DD"/>
<path d="M17.7117 31.3899C17.0817 31.1099 16.7716 31.3099 16.4916 31.9699C15.8335 33.7482 15.7016 35.6785 16.1117 37.5299C16.4379 39.21 16.896 40.8618 17.4817 42.4699C17.5882 42.75 17.6377 43.0485 17.6272 43.348C17.6168 43.6475 17.5466 43.9419 17.4209 44.2139C17.2951 44.4859 17.1163 44.73 16.8949 44.932C16.6735 45.1339 16.414 45.2896 16.1317 45.3899C15.6717 45.5799 15.7417 45.9099 15.7917 46.2699C16.323 49.391 17.2296 52.4363 18.4917 55.3399C19.262 57.292 20.1503 59.1956 21.1516 61.0399C22.5291 63.6901 24.1779 66.1902 26.0717 68.4999C27.9193 70.776 30.0119 72.8418 32.3117 74.6599C33.7361 75.8818 35.2654 76.976 36.8817 77.9299C37.6627 78.445 38.5596 78.7577 39.4916 78.8399C40.0816 78.8399 40.4917 79.3599 41.1817 79.3399C43.0991 79.2557 44.9581 78.6545 46.5617 77.5999C47.5874 76.7799 48.4637 75.7886 49.1516 74.6699C50.0999 73.4828 50.9147 72.195 51.5816 70.8299C52.464 68.6666 53.1599 66.4317 53.6617 64.1499C53.9917 62.9299 54.3517 61.7099 54.7817 60.5099C55.3217 58.9999 55.9117 57.5099 56.4117 55.9799C56.8201 54.9814 57.2841 54.0065 57.8017 53.0599C58.7492 51.3198 59.6037 49.5306 60.3616 47.6999C61.061 45.5276 61.6221 43.3131 62.0416 41.0699C62.5016 38.9299 62.6617 36.7599 62.9617 34.6099C63.0417 34.0699 62.6816 34.1699 62.4016 34.1999C61.7717 34.29 61.1308 34.1422 60.6039 33.7854C60.077 33.4285 59.7018 32.8883 59.5517 32.2699C59.287 31.5851 59.1645 30.8536 59.1917 30.1199C59.2183 29.8904 59.1566 29.6594 59.0192 29.4737C58.8818 29.288 58.6789 29.1615 58.4517 29.1199C58.6217 28.7499 59.0017 28.5999 59.2617 28.3299C59.5216 28.0599 59.6617 27.6399 59.1217 27.3999C58.9317 26.3999 58.3017 26.3999 57.3817 26.3099C56.7737 26.2995 56.1914 26.0635 55.7478 25.6476C55.3043 25.2318 55.0312 24.6659 54.9817 24.0599C54.7959 22.9858 54.689 21.8996 54.6617 20.8099C54.681 20.6866 54.6639 20.5603 54.6123 20.4465C54.5608 20.3328 54.4771 20.2367 54.3717 20.1699C53.1716 19.5199 53.0416 18.3999 53.0016 17.2199C53.0016 16.8999 53.2417 16.3699 52.7717 16.3099C52.3017 16.2499 52.3716 16.8199 52.2516 17.1199C51.8216 18.1199 51.4517 19.2199 50.9917 20.2399C50.8846 20.4494 50.7304 20.6311 50.5412 20.7708C50.352 20.9106 50.1329 21.0045 49.9013 21.0452C49.6696 21.0859 49.4316 21.0723 49.2061 21.0054C48.9806 20.9386 48.7737 20.8203 48.6017 20.6599C47.8237 20.0889 47.2011 19.3322 46.7906 18.4588C46.3801 17.5855 46.1948 16.6232 46.2516 15.6599C46.2388 15.5405 46.212 15.423 46.1717 15.3099C45.2812 16.5012 44.6448 17.8627 44.3017 19.3099C44.0692 19.8532 43.802 20.381 43.5016 20.8899C43.3838 21.1145 43.185 21.286 42.9455 21.3696C42.706 21.4531 42.4436 21.4425 42.2117 21.3399C41.5119 21.196 40.8737 20.8391 40.3849 20.3181C39.8961 19.797 39.5806 19.1374 39.4817 18.4299C39.3517 17.8199 39.1117 17.3399 38.3316 17.4299C37.8816 17.4799 37.7017 17.1799 37.5017 16.7999C36.7117 15.2399 37.0817 13.6499 37.2717 12.0599C37.2717 11.9799 37.3317 11.8999 37.3417 11.8199C37.3417 11.5899 37.4817 11.2499 37.1117 11.2299C36.7417 11.2099 36.9017 11.5499 36.8717 11.7499C36.7681 13.1304 36.4299 14.4831 35.8717 15.7499C35.618 16.1672 35.2699 16.5191 34.8554 16.7774C34.4409 17.0356 33.9716 17.193 33.4852 17.2367C32.9988 17.2805 32.509 17.2095 32.055 17.0294C31.6011 16.8493 31.1957 16.5652 30.8717 16.1999C30.3717 15.5699 30.1817 14.7899 29.5417 14.0199C29.4079 14.7729 29.3343 15.5353 29.3217 16.2999C29.2222 17.606 28.9289 18.8901 28.4517 20.1099C28.3729 20.3759 28.2333 20.6199 28.0441 20.8227C27.8548 21.0255 27.621 21.1815 27.3611 21.2785C27.1012 21.3755 26.8224 21.4107 26.5465 21.3815C26.2707 21.3522 26.0054 21.2593 25.7717 21.1099C25.3317 20.8599 25.2017 21.0299 25.1617 21.4799C25.0356 23.044 24.6362 24.5738 23.9817 25.9999C23.3217 27.3999 21.7817 27.7599 20.9016 26.5999C20.8212 26.4523 20.6859 26.3423 20.5249 26.2936C20.364 26.245 20.1904 26.2616 20.0417 26.3399C19.6717 26.5499 19.9217 26.8499 20.0417 27.1099C20.1596 27.3443 20.2073 27.6077 20.1789 27.8685C20.1505 28.1294 20.0473 28.3764 19.8817 28.5799C19.4681 29.1227 19.272 29.8002 19.3317 30.4799C19.3317 30.6999 19.2617 30.8599 19.0317 30.9099C18.9345 30.1437 18.9178 29.3695 18.9817 28.5999C19.0798 27.3733 19.4597 26.1858 20.0917 25.1299C20.3417 24.7299 20.7717 24.8999 21.0917 25.2199C21.4117 25.5399 21.5217 26.1599 22.2617 26.0199C23.0017 25.8799 23.4117 25.2799 23.7217 24.6299C24.1639 23.4545 24.3777 22.2055 24.3517 20.9499C24.4216 20.2699 24.3517 19.5799 24.3517 18.8899C24.3517 18.6499 24.3517 18.3299 24.6117 18.2699C24.8717 18.2099 25.0217 18.5599 25.1217 18.7899C25.2219 19.0442 25.2924 19.3093 25.3316 19.5799C25.3945 19.8605 25.5501 20.1118 25.7732 20.2932C25.9964 20.4746 26.2741 20.5756 26.5617 20.5799C27.0517 20.6299 27.2917 20.0799 27.4517 19.6299C27.4517 19.5299 27.4516 19.3899 27.5117 19.3099C28.8716 17.2499 28.6117 14.8899 28.7917 12.6199C28.7768 12.4268 28.7768 12.2329 28.7917 12.0399C28.9017 11.5899 29.0417 11.0399 29.5617 11.0399C30.0817 11.0399 30.1017 11.5799 30.2517 11.9499C30.4505 12.34 30.5534 12.772 30.5517 13.2099C30.4817 14.7699 31.6517 15.5699 32.6117 16.4799C32.7196 16.5702 32.8559 16.6197 32.9967 16.6197C33.1374 16.6197 33.2737 16.5702 33.3817 16.4799C33.6817 16.1399 34.2017 16.0299 34.3817 15.7099C34.9717 14.7699 35.9617 14.0499 36.1317 12.8399C36.2517 12.0299 36.5816 11.2699 36.6516 10.4399C36.7134 10.1448 36.8286 9.86351 36.9916 9.60991C37.0112 9.54305 37.0521 9.4844 37.1081 9.44288C37.164 9.40137 37.232 9.37926 37.3017 9.3799C37.5017 9.3799 37.5717 9.5599 37.5917 9.7299C37.6068 9.9196 37.6068 10.1102 37.5917 10.2999C37.5917 11.6299 37.4617 12.9599 37.5917 14.2999C37.5917 15.0299 37.9017 15.6799 38.0017 16.3799C38.0129 16.4565 38.0441 16.5288 38.0922 16.5895C38.1403 16.6501 38.2036 16.697 38.2756 16.7254C38.3476 16.7539 38.4259 16.7627 38.5024 16.7512C38.579 16.7397 38.6512 16.7082 38.7117 16.6599C39.4017 16.2699 39.5517 16.6599 39.6417 17.2199C39.7071 18.152 40.056 19.0418 40.6417 19.7699C40.7782 19.939 40.9481 20.0781 41.1409 20.1785C41.3336 20.2789 41.545 20.3385 41.7618 20.3535C41.9786 20.3685 42.1961 20.3387 42.4009 20.2658C42.6056 20.1929 42.7931 20.0785 42.9517 19.9299C43.3871 19.4714 43.727 18.9309 43.9517 18.3399C44.3717 17.4299 44.6917 16.4799 45.1917 15.5899C45.697 14.5415 45.8207 13.3497 45.5416 12.2199C45.5141 11.5485 45.4372 10.88 45.3117 10.2199C45.2833 10.147 45.2724 10.0684 45.2799 9.99046C45.2875 9.91256 45.3132 9.83753 45.355 9.77138C45.3969 9.70523 45.4536 9.64981 45.5208 9.6096C45.5879 9.5694 45.6636 9.54553 45.7417 9.5399C45.9923 9.50691 46.2461 9.57006 46.452 9.71663C46.6579 9.8632 46.8007 10.0823 46.8517 10.3299C46.9865 11.1898 47.0467 12.0596 47.0317 12.9299C46.9211 14.4135 46.9613 15.9044 47.1516 17.3799C47.1993 18.22 47.5596 19.012 48.1617 19.5999C48.3535 19.7569 48.5781 19.869 48.8189 19.9279C49.0598 19.9867 49.3108 19.9909 49.5534 19.94C49.7961 19.8892 50.0243 19.7847 50.2212 19.6341C50.4182 19.4835 50.5789 19.2907 50.6917 19.0699C50.901 18.5229 51.1622 17.9972 51.4716 17.4999C51.8214 16.8494 52.0517 16.1416 52.1516 15.4099C52.1589 15.3141 52.1857 15.2207 52.2306 15.1357C52.2755 15.0507 52.3373 14.9759 52.4124 14.9158C52.4874 14.8558 52.5741 14.8118 52.6668 14.7867C52.7596 14.7616 52.8566 14.7559 52.9517 14.7699C53.0415 14.7737 53.1296 14.7955 53.2108 14.834C53.292 14.8725 53.3646 14.927 53.4243 14.9942C53.484 15.0614 53.5296 15.1399 53.5584 15.225C53.5871 15.3102 53.5984 15.4003 53.5917 15.4899C53.6517 16.1799 53.5917 16.8599 53.5917 17.5499C53.5917 18.4299 53.8917 18.7699 54.7617 18.8699C55.0616 18.8699 55.1817 18.9399 55.1217 19.3099C55.0131 20.5899 55.05 21.8782 55.2317 23.1499C55.2784 23.4502 55.4266 23.7255 55.6516 23.9299C55.8471 24.0742 56.0034 24.2651 56.1064 24.4851C56.2094 24.7051 56.2559 24.9474 56.2417 25.1899C56.2378 25.2866 56.269 25.3814 56.3297 25.4568C56.3904 25.5322 56.4764 25.583 56.5716 25.5999C56.9242 25.6263 57.2775 25.5587 57.5954 25.4042C57.9134 25.2496 58.1847 25.0135 58.3817 24.7199C58.6317 24.0799 59.0416 23.9999 59.5716 24.4399C59.8575 24.7364 60.0725 25.0937 60.2007 25.4851C60.3288 25.8765 60.3668 26.2918 60.3117 26.6999C60.2767 28.6155 60.387 30.531 60.6417 32.4299C60.7917 33.1999 61.6417 33.3099 61.8517 33.9799C61.8517 34.0499 62.0816 33.9799 62.1217 33.8699C62.2717 33.4299 62.6217 33.4599 62.9217 33.6199C63.0849 33.6916 63.2237 33.8091 63.3213 33.9583C63.419 34.1074 63.4712 34.2816 63.4716 34.4599C63.4868 35.8828 63.4166 37.3054 63.2617 38.7199C63.1316 39.9399 62.8416 41.1399 62.6116 42.3299C62.3087 43.4052 61.9482 44.4633 61.5317 45.4999C60.9417 47.3999 60.1617 49.2199 59.4617 51.0799C58.853 52.8549 58.1005 54.5773 57.2117 56.2299C56.1526 58.2343 55.3208 60.3508 54.7317 62.5399C54.0417 64.8099 53.6117 67.1399 52.9517 69.4099C52.7132 70.3652 52.2734 71.2584 51.6617 72.0299C51.172 72.6367 50.7713 73.3101 50.4716 74.0299C49.4422 76.0023 47.9107 77.6684 46.0317 78.8599C45.1008 79.544 44.0111 79.98 42.8653 80.1269C41.7194 80.2739 40.555 80.1269 39.4817 79.6999C37.1702 78.9715 34.9993 77.8556 33.0617 76.3999C31.3221 75.0893 29.6963 73.6341 28.2017 72.0499C26.8317 70.5099 25.4916 68.9299 24.2617 67.2699C22.6366 65.1156 21.2139 62.8158 20.0117 60.3999C19.1417 58.6499 18.3017 56.8999 17.5717 55.0799C16.6817 52.8799 16.2117 50.5799 15.3717 48.3899C14.9551 47.2657 14.6209 46.1126 14.3717 44.9399C14.1717 44.0399 14.3717 43.9399 15.2717 44.1599C16.1717 44.3799 16.7017 43.8299 16.5917 42.9299C16.4189 41.419 16.0629 39.9348 15.5317 38.5099C15.1848 37.3874 14.9601 36.2307 14.8617 35.0599C14.7284 33.4899 15.1808 31.9262 16.1317 30.6699C16.3417 30.3199 16.7117 29.9499 17.1317 30.0999C17.5517 30.2499 17.7517 30.8899 17.7117 31.3899Z" fill="#D3E6ED"/>
<path d="M71.4414 7.14977C71.4072 7.45607 71.3401 7.75782 71.2414 8.04979C70.5714 9.74979 69.9114 11.4598 69.1814 13.1398C68.5414 14.6098 68.1014 14.6498 67.2514 13.3098C66.0786 11.6912 64.7813 10.1666 63.3714 8.74977C62.6514 7.93977 62.7414 7.98977 63.6214 7.30977C65.0937 6.2339 66.8133 5.54608 68.6214 5.30977C69.1397 5.24279 69.666 5.27675 70.1714 5.40978C71.1614 5.59978 71.4514 5.97977 71.4414 7.14977ZM68.6614 5.99977C67.2782 6.1839 65.9567 6.68716 64.8014 7.46977C64.6385 7.55622 64.5008 7.6833 64.4015 7.83867C64.3021 7.99404 64.2447 8.1724 64.2346 8.35652C64.2246 8.54064 64.2622 8.72425 64.344 8.88951C64.4258 9.05478 64.5489 9.19612 64.7014 9.29979C65.5711 10.1296 66.3861 11.0147 67.1414 11.9498C67.8214 12.7798 68.5514 12.6898 69.0714 11.7498C69.6678 10.6104 70.176 9.42688 70.5914 8.20976C71.1214 6.73976 70.5714 5.99977 68.6614 5.99977Z" fill="#2D262C"/>
<path d="M10.9012 14.6001C11.4096 14.6145 11.9101 14.7298 12.3736 14.9392C12.8371 15.1486 13.2544 15.4481 13.6012 15.8201C13.7506 15.9219 13.8555 16.0769 13.8945 16.2535C13.9336 16.43 13.9038 16.6148 13.8112 16.7701C12.9195 18.4365 12.1637 20.1721 11.5512 21.9601C11.2712 22.6801 11.0712 22.7101 10.5512 22.1601C9.41189 21.0054 8.61266 19.5592 8.24123 17.9801C7.73123 15.8401 8.75123 14.6001 10.9012 14.6001ZM10.9012 15.6001C9.37123 15.6001 8.62123 16.4001 8.82123 17.8301C9.02251 18.9474 9.53161 19.9864 10.2912 20.8301C10.5512 21.1401 11.0112 21.3101 11.2012 20.7601C11.6898 19.5133 12.2405 18.2918 12.8512 17.1001C12.9512 16.8901 13.0312 16.6601 12.8512 16.5001C12.2312 15.9901 11.6812 15.4501 10.9812 15.6001H10.9012Z" fill="#2D262C"/>
<path d="M18.0316 31.89C17.9879 31.891 17.9446 31.882 17.9048 31.8639C17.8651 31.8457 17.8299 31.8188 17.802 31.7851C17.7742 31.7515 17.7542 31.7119 17.7438 31.6695C17.7333 31.6271 17.7326 31.5828 17.7416 31.54C17.9816 31.6 18.0616 31.67 18.0316 31.89Z" fill="#D3E6ED"/>
<path d="M18.3815 32.0697C18.1415 32.2897 18.0815 32.0697 18.0415 31.9097C18.1915 31.8897 18.3215 31.9097 18.3815 32.0697Z" fill="#D3E6ED"/>
<path d="M18.8517 31.8701L18.7017 32.0301L18.8517 31.8701Z" fill="#D3E6ED"/>
<path d="M50.4413 43.2398C50.3013 46.9498 48.4413 49.5097 45.8113 51.6597C45.1591 52.2062 44.4441 52.6728 43.6813 53.0497C42.6386 53.5372 41.446 53.5947 40.3613 53.2097C36.3613 52.0897 33.7513 49.5097 31.7513 46.0597C31.5634 45.7898 31.4857 45.4584 31.534 45.1332C31.5824 44.8079 31.7531 44.5133 32.0113 44.3097C33.3413 42.9966 34.9467 41.9957 36.7113 41.3797C38.9289 40.3496 41.3205 39.7458 43.7613 39.5997C44.005 39.5712 44.2515 39.6207 44.4653 39.7411C44.6792 39.8615 44.8493 40.0466 44.9513 40.2698C45.3555 40.9551 45.8767 41.5643 46.4913 42.0697C46.9013 42.4797 47.2313 42.4197 47.5513 41.9597C48.1105 41.3187 48.5325 40.57 48.7913 39.7597C48.9513 38.9697 49.3113 39.2897 49.5913 39.6197C50.0094 40.2662 50.2666 41.0035 50.3413 41.7698C50.4748 42.2478 50.5088 42.7481 50.4413 43.2398ZM49.3013 40.2398L47.8813 42.5997C47.8266 42.7184 47.7455 42.8231 47.6442 42.9058C47.543 42.9885 47.4242 43.047 47.2969 43.0768C47.1697 43.1067 47.0373 43.1072 46.9098 43.0783C46.7823 43.0493 46.6632 42.9917 46.5613 42.9097C45.6859 42.4483 44.9529 41.7568 44.4413 40.9097C44.349 40.7445 44.2116 40.6088 44.0452 40.5185C43.8788 40.4282 43.6902 40.387 43.5013 40.3997C41.9418 40.4564 40.4003 40.7532 38.9313 41.2797C36.7257 41.9531 34.6617 43.0241 32.8413 44.4397C32.6922 44.5195 32.5631 44.6321 32.4637 44.7689C32.3643 44.9057 32.2972 45.0632 32.2673 45.2297C32.2375 45.3961 32.2458 45.5672 32.2915 45.73C32.3372 45.8928 32.4192 46.0431 32.5313 46.1697C33.4928 47.7986 34.7275 49.2498 36.1813 50.4597C36.6513 50.8297 36.9313 50.8797 37.3913 50.3897C39.2489 48.2507 41.7272 46.7441 44.4813 46.0797C45.9284 45.7839 47.4049 45.6564 48.8813 45.6997C49.2713 45.6997 49.5813 45.6997 49.6713 45.1997C50.0205 43.5547 49.8921 41.8442 49.3013 40.2698V40.2398ZM47.6313 46.1597C45.7213 45.9197 43.9313 46.6397 42.2313 47.1597C40.3976 47.9218 38.8119 49.1786 37.6513 50.7897C37.3713 51.1297 37.4913 51.3197 37.7913 51.5097C38.5016 51.9736 39.2864 52.3119 40.1113 52.5097C41.2213 52.7697 42.4013 53.1597 43.4713 52.5097C45.6713 51.1597 47.7713 49.6697 48.9013 47.1997C49.3713 46.1997 49.3713 46.1197 48.2913 46.1097L47.6313 46.1597Z" fill="#291B35"/>
<path d="M59.1216 27.4598C59.6616 27.6998 59.6416 28.0099 59.2615 28.3899C58.8815 28.7699 58.6216 28.8099 58.4516 29.1799C57.064 30.1176 55.4263 30.6159 53.7515 30.6099C52.6971 30.6233 51.6593 30.3466 50.7515 29.8099C48.2531 28.4398 46.3429 26.2023 45.3816 23.5199C45.3194 23.3415 45.2758 23.1572 45.2515 22.9699C45.2459 22.9187 45.252 22.8668 45.2693 22.8183C45.2866 22.7698 45.3148 22.7259 45.3516 22.6899C45.4816 22.5799 45.6116 22.6899 45.7016 22.7899C45.7897 22.895 45.8667 23.0089 45.9315 23.1299C47.4438 25.66 49.7817 27.5918 52.5516 28.5999C53.6366 29.081 54.84 29.2295 56.0095 29.0266C57.179 28.8237 58.262 28.2784 59.1216 27.4598Z" fill="#181722"/>
<path d="M27.2215 28.8197C27.3283 30.4398 27.0088 32.0595 26.2947 33.5175C25.5806 34.9756 24.4968 36.221 23.1515 37.1297C22.5034 37.5469 21.7718 37.8168 21.0081 37.9204C20.2444 38.0241 19.4673 37.959 18.7315 37.7297C18.5015 37.6797 18.1415 37.6097 18.2015 37.2297C18.2615 36.8497 18.5915 37.0098 18.8015 36.9898C21.6815 36.7398 23.4215 34.8797 24.8015 32.6197C25.7281 31.0601 26.3143 29.322 26.5215 27.5198C26.5215 27.2698 26.6115 27.0297 26.6615 26.7897C26.7115 26.5497 26.7915 26.4698 26.9915 26.4898C27.1915 26.5098 27.2415 26.6797 27.2415 26.8497C27.2315 27.4997 27.2215 28.1597 27.2215 28.8197Z" fill="#181722"/>
<path d="M41.2516 35.1199C41.2516 35.5999 39.1516 37.6199 38.7316 37.4499C38.0416 37.1699 37.3216 37.0199 36.6216 36.7999C35.9216 36.5799 36.1816 36.1199 36.4816 35.7299C36.9819 35.1431 37.638 34.7097 38.374 34.4796C39.1101 34.2496 39.8962 34.2324 40.6416 34.4299C40.802 34.468 40.9467 34.5548 41.0559 34.6783C41.1651 34.8019 41.2334 34.9561 41.2516 35.1199Z" fill="#181722"/>
<path d="M29.5914 22.3998C29.674 21.8303 29.8784 21.2854 30.1908 20.8022C30.5032 20.319 30.9161 19.9089 31.4014 19.5998C31.4892 19.5581 31.585 19.5358 31.6821 19.5343C31.7793 19.5327 31.8757 19.552 31.9647 19.5909C32.0538 19.6297 32.1335 19.6872 32.1985 19.7595C32.2635 19.8317 32.3122 19.9171 32.3414 20.0098C32.6514 20.7598 31.6614 23.0898 30.8914 23.4498C30.1214 23.8098 29.5814 23.5198 29.5914 22.3998Z" fill="#E7DBED"/>
<path d="M59.7315 39.1499C59.7719 40.1415 59.4759 41.1177 58.8915 41.9199C58.6715 42.2099 58.4415 42.5099 58.0115 42.3399C57.5815 42.1699 57.5715 41.8199 57.6015 41.4499C57.6768 40.6055 57.8756 39.7766 58.1915 38.9899C58.3815 38.4699 58.6115 37.8599 59.3015 37.9899C59.9915 38.1199 59.6315 38.7999 59.7315 39.1499Z" fill="#706EB1"/>
<path d="M28.5917 63.9398C28.6194 64.0928 28.5939 64.2508 28.5192 64.3872C28.4446 64.5237 28.3255 64.6305 28.1817 64.6898C27.7917 64.8798 27.6417 64.5798 27.4417 64.3798C26.8507 63.7009 26.4201 62.8977 26.1817 62.0298C25.9717 61.4598 26.4217 61.0298 26.7617 60.6898C26.9017 60.5298 27.0517 60.5998 27.1817 60.6898C27.75 61.7277 28.2219 62.8156 28.5917 63.9398Z" fill="#E7DBED"/>
<path d="M41.1514 37.3697C41.1862 36.5953 41.4393 35.8464 41.8814 35.2097C42.1514 34.7697 42.4214 34.8397 42.6414 35.2997C43.0178 36.1561 43.0952 37.114 42.8614 38.0197C42.8416 38.1369 42.7977 38.2487 42.7325 38.348C42.6673 38.4474 42.5823 38.5322 42.4827 38.597C42.3831 38.6619 42.2711 38.7053 42.1539 38.7247C42.0366 38.7441 41.9166 38.739 41.8014 38.7097C41.1914 38.5997 41.1414 37.9897 41.1514 37.3697Z" fill="#F9EF9F"/>
<path d="M20.3613 51.5998C20.4413 51.1698 20.4713 50.7097 21.0613 50.6597C21.1715 50.6267 21.2877 50.6185 21.4014 50.6357C21.5152 50.6528 21.6237 50.6949 21.7193 50.7589C21.8149 50.823 21.8951 50.9074 21.9542 51.0061C22.0134 51.1047 22.0499 51.2153 22.0613 51.3298C22.2013 51.9898 22.3713 52.6498 22.5213 53.3298C22.5747 53.4877 22.5774 53.6584 22.5289 53.818C22.4805 53.9776 22.3835 54.118 22.2513 54.2197C21.9013 54.4497 21.6513 54.1397 21.4213 53.9097C20.8571 53.2552 20.4897 52.4543 20.3613 51.5998Z" fill="#E7DBED"/>
<path d="M38.1617 24.15C38.2711 24.1141 38.3876 24.1055 38.5012 24.1247C38.6147 24.144 38.7219 24.1905 38.8134 24.2604C38.9049 24.3303 38.9781 24.4214 39.0266 24.5258C39.075 24.6303 39.0974 24.745 39.0917 24.86C39.161 25.7593 38.9477 26.6577 38.4817 27.43C38.429 27.5399 38.342 27.6297 38.2337 27.6856C38.1254 27.7416 38.0018 27.7607 37.8817 27.74C37.7703 27.725 37.6689 27.6679 37.5982 27.5805C37.5276 27.4931 37.493 27.382 37.5017 27.27C37.3768 26.4967 37.3365 25.712 37.3817 24.93C37.4817 24.5 37.5717 24.02 38.1617 24.15Z" fill="#E7DBED"/>
<path d="M25.2913 41.4497C25.2113 41.7697 25.5413 42.4497 24.9213 42.5397C24.3013 42.6297 24.0513 42.0197 23.9213 41.4897C23.7379 40.9492 23.6533 40.3801 23.6713 39.8097C23.6713 39.4397 23.8113 39.1597 24.2013 39.0797C24.364 39.0444 24.534 39.0709 24.6782 39.1541C24.8224 39.2373 24.9305 39.3712 24.9813 39.5297C25.241 40.1344 25.3475 40.7939 25.2913 41.4497Z" fill="#706EB1"/>
<path d="M34.2217 38.78C34.2217 38.51 34.2217 38.24 34.2217 37.97C34.2217 37.7 34.3617 37.32 34.8117 37.32C34.8912 37.3041 34.9731 37.3042 35.0526 37.3203C35.132 37.3364 35.2075 37.3682 35.2745 37.4138C35.3416 37.4594 35.3989 37.518 35.443 37.586C35.4872 37.654 35.5173 37.7301 35.5317 37.81C35.718 38.3793 35.8256 38.9715 35.8517 39.57C35.8517 40.04 35.8517 40.52 35.2617 40.57C34.6717 40.62 34.3817 40.1599 34.2617 39.6799C34.2214 39.3813 34.2214 39.0786 34.2617 38.78H34.2217Z" fill="#E7DBED"/>
<path d="M49.5112 34.1999C49.4999 34.6634 49.5435 35.1266 49.6412 35.5799C49.7091 35.7749 49.698 35.9888 49.6101 36.1757C49.5223 36.3626 49.3647 36.5077 49.1712 36.5799C48.7412 36.7099 48.6912 36.2299 48.5312 35.9699C48.111 35.2589 47.9887 34.4106 48.1912 33.6099C48.2812 33.1299 48.4712 32.8399 48.9712 32.8499C49.4712 32.8599 49.5112 33.2898 49.5112 33.6798V34.1999Z" fill="#E7DBED"/>
<path d="M43.8915 62.5997C43.8315 63.2997 43.8115 63.8697 43.7315 64.4397C43.6515 65.0097 43.3715 65.2997 42.8715 65.2397C42.3715 65.1797 42.2215 64.6797 42.3315 64.2397C42.4126 63.8653 42.4495 63.4827 42.4415 63.0997C42.4345 62.9105 42.4582 62.7214 42.5115 62.5397C42.6915 62.1097 42.9415 61.6097 43.5115 61.7097C44.0815 61.8097 43.8015 62.3997 43.8915 62.5997Z" fill="#E7DBED"/>
<path d="M37.3213 61.0496C37.3425 61.2098 37.3085 61.3723 37.2249 61.5105C37.1412 61.6486 37.013 61.7542 36.8613 61.8096C36.7826 61.8398 36.6987 61.8538 36.6145 61.851C36.5302 61.8481 36.4474 61.8284 36.371 61.793C36.2945 61.7575 36.226 61.7071 36.1693 61.6447C36.1127 61.5823 36.0692 61.5092 36.0413 61.4296C35.654 60.6899 35.4162 59.8812 35.3413 59.0496C35.3413 58.7596 35.3413 58.4896 35.7413 58.4196C35.8776 58.3924 36.0192 58.4188 36.1365 58.4933C36.2539 58.5678 36.338 58.6847 36.3713 58.8196C36.6913 59.5996 37.3413 60.1496 37.3213 61.0496Z" fill="#E7DBED"/>
<path d="M38.0914 68.8997C38.1514 69.6597 37.8214 69.8297 37.3314 69.6897C36.9102 69.4432 36.5727 69.0761 36.3624 68.6358C36.152 68.1955 36.0785 67.7022 36.1514 67.2197C36.3314 66.7397 36.5114 66.4897 36.9814 67.0297C37.4753 67.5707 37.853 68.2071 38.0914 68.8997Z" fill="#F9EF9F"/>
<path d="M33.2212 66.1101C33.2212 66.4201 33.2212 66.7001 32.9812 66.8301C32.864 66.8687 32.7377 66.8702 32.6196 66.8344C32.5015 66.7986 32.3973 66.7273 32.3212 66.6301C31.7322 66.0833 31.3744 65.3321 31.3212 64.5301C31.3023 64.4076 31.3232 64.2823 31.3808 64.1725C31.4384 64.0627 31.5297 63.9743 31.6412 63.9201C31.6956 63.8903 31.7554 63.8715 31.8172 63.865C31.8789 63.8584 31.9413 63.8641 32.0008 63.8817C32.0603 63.8994 32.1157 63.9287 32.1638 63.9679C32.212 64.0071 32.2519 64.0554 32.2812 64.1101C32.7662 64.6817 33.0906 65.372 33.2212 66.1101Z" fill="#706EB1"/>
<path d="M42.6112 73.3301C42.6906 72.6218 42.9796 71.9532 43.4412 71.4101C43.4979 71.3128 43.5876 71.2392 43.6941 71.2024C43.8005 71.1657 43.9166 71.1684 44.0212 71.2101C44.1218 71.2561 44.2077 71.329 44.2695 71.4208C44.3313 71.5125 44.3665 71.6196 44.3712 71.7301C44.3521 72.1146 44.2533 72.4908 44.0812 72.8351C43.909 73.1794 43.6673 73.4841 43.3712 73.7301C42.9212 73.9601 42.5812 73.9301 42.6112 73.3301Z" fill="#706EB1"/>
<path d="M54.6217 46.9199C54.5332 47.5542 54.3006 48.1596 53.9417 48.6899C53.8017 48.8799 53.6517 49.0399 53.4017 48.9499C53.2818 48.9241 53.1749 48.8568 53.0999 48.7598C53.0249 48.6628 52.9866 48.5424 52.9917 48.4199C53.0414 47.7451 53.2214 47.0863 53.5217 46.4799C53.5701 46.3332 53.6723 46.2103 53.8078 46.1361C53.9433 46.0618 54.1019 46.0418 54.2517 46.0799C54.6517 46.1699 54.6017 46.5099 54.6217 46.9199Z" fill="#E7DBED"/>
<path d="M55.9013 33.06C55.7603 33.7436 55.4663 34.3863 55.0413 34.94C54.9832 35.0191 54.9018 35.078 54.8085 35.1085C54.7153 35.1389 54.6148 35.1395 54.5213 35.11C54.2913 35.04 54.3313 34.82 54.3013 34.64C54.2633 33.9027 54.4479 33.171 54.8313 32.54C54.8534 32.4821 54.8868 32.4291 54.9295 32.3841C54.9722 32.3392 55.0234 32.3031 55.0801 32.278C55.1368 32.2529 55.1979 32.2393 55.2599 32.2379C55.3219 32.2365 55.3835 32.2475 55.4413 32.27C55.7613 32.37 55.9113 32.6 55.9013 33.06Z" fill="#F9EF9F"/>
<path d="M28.1115 46.74C28.0101 46.1795 28.1321 45.6016 28.4515 45.13C28.7515 44.77 29.0014 44.66 29.3514 45.13C29.9024 46.104 30.0734 47.2474 29.8314 48.34C29.7508 48.4846 29.6354 48.6069 29.4958 48.6959C29.3562 48.7849 29.1966 48.8379 29.0315 48.85C28.7215 48.85 28.5815 48.61 28.4315 48.38C28.1326 47.889 28.0191 47.3073 28.1115 46.74ZM28.4014 46.45V46.93C28.4014 47.45 28.5215 48.1 29.0415 48.11C29.5615 48.12 29.5915 47.43 29.6115 46.95C29.6315 46.7873 29.6315 46.6227 29.6115 46.46C29.4715 46.03 29.4715 45.39 28.8815 45.41C28.2915 45.43 28.4914 46.12 28.4014 46.45Z" fill="#D3E6ED"/>
<path d="M47.3413 66.4899C47.4313 65.9899 47.5213 65.3899 47.6513 64.8099C47.6513 64.5799 47.8413 64.3299 48.1513 64.3599C48.4613 64.3899 48.4613 64.6199 48.5313 64.8299C48.7225 65.4986 48.6472 66.2154 48.3213 66.8299C48.1913 67.1299 48.0813 67.6299 47.6513 67.5299C47.2213 67.4299 47.4213 66.9099 47.3413 66.4899Z" fill="#E7DBED"/>
<path d="M52.9816 57.3299C52.9816 58.6899 52.5916 59.3299 51.8716 59.3299C51.1516 59.3299 50.8716 58.6399 50.8716 57.4699C50.8716 57.1099 50.8716 56.7599 50.8716 56.3999C50.8781 56.1238 50.9821 55.8589 51.1651 55.6521C51.3481 55.4453 51.5983 55.3099 51.8716 55.2699C52.5116 55.1499 52.6516 55.7099 52.8716 56.1599C52.9883 56.5382 53.0257 56.9365 52.9816 57.3299ZM51.1716 57.2099C51.1716 57.7799 51.0816 58.3099 51.4616 58.7599C51.8416 59.2099 52.0416 59.1499 52.3416 58.7599C52.7277 57.8838 52.767 56.8938 52.4516 55.9899C52.1316 55.5099 51.8116 55.4799 51.4516 55.9099C51.0916 56.3399 51.2216 56.8199 51.1616 57.2099H51.1716Z" fill="#D3E6ED"/>
<path d="M30.8713 30.7298C30.8713 31.2398 30.8713 31.8298 30.4513 31.8898C30.0313 31.9498 29.8313 31.4198 29.7413 30.9698C29.5914 30.4708 29.5914 29.9388 29.7413 29.4398C29.7775 29.3349 29.8447 29.2434 29.934 29.1773C30.0232 29.1113 30.1303 29.0738 30.2413 29.0698C30.4713 29.0698 30.5513 29.2998 30.5913 29.4698C30.7313 29.9198 30.8013 30.3798 30.8713 30.7298Z" fill="#706EB1"/>
<path d="M47.9816 56.5201C48.0025 56.8531 48.0025 57.1871 47.9816 57.5201C47.9816 57.8701 47.6516 57.9001 47.3616 57.9101C47.0716 57.9201 46.9216 57.7501 46.9316 57.4501V55.9801C46.9316 55.5701 47.0616 55.3101 47.5416 55.3101C48.0216 55.3101 48.0216 55.6301 48.0116 55.9701V56.5401L47.9816 56.5201Z" fill="#F9EF9F"/>
<path d="M54.4516 51.9799C54.526 51.434 54.7207 50.9114 55.0216 50.4499C55.0696 50.3481 55.1525 50.2669 55.2552 50.221C55.358 50.1751 55.4738 50.1676 55.5816 50.1999C55.689 50.2275 55.7835 50.2913 55.8491 50.3806C55.9147 50.47 55.9474 50.5792 55.9416 50.6899C55.9469 51.0426 55.8824 51.3929 55.752 51.7207C55.6216 52.0484 55.4278 52.3472 55.1816 52.5999C55.1537 52.6403 55.1179 52.6747 55.0765 52.7012C55.0351 52.7276 54.9889 52.7455 54.9405 52.7539C54.8921 52.7623 54.8425 52.761 54.7946 52.75C54.7467 52.739 54.7015 52.7186 54.6616 52.6899C54.4016 52.5999 54.4516 52.2999 54.4516 51.9799Z" fill="#706EB1"/>
<path d="M19.9816 42.6001C19.9816 42.9501 19.9816 43.2201 19.7316 43.3401C19.6192 43.3957 19.49 43.4071 19.3696 43.3719C19.2492 43.3367 19.1464 43.2575 19.0816 43.1501C18.7416 42.6201 18.3116 42.0901 18.5516 41.3901C18.7116 40.9401 19.0316 40.8301 19.3316 41.2301C19.6591 41.6255 19.8825 42.0964 19.9816 42.6001Z" fill="#F9EF9F"/>
<path d="M33.6616 55.4698C33.6616 55.7398 33.5916 55.9598 33.3016 56.0298C33.1929 56.0559 33.0784 56.0432 32.978 55.9939C32.8775 55.9446 32.7975 55.8618 32.7516 55.7598C32.452 55.2379 32.2839 54.6511 32.2616 54.0498C32.2487 53.9884 32.2487 53.925 32.2617 53.8637C32.2747 53.8023 32.3004 53.7443 32.3371 53.6935C32.3739 53.6426 32.4208 53.6 32.475 53.5684C32.5291 53.5368 32.5893 53.5168 32.6516 53.5098C32.7609 53.4929 32.8726 53.516 32.9663 53.5747C33.0599 53.6335 33.1293 53.7241 33.1616 53.8298C33.4135 54.3468 33.5822 54.9002 33.6616 55.4698Z" fill="#706EB1"/>
<path d="M27.5516 54.3697C27.5516 54.4697 27.7416 54.9097 27.3816 54.9797C27.0216 55.0497 26.9616 54.6197 26.8116 54.3797C26.6549 54.1905 26.5503 53.9637 26.5082 53.7216C26.4661 53.4795 26.4879 53.2307 26.5716 52.9997C26.5906 52.9062 26.6424 52.8226 26.7175 52.764C26.7927 52.7053 26.8864 52.6754 26.9816 52.6797C27.0794 52.6711 27.1766 52.7007 27.253 52.7622C27.3294 52.8237 27.3791 52.9124 27.3916 53.0097C27.535 53.4478 27.5894 53.9102 27.5516 54.3697Z" fill="#F9EF9F"/>
<path d="M34.1716 30.6798C34.1716 30.9698 34.1716 31.1599 34.1716 31.3499C34.1639 31.4736 34.1086 31.5896 34.0172 31.6735C33.9259 31.7574 33.8056 31.8027 33.6816 31.7999C33.4116 31.7999 33.4116 31.5799 33.3616 31.4099C33.3043 31.2317 33.2707 31.0468 33.2616 30.8599C33.2616 30.4199 33.2016 29.8599 33.7616 29.8599C34.3216 29.8599 34.0916 30.4398 34.1716 30.6798Z" fill="#F9EF9F"/>
<path d="M68.6613 6C70.5713 6 71.1213 6.73999 70.5913 8.20999C70.1759 9.4271 69.6677 10.6106 69.0713 11.75C68.5513 12.69 67.8213 12.75 67.1413 11.95C66.386 11.015 65.571 10.1298 64.7013 9.30002C64.5488 9.19634 64.4257 9.055 64.3439 8.88974C64.2621 8.72448 64.2244 8.54087 64.2345 8.35675C64.2446 8.17263 64.302 7.99427 64.4013 7.8389C64.5007 7.68353 64.6384 7.55644 64.8013 7.47C65.9566 6.68739 67.2781 6.18413 68.6613 6Z" fill="#C38EBE"/>
<path d="M10.9815 15.6C11.7315 15.5 12.2815 16.04 12.8815 16.46C13.1115 16.62 13.0315 16.85 12.8815 17.06C12.2708 18.2517 11.7201 19.4732 11.2315 20.72C11.0415 21.27 10.5815 21.1 10.3215 20.79C9.56192 19.9463 9.05283 18.9073 8.85154 17.79C8.65154 16.35 9.40154 15.6 10.9815 15.6Z" fill="#C38EBE"/>
<path d="M49.3015 40.27C49.8942 41.8475 50.0226 43.5618 49.6715 45.21C49.5815 45.68 49.2715 45.72 48.8815 45.71C47.4051 45.6666 45.9286 45.7942 44.4815 46.09C41.7274 46.7543 39.2491 48.2609 37.3915 50.4C36.9315 50.89 36.6515 50.84 36.1815 50.47C34.7277 49.2601 33.493 47.8089 32.5315 46.18C32.4194 46.0534 32.3374 45.903 32.2917 45.7402C32.246 45.5774 32.2377 45.4064 32.2676 45.2399C32.2974 45.0735 32.3645 44.916 32.4639 44.7791C32.5633 44.6423 32.6924 44.5298 32.8415 44.45C34.677 43.0289 36.7583 41.9578 38.9815 41.29C40.4506 40.7635 41.992 40.4667 43.5515 40.41C43.7404 40.3973 43.929 40.4385 44.0954 40.5288C44.2618 40.6191 44.3992 40.7547 44.4915 40.92C45.0031 41.7671 45.7361 42.4586 46.6115 42.92C46.713 42.9923 46.8289 43.0416 46.9513 43.0646C47.0737 43.0876 47.1997 43.0838 47.3204 43.0534C47.4412 43.0229 47.5539 42.9666 47.6508 42.8884C47.7477 42.8101 47.8264 42.7117 47.8815 42.6L49.3015 40.27Z" fill="#C38EBE"/>
<path d="M47.6313 46.19H48.2913C49.3713 46.19 49.3713 46.25 48.9013 47.28C47.7713 49.75 45.6713 51.28 43.4713 52.59C42.4013 53.24 41.2213 52.85 40.1113 52.59C39.2864 52.3921 38.5016 52.0539 37.7913 51.59C37.4913 51.4 37.3713 51.21 37.6513 50.87C38.8119 49.2588 40.3976 48.0021 42.2313 47.24C43.9813 46.67 45.7213 45.95 47.6313 46.19Z" fill="#B177B1"/>
<path d="M28.4013 46.4497C28.4913 46.1197 28.1513 45.4497 28.8613 45.4497C29.5713 45.4497 29.4513 46.0697 29.5913 46.4997C29.6114 46.6624 29.6114 46.827 29.5913 46.9897C29.5913 47.4697 29.6513 48.1597 29.0213 48.1497C28.3913 48.1397 28.3813 47.4897 28.3813 46.9697L28.4013 46.4497Z" fill="#F9EF9F"/>
<path d="M51.1614 57.2098C51.2214 56.8198 51.0114 56.3399 51.3914 55.9299C51.7714 55.5199 52.1214 55.5299 52.3914 56.0099C52.7068 56.9138 52.6675 57.9038 52.2814 58.7799C51.9814 59.1499 51.6914 59.0999 51.4014 58.7799C51.1114 58.4599 51.1714 57.7798 51.1614 57.2098Z" fill="#E7DBED"/>
</svg>
