<svg width="479" height="61" viewBox="0 0 479 61" fill="none" xmlns="http://www.w3.org/2000/svg">
<path d="M42.0076 16.4C38.1076 12.15 31.8576 10.05 25.5076 10.05C17.7576 10.05 10.8076 13.3 10.8076 20.25C10.8076 32.35 35.5576 25.25 35.5576 35.8C35.5576 38.55 31.4576 40.45 27.8576 40.45C23.1576 40.45 16.3076 38.45 12.9576 35.35L9.10757 41.75C13.0576 45.1 20.2576 47.15 27.0076 47.15C35.3576 47.15 42.9576 43.95 42.9576 37.15C42.9576 25.5 17.6576 31.7 17.6576 21.8C17.6576 18.9 22.1576 16.85 25.6576 16.85C29.3076 16.85 34.9076 18.65 34.9076 23.6C34.9076 24.5 34.7076 25.5 34.2576 26.65L34.5576 26.85L42.0076 16.4ZM62.4041 46.5L69.0041 29.35L75.6541 46.5H82.0541L92.6541 19H84.6541L78.8541 36.05L73.0041 19H65.0041L68.4541 27.85L62.1041 44.6L53.4041 19H45.3541L56.0041 46.5H62.4041ZM95.0962 32.55C95.0962 42.1 103.296 47 110.346 47C115.596 47 120.296 44.65 123.296 40.95L118.196 36.45C116.446 38.9 113.896 40.15 110.596 40.15C105.846 40.15 103.246 36.8 102.746 33.15H124.446C124.346 23.55 117.896 18.1 110.346 18.1C103.346 18.1 95.0962 23 95.0962 32.55ZM102.696 32.1C102.596 27.9 105.296 23.65 110.696 23.65C114.996 23.65 117.696 27.9 117.696 32.1H102.696ZM127.811 32.55C127.811 42.1 136.011 47 143.061 47C148.311 47 153.011 44.65 156.011 40.95L150.911 36.45C149.161 38.9 146.611 40.15 143.311 40.15C138.561 40.15 135.961 36.8 135.461 33.15H157.161C157.061 23.55 150.611 18.1 143.061 18.1C136.061 18.1 127.811 23 127.811 32.55ZM135.411 32.1C135.311 27.9 138.011 23.65 143.411 23.65C147.711 23.65 150.411 27.9 150.411 32.1H135.411ZM167.576 11.05L163.726 19H159.076V20H163.726V37.6C163.726 43.35 168.526 46.8 173.526 46.8C174.876 46.8 176.276 46.55 177.576 46L185.076 36.85L184.726 36.25C182.726 39.25 179.126 41.2 176.176 41.2C173.476 41.2 171.276 39.6 171.276 35.75V20H182.476L182.426 19H171.276V11L167.576 11.05ZM208.113 19V23.35C207.763 31.7 205.513 40.85 200.513 40.85C195.663 40.85 195.163 37.5 195.163 32.05V19H187.563V34.35C187.563 38.9 188.563 42.1 190.713 43.95L185.863 50.35C185.863 54.55 190.463 58.55 198.313 58.55C208.913 58.55 215.663 53.15 215.663 42.65V31.95V19H208.113ZM208.113 42.9C208.113 49.05 203.813 51.4 199.513 51.4C195.113 51.4 190.663 48.95 190.663 45.55C190.663 45.1 190.763 44.6 190.913 44.15C192.463 45.4 194.563 46 197.263 46C203.763 46 206.913 37.35 208.113 29.45V32.5V42.9ZM251.958 46.5L260.308 23.3L268.808 46.5H275.058L288.058 11H280.008L271.558 35.15L262.958 11H255.858L259.808 21.8L252.108 43.4L240.808 11H232.758L245.758 46.5H251.958ZM291.006 13.45H299.406V12.45H291.006V13.45ZM291.456 32.4V40C291.456 45.1 294.556 46.1 299.906 46.1L305.506 38.3L305.306 38.1C304.506 39.15 303.056 39.8 301.806 39.8C300.306 39.8 299.056 39 299.056 37.1V19H291.456V32.4ZM313.523 11.05L309.673 19H305.023V20H309.673V37.6C309.673 43.35 314.473 46.8 319.473 46.8C320.823 46.8 322.223 46.55 323.523 46L331.023 36.85L330.673 36.25C328.673 39.25 325.073 41.2 322.123 41.2C319.423 41.2 317.223 39.6 317.223 35.75V20H328.423L328.373 19H317.223V11L313.523 11.05ZM332.01 32.55C332.01 42.1 340.21 47 347.26 47C352.51 47 357.21 44.65 360.21 40.95L354.86 36.25C353.11 38.65 350.81 39.9 347.51 39.9C342.21 39.9 339.56 36.25 339.56 32.55C339.56 28.85 342.21 25.15 347.51 25.15C349.61 25.15 351.81 26.3 351.81 28.7C351.81 29.85 351.31 31.25 350.06 32.95L350.21 33.2L360.21 24.05C357.31 20.3 352.61 18.1 347.26 18.1C340.26 18.1 332.01 23 332.01 32.55ZM372.7 46V42C373.1 33.45 375.75 23.6 380.85 23.6C385.7 23.6 386.25 26.95 386.25 32.4V39.65C386.25 39.75 386.25 39.85 386.25 39.95V40C386.25 45.1 389.4 46.1 394.7 46.1L400.35 38.3L400.15 38.1C399.3 39.15 397.9 39.8 396.6 39.8C395.15 39.8 393.85 39 393.85 37.1V30.1C393.85 22.3 390.85 18.45 384.05 18.45C377.4 18.45 373.95 27.9 372.7 36.1V8.5H365.1V46H372.7ZM423.347 19V23.35C422.997 31.7 420.747 40.85 415.747 40.85C410.897 40.85 410.397 37.5 410.397 32.05V19H402.797V34.35C402.797 38.9 403.797 42.1 405.947 43.95L401.097 50.35C401.097 54.55 405.697 58.55 413.547 58.55C424.147 58.55 430.897 53.15 430.897 42.65V31.95V19H423.347ZM423.347 42.9C423.347 49.05 419.047 51.4 414.747 51.4C410.347 51.4 405.897 48.95 405.897 45.55C405.897 45.1 405.997 44.6 406.147 44.15C407.697 45.4 409.797 46 412.497 46C418.997 46 422.147 37.35 423.347 29.45V32.5V42.9Z" fill="#F49CFE"/>
<path d="M38.8972 12.4C34.9972 8.15 28.7472 6.05 22.3972 6.05C14.6472 6.05 7.69722 9.3 7.69722 16.25C7.69722 28.35 32.4472 21.25 32.4472 31.8C32.4472 34.55 28.3472 36.45 24.7472 36.45C20.0472 36.45 13.1972 34.45 9.84722 31.35L5.99722 37.75C9.94722 41.1 17.1472 43.15 23.8972 43.15C32.2472 43.15 39.8472 39.95 39.8472 33.15C39.8472 21.5 14.5472 27.7 14.5472 17.8C14.5472 14.9 19.0472 12.85 22.5472 12.85C26.1972 12.85 31.7972 14.65 31.7972 19.6C31.7972 20.5 31.5972 21.5 31.1472 22.65L31.4472 22.85L38.8972 12.4ZM59.2937 42.5L65.8937 25.35L72.5437 42.5H78.9437L89.5437 15H81.5437L75.7437 32.05L69.8937 15H61.8937L65.3437 23.85L58.9937 40.6L50.2937 15H42.2437L52.8937 42.5H59.2937ZM91.9859 28.55C91.9859 38.1 100.186 43 107.236 43C112.486 43 117.186 40.65 120.186 36.95L115.086 32.45C113.336 34.9 110.786 36.15 107.486 36.15C102.736 36.15 100.136 32.8 99.6359 29.15H121.336C121.236 19.55 114.786 14.1 107.236 14.1C100.236 14.1 91.9859 19 91.9859 28.55ZM99.5859 28.1C99.4859 23.9 102.186 19.65 107.586 19.65C111.886 19.65 114.586 23.9 114.586 28.1H99.5859ZM124.701 28.55C124.701 38.1 132.901 43 139.951 43C145.201 43 149.901 40.65 152.901 36.95L147.801 32.45C146.051 34.9 143.501 36.15 140.201 36.15C135.451 36.15 132.851 32.8 132.351 29.15H154.051C153.951 19.55 147.501 14.1 139.951 14.1C132.951 14.1 124.701 19 124.701 28.55ZM132.301 28.1C132.201 23.9 134.901 19.65 140.301 19.65C144.601 19.65 147.301 23.9 147.301 28.1H132.301ZM164.466 7.05L160.616 15H155.966V16H160.616V33.6C160.616 39.35 165.416 42.8 170.416 42.8C171.766 42.8 173.166 42.55 174.466 42L181.966 32.85L181.616 32.25C179.616 35.25 176.016 37.2 173.066 37.2C170.366 37.2 168.166 35.6 168.166 31.75V16H179.366L179.316 15H168.166V7L164.466 7.05ZM205.003 15V19.35C204.653 27.7 202.403 36.85 197.403 36.85C192.553 36.85 192.053 33.5 192.053 28.05V15H184.453V30.35C184.453 34.9 185.453 38.1 187.603 39.95L182.753 46.35C182.753 50.55 187.353 54.55 195.203 54.55C205.803 54.55 212.553 49.15 212.553 38.65V27.95V15H205.003ZM205.003 38.9C205.003 45.05 200.703 47.4 196.403 47.4C192.003 47.4 187.553 44.95 187.553 41.55C187.553 41.1 187.653 40.6 187.803 40.15C189.353 41.4 191.453 42 194.153 42C200.653 42 203.803 33.35 205.003 25.45V28.5V38.9ZM248.847 42.5L257.197 19.3L265.697 42.5H271.947L284.947 7H276.897L268.447 31.15L259.847 7H252.747L256.697 17.8L248.997 39.4L237.697 7H229.647L242.647 42.5H248.847ZM287.896 9.45H296.296V8.45H287.896V9.45ZM288.346 28.4V36C288.346 41.1 291.446 42.1 296.796 42.1L302.396 34.3L302.196 34.1C301.396 35.15 299.946 35.8 298.696 35.8C297.196 35.8 295.946 35 295.946 33.1V15H288.346V28.4ZM310.413 7.05L306.563 15H301.913V16H306.563V33.6C306.563 39.35 311.363 42.8 316.363 42.8C317.713 42.8 319.113 42.55 320.413 42L327.913 32.85L327.563 32.25C325.563 35.25 321.963 37.2 319.013 37.2C316.313 37.2 314.113 35.6 314.113 31.75V16H325.313L325.263 15H314.113V7L310.413 7.05ZM328.9 28.55C328.9 38.1 337.1 43 344.15 43C349.4 43 354.1 40.65 357.1 36.95L351.75 32.25C350 34.65 347.7 35.9 344.4 35.9C339.1 35.9 336.45 32.25 336.45 28.55C336.45 24.85 339.1 21.15 344.4 21.15C346.5 21.15 348.7 22.3 348.7 24.7C348.7 25.85 348.2 27.25 346.95 28.95L347.1 29.2L357.1 20.05C354.2 16.3 349.5 14.1 344.15 14.1C337.15 14.1 328.9 19 328.9 28.55ZM369.589 42V38C369.989 29.45 372.639 19.6 377.739 19.6C382.589 19.6 383.139 22.95 383.139 28.4V35.65C383.139 35.75 383.139 35.85 383.139 35.95V36C383.139 41.1 386.289 42.1 391.589 42.1L397.239 34.3L397.039 34.1C396.189 35.15 394.789 35.8 393.489 35.8C392.039 35.8 390.739 35 390.739 33.1V26.1C390.739 18.3 387.739 14.45 380.939 14.45C374.289 14.45 370.839 23.9 369.589 32.1V4.5H361.989V42H369.589ZM420.237 15V19.35C419.887 27.7 417.637 36.85 412.637 36.85C407.787 36.85 407.287 33.5 407.287 28.05V15H399.687V30.35C399.687 34.9 400.687 38.1 402.837 39.95L397.987 46.35C397.987 50.55 402.587 54.55 410.437 54.55C421.037 54.55 427.787 49.15 427.787 38.65V27.95V15H420.237ZM420.237 38.9C420.237 45.05 415.937 47.4 411.637 47.4C407.237 47.4 402.787 44.95 402.787 41.55C402.787 41.1 402.887 40.6 403.037 40.15C404.587 41.4 406.687 42 409.387 42C415.887 42 419.037 33.35 420.237 25.45V28.5V38.9Z" fill="#A4DEE0"/>
<path d="M34.75 10.4C30.85 6.15 24.6 4.05 18.25 4.05C10.5 4.05 3.55 7.3 3.55 14.25C3.55 26.35 28.3 19.25 28.3 29.8C28.3 32.55 24.2 34.45 20.6 34.45C15.9 34.45 9.05 32.45 5.7 29.35L1.85 35.75C5.8 39.1 13 41.15 19.75 41.15C28.1 41.15 35.7 37.95 35.7 31.15C35.7 19.5 10.4 25.7 10.4 15.8C10.4 12.9 14.9 10.85 18.4 10.85C22.05 10.85 27.65 12.65 27.65 17.6C27.65 18.5 27.45 19.5 27 20.65L27.3 20.85L34.75 10.4ZM55.1465 40.5L61.7465 23.35L68.3965 40.5H74.7965L85.3965 13H77.3965L71.5965 30.05L65.7465 13H57.7465L61.1965 21.85L54.8465 38.6L46.1465 13H38.0965L48.7465 40.5H55.1465ZM87.8387 26.55C87.8387 36.1 96.0387 41 103.089 41C108.339 41 113.039 38.65 116.039 34.95L110.939 30.45C109.189 32.9 106.639 34.15 103.339 34.15C98.5887 34.15 95.9887 30.8 95.4887 27.15H117.189C117.089 17.55 110.639 12.1 103.089 12.1C96.0887 12.1 87.8387 17 87.8387 26.55ZM95.4387 26.1C95.3387 21.9 98.0387 17.65 103.439 17.65C107.739 17.65 110.439 21.9 110.439 26.1H95.4387ZM120.554 26.55C120.554 36.1 128.754 41 135.804 41C141.054 41 145.754 38.65 148.754 34.95L143.654 30.45C141.904 32.9 139.354 34.15 136.054 34.15C131.304 34.15 128.704 30.8 128.204 27.15H149.904C149.804 17.55 143.354 12.1 135.804 12.1C128.804 12.1 120.554 17 120.554 26.55ZM128.154 26.1C128.054 21.9 130.754 17.65 136.154 17.65C140.454 17.65 143.154 21.9 143.154 26.1H128.154ZM160.318 5.05L156.468 13H151.818V14H156.468V31.6C156.468 37.35 161.268 40.8 166.268 40.8C167.618 40.8 169.018 40.55 170.318 40L177.818 30.85L177.468 30.25C175.468 33.25 171.868 35.2 168.918 35.2C166.218 35.2 164.018 33.6 164.018 29.75V14H175.218L175.168 13H164.018V5L160.318 5.05ZM200.855 13V17.35C200.505 25.7 198.255 34.85 193.255 34.85C188.405 34.85 187.905 31.5 187.905 26.05V13H180.305V28.35C180.305 32.9 181.305 36.1 183.455 37.95L178.605 44.35C178.605 48.55 183.205 52.55 191.055 52.55C201.655 52.55 208.405 47.15 208.405 36.65V25.95V13H200.855ZM200.855 36.9C200.855 43.05 196.555 45.4 192.255 45.4C187.855 45.4 183.405 42.95 183.405 39.55C183.405 39.1 183.505 38.6 183.655 38.15C185.205 39.4 187.305 40 190.005 40C196.505 40 199.655 31.35 200.855 23.45V26.5V36.9ZM244.7 40.5L253.05 17.3L261.55 40.5H267.8L280.8 5H272.75L264.3 29.15L255.7 5H248.6L252.55 15.8L244.85 37.4L233.55 5H225.5L238.5 40.5H244.7ZM283.749 7.45H292.149V6.45H283.749V7.45ZM284.199 26.4V34C284.199 39.1 287.299 40.1 292.649 40.1L298.249 32.3L298.049 32.1C297.249 33.15 295.799 33.8 294.549 33.8C293.049 33.8 291.799 33 291.799 31.1V13H284.199V26.4ZM306.266 5.05L302.416 13H297.766V14H302.416V31.6C302.416 37.35 307.216 40.8 312.216 40.8C313.566 40.8 314.966 40.55 316.266 40L323.766 30.85L323.416 30.25C321.416 33.25 317.816 35.2 314.866 35.2C312.166 35.2 309.966 33.6 309.966 29.75V14H321.166L321.116 13H309.966V5L306.266 5.05ZM324.753 26.55C324.753 36.1 332.953 41 340.003 41C345.253 41 349.953 38.65 352.953 34.95L347.603 30.25C345.853 32.65 343.553 33.9 340.253 33.9C334.953 33.9 332.303 30.25 332.303 26.55C332.303 22.85 334.953 19.15 340.253 19.15C342.353 19.15 344.553 20.3 344.553 22.7C344.553 23.85 344.053 25.25 342.803 26.95L342.953 27.2L352.953 18.05C350.053 14.3 345.353 12.1 340.003 12.1C333.003 12.1 324.753 17 324.753 26.55ZM365.442 40V36C365.842 27.45 368.492 17.6 373.592 17.6C378.442 17.6 378.992 20.95 378.992 26.4V33.65C378.992 33.75 378.992 33.85 378.992 33.95V34C378.992 39.1 382.142 40.1 387.442 40.1L393.092 32.3L392.892 32.1C392.042 33.15 390.642 33.8 389.342 33.8C387.892 33.8 386.592 33 386.592 31.1V24.1C386.592 16.3 383.592 12.45 376.792 12.45C370.142 12.45 366.692 21.9 365.442 30.1V2.5H357.842V40H365.442ZM416.09 13V17.35C415.74 25.7 413.49 34.85 408.49 34.85C403.64 34.85 403.14 31.5 403.14 26.05V13H395.54V28.35C395.54 32.9 396.54 36.1 398.69 37.95L393.84 44.35C393.84 48.55 398.44 52.55 406.29 52.55C416.89 52.55 423.64 47.15 423.64 36.65V25.95V13H416.09ZM416.09 36.9C416.09 43.05 411.79 45.4 407.49 45.4C403.09 45.4 398.64 42.95 398.64 39.55C398.64 39.1 398.74 38.6 398.89 38.15C400.44 39.4 402.54 40 405.24 40C411.74 40 414.89 31.35 416.09 23.45V26.5V36.9Z" fill="#716FC3"/>
</svg>
