<svg width="1916" height="191" viewBox="0 0 1916 191" fill="none" xmlns="http://www.w3.org/2000/svg">
<g clip-path="url(#clip0_146_3864)">
<path d="M1916 19.0999L1852 38.1999C1788 57.2999 1660 95.4999 1532 101.886C1404 108.034 1276 82.9655 1148 66.8498C1020 50.7342 892 44.7654 764 63.6864C636 82.9654 508 127.134 380 149.636C252 171.9 124 171.9 60 171.9L-4 171.9L-3.99998 -0.000274663L60 -0.000269068C124 -0.000263473 252 -0.000252283 380 -0.000241093C508 -0.000229903 636 -0.000218713 764 -0.000207523C892 -0.000196332 1020 -0.000185142 1148 -0.000173952C1276 -0.000162762 1404 -0.000151572 1532 -0.000140382C1660 -0.000129192 1788 -0.000118002 1852 -0.000112407L1916 -0.000106812L1916 19.0999Z" fill="#A4DEE0" fill-opacity="0.16"/>
<g clip-path="url(#clip1_146_3864)">
<path d="M1916 125.246L1852 133.622C1788 141.684 1660 158.906 1532 179.493C1404 200.393 1276 225.442 1148 204.542C1020 183.955 892 116.635 764 79.2961C636 41.4875 508 33.6596 380 45.9494C252 58.7088 124 91.5858 60 108.572L-3.99999 125.246L-3.99998 -0.000274663L60 -0.000269068C124 -0.000263473 252 -0.000252283 380 -0.000241093C508 -0.000229903 636 -0.000218713 764 -0.000207523C892 -0.000196332 1020 -0.000185142 1148 -0.000173952C1276 -0.000162762 1404 -0.000151572 1532 -0.000140382C1660 -0.000129192 1788 -0.000118002 1852 -0.000112407L1916 -0.000106812L1916 125.246Z" fill="#A4DEE0" fill-opacity="0.16"/>
<g clip-path="url(#clip2_146_3864)">
<path d="M1916 225.443L1852 200.393C1788 175.344 1660 125.246 1532 91.8209C1404 58.709 1276 41.4876 1148 33.4249C1020 25.0491 892 25.0491 764 45.9495C636 66.5368 508 108.807 380 133.622C252 158.906 124 166.733 60 171.195L-4 175.344L-3.99998 -0.000183111L60 -0.000177515C124 -0.00017192 252 -0.00016073 380 -0.00014954C508 -0.00013835 636 -0.00012716 764 -0.00011597C892 -0.00010478 1020 -9.35896e-05 1148 -8.23995e-05C1276 -7.12094e-05 1404 -6.00193e-05 1532 -4.88291e-05C1660 -3.7639e-05 1788 -2.64489e-05 1852 -2.08538e-05L1916 -1.52588e-05L1916 225.443Z" fill="#A4DEE0" fill-opacity="0.16"/>
</g>
</g>
</g>
<defs>
<clipPath id="clip0_146_3864">
<rect width="1920" height="191" fill="white" transform="translate(1916 191) rotate(-180)"/>
</clipPath>
<clipPath id="clip1_146_3864">
<rect width="1920" height="250.492" fill="white" transform="translate(1916 250.492) rotate(-180)"/>
</clipPath>
<clipPath id="clip2_146_3864">
<rect width="1920" height="250.492" fill="white" transform="translate(1916 250.492) rotate(-180)"/>
</clipPath>
</defs>
</svg>
