<svg width="1920" height="191" viewBox="0 0 1920 191" fill="none" xmlns="http://www.w3.org/2000/svg">
<g clip-path="url(#clip0_127_8)">
<path d="M0 65.7541L64 57.3783C128 49.3156 256 32.0942 384 11.507C512 -9.39346 640 -34.4426 768 -13.5422C896 7.04507 1024 74.3647 1152 111.704C1280 149.512 1408 157.34 1536 145.05C1664 132.291 1792 99.4139 1856 82.4274L1920 65.7541V191H1856C1792 191 1664 191 1536 191C1408 191 1280 191 1152 191C1024 191 896 191 768 191C640 191 512 191 384 191C256 191 128 191 64 191H0V65.7541Z" fill="#A4DEE0" fill-opacity="0.16"/>
<g clip-path="url(#clip1_127_8)">
<path d="M0 -34.4426L64 -9.39344C128 15.6557 256 65.7541 384 99.1791C512 132.291 640 149.512 768 157.575C896 165.951 1024 165.951 1152 145.05C1280 124.463 1408 82.1926 1536 57.3783C1664 32.0943 1792 24.2664 1856 19.8045L1920 15.6557V191H1856C1792 191 1664 191 1536 191C1408 191 1280 191 1152 191C1024 191 896 191 768 191C640 191 512 191 384 191C256 191 128 191 64 191H0V-34.4426Z" fill="#A4DEE0" fill-opacity="0.16"/>
</g>
</g>
<defs>
<clipPath id="clip0_127_8">
<rect width="1920" height="250.492" fill="white" transform="translate(0 -59.4918)"/>
</clipPath>
<clipPath id="clip1_127_8">
<rect width="1920" height="250.492" fill="white" transform="translate(0 -59.4918)"/>
</clipPath>
</defs>
</svg>
