<svg width="1920" height="287" viewBox="0 0 1920 287" fill="none" xmlns="http://www.w3.org/2000/svg">
<g clip-path="url(#clip0_143_7)">
<path d="M0 286.268L64 248.069C128 210.228 256 133.294 384 114.507C512 95.7208 640 133.294 768 138.393C896 143.134 1024 114.507 1152 114.507C1280 114.507 1408 143.134 1536 143.134C1664 143.134 1792 114.507 1856 100.194L1920 85.8804V286.268H1856C1792 286.268 1664 286.268 1536 286.268C1408 286.268 1280 286.268 1152 286.268C1024 286.268 896 286.268 768 286.268C640 286.268 512 286.268 384 286.268C256 286.268 128 286.268 64 286.268H0Z" fill="#F49CFE" fill-opacity="0.2"/>
<g clip-path="url(#clip1_143_7)">
<path d="M0 57.2534L64 81.1389C128 104.667 256 152.974 384 157.447C512 161.92 640 124.348 768 104.935C896 85.8802 1024 85.8802 1152 100.194C1280 114.507 1408 143.134 1536 147.875C1664 152.974 1792 133.293 1856 124.079L1920 114.507V286.268H1856C1792 286.268 1664 286.268 1536 286.268C1408 286.268 1280 286.268 1152 286.268C1024 286.268 896 286.268 768 286.268C640 286.268 512 286.268 384 286.268C256 286.268 128 286.268 64 286.268H0V57.2534Z" fill="#F49CFE" fill-opacity="0.2"/>
</g>
</g>
<defs>
<clipPath id="clip0_143_7">
<rect width="1920" height="286.268" fill="white"/>
</clipPath>
<clipPath id="clip1_143_7">
<rect width="1920" height="286.268" fill="white"/>
</clipPath>
</defs>
</svg>
