<svg width="1920" height="239" viewBox="0 0 1920 239" fill="none" xmlns="http://www.w3.org/2000/svg">
<g clip-path="url(#clip0_146_3846)">
<path d="M1920 -0.477432L1856 31.3504C1792 62.8801 1664 126.983 1536 142.636C1408 158.289 1280 126.983 1152 122.734C1024 118.784 896 142.636 768 142.636C640 142.636 512 118.784 384 118.784C256 118.784 128 142.636 64 154.562L0 166.488V-0.477432L64 -0.477432C128 -0.477432 256 -0.477432 384 -0.477432C512 -0.477432 640 -0.477432 768 -0.477432C896 -0.477432 1024 -0.477432 1152 -0.477432C1280 -0.477432 1408 -0.477432 1536 -0.477432C1664 -0.477432 1792 -0.477432 1856 -0.477432H1920Z" fill="#F49CFE" fill-opacity="0.2"/>
<g clip-path="url(#clip1_146_3846)">
<path d="M1920 190.34L1856 170.439C1792 150.835 1664 110.584 1536 106.857C1408 103.131 1280 134.437 1152 150.611C1024 166.488 896 166.488 768 154.562C640 142.636 512 118.784 384 114.833C256 110.584 128 126.983 64 134.66L0 142.636V-0.477631L64 -0.477631C128 -0.477631 256 -0.477631 384 -0.477631C512 -0.477631 640 -0.477631 768 -0.477631C896 -0.477631 1024 -0.477631 1152 -0.477631C1280 -0.477631 1408 -0.477631 1536 -0.477631C1664 -0.477631 1792 -0.477631 1856 -0.477631H1920V190.34Z" fill="#F49CFE" fill-opacity="0.2"/>
</g>
</g>
<defs>
<clipPath id="clip0_146_3846">
<rect width="1920" height="238.522" fill="white" transform="translate(1920 238.045) rotate(-180)"/>
</clipPath>
<clipPath id="clip1_146_3846">
<rect width="1920" height="238.522" fill="white" transform="translate(1920 238.045) rotate(-180)"/>
</clipPath>
</defs>
</svg>
