<svg width="1920" height="278" viewBox="0 0 1920 278" fill="none" xmlns="http://www.w3.org/2000/svg">
<path d="M0 166.8L64 157.504C128 148.556 256 129.444 384 129.704C512 129.444 640 148.556 768 152.9C896 157.244 1024 148.556 1152 152.9C1280 157.244 1408 176.356 1536 189.996C1664 204.156 1792 212.844 1856 217.796L1920 222.4V278H1856C1792 278 1664 278 1536 278C1408 278 1280 278 1152 278C1024 278 896 278 768 278C640 278 512 278 384 278C256 278 128 278 64 278H0V166.8Z" fill="#716FC3" fill-opacity="0.06"/>
<path d="M0 111.2L64 129.704C128 148.556 256 185.044 384 189.996C512 194.6 640 166.8 768 171.404C896 176.356 1024 212.844 1152 222.4C1280 231.956 1408 212.844 1536 194.6C1664 176.356 1792 157.244 1856 148.296L1920 139V278H1856C1792 278 1664 278 1536 278C1408 278 1280 278 1152 278C1024 278 896 278 768 278C640 278 512 278 384 278C256 278 128 278 64 278H0V111.2Z" fill="#716FC3" fill-opacity="0.06"/>
<path d="M0 194.6L64 171.404C128 148.556 256 101.644 384 115.804C512 129.444 640 204.156 768 231.696C896 259.756 1024 240.644 1152 222.4C1280 204.156 1408 185.044 1536 189.996C1664 194.6 1792 222.4 1856 236.3L1920 250.2V278H1856C1792 278 1664 278 1536 278C1408 278 1280 278 1152 278C1024 278 896 278 768 278C640 278 512 278 384 278C256 278 128 278 64 278H0V194.6Z" fill="#716FC3" fill-opacity="0.06"/>
</svg>
