<svg width="1920" height="288" viewBox="0 0 1920 288" fill="none" xmlns="http://www.w3.org/2000/svg">
<path d="M0 57.6L64 91.17C128 125.1 256 191.7 384 201.6C512 211.5 640 162.9 768 139.23C896 115.2 1024 115.2 1152 100.8C1280 86.4 1408 57.6 1536 81.63C1664 105.3 1792 182.7 1856 220.77L1920 259.2V0H1856C1792 0 1664 0 1536 0C1408 0 1280 0 1152 0C1024 0 896 0 768 0C640 0 512 0 384 0C256 0 128 0 64 0H0V57.6Z" fill="#716FC3" fill-opacity="0.06"/>
<path d="M0 144H64C128 144 256 144 384 158.4C512 172.8 640 201.6 768 220.77C896 240.3 1024 249.3 1152 220.77C1280 191.7 1408 125.1 1536 91.17C1664 57.6 1792 57.6 1856 57.6H1920V0H1856C1792 0 1664 0 1536 0C1408 0 1280 0 1152 0C1024 0 896 0 768 0C640 0 512 0 384 0C256 0 128 0 64 0H0V144Z" fill="#716FC3" fill-opacity="0.06"/>
<path d="M0 172.8L64 182.43C128 191.7 256 211.5 384 196.83C512 182.7 640 134.1 768 115.2C896 96.3 1024 105.3 1152 124.83C1280 144 1408 172.8 1536 158.4C1664 144 1792 86.4 1856 57.6L1920 28.8V0H1856C1792 0 1664 0 1536 0C1408 0 1280 0 1152 0C1024 0 896 0 768 0C640 0 512 0 384 0C256 0 128 0 64 0H0V172.8Z" fill="#716FC3" fill-opacity="0.06"/>
</svg>
